<svg width="32" height="32" viewBox="0 0 32 32" fill="none" xmlns="http://www.w3.org/2000/svg">
<g id="Outlined/Invest">
<g id="Union">
<path fill-rule="evenodd" clip-rule="evenodd" d="M26 3C24.3431 3 23 4.34315 23 6C23 6.44021 23.0948 6.85828 23.2651 7.2349L17.9572 11.7263C17.4318 11.2736 16.7479 11 16 11C15.0015 11 14.1169 11.4878 13.5716 12.2382L8.98249 10.3261C8.99406 10.219 9 10.1102 9 10C9 8.34315 7.65685 7 6 7C4.34315 7 3 8.34315 3 10C3 11.6569 4.34315 13 6 13C6.82391 13 7.57024 12.6679 8.11242 12.1302L13.0047 14.1686C13.0921 15.747 14.3997 17 16 17C17.6569 17 19 15.6569 19 14C19 13.8293 18.9857 13.6619 18.9584 13.499L24.6524 8.681C25.0576 8.88508 25.5154 9 26 9C27.6569 9 29 7.65685 29 6C29 4.34315 27.6569 3 26 3ZM25 6C25 5.44772 25.4477 5 26 5C26.5523 5 27 5.44772 27 6C27 6.55228 26.5523 7 26 7C25.4477 7 25 6.55228 25 6ZM5 10C5 9.44772 5.44772 9 6 9C6.55228 9 7 9.44772 7 10C7 10.5523 6.55228 11 6 11C5.44772 11 5 10.5523 5 10ZM16 13C15.4477 13 15 13.4477 15 14C15 14.5523 15.4477 15 16 15C16.5523 15 17 14.5523 17 14C17 13.4477 16.5523 13 16 13Z" fill="white"/>
<path fill-rule="evenodd" clip-rule="evenodd" d="M3 18C3 16.3431 4.34315 15 6 15C7.65685 15 9 16.3431 9 18V28C9 28.5523 8.55228 29 8 29H4C3.44772 29 3 28.5523 3 28V18ZM6 17C5.44772 17 5 17.4477 5 18V27H7V18C7 17.4477 6.55228 17 6 17Z" fill="white"/>
<path fill-rule="evenodd" clip-rule="evenodd" d="M16 19C14.3431 19 13 20.3431 13 22V28C13 28.5523 13.4477 29 14 29H18C18.5523 29 19 28.5523 19 28V22C19 20.3431 17.6569 19 16 19ZM15 22C15 21.4477 15.4477 21 16 21C16.5523 21 17 21.4477 17 22V27H15V22Z" fill="white"/>
<path fill-rule="evenodd" clip-rule="evenodd" d="M23 14C23 12.3431 24.3431 11 26 11C27.6569 11 29 12.3431 29 14V28C29 28.5523 28.5523 29 28 29H24C23.4477 29 23 28.5523 23 28V14ZM26 13C25.4477 13 25 13.4477 25 14V27H27V14C27 13.4477 26.5523 13 26 13Z" fill="white"/>
</g>
</g>
</svg>
