<svg width="32" height="32" viewBox="0 0 32 32" fill="none" xmlns="http://www.w3.org/2000/svg">
<g id="Outlined/Fog">
<g id="Union">
<path d="M12.9285 21.3714C12.7234 21.8842 12.1414 22.1336 11.6286 21.9285C11.1158 21.7234 10.8664 21.1414 11.0715 20.6286C11.509 19.5349 12.9522 17 16 17C19.0478 17 20.491 19.5349 20.9285 20.6286C21.1336 21.1414 20.8842 21.7234 20.3714 21.9285C19.8586 22.1336 19.2766 21.8842 19.0715 21.3714C18.709 20.4651 17.7522 19 16 19C14.2478 19 13.291 20.4651 12.9285 21.3714Z" fill="black"/>
<path d="M14 12C14 13.1046 13.1046 14 12 14C10.8954 14 10 13.1046 10 12C10 10.8954 10.8954 10 12 10C13.1046 10 14 10.8954 14 12Z" fill="black"/>
<path d="M20 14C21.1046 14 22 13.1046 22 12C22 10.8954 21.1046 10 20 10C18.8954 10 18 10.8954 18 12C18 13.1046 18.8954 14 20 14Z" fill="black"/>
<path fill-rule="evenodd" clip-rule="evenodd" d="M16 3C8.8203 3 3 8.8203 3 16C3 23.1797 8.8203 29 16 29C23.1797 29 29 23.1797 29 16C29 8.8203 23.1797 3 16 3ZM5 16C5 9.92487 9.92487 5 16 5C22.0751 5 27 9.92487 27 16C27 22.0751 22.0751 27 16 27C9.92487 27 5 22.0751 5 16Z" fill="black"/>
</g>
</g>
</svg>
