<svg width="30" height="30" viewBox="0 0 30 30" fill="none" xmlns="http://www.w3.org/2000/svg">
<g id="thumb-down">
<path id="thumb-down_2" fill-rule="evenodd" clip-rule="evenodd" d="M5.625 17.5C3.89911 17.5 2.5 16.1009 2.5 14.375V8.12501C2.5 6.39912 3.89911 5.00001 5.625 5.00001H7.5C8.19036 5.00001 8.75 5.55965 8.75 6.25001V16.25C8.75 16.9404 8.19036 17.5 7.5 17.5H5.625ZM6.25 7.50001H5.625C5.27982 7.50001 5 7.77983 5 8.12501V14.375C5 14.7202 5.27982 15 5.625 15H6.25V7.50001ZM11.25 18.75C10.4496 17.9496 10 16.8641 10 15.7322L9.99999 7.5C9.99999 6.11929 11.1193 5 12.5 5L22.2099 5.00001C23.8659 5.00001 25.3259 6.08626 25.8017 7.67245L27.3375 12.6875C27.4415 13.0343 27.5 13.3879 27.5 13.75C27.5 15.8046 25.8046 17.5 23.75 17.5H22.5C21.1193 17.5 20 18.6193 20 20V20.85C20 22.6533 18.6963 24.1911 16.9175 24.4875L13.9555 24.9875C13.8876 24.9988 13.8188 25 13.75 25C13.0596 25 12.5 24.4404 12.5 23.75V21.7678C12.5 20.6359 12.0504 19.5504 11.25 18.75ZM15 21.9875C15 22.0009 15.0011 22.0143 15.0033 22.0274C15.0253 22.1602 15.1508 22.25 15.2836 22.228L16.5065 22.025C17.0798 21.9295 17.5 21.4312 17.5 20.85V20C17.5 17.2386 19.7386 15 22.5 15H23.75C24.4239 15 25 14.4537 25 13.7799C25 13.6611 24.9716 13.543 24.9374 13.4292L23.4072 8.39082C23.2485 7.86209 22.7619 7.50001 22.2099 7.50001L13 7.5C12.7238 7.5 12.5 7.72386 12.5 8L12.5 15.7322C12.5 16.2011 12.6862 16.6507 13.0178 16.9822C14.287 18.2514 15 20.1926 15 21.9875Z" fill="white"/>
</g>
</svg>
