<svg width="32" height="32" viewBox="0 0 32 32" fill="none" xmlns="http://www.w3.org/2000/svg">
<g id="Outlined/Gift">
<path id="Union" fill-rule="evenodd" clip-rule="evenodd" d="M8 3C7.67856 3 7.37671 3.15452 7.18876 3.41529C7.00081 3.67606 6.94967 4.01128 7.05132 4.31623L8.13962 7.58114C8.31295 8.10112 8.56606 8.578 8.88263 9H5C4.44772 9 4 9.44772 4 10V14C4 14.5523 4.44772 15 5 15H6V28C6 28.5523 6.44772 29 7 29H25C25.5523 29 26 28.5523 26 28V15H27C27.5523 15 28 14.5523 28 14V10C28 9.44772 27.5523 9 27 9H23.1174C23.4339 8.578 23.687 8.10113 23.8604 7.58115L24.9487 4.31623C25.0503 4.01128 24.9992 3.67606 24.8112 3.41529C24.6233 3.15452 24.3214 3 24 3H20C18.3644 3 16.9122 3.78534 16 4.9995C15.0878 3.78534 13.6356 3 12 3H8ZM17 11H26V13H17V11ZM15 11H6V13H15V11ZM15 15H8V27H15V15ZM17 27H24V15H17V27ZM15 7.98988C14.9945 6.33768 13.6535 5 12 5H9.38743L10.037 6.94868C10.4453 8.17371 11.5917 9 12.883 9H15L15 7.98988ZM21.963 6.94869C21.5547 8.17371 20.4082 9 19.117 9H17L17 7.98989C17.0054 6.33768 18.3465 5 20 5H22.6126L21.963 6.94869Z" fill="white"/>
</g>
</svg>
