<svg width="25" height="24" viewBox="0 0 25 24" fill="none" xmlns="http://www.w3.org/2000/svg">
<g id="24x24/delete">
<path id="delete" fill-rule="evenodd" clip-rule="evenodd" d="M12.5 14.0112C13.0515 14.0112 13.4985 14.4582 13.4985 15.0097L13.4985 20.4873C13.4985 21.0388 13.0515 21.4859 12.5 21.4859C11.9485 21.4859 11.5015 21.0388 11.5015 20.4873L11.5015 15.0097C11.5015 14.4582 11.9485 14.0112 12.5 14.0112ZM4.01262 12.9985C3.46115 12.9985 3.0141 12.5514 3.0141 12C3.0141 11.4485 3.46115 11.0014 4.01262 11.0014L11.5015 11.0014L11.5015 3.51258C11.5015 2.96111 11.9485 2.51406 12.5 2.51406C13.0515 2.51406 13.4985 2.96111 13.4985 3.51258L13.4985 11.0014L20.9874 11.0014C21.5388 11.0014 21.9859 11.4485 21.9859 12C21.9859 12.5514 21.5388 12.9985 20.9874 12.9985H4.01262Z" fill="#1E386B"/>
</g>
</svg>
