<svg width="25" height="24" viewBox="0 0 25 24" fill="none" xmlns="http://www.w3.org/2000/svg">
<g id="24 / time / alarm">
<path id="icon" fill-rule="evenodd" clip-rule="evenodd" d="M6.50699 2.70712L5.09277 1.29291L1.59277 4.79291L3.00699 6.20712L6.50699 2.70712ZM19.507 1.29291L23.007 4.79291L21.5928 6.20712L18.0928 2.70712L19.507 1.29291ZM12.2999 22C6.77703 22 2.29988 17.5229 2.29988 12C2.29988 6.47717 6.77703 2.00001 12.2999 2.00001C17.8227 2.00001 22.2999 6.47717 22.2999 12C22.2999 17.5229 17.8227 22 12.2999 22ZM12.2999 20C16.7182 20 20.2999 16.4183 20.2999 12C20.2999 7.58174 16.7182 4.00001 12.2999 4.00001C7.8816 4.00001 4.29988 7.58174 4.29988 12C4.29988 16.4183 7.8816 20 12.2999 20ZM17.2999 11H13.2999V6.00001H11.2999V13H17.2999V11Z" fill="#FF647C"/>
</g>
</svg>
