<svg width="24" height="16" viewBox="-3.5 0 24 16" fill="none" xmlns="http://www.w3.org/2000/svg">
<g id="16 / paperclip">
<path id="icon" fill-rule="evenodd" clip-rule="evenodd" d="M9.1532 2.60796L3.64309 7.95674C2.22296 9.33529 2.22296 11.5704 3.64309 12.9489C5.06323 14.3275 7.36572 14.3275 8.78586 12.9489L15.0306 6.88698L16.5 8.31332L10.2552 14.3753C8.02357 16.5416 4.40537 16.5416 2.17373 14.3753C-0.0579102 12.209 -0.0579102 8.6967 2.17373 6.5304L7.68383 1.18162C9.30685 -0.393873 11.9383 -0.393873 13.5613 1.18162C15.1843 2.75711 15.1843 5.31149 13.5613 6.88698L8.05117 12.2358C7.03679 13.2204 5.39215 13.2204 4.37777 12.2358C3.36339 11.2511 3.36339 9.65459 4.37777 8.66991L9.88788 3.32113L11.3572 4.74747L5.84713 10.0963C5.64426 10.2932 5.64426 10.6125 5.84713 10.8094C6.05001 11.0064 6.37894 11.0064 6.58181 10.8094L12.0919 5.46064C12.9034 4.6729 12.9034 3.39571 12.0919 2.60796C11.2804 1.82021 9.9647 1.82021 9.1532 2.60796Z" fill="black"/>
</g>
</svg>
