<svg width="24" height="16" viewBox="-3.5 0 24 16" fill="none" xmlns="http://www.w3.org/2000/svg">
<g id="16 / pencil">
<path id="icon" fill-rule="evenodd" clip-rule="evenodd" d="M11.5 1C12.0288 1 12.4869 1.20949 12.8544 1.57991L14.9217 3.64718C15.2924 4.01786 15.5 4.47274 15.5 5C15.5 5.52385 15.294 6.06728 14.9217 6.43959L7.39021 13.9675C6.86661 14.5715 6.12438 14.9426 5.2564 15.0016H2.5H1.5V14.0016L1.50325 11.1647C1.56698 10.3758 1.93373 9.64229 2.48196 9.15991L10.0609 1.58101C10.4328 1.20718 10.9754 1 11.5 1ZM3.85157 10.6161C3.64601 10.7979 3.51885 11.0522 3.5 11.2452V13.0025L5.18578 13.004C5.45369 12.9851 5.70307 12.8604 5.92749 12.6054L10.3093 8.22354L8.27751 6.19172L3.85157 10.6161ZM9.69197 4.77776L11.7235 6.80933L13.4895 5.04339L11.4582 3.01212L9.69197 4.77776Z" fill="#1E386B"/>
</g>
</svg>
