<svg width="25" height="24" viewBox="0 0 25 24" fill="none" xmlns="http://www.w3.org/2000/svg">
<g id="vuesax/outline/folder-cloud">
<g id="folder-cloud">
<path id="Vector" d="M9.5 22.75H7.5C3.09 22.75 1.75 21.41 1.75 17V7C1.75 2.59 3.09 1.25 7.5 1.25H9C10.75 1.25 11.3 1.82 12 2.75L13.5 4.75C13.83 5.19 13.88 5.25 14.5 5.25H17.5C21.91 5.25 23.25 6.59 23.25 11V13C23.25 13.41 22.91 13.75 22.5 13.75C22.09 13.75 21.75 13.41 21.75 13V11C21.75 7.43 21.08 6.75 17.5 6.75H14.5C13.22 6.75 12.8 6.30999 12.3 5.64999L10.8 3.64999C10.28 2.95999 10.12 2.75 9 2.75H7.5C3.92 2.75 3.25 3.43 3.25 7V17C3.25 20.57 3.92 21.25 7.5 21.25H9.5C9.91 21.25 10.25 21.59 10.25 22C10.25 22.41 9.91 22.75 9.5 22.75Z" fill="#1E386B"/>
<path id="Vector_2" d="M19.8403 22.81C19.8303 22.81 19.8202 22.81 19.8102 22.81H14.2502C12.5802 22.69 11.7402 21.41 11.7402 20.19C11.7402 19.21 12.2902 18.18 13.3502 17.76C13.1302 16.51 13.4503 15.35 14.2803 14.48C15.3003 13.41 16.9402 12.98 18.3602 13.41C19.6002 13.79 20.4902 14.77 20.8602 16.13C21.9102 16.45 22.7403 17.28 23.0803 18.41C23.4803 19.72 23.1102 21.06 22.1202 21.92C21.5202 22.49 20.7003 22.81 19.8403 22.81ZM14.2902 19.07C13.5302 19.14 13.2502 19.71 13.2502 20.19C13.2502 20.67 13.5302 21.25 14.3102 21.31H19.8203C20.3003 21.35 20.7803 21.13 21.1403 20.81C21.7903 20.24 21.8302 19.43 21.6602 18.85C21.4902 18.27 20.9903 17.62 20.1503 17.51C19.8203 17.47 19.5602 17.22 19.5002 16.89C19.2802 15.54 18.5202 15.04 17.9302 14.85C17.0502 14.58 16.0102 14.86 15.3802 15.52C14.9502 15.97 14.5302 16.78 15.0002 18.07C15.1402 18.46 14.9402 18.89 14.5502 19.03C14.4602 19.06 14.3702 19.07 14.2902 19.07Z" fill="#1E386B"/>
</g>
</g>
</svg>
