<svg width="25" height="24" viewBox="0 0 25 24" fill="none" xmlns="http://www.w3.org/2000/svg">
<g id="delete">
<path id="delete_2" fill-rule="evenodd" clip-rule="evenodd" d="M13.9221 13.4221C14.3121 13.0322 14.9443 13.0322 15.3343 13.4221L19.2075 17.2954C19.5975 17.6854 19.5975 18.3176 19.2075 18.7075C18.8176 19.0975 18.1854 19.0975 17.7954 18.7075L13.9221 14.8343C13.5322 14.4443 13.5322 13.8121 13.9221 13.4221ZM7.20457 18.7075C6.81463 19.0975 6.1824 19.0975 5.79246 18.7075C5.40251 18.3176 5.40251 17.6854 5.79246 17.2954L11.0879 12L5.79246 6.70457C5.40251 6.31463 5.40251 5.6824 5.79246 5.29246C6.1824 4.90251 6.81463 4.90251 7.20457 5.29246L12.5 10.5879L17.7954 5.29246C18.1854 4.90251 18.8176 4.90251 19.2075 5.29246C19.5975 5.6824 19.5975 6.31463 19.2075 6.70457L7.20457 18.7075Z" fill="#1E386B"/>
</g>
</svg>
