<svg width="25" height="24" viewBox="0 0 25 24" fill="none" xmlns="http://www.w3.org/2000/svg">
<path d="M9.67035 15.58C9.48035 15.58 9.29035 15.51 9.14035 15.36C8.85035 15.07 8.85035 14.59 9.14035 14.3L14.8004 8.63999C15.0904 8.34999 15.5704 8.34999 15.8604 8.63999C16.1504 8.92999 16.1504 9.40998 15.8604 9.69998L10.2004 15.36C10.0604 15.51 9.86035 15.58 9.67035 15.58Z" fill="#1E386B"/>
<path d="M15.3304 15.58C15.1404 15.58 14.9504 15.51 14.8004 15.36L9.14035 9.69998C8.85035 9.40998 8.85035 8.92999 9.14035 8.63999C9.43035 8.34999 9.91035 8.34999 10.2004 8.63999L15.8604 14.3C16.1504 14.59 16.1504 15.07 15.8604 15.36C15.7104 15.51 15.5204 15.58 15.3304 15.58Z" fill="#1E386B"/>
<path d="M15.5 22.75H9.5C4.07 22.75 1.75 20.43 1.75 15V9C1.75 3.57 4.07 1.25 9.5 1.25H15.5C20.93 1.25 23.25 3.57 23.25 9V15C23.25 20.43 20.93 22.75 15.5 22.75ZM9.5 2.75C4.89 2.75 3.25 4.39 3.25 9V15C3.25 19.61 4.89 21.25 9.5 21.25H15.5C20.11 21.25 21.75 19.61 21.75 15V9C21.75 4.39 20.11 2.75 15.5 2.75H9.5Z" fill="#1E386B"/>
</svg>
