<svg width="25" height="24" viewBox="0 0 25 24" fill="none" xmlns="http://www.w3.org/2000/svg">
<path d="M15.5 22.75H9.5C4.07 22.75 1.75 20.43 1.75 15V9C1.75 3.57 4.07 1.25 9.5 1.25H11.5C11.91 1.25 12.25 1.59 12.25 2C12.25 2.41 11.91 2.75 11.5 2.75H9.5C4.89 2.75 3.25 4.39 3.25 9V15C3.25 19.61 4.89 21.25 9.5 21.25H15.5C20.11 21.25 21.75 19.61 21.75 15V13C21.75 12.59 22.09 12.25 22.5 12.25C22.91 12.25 23.25 12.59 23.25 13V15C23.25 20.43 20.93 22.75 15.5 22.75Z" fill="#1E386B"/>
<path d="M9.00032 17.69C8.39032 17.69 7.83032 17.47 7.42032 17.07C6.93032 16.58 6.72032 15.87 6.83032 15.12L7.26032 12.11C7.34032 11.53 7.72032 10.78 8.13032 10.37L16.0103 2.49C18.0003 0.499998 20.0203 0.499998 22.0103 2.49C23.1003 3.58 23.5903 4.69 23.4903 5.8C23.4003 6.7 22.9203 7.58 22.0103 8.48L14.1303 16.36C13.7203 16.77 12.9703 17.15 12.3903 17.23L9.38032 17.66C9.25032 17.69 9.12032 17.69 9.00032 17.69ZM17.0703 3.55L9.19032 11.43C9.00032 11.62 8.78032 12.06 8.74032 12.32L8.31032 15.33C8.27032 15.62 8.33032 15.86 8.48032 16.01C8.63032 16.16 8.87032 16.22 9.16032 16.18L12.1703 15.75C12.4303 15.71 12.8803 15.49 13.0603 15.3L20.9403 7.42C21.5903 6.77 21.9303 6.19 21.9803 5.65C22.0403 5 21.7003 4.31 20.9403 3.54C19.3403 1.94 18.2403 2.39 17.0703 3.55Z" fill="#1E386B"/>
<path d="M20.3496 9.83C20.2796 9.83 20.2096 9.82 20.1496 9.8C17.5196 9.06 15.4296 6.97 14.6896 4.34C14.5796 3.94 14.8096 3.53 15.2096 3.41C15.6096 3.3 16.0196 3.53 16.1296 3.93C16.7296 6.06 18.4196 7.75 20.5496 8.35C20.9496 8.46 21.1796 8.88 21.0696 9.28C20.9796 9.62 20.6796 9.83 20.3496 9.83Z" fill="#1E386B"/>
</svg>
