<svg width="23" height="22" viewBox="0 0 23 22" fill="none" xmlns="http://www.w3.org/2000/svg">
<g id="24 / chatting / comment-plus">
<path id="icon" fill-rule="evenodd" clip-rule="evenodd" d="M11.5792 16.5L5.99967 19.9873V16.5H4.16634C3.15382 16.5 2.33301 15.6792 2.33301 14.6667V3.66671C2.33301 2.65419 3.15382 1.83337 4.16634 1.83337H18.833C19.8455 1.83337 20.6663 2.65419 20.6663 3.66671V14.6667C20.6663 15.6792 19.8455 16.5 18.833 16.5H11.5792ZM7.83301 16.6795L11.0534 14.6667H18.833V3.66671H4.16634V14.6667H7.83301V16.6795ZM10.583 5.50004V8.25004H7.83301V10.0834H10.583V12.8334H12.4163V10.0834H15.1663V8.25004H12.4163V5.50004H10.583Z" fill="#1E386B"/>
</g>
</svg>
