<svg width="25" height="24" viewBox="0 0 25 24" fill="none" xmlns="http://www.w3.org/2000/svg">
<g id="24 / time / calendar-dates">
<path id="icon" fill-rule="evenodd" clip-rule="evenodd" d="M8.5 6H6.5V5H4.5V8H20.5V5H18.5V6H16.5V5H8.5V6ZM20.5 10H4.5V20H20.5V10ZM16.5 3H8.5V2H6.5V3H4.5C3.39543 3 2.5 3.89543 2.5 5V20C2.5 21.1046 3.39543 22 4.5 22H20.5C21.6046 22 22.5 21.1046 22.5 20V5C22.5 3.89543 21.6046 3 20.5 3H18.5V2H16.5V3ZM7.5 14V12H9.5V14H7.5ZM11.5 14H13.5V12H11.5V14ZM15.5 14V12H17.5V14H15.5ZM7.5 16V18H9.5V16H7.5ZM13.5 18H11.5V16H13.5V18Z" fill="#9299A2"/>
</g>
</svg>
