<svg width="25" height="25" viewBox="0 0 25 25" fill="none" xmlns="http://www.w3.org/2000/svg">
<g id="24 / basic / more-vertical">
<path id="icon" fill-rule="evenodd" clip-rule="evenodd" d="M10.5 5.45177C10.5 6.56395 11.3954 7.46555 12.5 7.46555C13.6046 7.46555 14.5 6.56395 14.5 5.45177C14.5 4.33959 13.6046 3.43799 12.5 3.43799C11.3954 3.43799 10.5 4.33959 10.5 5.45177ZM12.5 14.5138C11.3954 14.5138 10.5 13.6122 10.5 12.5C10.5 11.3878 11.3954 10.4862 12.5 10.4862C13.6046 10.4862 14.5 11.3878 14.5 12.5C14.5 13.6122 13.6046 14.5138 12.5 14.5138ZM12.5 21.562C11.3954 21.562 10.5 20.6604 10.5 19.5482C10.5 18.4361 11.3954 17.5345 12.5 17.5345C13.6046 17.5345 14.5 18.4361 14.5 19.5482C14.5 20.6604 13.6046 21.562 12.5 21.562Z" fill="#1E386B"/>
</g>
</svg>
