<svg width="25" height="24" viewBox="0 0 25 24" fill="none" xmlns="http://www.w3.org/2000/svg">
<g id="24 / basic / eye">
<path id="icon" fill-rule="evenodd" clip-rule="evenodd" d="M12.4995 4C15.2271 4 17.8352 5.43062 20.2658 7.78115C21.095 8.58305 21.8452 9.43916 22.5056 10.2956C22.9041 10.8124 23.1871 11.219 23.342 11.4612L23.6866 12L23.342 12.5388C23.1871 12.781 22.9041 13.1876 22.5056 13.7044C21.8452 14.5608 21.095 15.417 20.2658 16.2189C17.8352 18.5694 15.2271 20 12.4995 20C9.77199 20 7.16386 18.5694 4.73324 16.2189C3.90403 15.417 3.15384 14.5608 2.49344 13.7044C2.09494 13.1876 1.81201 12.781 1.6571 12.5388L1.3125 12L1.6571 11.4612C1.81201 11.219 2.09494 10.8124 2.49344 10.2956C3.15384 9.43916 3.90403 8.58305 4.73324 7.78115C7.16386 5.43062 9.77199 4 12.4995 4ZM20.9218 11.5169C20.3171 10.7327 19.6297 9.9482 18.8755 9.21885C16.782 7.19438 14.6046 6 12.4995 6C10.3945 6 8.21703 7.19438 6.12358 9.21885C5.36937 9.9482 4.68192 10.7327 4.07728 11.5169C3.94669 11.6862 3.82602 11.8478 3.7157 12C3.82602 12.1522 3.94669 12.3138 4.07728 12.4831C4.68192 13.2673 5.36937 14.0518 6.12358 14.7811C8.21703 16.8056 10.3945 18 12.4995 18C14.6046 18 16.782 16.8056 18.8755 14.7811C19.6297 14.0518 20.3171 13.2673 20.9218 12.4831C21.0524 12.3138 21.173 12.1522 21.2834 12C21.173 11.8478 21.0524 11.6862 20.9218 11.5169ZM8.49953 12C8.49953 14.2091 10.2904 16 12.4995 16C14.7087 16 16.4995 14.2091 16.4995 12C16.4995 9.79086 14.7087 8 12.4995 8C10.2904 8 8.49953 9.79086 8.49953 12ZM14.4995 12C14.4995 13.1046 13.6041 14 12.4995 14C11.395 14 10.4995 13.1046 10.4995 12C10.4995 10.8954 11.395 10 12.4995 10C13.6041 10 14.4995 10.8954 14.4995 12Z" fill="#f00"/>
</g>
</svg>
