<svg width="24" height="16" viewBox="-3.5 0 24 16" fill="none" xmlns="http://www.w3.org/2000/svg">
<g id="vuesax/outline/eye">
<g id="eye">
<path id="Vector" d="M8.49995 10.8867C6.90661 10.8867 5.61328 9.59334 5.61328 8.00001C5.61328 6.40668 6.90661 5.11334 8.49995 5.11334C10.0933 5.11334 11.3866 6.40668 11.3866 8.00001C11.3866 9.59334 10.0933 10.8867 8.49995 10.8867ZM8.49995 6.11334C7.45995 6.11334 6.61328 6.96001 6.61328 8.00001C6.61328 9.04001 7.45995 9.88668 8.49995 9.88668C9.53995 9.88668 10.3866 9.04001 10.3866 8.00001C10.3866 6.96001 9.53995 6.11334 8.49995 6.11334Z" fill="#1E386B"/>
<path id="Vector_2" d="M8.49973 14.0134C5.99306 14.0134 3.62639 12.5467 1.99973 10C1.29306 8.90003 1.29306 7.10669 1.99973 6.00003C3.63306 3.45336 5.99973 1.98669 8.49973 1.98669C10.9997 1.98669 13.3664 3.45336 14.9931 6.00003C15.6997 7.10003 15.6997 8.89336 14.9931 10C13.3664 12.5467 10.9997 14.0134 8.49973 14.0134ZM8.49973 2.98669C6.34639 2.98669 4.28639 4.28003 2.84639 6.54003C2.34639 7.32003 2.34639 8.68003 2.84639 9.46003C4.28639 11.72 6.34639 13.0134 8.49973 13.0134C10.6531 13.0134 12.7131 11.72 14.1531 9.46003C14.6531 8.68003 14.6531 7.32003 14.1531 6.54003C12.7131 4.28003 10.6531 2.98669 8.49973 2.98669Z" fill="#1E386B"/>
</g>
</g>
</svg>
