<svg width="24" height="21" viewBox="-2 0 24 21" fill="none" xmlns="http://www.w3.org/2000/svg">
<path id="Vector" d="M13.6325 10.4137C14.9579 9.37233 15.8099 7.66827 15.8099 5.86954C15.8099 2.65076 13.1591 0 9.94035 0C6.72157 0 4.07081 2.74543 4.07081 5.96421C4.07081 7.76294 4.92284 9.37233 6.24822 10.5084C2.8401 11.8338 0.37868 14.9579 0 18.7447C0 19.218 0.09467 19.5967 0.37868 19.8807C0.66269 20.1647 1.04137 20.3541 1.51472 20.3541H3.12411C3.50279 20.3541 3.88147 20.07 3.88147 19.5967C3.88147 19.1233 3.50279 19.0287 3.12411 19.0287H1.51472C1.51472 19.0287 1.51472 19.0287 1.51472 18.934C1.8934 15.2419 4.44949 12.3071 8.04695 11.4551H8.14162C8.42563 11.5497 8.70964 11.6444 8.99365 11.7391H9.08832C9.37233 11.8338 9.75101 11.8338 10.035 11.8338C10.4137 11.8338 10.6977 11.8338 10.9817 11.7391H11.0764C11.3604 11.6444 11.6444 11.6444 11.9284 11.4551H12.0231C15.5259 12.3071 18.1766 15.3365 18.5553 18.934C18.5553 18.934 18.5553 19.0287 18.4607 19.0287H8.99365C8.61497 19.0287 8.23629 19.3127 8.23629 19.786C8.23629 20.2594 8.5203 20.5434 8.99365 20.5434H18.4607C18.8393 20.5434 19.3127 20.3541 19.5967 20.07C19.8807 19.786 20.07 19.3127 19.9754 18.934C19.502 14.9579 17.1353 11.8338 13.6325 10.4137ZM5.49086 5.96421C5.49086 3.50279 7.47893 1.51472 9.94035 1.51472C12.4018 1.51472 14.3898 3.50279 14.3898 5.96421C14.3898 7.85761 13.1591 9.56167 11.3604 10.1297C11.1711 10.2244 10.9817 10.2244 10.7924 10.319C10.6977 10.319 10.603 10.319 10.5084 10.319C10.1297 10.4137 9.65634 10.4137 9.27766 10.319C9.18299 10.319 9.08832 10.319 8.99365 10.319C8.80431 10.319 8.61497 10.2244 8.42563 10.1297C6.81624 9.467 5.49086 7.85761 5.49086 5.96421Z" fill="#1E386B"/>
</svg>
