<svg width="24" height="21" viewBox="-2 0 24 21" fill="none" xmlns="http://www.w3.org/2000/svg">
<g id="Group">
<g id="Group_2">
<path id="Vector" d="M10.4348 20.9911H2.01373C0.915332 20.9911 0 20.0758 0 18.9774V2.776C0 1.6776 0.915332 0.762268 2.01373 0.762268H10.4348C11.5332 0.762268 12.4485 1.6776 12.4485 2.776V7.44419C12.4485 7.81032 12.1739 8.17646 11.7162 8.17646C11.2586 8.17646 10.984 7.90186 10.984 7.44419V2.776C10.984 2.40987 10.7094 2.13527 10.3433 2.13527H2.01373C1.6476 2.13527 1.373 2.40987 1.373 2.776V18.8858C1.373 19.252 1.6476 19.5266 2.01373 19.5266H10.4348C10.8009 19.5266 11.0755 19.252 11.0755 18.8858V14.2176C11.0755 13.8515 11.3501 13.4854 11.8078 13.4854C12.2654 13.4854 12.54 13.76 12.54 14.2176V18.8858C12.54 20.0758 11.6247 20.9911 10.4348 20.9911Z" fill="#1E386B"/>
</g>
<g id="Group_3">
<path id="Vector_2" d="M14.5536 17.2382C14.462 17.2382 14.3705 17.2382 14.279 17.2382C14.0044 17.1467 13.8213 16.8721 13.8213 16.5975V13.943C13.8213 13.5769 14.0959 13.2107 14.5536 13.2107C15.0112 13.2107 15.2858 13.4853 15.2858 13.943V14.6753L18.4895 10.8309L15.2858 7.07802V10.8309C15.2858 11.197 15.0112 11.5632 14.5536 11.5632H5.40023C5.0341 11.5632 4.66797 11.2886 4.66797 10.8309C4.66797 10.3732 4.94257 10.0986 5.40023 10.0986H13.9128V5.15583C13.9128 4.88123 14.0959 4.60663 14.3705 4.5151C14.6451 4.42356 14.9197 4.5151 15.1028 4.69816L19.8625 10.2817C20.0455 10.5563 20.0455 10.9224 19.8625 11.197L15.1028 17.0551C14.9197 17.1467 14.7366 17.2382 14.5536 17.2382Z" fill="#1E386B"/>
</g>
</g>
</svg>
