<svg width="24" height="22" viewBox="-2 0 24 22" fill="none" xmlns="http://www.w3.org/2000/svg">
<g id="Group">
<path id="Vector" d="M17.4221 13.7878C17.0666 13.7878 16.7999 13.5212 16.7999 13.1656V9.96562C16.7999 7.92117 15.911 6.05451 14.311 4.72117C13.2443 3.83228 11.911 3.29895 10.5777 3.12117V1.25451C10.6666 0.810063 10.311 0.543396 9.95545 0.543396C9.59989 0.543396 9.24434 0.810063 9.24434 1.25451V3.21006C5.77767 3.56562 3.02211 6.49895 3.02211 10.0545V13.2545C3.02211 13.6101 2.75545 13.8767 2.39989 13.8767C1.33322 13.8767 0.444336 14.7656 0.444336 15.8323V16.4545C0.444336 17.5212 1.33322 18.4101 2.39989 18.4101C2.75545 18.4101 3.111 18.1434 3.111 17.699C3.111 17.2545 2.84434 16.9878 2.39989 16.9878C2.04434 16.9878 1.77767 16.7212 1.77767 16.3656V15.7434C1.77767 15.3878 2.04434 15.1212 2.39989 15.1212C3.46656 15.1212 4.35545 14.2323 4.35545 13.1656V9.96562C4.35545 6.9434 6.84434 4.45451 9.86656 4.45451C11.1999 4.45451 12.4443 4.89895 13.4221 5.78784C14.6666 6.85451 15.3777 8.36562 15.3777 10.0545V13.2545C15.3777 14.3212 16.2666 15.2101 17.3332 15.2101C17.6888 15.2101 17.9554 15.4767 17.9554 15.8323V16.4545C17.9554 16.8101 17.6888 17.0767 17.3332 17.0767H11.9999H7.911H6.04434C5.68878 17.0767 5.33322 17.3434 5.33322 17.7878C5.33322 18.2323 5.68878 18.3212 6.04434 18.3212H7.19989V19.299C7.19989 20.7212 8.35545 21.8767 9.77767 21.8767H10.1332C11.5554 21.8767 12.711 20.7212 12.711 19.299V18.3212H17.4221C18.4888 18.3212 19.3777 17.4323 19.3777 16.3656V15.7434C19.3777 14.6767 18.5777 13.7878 17.4221 13.7878ZM11.3777 19.299C11.3777 20.0101 10.8443 20.5434 10.1332 20.5434H9.77767C9.06656 20.5434 8.53323 20.0101 8.53323 19.299V18.3212H11.3777V19.299Z" fill="#1E386B"/>
<path id="Vector_2" d="M1.33333 9.87672C1.33333 8.01005 1.95556 6.23228 3.02222 4.72117C3.2 4.4545 3.2 4.01005 2.84444 3.83228C2.66667 3.56561 2.22222 3.6545 1.95556 3.92117C0.711111 5.69894 0 7.74339 0 9.87672C0 10.2323 0.266667 10.5878 0.711111 10.5878C1.15556 10.5878 1.33333 10.2323 1.33333 9.87672Z" fill="#1E386B"/>
<path id="Vector_3" d="M17.956 3.92115C17.7783 3.65448 17.3338 3.56559 17.0671 3.74337C16.8005 3.92115 16.7116 4.36559 16.8894 4.63226C18.0449 6.14337 18.5783 7.92115 18.5783 9.78781C18.5783 10.1434 18.8449 10.4989 19.2894 10.4989C19.7338 10.4989 20.0005 10.2323 20.0005 9.78781C20.0005 7.74337 19.2894 5.69893 17.956 3.92115Z" fill="#1E386B"/>
</g>
</svg>
