<svg width="24" height="21" viewBox="-2 0 24 21" fill="none" xmlns="http://www.w3.org/2000/svg">
<g id="Group">
<path id="Vector" d="M14.4013 10.9773C14.0306 10.8847 13.66 11.1627 13.5673 11.5333C13.2893 13.2013 11.8066 14.4986 10.046 14.4986C8.09998 14.4986 6.43199 12.9233 6.43199 10.8847C6.43199 8.93868 8.00731 7.27068 10.046 7.27068C10.9726 7.27068 11.8066 7.64135 12.4553 8.19735C12.7333 8.47534 13.1966 8.47534 13.4746 8.19735C13.7526 7.91935 13.7526 7.45602 13.4746 7.17802C12.548 6.34402 11.3433 5.78802 10.046 5.78802C7.26598 5.78802 5.04199 8.01201 5.04199 10.792C5.04199 13.572 7.26598 15.796 10.046 15.796C12.4553 15.796 14.4939 14.128 14.9573 11.7187C14.9573 11.348 14.7719 10.9773 14.4013 10.9773Z" fill="#1E386B"/>
<path id="Vector_2" d="M19.8689 12.5527C19.7763 12.3673 19.591 12.2747 19.313 12.2747C18.5716 12.182 17.923 11.626 17.923 10.792C17.923 10.0507 18.5716 9.402 19.313 9.30933C19.4983 9.30933 19.6836 9.21667 19.8689 9.03134C19.9616 8.846 20.0543 8.66067 19.9616 8.47534C19.6836 7.36334 19.313 6.34402 18.6643 5.41735C18.5716 5.23202 18.3863 5.13935 18.201 5.13935C18.0156 5.13935 17.8303 5.13936 17.645 5.32469C17.089 5.88068 16.1623 5.78802 15.6063 5.23202C15.0503 4.67602 15.0503 3.84203 15.5136 3.19336C15.6063 3.00803 15.699 2.8227 15.699 2.63737C15.699 2.45203 15.5136 2.2667 15.421 2.17404C14.4943 1.61804 13.475 1.15471 12.363 0.876709C12.1777 0.876709 11.9923 0.876709 11.807 0.969375C11.529 1.15471 11.4363 1.34004 11.4363 1.52537C11.3437 2.2667 10.7877 2.91537 9.95367 2.91537C9.21234 2.91537 8.56368 2.2667 8.47101 1.52537C8.47101 1.34004 8.37834 1.15471 8.19301 0.969375C8.10034 0.876709 7.82235 0.876709 7.63701 0.876709C6.52502 1.15471 5.50569 1.52537 4.57903 2.17404C4.39369 2.2667 4.30103 2.45203 4.30103 2.63737C4.30103 2.8227 4.30103 3.00803 4.48636 3.19336C4.94969 3.84203 4.94969 4.67602 4.3937 5.23202C3.8377 5.78802 3.0037 5.78802 2.35504 5.32469C2.1697 5.23202 1.98437 5.13935 1.79904 5.13935C1.61371 5.13935 1.42837 5.32469 1.33571 5.41735C0.779711 6.34402 0.316383 7.36334 0.0383839 8.47534C0.0383839 8.66067 0.0383825 8.846 0.131049 9.03134C0.223715 9.21667 0.409049 9.30933 0.687048 9.30933C1.42838 9.402 2.07704 9.958 2.07704 10.792C2.07704 11.5333 1.42838 12.182 0.687048 12.2747C0.501716 12.2747 0.316381 12.3673 0.131049 12.5527C0.0383825 12.738 -0.0542823 12.9233 0.0383839 13.1086C0.316383 14.2206 0.687045 15.24 1.33571 16.1666C1.42837 16.352 1.61371 16.4446 1.79904 16.4446C1.98437 16.4446 2.1697 16.4446 2.35504 16.2593C2.91103 15.7033 3.8377 15.796 4.3937 16.352C4.94969 16.908 4.94969 17.742 4.48636 18.3906C4.3937 18.576 4.30103 18.7613 4.30103 18.9466C4.30103 19.132 4.48636 19.3173 4.57903 19.41C5.50569 19.966 6.52502 20.4293 7.63701 20.7073C7.72968 20.7073 7.72968 20.7073 7.82234 20.7073C8.00768 20.7073 8.10034 20.6146 8.19301 20.6146C8.37834 20.5219 8.47101 20.3366 8.47101 20.0586C8.56368 19.3173 9.11967 18.6686 9.95367 18.6686C10.695 18.6686 11.3437 19.3173 11.4363 20.0586C11.4363 20.2439 11.529 20.4293 11.7143 20.6146C11.8997 20.7999 12.085 20.7999 12.2703 20.7073C13.3823 20.4293 14.4016 20.0586 15.3283 19.41C15.5136 19.3173 15.6063 19.132 15.6063 18.9466C15.6063 18.7613 15.6063 18.576 15.421 18.3906C14.865 17.8346 14.9576 16.908 15.5136 16.352C16.0696 15.796 16.9036 15.796 17.5523 16.2593C17.7376 16.352 17.923 16.4446 18.1083 16.4446C18.2936 16.4446 18.479 16.2593 18.5716 16.1666C19.1276 15.24 19.591 14.2206 19.8689 13.1086C20.0543 12.9233 19.9616 12.738 19.8689 12.5527ZM17.8303 14.8693C16.811 14.406 15.5136 14.5913 14.587 15.4253C13.753 16.2593 13.5677 17.5566 14.031 18.6686C13.5677 18.854 13.1043 19.132 12.641 19.2246C12.2703 18.1126 11.1583 17.3713 9.95367 17.3713C8.74901 17.3713 7.63701 18.1126 7.26635 19.2246C6.80302 19.0393 6.33969 18.854 5.87635 18.6686C6.33969 17.6493 6.15435 16.352 5.32036 15.4253C4.48636 14.5913 3.18904 14.406 2.07704 14.8693C1.89171 14.406 1.61371 13.9426 1.52104 13.4793C2.63304 13.1086 3.37437 11.9967 3.37437 10.792C3.37437 9.58733 2.63304 8.47534 1.52104 8.10467C1.70637 7.64134 1.89171 7.17801 2.07704 6.71468C3.09637 7.17801 4.3937 6.99268 5.32036 6.15868C6.15435 5.32469 6.33969 4.02736 5.87635 2.91537C6.33969 2.73003 6.80302 2.45203 7.26635 2.35937C7.63701 3.47136 8.74901 4.21269 9.95367 4.21269C11.1583 4.21269 12.2703 3.47136 12.641 2.35937C13.1043 2.5447 13.5677 2.73003 14.031 2.91537C13.5677 3.93469 13.753 5.23202 14.587 6.15868C15.421 6.99268 16.7183 7.17801 17.8303 6.71468C18.0156 7.17801 18.2936 7.64134 18.3863 8.10467C17.2743 8.47534 16.533 9.58733 16.533 10.792C16.533 11.9967 17.2743 13.1086 18.3863 13.4793C18.2936 13.9426 18.1083 14.406 17.8303 14.8693Z" fill="#1E386B"/>
</g>
</svg>
