<svg width="24" height="21" viewBox="-2 0 24 21" fill="none" xmlns="http://www.w3.org/2000/svg">
<g id="Group">
<path id="Vector" d="M19.2857 10.1624C18.9286 10.1624 18.5714 10.4303 18.5714 10.8767C18.5714 15.6089 14.7321 19.5374 9.91071 19.5374C5.08929 19.5374 1.25 15.6981 1.25 10.8767C1.25 6.05528 5.08929 2.21599 9.91071 2.21599C12.5893 2.21599 15.0893 3.46599 16.6964 5.51957L14.8214 4.89457C14.4643 4.80528 14.1071 4.98385 13.9286 5.34099C13.8393 5.69814 14.0179 6.05528 14.375 6.23385L18.2143 7.57314C18.3036 7.57314 18.3929 7.57314 18.3929 7.57314C18.5714 7.57314 18.6607 7.57314 18.75 7.48385C18.9286 7.39457 19.0179 7.12671 19.0179 6.94814L19.1071 2.93028C19.1071 2.57314 18.8393 2.21599 18.4821 2.21599C18.125 2.21599 17.8571 2.48385 17.7679 2.84099V4.89457C15.9821 2.39457 13.125 0.876709 10 0.876709C4.46429 0.876709 0 5.34099 0 10.8767C0 16.4124 4.46429 20.8767 10 20.8767C15.5357 20.8767 20 16.4124 20 10.8767C19.9107 10.4303 19.6429 10.1624 19.2857 10.1624Z" fill="#1E386B"/>
<path id="Vector_2" d="M10.0004 4.1803C9.64328 4.1803 9.28613 4.44815 9.28613 4.89458V10.8767C9.28613 11.0553 9.37542 11.2339 9.4647 11.3232L12.7683 14.6267C12.8576 14.716 13.0361 14.8053 13.2147 14.8053C13.3933 14.8053 13.5718 14.716 13.6611 14.6267C13.929 14.3589 13.929 13.9124 13.6611 13.6446L10.5361 10.5196V4.8053C10.6254 4.44816 10.3576 4.1803 10.0004 4.1803Z" fill="#1E386B"/>
</g>
</svg>
