<svg width="22" height="24" viewBox="0 0 22 24" fill="none" xmlns="http://www.w3.org/2000/svg">
<g id="Group 246">
<path id="image 2 (Traced)" fill-rule="evenodd" clip-rule="evenodd" d="M8.47867 0.0307171C8.20248 0.154562 8.21812 -0.0514863 8.21812 3.46969V6.66097L8.35995 6.79796L8.50177 6.93495H11.391C14.5268 6.93495 14.461 6.94026 14.5715 6.67806C14.6072 6.59332 14.6234 6.19704 14.6234 5.40698V4.259H17.5766H20.5298L20.5187 7.74478L20.5075 11.2306L20.059 11.244C19.5381 11.2596 19.5633 11.3297 19.8359 10.6229C19.9447 10.3408 19.986 10.1795 19.9586 10.1434C19.9189 10.0911 18.9037 10.6027 17.0261 11.6213C16.39 11.9663 16.3459 11.9987 16.3958 12.0835C16.4256 12.1339 19.8611 13.9769 19.9255 13.9769C20.0166 13.9769 19.9927 13.8519 19.8128 13.3876C19.7052 13.1102 19.6173 12.8777 19.6173 12.8708C19.6173 12.8639 20.0341 12.8512 20.5434 12.8425C21.4623 12.8269 21.4708 12.8257 21.6439 12.7018C22.0058 12.4428 21.9823 12.7568 21.9974 7.99125C22.0047 5.6674 21.9983 3.63475 21.9832 3.47429C21.9491 3.11252 21.8311 2.90952 21.5728 2.76845L21.3793 2.66282H18.0034H14.6275L14.6146 1.46667L14.6017 0.27052L14.4813 0.140431L14.3609 0.0103423L11.4632 0.00109388C9.86946 -0.00402329 8.52644 0.00930951 8.47867 0.0307171ZM13.1469 3.46091V5.33877H11.4099H9.67287V3.46091V1.58305H11.4099H13.1469V3.46091ZM8.47867 8.5755C8.22554 8.68751 8.2192 8.72145 8.20522 10.0375L8.19228 11.2524L4.5715 11.265C0.534713 11.279 0.862185 11.252 0.629294 11.5892C0.477 11.8097 0.46875 12.0531 0.46875 16.3242C0.46875 20.5954 0.477 20.8388 0.629294 21.0593C0.839517 21.3637 0.86301 21.3697 1.90496 21.3853C2.83444 21.3992 2.85872 21.402 2.83205 21.4928C2.81698 21.5441 2.72948 21.7802 2.63755 22.0176C2.52356 22.3119 2.48391 22.4668 2.51296 22.5046C2.54431 22.5455 3.0084 22.3199 4.27947 21.646C6.04832 20.7082 6.13096 20.6585 6.07776 20.5655C6.04749 20.5126 2.61562 18.6716 2.54722 18.6716C2.45577 18.6716 2.47952 18.7962 2.65961 19.2609C2.76713 19.5383 2.85507 19.7727 2.85507 19.7818C2.85507 19.7908 2.64988 19.7983 2.3991 19.7983H1.94313V16.3242V12.8502H5.06764H8.19215L8.20513 14.0229L8.21812 15.1956L8.33854 15.3257L8.45891 15.4557H11.4145H14.3699L14.4967 15.3024L14.6234 15.1491V11.9997V8.85037L14.4757 8.69075L14.3281 8.53113L11.4468 8.53409C9.86212 8.53573 8.52644 8.55437 8.47867 8.5755ZM13.1469 12.0052V13.883H11.4099H9.67287V12.0052V10.1273H11.4099H13.1469V12.0052ZM8.35995 17.2124L8.21812 17.3494V20.5445V23.7397L8.33854 23.8698L8.45891 24H11.4145H14.3699L14.4967 23.8467L14.6234 23.6933V20.5699C14.6234 17.1798 14.6283 17.251 14.3858 17.1315C14.3011 17.0898 13.5311 17.0754 11.3868 17.0754H8.50177L8.35995 17.2124ZM13.1469 20.5494V22.4273H11.4099H9.67287V20.5494V18.6716H11.4099H13.1469V20.5494Z" fill="#1E386B"/>
<rect id="Rectangle 17" x="7.86914" y="8" width="7.4" height="8" fill="#D23C41"/>
</g>
</svg>
