<svg width="23" height="24" viewBox="0 0 23 24" fill="none" xmlns="http://www.w3.org/2000/svg">
<g id="24 / notifications / bell">
<path id="icon" fill-rule="evenodd" clip-rule="evenodd" d="M17.6642 10.1784C17.6642 6.48977 15.7394 3.92965 13.249 3.16107C13.1588 2.91449 13.0163 2.68526 12.8225 2.49291C12.1606 1.8357 11.1292 1.8357 10.4673 2.49291C10.274 2.68484 10.1317 2.91348 10.0415 3.15945C7.54778 3.92467 5.6256 6.4792 5.6256 10.1784C5.6256 12.5718 5.16898 13.9129 4.32368 14.8848C4.18236 15.0473 3.79951 15.4195 3.54013 15.6717L3.54006 15.6717L3.54005 15.6717C3.41733 15.791 3.32227 15.8835 3.29352 15.9141L3.0459 16.1794V19.2782H8.28094C8.45796 20.2433 8.95348 20.889 9.84959 21.4668C10.9519 22.1777 12.3378 22.1777 13.4402 21.4668C14.231 20.9569 14.7613 20.1731 14.9764 19.2782H20.2439V16.1794L19.9963 15.9141C19.9702 15.8861 19.879 15.7972 19.7598 15.681C19.5012 15.4289 19.1108 15.0483 18.9673 14.8827C18.1214 13.9062 17.6642 12.5634 17.6642 10.1784ZM13.1383 19.2782H10.0787C10.2002 19.517 10.4072 19.6974 10.7454 19.9155C11.2977 20.2716 11.9921 20.2716 12.5443 19.9155C12.8001 19.7506 12.9999 19.5323 13.1383 19.2782ZM17.6988 16.1099C17.8797 16.3187 18.2675 16.7005 18.5241 16.95V17.4608H4.7657V16.9504C5.02029 16.7039 5.40927 16.3224 5.5899 16.1147C6.7385 14.794 7.3454 13.0115 7.3454 10.1784C7.3454 6.74336 9.35135 4.73738 11.6449 4.73738C13.932 4.73738 15.9444 6.75371 15.9444 10.1784C15.9444 13.0024 16.5515 14.7855 17.6988 16.1099Z" fill="black"/>
<circle id="Ellipse 5" cx="17.2891" cy="9" r="5" fill="#D23C41"/>
</g>
</svg>
