<svg width="32" height="21" viewBox="-1.5 0 32 21" fill="none" xmlns="http://www.w3.org/2000/svg">
<g id="Group">
<path id="Vector" d="M15.6345 17.321C18.2899 16.6858 19.9343 13.9899 19.3072 11.2996C18.6802 8.60928 16.0192 6.94334 13.3638 7.57859C10.7083 8.21385 9.06397 10.9097 9.691 13.6C10.318 16.2903 12.979 17.9563 15.6345 17.321Z" fill="white"/>
<path id="Vector_2" d="M26.1241 3.28441H21.8386C21.4944 3.28441 21.1725 3.0932 21.0059 2.7895L19.7958 0.61864C19.5849 0.236208 19.1852 0 18.7522 0H10.2478C9.81483 0 9.41515 0.236208 9.2042 0.61864L7.98295 2.80075C7.81642 3.10445 7.49445 3.29566 7.15028 3.29566H2.86479C1.56582 3.28441 0.5 4.36422 0.5 5.69148V18.6042C0.5 19.9314 1.56582 21 2.86479 21H26.1241C27.4342 21 28.4889 19.9202 28.4889 18.6042V5.69148C28.5 4.36422 27.4342 3.28441 26.1241 3.28441ZM14.5 19.504C10.6586 19.504 7.53886 16.3433 7.53886 12.4515C7.53886 8.55972 10.6586 5.39904 14.5 5.39904C18.3414 5.39904 21.4611 8.55972 21.4611 12.4515C21.4611 16.3433 18.3414 19.504 14.5 19.504ZM25.6356 7.2887C25.1249 7.2887 24.703 6.86128 24.703 6.34387C24.703 5.82646 25.1249 5.39904 25.6356 5.39904C26.1463 5.39904 26.5682 5.82646 26.5682 6.34387C26.5682 6.86128 26.1574 7.2887 25.6356 7.2887Z" fill="white"/>
</g>
</svg>
