<svg width="33" height="32" viewBox="0 0 33 32" fill="none" xmlns="http://www.w3.org/2000/svg">
<g id="44-calendar" clip-path="url(#clip0_1129_5773)">
<g id="Group">
<path id="Vector" d="M8.9146 17.7703H5.92519C5.50765 17.7703 5.16797 18.11 5.16797 18.5275V21.5169C5.16797 21.9344 5.50771 22.2741 5.92519 22.2741H8.9146C9.33214 22.2741 9.67182 21.9344 9.67182 21.5169V18.5275C9.67182 18.1099 9.33214 17.7703 8.9146 17.7703ZM8.73382 21.3361H6.10597V18.7083H8.73382V21.3361Z" fill="#3F3356"/>
<path id="Vector_2" d="M14.6221 17.7703H11.6327C11.2152 17.7703 10.8755 18.11 10.8755 18.5275V21.5169C10.8755 21.9344 11.2152 22.2741 11.6327 22.2741H14.6221C15.0396 22.2741 15.3793 21.9344 15.3793 21.5169V18.5275C15.3793 18.1099 15.0395 17.7703 14.6221 17.7703ZM14.4413 21.3361H11.8134V18.7083H14.4412V21.3361H14.4413Z" fill="#3F3356"/>
<path id="Vector_3" d="M20.3291 17.7703H17.3397C16.9222 17.7703 16.5825 18.11 16.5825 18.5275V21.5169C16.5825 21.9344 16.9223 22.2741 17.3397 22.2741H20.3291C20.7466 22.2741 21.0863 21.9344 21.0863 21.5169V18.5275C21.0864 18.1099 20.7466 17.7703 20.3291 17.7703ZM20.1484 21.3361H17.5206V18.7083H20.1484V21.3361Z" fill="#3F3356"/>
<path id="Vector_4" d="M8.9146 23.2705H5.92519C5.50765 23.2705 5.16797 23.6103 5.16797 24.0277V27.0171C5.16797 27.4346 5.50771 27.7743 5.92519 27.7743H8.9146C9.33214 27.7743 9.67182 27.4346 9.67182 27.0171V24.0277C9.67182 23.6102 9.33214 23.2705 8.9146 23.2705ZM8.73382 26.8363H6.10597V24.2085H8.73382V26.8363Z" fill="#3F3356"/>
<path id="Vector_5" d="M14.6221 23.2705H11.6327C11.2152 23.2705 10.8755 23.6103 10.8755 24.0277V27.0171C10.8755 27.4346 11.2152 27.7743 11.6327 27.7743H14.6221C15.0396 27.7743 15.3793 27.4346 15.3793 27.0171V24.0277C15.3793 23.6102 15.0395 23.2705 14.6221 23.2705ZM14.4413 26.8363H11.8134V24.2085H14.4412V26.8363H14.4413Z" fill="#3F3356"/>
<path id="Vector_6" d="M20.3291 23.2705H17.3397C16.9222 23.2705 16.5825 23.6103 16.5825 24.0277V27.0171C16.5825 27.4346 16.9223 27.7743 17.3397 27.7743H20.3291C20.7466 27.7743 21.0863 27.4346 21.0863 27.0171V24.0277C21.0864 23.6102 20.7466 23.2705 20.3291 23.2705ZM20.1484 26.8363H17.5206V24.2085H20.1484V26.8363Z" fill="#3F3356"/>
<path id="Vector_7" d="M27.4897 16.9573H22.765C22.3475 16.9573 22.0078 17.297 22.0078 17.7145V19.6573C22.0078 19.9164 22.2177 20.1263 22.4768 20.1263C22.7359 20.1263 22.9458 19.9164 22.9458 19.6573V17.8952H27.309V27.9578H22.9458V21.5603C22.9458 21.3012 22.7359 21.0913 22.4768 21.0913C22.2177 21.0913 22.0078 21.3012 22.0078 21.5603V28.1386C22.0078 28.5561 22.3476 28.8958 22.765 28.8958H27.4897C27.9073 28.8958 28.247 28.556 28.247 28.1386V17.7145C28.247 17.297 27.9073 16.9573 27.4897 16.9573Z" fill="#3F3356"/>
<path id="Vector_8" d="M12.6408 20.8537C12.7274 20.9322 12.8398 20.9753 12.9559 20.9753C12.9671 20.9753 12.9783 20.9748 12.9896 20.974C13.1174 20.9649 13.2359 20.9037 13.3175 20.8049L14.1126 19.8424C14.2775 19.6428 14.2494 19.3471 14.0497 19.1821C13.8499 19.0172 13.5543 19.0453 13.3894 19.245L12.9072 19.8287L12.7808 19.714C12.5889 19.54 12.2923 19.5543 12.1182 19.7462C11.9442 19.938 11.9586 20.2347 12.1504 20.4087L12.6408 20.8537Z" fill="#D23C41"/>
<path id="Vector_9" d="M6.74698 25.509L6.58215 25.6746C6.39936 25.8582 6.39999 26.1551 6.58352 26.3378C6.67507 26.4289 6.79476 26.4745 6.91445 26.4745C7.03483 26.4745 7.1552 26.4285 7.24675 26.3364L7.41159 26.1708L7.57712 26.3356C7.66866 26.4268 7.78835 26.4723 7.90804 26.4723C8.02842 26.4723 8.1488 26.4263 8.24035 26.3342C8.42313 26.1506 8.42244 25.8536 8.23897 25.671L8.07344 25.5061L8.23822 25.3407C8.421 25.1571 8.42038 24.8602 8.23684 24.6775C8.05318 24.4947 7.75621 24.4953 7.57361 24.6788L7.40878 24.8444L7.24325 24.6795C7.05965 24.4966 6.76268 24.4974 6.58002 24.6809C6.39723 24.8645 6.39792 25.1615 6.5814 25.3441L6.74698 25.509Z" fill="#D23C41"/>
<path id="Vector_10" d="M18.1712 25.5091L18.0064 25.6746C17.8236 25.8582 17.8243 26.1552 18.0078 26.3378C18.0993 26.429 18.219 26.4745 18.3387 26.4745C18.4591 26.4745 18.5795 26.4285 18.671 26.3365L18.8358 26.1709L19.0014 26.3356C19.0929 26.4268 19.2126 26.4723 19.3323 26.4723C19.4527 26.4723 19.5731 26.4263 19.6646 26.3343C19.8474 26.1507 19.8467 25.8537 19.6632 25.671L19.4977 25.5062L19.6625 25.3407C19.8453 25.1571 19.8446 24.8602 19.6611 24.6775C19.4774 24.4946 19.1805 24.4953 18.9979 24.6789L18.8331 24.8444L18.6676 24.6796C18.4839 24.4967 18.1869 24.4975 18.0043 24.681C17.8216 24.8646 17.8222 25.1616 18.0057 25.3442L18.1712 25.5091Z" fill="#D23C41"/>
<path id="Vector_11" d="M29.9642 7.31906C31.3775 7.31906 32.5273 6.16919 32.5273 4.75593C32.5273 3.34268 31.3775 2.19294 29.9642 2.19294H29.4663C29.4658 2.19294 29.4655 2.19288 29.4651 2.19288C29.4647 2.19288 29.4643 2.19294 29.4639 2.19294H27.8767C27.8763 2.19294 27.8759 2.19288 27.8755 2.19288C27.8751 2.19288 27.8747 2.19294 27.8743 2.19294H26.405V2.13122C26.405 1.66228 26.0235 1.28076 25.5545 1.28076H24.7619C24.293 1.28076 23.9115 1.66228 23.9115 2.13122V2.19294H9.19117V2.13122C9.19117 1.66228 8.80965 1.28076 8.34071 1.28076H7.5481C7.07916 1.28076 6.69765 1.66228 6.69765 2.13122V2.19294H4.87292C4.87254 2.19294 4.87211 2.19288 4.87173 2.19288C4.87136 2.19288 4.87092 2.19294 4.87054 2.19294H4.06355C3.97619 2.19294 3.89046 2.21739 3.81629 2.26341L0.910861 4.06632C0.67067 4.21552 0.527281 4.47335 0.527344 4.75606C0.527406 5.03877 0.670858 5.29654 0.910987 5.44555L3.81623 7.24852C3.89052 7.29454 3.97619 7.31899 4.06355 7.31899H6.69771V10.8029H4.56669C3.57679 10.8029 2.77142 11.6082 2.77142 12.5981V28.917C2.77142 29.9069 3.57679 30.7123 4.56669 30.7123H28.4734C29.4633 30.7123 30.2687 29.9069 30.2687 28.917V12.5982C30.2687 11.6083 29.4633 10.8029 28.4734 10.8029H26.4049V7.31906H29.9642ZM26.4049 5.22487H27.4064V6.38099H26.4049V5.22487ZM28.3444 3.13088H28.9961V6.38105H28.3444V3.13088ZM31.5893 4.75587C31.5893 5.65198 30.8603 6.38099 29.9643 6.38099H29.9341V3.13088H29.9643C30.8603 3.13088 31.5893 3.85983 31.5893 4.75587ZM27.4064 3.13088V4.28687H26.4049V3.13088H27.4064ZM23.9114 3.13088V4.28687H23.3609C23.1019 4.28687 22.8919 4.4968 22.8919 4.75587C22.8919 5.01495 23.1019 5.22487 23.3609 5.22487H23.9114V6.38099H9.19117V5.22487H18.9037C19.1628 5.22487 19.3727 5.01495 19.3727 4.75587C19.3727 4.4968 19.1628 4.28687 18.9037 4.28687H9.19117V3.13088H23.9114ZM6.69771 4.28687H5.34073V3.13088H6.69771V4.28687ZM1.57859 4.75587L4.19724 3.13088H4.40273V6.38105H4.19724L1.57859 4.75587ZM5.34073 6.38105V5.22487H6.69771V6.38099H5.34073V6.38105ZM7.63571 2.2187H8.25317V7.79037C8.25317 8.04945 8.46309 8.25937 8.72217 8.25937C8.98124 8.25937 9.19117 8.04945 9.19117 7.79037V7.31906H23.9114V10.8029H9.19117V9.69339C9.19117 9.43431 8.98124 9.22439 8.72217 9.22439C8.46309 9.22439 8.25317 9.43431 8.25317 9.69339V10.8029H7.63571V2.2187ZM28.4734 29.7743H4.56669C4.09394 29.7743 3.70942 29.3897 3.70942 28.917V14.8527H29.3307V28.917C29.3306 29.3897 28.9461 29.7743 28.4734 29.7743ZM29.3306 12.5982V13.9148H3.70942V12.5982C3.70942 12.1254 4.09394 11.7409 4.56669 11.7409H7.16552C7.1659 11.7409 7.16633 11.741 7.16671 11.741C7.16708 11.741 7.16752 11.7409 7.1679 11.7409H8.72091C8.72129 11.7409 8.72173 11.741 8.7221 11.741C8.72248 11.741 8.72292 11.7409 8.72329 11.7409H24.3804H25.9358H28.4733C28.9461 11.7409 29.3306 12.1254 29.3306 12.5982ZM24.8494 10.8029V2.2187H25.4669V10.8029H24.8494Z" fill="#3F3356"/>
<path id="Vector_12" d="M20.5193 5.22487H21.7515C22.0106 5.22487 22.2205 5.01494 22.2205 4.75587C22.2205 4.49679 22.0106 4.28687 21.7515 4.28687H20.5193C20.2602 4.28687 20.0503 4.49679 20.0503 4.75587C20.0503 5.01494 20.2603 5.22487 20.5193 5.22487Z" fill="#3F3356"/>
</g>
</g>
<defs>
<clipPath id="clip0_1129_5773">
<rect width="32" height="32" fill="white" transform="translate(0.527344 -0.00341797)"/>
</clipPath>
</defs>
</svg>
