<svg width="33" height="32" viewBox="0 0 33 32" fill="none" xmlns="http://www.w3.org/2000/svg">
<g id="11-e-learning" clip-path="url(#clip0_1129_5787)">
<g id="Group">
<path id="Vector" d="M28.5718 7.36328H26.5623C26.3034 7.36328 26.0935 7.57315 26.0935 7.83202C26.0935 8.09089 26.3034 8.30076 26.5623 8.30076H28.5718C29.0227 8.30076 29.3895 8.66763 29.3895 9.11855V23.8939C29.3895 24.3448 29.0227 24.7116 28.5718 24.7116H4.48324C4.03231 24.7116 3.66551 24.3448 3.66551 23.8939V9.11855C3.66551 8.66763 4.03237 8.30076 4.48324 8.30076H6.49275C6.75162 8.30076 6.96149 8.09089 6.96149 7.83202C6.96149 7.57315 6.75162 7.36328 6.49275 7.36328H4.48324C3.51538 7.36328 2.72803 8.1507 2.72803 9.11855V23.8939C2.72803 24.8617 3.51545 25.6491 4.48324 25.6491H12.2566V26.6291C12.2566 26.8879 12.4665 27.0978 12.7254 27.0978C12.9842 27.0978 13.1941 26.8879 13.1941 26.6291V25.6491H19.8609V29.7571C19.8609 29.8442 19.8851 29.9295 19.9309 30.0035L20.5831 31.059H12.4719L12.9868 30.2259H16.1422C16.4011 30.2259 16.611 30.016 16.611 29.7571C16.611 29.4983 16.4011 29.2884 16.1422 29.2884H13.1942V28.531C13.1942 28.2722 12.9843 28.0623 12.7254 28.0623C12.4665 28.0623 12.2567 28.2722 12.2567 28.531V29.624L11.3699 31.059H10.1889C9.93005 31.059 9.72018 31.2689 9.72018 31.5278C9.72018 31.7866 9.93005 31.9965 10.1889 31.9965H11.6313H21.4238H23.0985C23.3574 31.9965 23.5672 31.7866 23.5672 31.5278C23.5672 31.2689 23.3574 31.059 23.0985 31.059H21.6851L20.7984 29.624V25.6491H28.5717C29.5396 25.6491 30.3269 24.8617 30.3269 23.8939V9.11855C30.327 8.1507 29.5396 7.36328 28.5718 7.36328Z" fill="#3F3356"/>
<path id="Vector_2" d="M28.7021 21.3527V9.63489C28.7021 9.27834 28.412 8.98828 28.0555 8.98828H26.5623C26.3034 8.98828 26.0935 9.19815 26.0935 9.45702C26.0935 9.71589 26.3034 9.92576 26.5623 9.92576H27.7645V21.0618H5.29051V9.92576H6.49279C6.75166 9.92576 6.96153 9.71589 6.96153 9.45702C6.96153 9.19815 6.75166 8.98828 6.49279 8.98828H4.99964C4.64308 8.98828 4.35303 9.27834 4.35303 9.63489V21.3527C4.35303 21.7093 4.64308 21.9993 4.99964 21.9993H28.0555C28.412 21.9993 28.7021 21.7092 28.7021 21.3527Z" fill="#3F3356"/>
<path id="Vector_3" d="M16.5586 23.9736C16.9038 23.9736 17.1836 23.6938 17.1836 23.3486C17.1836 23.0034 16.9038 22.7236 16.5586 22.7236C16.2134 22.7236 15.9336 23.0034 15.9336 23.3486C15.9336 23.6938 16.2134 23.9736 16.5586 23.9736Z" fill="#3F3356"/>
<path id="Vector_4" d="M18.4608 30.2261C18.7196 30.2261 18.9295 30.0162 18.9295 29.7573C18.9295 29.4984 18.7196 29.2886 18.4608 29.2886H17.667C17.4081 29.2886 17.1982 29.4984 17.1982 29.7573C17.1982 30.0162 17.4081 30.2261 17.667 30.2261H18.4608Z" fill="#3F3356"/>
<path id="Vector_5" d="M8.48164 7.73081C8.50739 7.73499 8.53295 7.73706 8.5582 7.73706C8.78363 7.73706 8.98244 7.574 9.02019 7.34425C9.0885 6.92845 9.19212 6.51577 9.32818 6.11772C9.41187 5.87279 9.28118 5.6063 9.03619 5.52261C8.7912 5.43892 8.52476 5.56967 8.44108 5.8146C8.28827 6.26178 8.1719 6.72533 8.09515 7.19232C8.05315 7.44769 8.22621 7.68881 8.48164 7.73081Z" fill="#3F3356"/>
<path id="Vector_6" d="M9.20005 5.14786C9.27092 5.18617 9.34723 5.20436 9.42254 5.20436C9.58916 5.20436 9.75053 5.1153 9.83528 4.95842C10.0355 4.58812 10.2682 4.2315 10.527 3.89851C10.6859 3.69414 10.649 3.39965 10.4446 3.24078C10.2402 3.08184 9.94572 3.11884 9.78685 3.32321C9.49642 3.69689 9.23523 4.09707 9.01055 4.51268C8.88749 4.74037 8.9723 5.0248 9.20005 5.14786Z" fill="#3F3356"/>
<path id="Vector_7" d="M11.0656 3.09058C11.1793 3.09058 11.2934 3.04946 11.3835 2.96614C11.6932 2.68015 12.0286 2.41791 12.3805 2.18673C12.5969 2.0446 12.6571 1.75399 12.515 1.53762C12.3728 1.32125 12.0822 1.26106 11.8658 1.40318C11.471 1.66249 11.0947 1.95667 10.7474 2.27747C10.5572 2.45316 10.5454 2.74965 10.7211 2.93983C10.8135 3.03989 10.9394 3.09058 11.0656 3.09058Z" fill="#3F3356"/>
<path id="Vector_8" d="M13.3021 1.62223C13.3653 1.62223 13.4295 1.60935 13.491 1.58223C13.8763 1.41223 14.2785 1.27349 14.6865 1.16968C14.9374 1.10587 15.0891 0.850746 15.0253 0.599877C14.9615 0.349008 14.7067 0.197386 14.4555 0.261135C13.9972 0.377695 13.5454 0.533566 13.1126 0.724499C12.8758 0.828997 12.7685 1.10568 12.873 1.34255C12.9503 1.51786 13.122 1.62223 13.3021 1.62223Z" fill="#3F3356"/>
<path id="Vector_9" d="M10.7606 14.9286C10.8507 15.0114 10.9643 15.0522 11.0778 15.0522C11.2043 15.0522 11.3305 15.0013 11.4229 14.9008C11.5981 14.7102 11.5857 14.4138 11.3952 14.2384C11.085 13.9532 10.7963 13.6401 10.537 13.308C10.3777 13.104 10.0832 13.0676 9.87905 13.227C9.67499 13.3863 9.63868 13.6809 9.79805 13.885C10.0889 14.2574 10.4127 14.6086 10.7606 14.9286Z" fill="#3F3356"/>
<path id="Vector_10" d="M8.55977 10.4133C8.58539 10.4133 8.61133 10.4112 8.63746 10.4069C8.89276 10.3643 9.06526 10.1228 9.0227 9.8674C8.9537 9.45354 8.91845 9.02911 8.91795 8.60593C8.91764 8.34719 8.70789 8.1377 8.44921 8.1377C8.44909 8.1377 8.44884 8.1377 8.44871 8.1377C8.18978 8.13801 7.98016 8.34807 7.98047 8.607C7.98103 9.0813 8.02053 9.55729 8.09797 10.0216C8.13622 10.2509 8.33477 10.4133 8.55977 10.4133Z" fill="#3F3356"/>
<path id="Vector_11" d="M23.5111 12.8787C23.5821 12.9172 23.6586 12.9354 23.734 12.9354C23.9005 12.9354 24.0616 12.8466 24.1465 12.69C24.3722 12.2737 24.5644 11.8359 24.7178 11.3888C24.8018 11.1439 24.6714 10.8773 24.4265 10.7933C24.1816 10.7093 23.915 10.8397 23.831 11.0846C23.6945 11.4827 23.5233 11.8725 23.3223 12.2433C23.199 12.4708 23.2835 12.7553 23.5111 12.8787Z" fill="#3F3356"/>
<path id="Vector_12" d="M22.0899 15.047C22.2035 15.047 22.3174 15.006 22.4074 14.923C22.7551 14.6026 23.0787 14.2511 23.3691 13.8784C23.5282 13.6742 23.4917 13.3797 23.2874 13.2206C23.0832 13.0614 22.7887 13.0981 22.6296 13.3023C22.3707 13.6346 22.0823 13.9479 21.7722 14.2336C21.5818 14.409 21.5697 14.7056 21.7451 14.896C21.8376 14.9961 21.9636 15.047 22.0899 15.047Z" fill="#3F3356"/>
<path id="Vector_13" d="M15.8945 0.962433C15.9076 0.962433 15.9208 0.96187 15.9341 0.960808C16.3526 0.925871 16.7823 0.925184 17.2002 0.958558C17.4589 0.979182 17.6842 0.786749 17.7049 0.528693C17.7255 0.270636 17.533 0.0447042 17.275 0.0240797C16.8065 -0.0134194 16.3251 -0.0125444 15.856 0.0265796C15.5981 0.0481416 15.4064 0.274761 15.4279 0.532755C15.4484 0.777375 15.6533 0.962433 15.8945 0.962433Z" fill="#3F3356"/>
<path id="Vector_14" d="M9.8434 12.2502C9.64222 11.88 9.47078 11.4908 9.33391 11.0933C9.2496 10.8485 8.98286 10.7185 8.73811 10.8028C8.49331 10.8871 8.36325 11.1538 8.44756 11.3986C8.60131 11.845 8.7938 12.2822 9.01973 12.6979C9.10473 12.8542 9.26579 12.9429 9.43204 12.9429C9.5076 12.9429 9.58434 12.9246 9.65547 12.8859C9.88284 12.7622 9.96702 12.4776 9.8434 12.2502Z" fill="#3F3356"/>
<path id="Vector_15" d="M18.4488 1.16305C18.8573 1.26536 19.2602 1.40279 19.6464 1.57154C19.7076 1.59822 19.7712 1.61085 19.8339 1.61085C20.0145 1.61085 20.1867 1.50579 20.2636 1.32967C20.3673 1.09249 20.259 0.816117 20.0217 0.712494C19.588 0.522936 19.1353 0.368565 18.6764 0.25363C18.4256 0.190819 18.1708 0.343315 18.1079 0.594497C18.045 0.845616 18.1976 1.10017 18.4488 1.16305Z" fill="#3F3356"/>
<path id="Vector_16" d="M12.3942 15.0159C12.1776 14.8743 11.8871 14.9351 11.7454 15.1518C11.6038 15.3684 11.6646 15.6589 11.8812 15.8006C12.2776 16.0597 12.698 16.2872 13.1307 16.4769C13.192 16.5037 13.2558 16.5164 13.3187 16.5164C13.4991 16.5164 13.6711 16.4116 13.7482 16.2357C13.8522 15.9987 13.7443 15.7222 13.5071 15.6182C13.1217 15.4494 12.7473 15.2467 12.3942 15.0159Z" fill="#3F3356"/>
<path id="Vector_17" d="M18.4667 16.0262C18.0593 16.1292 17.6395 16.199 17.2189 16.2337C16.9609 16.2549 16.7689 16.4813 16.7902 16.7393C16.8104 16.9842 17.0154 17.1696 17.2568 17.1696C17.2697 17.1696 17.2827 17.169 17.2958 17.168C17.7679 17.1291 18.2392 17.0507 18.6966 16.935C18.9476 16.8715 19.0996 16.6166 19.0361 16.3657C18.9727 16.1147 18.7178 15.9626 18.4667 16.0262Z" fill="#3F3356"/>
<path id="Vector_18" d="M20.7741 15.0118C20.4213 15.2428 20.0474 15.4458 19.6625 15.6149C19.4255 15.7191 19.3179 15.9958 19.4221 16.2328C19.4993 16.4084 19.6711 16.5129 19.8514 16.5129C19.9144 16.5129 19.9785 16.5001 20.0399 16.4732C20.472 16.2831 20.8918 16.0553 21.2877 15.796C21.5042 15.6541 21.5648 15.3636 21.423 15.1471C21.2811 14.9304 20.9905 14.8699 20.7741 15.0118Z" fill="#3F3356"/>
<path id="Vector_19" d="M14.7044 16.0282C14.4531 15.965 14.1986 16.1173 14.1354 16.3683C14.0722 16.6194 14.2244 16.8741 14.4755 16.9373C14.9329 17.0525 15.4044 17.1303 15.8767 17.1686C15.8896 17.1697 15.9023 17.1702 15.9151 17.1702C16.1568 17.1702 16.3619 16.9845 16.3818 16.7393C16.4026 16.4813 16.2105 16.2552 15.9525 16.2342C15.5316 16.2 15.1117 16.1307 14.7044 16.0282Z" fill="#3F3356"/>
<path id="Vector_20" d="M20.7601 2.17275C21.1129 2.40274 21.4493 2.66392 21.76 2.94898C21.85 3.0316 21.9635 3.07235 22.0768 3.07235C22.2035 3.07235 22.3298 3.02129 22.4223 2.92054C22.5973 2.7298 22.5846 2.4333 22.3938 2.25825C22.0453 1.93844 21.6679 1.64545 21.2722 1.38739C21.0553 1.24608 20.7649 1.30714 20.6235 1.52408C20.4821 1.74095 20.5433 2.03138 20.7601 2.17275Z" fill="#3F3356"/>
<path id="Vector_21" d="M24.7126 8.10864C24.4538 8.10864 24.2439 8.31851 24.2439 8.57738V8.59669C24.2439 9.01981 24.2091 9.44424 24.1406 9.85816C24.0984 10.1135 24.2711 10.3549 24.5266 10.3972C24.5525 10.4014 24.5782 10.4035 24.6037 10.4035C24.8289 10.4035 25.0275 10.2408 25.0655 10.0113C25.1424 9.54686 25.1814 9.07093 25.1814 8.59676V8.57744C25.1814 8.31851 24.9715 8.10864 24.7126 8.10864Z" fill="#3F3356"/>
<path id="Vector_22" d="M22.6192 3.87825C22.879 4.2103 23.1128 4.56592 23.3142 4.93535C23.3993 5.09147 23.5601 5.1799 23.7262 5.1799C23.802 5.1799 23.8788 5.16147 23.9501 5.12266C24.1774 4.99878 24.2613 4.71404 24.1374 4.4868C23.9115 4.07224 23.6491 3.67313 23.3575 3.30051C23.1979 3.09664 22.9034 3.06064 22.6994 3.22026C22.4955 3.37976 22.4596 3.67438 22.6192 3.87825Z" fill="#3F3356"/>
<path id="Vector_23" d="M23.8252 6.0917C23.9626 6.48925 24.0677 6.90155 24.1376 7.31717C24.1761 7.54616 24.3746 7.70828 24.5993 7.70828C24.6251 7.70828 24.6513 7.70616 24.6775 7.70178C24.9328 7.65885 25.105 7.4171 25.0621 7.1618C24.9837 6.69506 24.8656 6.23201 24.7112 5.78539C24.6266 5.54071 24.3597 5.41109 24.115 5.49552C23.8704 5.58015 23.7406 5.84708 23.8252 6.0917Z" fill="#3F3356"/>
<path id="Vector_24" d="M16.5811 2.00806C12.948 2.00806 9.99219 4.9638 9.99219 8.59696C9.99219 12.2301 12.9479 15.1859 16.5811 15.1859C20.2143 15.1859 23.17 12.2301 23.17 8.5969C23.17 4.96374 20.2142 2.00806 16.5811 2.00806ZM20.2821 8.12816C20.2563 7.4448 20.1743 6.79319 20.044 6.18721C21.1486 6.66195 21.9343 7.35212 22.1635 8.12816H20.2821ZM19.3432 8.12816H17.0498V5.53379C17.7339 5.56604 18.3877 5.66791 18.9866 5.82609C19.1879 6.53039 19.3094 7.31124 19.3432 8.12816ZM17.0498 4.596V3.03591C17.5638 3.23047 18.06 3.73564 18.4589 4.48875C18.5077 4.58087 18.5539 4.67662 18.599 4.77387C18.1007 4.67824 17.5814 4.61831 17.0498 4.596ZM16.1124 3.03591V4.596C15.5807 4.61825 15.0614 4.67824 14.5632 4.77387C14.6083 4.67662 14.6545 4.58087 14.7033 4.48875C15.1021 3.73564 15.5984 3.23047 16.1124 3.03591ZM16.1124 5.53379V8.12816H13.819C13.8528 7.31118 13.9742 6.53039 14.1756 5.82609C14.7744 5.66791 15.4282 5.56604 16.1124 5.53379ZM12.88 8.12816H10.9986C11.2278 7.35212 12.0135 6.66201 13.1181 6.18727C12.9878 6.79319 12.9058 7.44487 12.88 8.12816ZM12.88 9.06564C12.9059 9.74894 12.9878 10.4006 13.1182 11.0065C12.0136 10.5318 11.2278 9.84168 10.9987 9.06564H12.88ZM13.8189 9.06564H16.1123V11.66C15.4282 11.6278 14.7743 11.5259 14.1755 11.3677C13.9742 10.6634 13.8527 9.88262 13.8189 9.06564ZM16.1124 12.5978V14.158C15.5984 13.9634 15.1021 13.4582 14.7033 12.7051C14.6545 12.6129 14.6083 12.5172 14.5632 12.4199C15.0614 12.5156 15.5807 12.5756 16.1124 12.5978ZM17.0498 14.158V12.5978C17.5814 12.5756 18.1007 12.5156 18.599 12.4199C18.5539 12.5172 18.5077 12.6129 18.4589 12.7051C18.06 13.4582 17.5638 13.9634 17.0498 14.158ZM17.0498 11.66V9.06564H19.3432C19.3094 9.88256 19.188 10.6634 18.9866 11.3677C18.3877 11.5259 17.7339 11.6278 17.0498 11.66ZM20.2821 9.06564H22.1635C21.9343 9.84168 21.1486 10.5318 20.044 11.0065C20.1743 10.4007 20.2563 9.749 20.2821 9.06564ZM21.5809 5.96503C21.4434 5.8684 21.2977 5.77516 21.1435 5.68591C20.7161 5.43848 20.24 5.23079 19.7295 5.06386C19.5137 4.45019 19.2423 3.90739 18.9269 3.4559C20.0637 3.9767 20.9989 4.86368 21.5809 5.96503ZM14.2352 3.4559C13.9198 3.90739 13.6484 4.45019 13.4327 5.06386C12.9221 5.23073 12.446 5.43848 12.0186 5.68591C11.8645 5.77516 11.7188 5.86834 11.5813 5.96503C12.1633 4.86368 13.0985 3.9767 14.2352 3.4559ZM11.5812 11.2288C11.7188 11.3255 11.8645 11.4187 12.0186 11.508C12.4461 11.7554 12.9222 11.9631 13.4327 12.1299C13.6484 12.7436 13.9198 13.2864 14.2352 13.738C13.0984 13.2172 12.1633 12.3301 11.5812 11.2288ZM18.9269 13.738C19.2423 13.2865 19.5137 12.7437 19.7295 12.1299C20.24 11.9631 20.7161 11.7554 21.1435 11.508C21.2977 11.4187 21.4434 11.3255 21.581 11.2288C20.9989 12.3302 20.0637 13.2172 18.9269 13.738Z" fill="#D23C41"/>
<path id="Vector_25" d="M24.8687 13.0273C24.8687 13.2861 25.0786 13.496 25.3375 13.496H26.0307V18.8533H23.3662C23.1073 18.8533 22.8975 19.0631 22.8975 19.322C22.8975 19.5809 23.1073 19.7907 23.3662 19.7907H26.2231C26.6339 19.7907 26.9682 19.4565 26.9682 19.0457V13.3036C26.9682 12.8928 26.6339 12.5586 26.2231 12.5586H25.3375C25.0786 12.5585 24.8687 12.7684 24.8687 13.0273Z" fill="#3F3356"/>
<path id="Vector_26" d="M6.19385 13.3037V19.0458C6.19385 19.4566 6.52809 19.7908 6.93889 19.7908H21.4646C21.7234 19.7908 21.9333 19.5809 21.9333 19.3221C21.9333 19.0632 21.7234 18.8533 21.4646 18.8533H7.13133V13.4961H7.77975C8.03862 13.4961 8.24849 13.2862 8.24849 13.0273C8.24849 12.7685 8.03862 12.5586 7.77975 12.5586H6.93889C6.52809 12.5587 6.19385 12.8929 6.19385 13.3037Z" fill="#3F3356"/>
</g>
</g>
<defs>
<clipPath id="clip0_1129_5787">
<rect width="32" height="32" fill="white" transform="translate(0.527344 -0.00341797)"/>
</clipPath>
</defs>
</svg>
