<svg width="33" height="32" viewBox="0 0 33 32" fill="none" xmlns="http://www.w3.org/2000/svg">
<g id="01-tablet" clip-path="url(#clip0_1129_5852)">
<g id="Group">
<path id="Vector" d="M26.0425 0.6564H24.561C24.4175 0.271725 24.0475 -0.00341797 23.6135 -0.00341797H21.714C21.28 -0.00341797 20.9101 0.271725 20.7666 0.6564H10.2372C9.22529 0.6564 8.40199 1.47964 8.40199 2.49159V13.4359C8.1592 13.8416 7.18506 15.4454 5.66295 17.9451C5.09413 18.8793 5.01984 20.0337 5.46429 21.0333L7.51835 25.6532V27.6023C7.08304 27.7221 6.76195 28.1204 6.76195 28.5933V31.5272C6.76195 31.7865 6.97213 31.9966 7.23138 31.9966C7.49062 31.9966 7.7008 31.7865 7.7008 31.5272V28.5933C7.7008 28.5437 7.74111 28.5034 7.79068 28.5034H12.6534C12.703 28.5034 12.7433 28.5437 12.7433 28.5933V31.5272C12.7433 31.7865 12.9535 31.9966 13.2127 31.9966C13.472 31.9966 13.6822 31.7865 13.6822 31.5272V28.5933C13.6822 28.1204 13.3611 27.7222 12.9258 27.6023V26.8428H26.0425C27.0544 26.8428 27.8776 26.0195 27.8776 25.0076V2.49159C27.8776 1.47964 27.0544 0.6564 26.0425 0.6564ZM21.641 1.00847C21.641 0.968158 21.6738 0.935424 21.7141 0.935424H23.6135C23.6539 0.935424 23.6866 0.968158 23.6866 1.00847V4.44288L22.8605 4.06171C22.7357 4.00412 22.5919 4.00412 22.4672 4.06171L21.641 4.44288V1.00847ZM6.3222 20.6519C6.00293 19.9337 6.05626 19.1043 6.46484 18.4333C6.99272 17.5665 7.69466 16.4131 8.26467 15.4748C8.31155 15.3977 8.35711 15.3227 8.40199 15.2487V18.3219V20.8774V21.4553C8.40199 21.7145 8.61216 21.9247 8.87141 21.9247C9.13065 21.9247 9.34083 21.7145 9.34083 21.4553V20.8774V18.3219C9.34083 17.9616 9.63394 17.6685 9.9942 17.6685C10.3545 17.6685 10.6476 17.9616 10.6476 18.3219V20.7707C10.6476 20.8665 10.6769 20.9599 10.7314 21.0385L11.5791 22.2586C11.8459 22.6426 11.9869 23.0928 11.9869 23.5604V27.5643H8.45719V25.5533C8.45719 25.4876 8.44342 25.4226 8.4167 25.3626L6.3222 20.6519ZM26.9388 25.0075C26.9388 25.5017 26.5367 25.9038 26.0425 25.9038H12.9258V25.2779H25.8435C26.1027 25.2779 26.3129 25.0677 26.3129 24.8085V18.7431C26.3129 18.4838 26.1027 18.2736 25.8435 18.2736C25.5842 18.2736 25.3741 18.4838 25.3741 18.7431V24.3391H12.9258V23.5605C12.9258 22.9005 12.7268 22.2651 12.3502 21.723L11.5865 20.6238V18.322C11.5865 17.7828 11.3168 17.3057 10.9056 17.0175V7.48159C10.9056 7.22235 10.6955 7.01217 10.4362 7.01217C10.177 7.01217 9.96679 7.22235 9.96679 7.48159V16.7304C9.74409 16.7343 9.53254 16.784 9.34089 16.8706V2.49159C9.34089 1.99732 9.74297 1.59524 10.2372 1.59524H20.7022V2.22114H10.4362C10.177 2.22114 9.96679 2.43131 9.96679 2.69056V5.57693C9.96679 5.83618 10.177 6.04635 10.4362 6.04635C10.6955 6.04635 10.9056 5.83618 10.9056 5.57693V3.15998H20.7022V4.87743C20.7022 5.10388 20.816 5.31193 21.0068 5.43404C21.1976 5.55615 21.4342 5.5723 21.6399 5.47748L22.6638 5.00499L23.6878 5.47748C23.7765 5.51841 23.8709 5.53869 23.965 5.53869C24.089 5.53869 24.2123 5.50345 24.3208 5.4341C24.5115 5.31206 24.6254 5.10395 24.6254 4.8775V3.16004H25.3741V16.8385C25.3741 17.0977 25.5842 17.3079 25.8435 17.3079C26.1027 17.3079 26.3129 17.0977 26.3129 16.8385V2.69056C26.3129 2.43131 26.1027 2.22114 25.8435 2.22114H24.6254V1.59524H26.0425C26.5367 1.59524 26.9388 1.99732 26.9388 2.49159V25.0075Z" fill="#3F3356"/>
<path id="Vector_2" d="M24.1563 15.1108H12.2282C11.969 15.1108 11.7588 15.321 11.7588 15.5803C11.7588 15.8395 11.969 16.0497 12.2282 16.0497H23.6869V19.563H13.1045C12.8452 19.563 12.635 19.7731 12.635 20.0324C12.635 20.2916 12.8452 20.5018 13.1045 20.5018H24.1563C24.4156 20.5018 24.6257 20.2916 24.6257 20.0324V15.5803C24.6257 15.321 24.4156 15.1108 24.1563 15.1108Z" fill="#D23C41"/>
<path id="Vector_3" d="M16.6087 9.43467C16.9283 9.43467 17.1883 9.17461 17.1883 8.85503V4.3499C17.1883 4.03032 16.9283 3.77026 16.6087 3.77026H12.1036C11.784 3.77026 11.5239 4.03032 11.5239 4.3499V8.85503C11.5239 9.17461 11.784 9.43467 12.1036 9.43467H16.6087ZM12.4627 4.70911H16.2494V8.49583H12.4627V4.70911Z" fill="#D23C41"/>
<path id="Vector_4" d="M12.4567 13.0938C12.1975 13.0938 11.9873 13.3039 11.9873 13.5632C11.9873 13.8224 12.1975 14.0326 12.4567 14.0326H13.8861C14.1454 14.0326 14.3556 13.8224 14.3556 13.5632C14.3556 13.3039 14.1454 13.0938 13.8861 13.0938H12.4567Z" fill="#D23C41"/>
<path id="Vector_5" d="M24.1561 12.9824H15.6086C15.3493 12.9824 15.1392 13.1926 15.1392 13.4518C15.1392 13.7111 15.3493 13.9213 15.6086 13.9213H24.1561C24.4153 13.9213 24.6255 13.7111 24.6255 13.4518C24.6255 13.1926 24.4154 12.9824 24.1561 12.9824Z" fill="#D23C41"/>
<path id="Vector_6" d="M24.1561 10.6836H22.7267C22.4675 10.6836 22.2573 10.8938 22.2573 11.153C22.2573 11.4123 22.4675 11.6224 22.7267 11.6224H24.1561C24.4153 11.6224 24.6255 11.4123 24.6255 11.153C24.6255 10.8938 24.4154 10.6836 24.1561 10.6836Z" fill="#D23C41"/>
<path id="Vector_7" d="M21.4737 11.2643C21.4737 11.0051 21.2635 10.7949 21.0043 10.7949H12.4567C12.1975 10.7949 11.9873 11.0051 11.9873 11.2643C11.9873 11.5236 12.1975 11.7338 12.4567 11.7338H21.0043C21.2635 11.7338 21.4737 11.5236 21.4737 11.2643Z" fill="#D23C41"/>
<path id="Vector_8" d="M18.4714 9.43469H19.3834C19.6426 9.43469 19.8528 9.22452 19.8528 8.96527C19.8528 8.70603 19.6426 8.49585 19.3834 8.49585H18.4714C18.2121 8.49585 18.002 8.70603 18.002 8.96527C18.002 9.22452 18.2121 9.43469 18.4714 9.43469Z" fill="#D23C41"/>
<path id="Vector_9" d="M24.1562 8.49585H21.0041C20.7448 8.49585 20.5347 8.70603 20.5347 8.96527C20.5347 9.22452 20.7448 9.43469 21.0041 9.43469H24.1562C24.4154 9.43469 24.6256 9.22452 24.6256 8.96527C24.6256 8.70603 24.4155 8.49585 24.1562 8.49585Z" fill="#D23C41"/>
<path id="Vector_10" d="M24.1558 6.13306H23.2438C22.9846 6.13306 22.7744 6.34323 22.7744 6.60248C22.7744 6.86172 22.9846 7.0719 23.2438 7.0719H24.1558C24.4151 7.0719 24.6252 6.86172 24.6252 6.60248C24.6252 6.34323 24.4151 6.13306 24.1558 6.13306Z" fill="#D23C41"/>
<path id="Vector_11" d="M18.4714 7.0719H21.6234C21.8827 7.0719 22.0929 6.86172 22.0929 6.60248C22.0929 6.34323 21.8827 6.13306 21.6234 6.13306H18.4714C18.2121 6.13306 18.002 6.34323 18.002 6.60248C18.002 6.86172 18.2121 7.0719 18.4714 7.0719Z" fill="#D23C41"/>
</g>
</g>
<defs>
<clipPath id="clip0_1129_5852">
<rect width="32" height="32" fill="white" transform="translate(0.527344 -0.00341797)"/>
</clipPath>
</defs>
</svg>
