<svg width="33" height="32" viewBox="0 0 33 32" fill="none" xmlns="http://www.w3.org/2000/svg">
<g id="39-online learning" clip-path="url(#clip0_1129_5815)">
<g id="Group">
<path id="Vector" d="M6.2104 24.4779C6.04606 24.277 5.75006 24.2473 5.54939 24.4115C5.34853 24.5757 5.31885 24.8717 5.483 25.0725C5.78207 25.4383 6.10337 25.7936 6.43794 26.1286C6.5297 26.2204 6.65001 26.2663 6.77032 26.2663C6.89045 26.2663 7.01058 26.2205 7.10227 26.1289C7.28584 25.9456 7.28603 25.6481 7.10271 25.4646C6.79005 25.1516 6.4898 24.8196 6.2104 24.4779Z" fill="#3F3356"/>
<path id="Vector_2" d="M5.42091 23.4075C5.17659 23.0394 4.94805 22.6547 4.74168 22.2641C4.62042 22.0348 4.33633 21.947 4.10685 22.0682C3.87749 22.1894 3.78975 22.4736 3.91094 22.703C4.1319 23.1212 4.3766 23.533 4.63808 23.927C4.72852 24.0633 4.87777 24.1371 5.0299 24.1371C5.11915 24.1371 5.20934 24.1117 5.28926 24.0587C5.5054 23.9152 5.56434 23.6237 5.42091 23.4075Z" fill="#3F3356"/>
<path id="Vector_3" d="M4.17992 21.0584C4.01369 20.6488 3.86645 20.2264 3.7425 19.8027C3.6696 19.5538 3.40868 19.411 3.15966 19.4839C2.9107 19.5568 2.76796 19.8177 2.8408 20.0667C2.97364 20.5205 3.13135 20.9731 3.30941 21.4118C3.3835 21.5943 3.55924 21.705 3.74482 21.705C3.80357 21.705 3.8635 21.6938 3.92131 21.6703C4.16175 21.5728 4.2775 21.2988 4.17992 21.0584Z" fill="#3F3356"/>
<path id="Vector_4" d="M9.15842 27.1491C8.79059 26.9044 8.43071 26.6382 8.08887 26.3579C7.88808 26.1935 7.59214 26.2228 7.42774 26.4234C7.26327 26.6241 7.29264 26.9201 7.49331 27.0846C7.8592 27.3844 8.24432 27.6693 8.63802 27.9313C8.718 27.9846 8.80838 28.0101 8.89775 28.0101C9.04969 28.0101 9.19882 27.9364 9.28926 27.8004C9.433 27.5844 9.37444 27.2929 9.15842 27.1491Z" fill="#3F3356"/>
<path id="Vector_5" d="M3.05775 19.0574C3.31279 19.0098 3.48101 18.7645 3.43341 18.5095C3.35256 18.0763 3.29262 17.6328 3.25523 17.1915C3.23324 16.933 3.00527 16.7415 2.74748 16.7631C2.489 16.7851 2.29722 17.0123 2.31908 17.2709C2.35916 17.7432 2.42336 18.2179 2.50985 18.6817C2.55201 18.9076 2.74929 19.0654 2.97107 19.0654C2.99969 19.0655 3.02869 19.0629 3.05775 19.0574Z" fill="#3F3356"/>
<path id="Vector_6" d="M2.73267 16.3247C2.73487 16.3248 2.73706 16.3248 2.73931 16.3248C2.99566 16.3248 3.20529 16.1188 3.20886 15.8616C3.21506 15.4183 3.24343 14.9715 3.2931 14.5335C3.32235 14.2757 3.13708 14.043 2.87936 14.0138C2.62144 13.9845 2.38889 14.1697 2.35964 14.4275C2.30647 14.8963 2.27616 15.3743 2.26958 15.8485C2.26588 16.1079 2.47326 16.3211 2.73267 16.3247Z" fill="#3F3356"/>
<path id="Vector_7" d="M14.0545 29.1418C13.6202 29.0604 13.1853 28.9559 12.7616 28.8313C12.5123 28.7579 12.2515 28.9005 12.1784 29.1494C12.1052 29.3984 12.2476 29.6594 12.4965 29.7326C12.9503 29.866 13.4162 29.978 13.8812 30.0652C13.9105 30.0707 13.9396 30.0734 13.9684 30.0734C14.1899 30.0734 14.3872 29.9158 14.4295 29.6902C14.4774 29.4351 14.3095 29.1896 14.0545 29.1418Z" fill="#3F3356"/>
<path id="Vector_8" d="M11.506 28.3926C11.0972 28.2261 10.6918 28.0368 10.301 27.8298C10.0717 27.7085 9.7875 27.7959 9.66606 28.0251C9.54462 28.2543 9.63205 28.5386 9.86134 28.6601C10.2798 28.8817 10.7139 29.0844 11.1517 29.2627C11.2097 29.2863 11.2697 29.2975 11.3287 29.2975C11.514 29.2975 11.6897 29.1871 11.7639 29.0049C11.8618 28.7645 11.7463 28.4904 11.506 28.3926Z" fill="#3F3356"/>
<path id="Vector_9" d="M19.3429 29.0723C18.9115 29.1652 18.4699 29.2374 18.0301 29.2867C17.7723 29.3157 17.5868 29.5481 17.6158 29.8059C17.6428 30.0459 17.8461 30.2233 18.0819 30.2233C18.0995 30.2233 18.1172 30.2223 18.135 30.2203C18.6058 30.1674 19.0786 30.0902 19.5406 29.9908C19.7943 29.9361 19.9556 29.6863 19.901 29.4327C19.8464 29.1791 19.596 29.0179 19.3429 29.0723Z" fill="#3F3356"/>
<path id="Vector_10" d="M16.7081 29.3693C16.706 29.3693 16.7039 29.3693 16.7018 29.3694C16.2573 29.375 15.8113 29.359 15.3722 29.3212C15.1135 29.2997 14.8862 29.4907 14.864 29.7491C14.8419 30.0076 15.0334 30.2351 15.2919 30.2573C15.6997 30.2923 16.115 30.31 16.5265 30.31C16.5892 30.3099 16.6517 30.3096 16.7142 30.3087C16.9736 30.3053 17.1811 30.0922 17.1776 29.8328C17.1743 29.5756 16.9646 29.3693 16.7081 29.3693Z" fill="#3F3356"/>
<path id="Vector_11" d="M21.8035 3.82024C22.2091 3.99548 22.6104 4.19333 22.9964 4.40835C23.0687 4.44874 23.1472 4.46778 23.2246 4.46778C23.3895 4.46778 23.5494 4.38079 23.6354 4.22653C23.7616 3.99993 23.6803 3.71383 23.4536 3.58763C23.0403 3.35733 22.6105 3.14539 22.1762 2.95781C21.9381 2.85497 21.6616 2.96458 21.5587 3.2027C21.4557 3.44088 21.5654 3.71734 21.8035 3.82024Z" fill="#3F3356"/>
<path id="Vector_12" d="M24.1248 5.11287C24.4872 5.36509 24.8414 5.63872 25.1776 5.92626C25.2662 6.00192 25.3746 6.039 25.4827 6.039C25.6152 6.039 25.747 5.98319 25.8399 5.87459C26.0085 5.67743 25.9854 5.38087 25.7883 5.21227C25.4285 4.90462 25.0494 4.61176 24.6615 4.34176C24.4486 4.19363 24.1558 4.24606 24.0076 4.459C23.8593 4.67189 23.9118 4.96469 24.1248 5.11287Z" fill="#3F3356"/>
<path id="Vector_13" d="M27.783 8.93197C28.0197 9.30544 28.2401 9.69488 28.438 10.0893C28.5203 10.2536 28.6861 10.3486 28.8582 10.3486C28.929 10.3486 29.0008 10.3325 29.0684 10.2986C29.3003 10.1824 29.394 9.90012 29.2777 9.6682C29.0659 9.24581 28.83 8.82888 28.5765 8.42898C28.4376 8.20989 28.1473 8.14482 27.9282 8.2838C27.7091 8.42265 27.6441 8.71288 27.783 8.93197Z" fill="#3F3356"/>
<path id="Vector_14" d="M27.0158 7.84533C27.1084 7.96357 27.2465 8.02533 27.3858 8.02533C27.4872 8.02533 27.5893 7.9927 27.6753 7.92531C27.8795 7.76528 27.9153 7.47004 27.7552 7.26586C27.4636 6.89371 27.1498 6.53177 26.8226 6.19018C26.6432 6.00297 26.3459 5.9964 26.1585 6.1759C25.9711 6.35533 25.9647 6.65271 26.1442 6.84004C26.45 7.15933 26.7432 7.49754 27.0158 7.84533Z" fill="#3F3356"/>
<path id="Vector_15" d="M28.9738 11.3063C29.1313 11.719 29.2695 12.1444 29.3846 12.5708C29.4411 12.7803 29.6308 12.9182 29.8378 12.9182C29.8783 12.9182 29.9196 12.9129 29.9605 12.9019C30.211 12.8343 30.3592 12.5764 30.2916 12.3259C30.1682 11.8692 30.0202 11.4134 29.8516 10.9714C29.7591 10.729 29.4876 10.6074 29.2452 10.7C29.0028 10.7925 28.8814 11.0639 28.9738 11.3063Z" fill="#3F3356"/>
<path id="Vector_16" d="M30.3216 16.0697C30.0617 16.059 29.8449 16.2636 29.8359 16.5229C29.8205 16.9659 29.7829 17.412 29.724 17.8488C29.6893 18.1059 29.8696 18.3424 30.1268 18.3771C30.1481 18.38 30.1692 18.3814 30.1902 18.3814C30.4217 18.3814 30.6233 18.2102 30.6551 17.9743C30.7181 17.5069 30.7584 17.0295 30.7748 16.5554C30.7838 16.2961 30.5809 16.0787 30.3216 16.0697Z" fill="#3F3356"/>
<path id="Vector_17" d="M13.8931 2.98471C13.9227 2.98471 13.9526 2.98195 13.9827 2.97612C14.4162 2.89232 14.8593 2.82951 15.2998 2.78942C15.5582 2.76593 15.7486 2.53746 15.725 2.2791C15.7015 2.02069 15.4724 1.82954 15.2147 1.8539C14.7431 1.89686 14.2687 1.96407 13.8045 2.05376C13.5498 2.10292 13.3832 2.34937 13.4325 2.60403C13.4758 2.82869 13.6726 2.98471 13.8931 2.98471Z" fill="#3F3356"/>
<path id="Vector_18" d="M30.0536 13.3307C29.7977 13.3728 29.6244 13.6145 29.6665 13.8705C29.7382 14.3057 29.7887 14.7503 29.8169 15.192C29.8327 15.4408 30.0394 15.6319 30.2852 15.6319C30.2953 15.6319 30.3054 15.6316 30.3155 15.6309C30.5744 15.6144 30.7709 15.3911 30.7544 15.1323C30.7244 14.6596 30.6701 14.1837 30.5935 13.7178C30.5512 13.4619 30.3095 13.2889 30.0536 13.3307Z" fill="#3F3356"/>
<path id="Vector_19" d="M19.2715 3.0171C19.7039 3.10767 20.1366 3.22134 20.5575 3.35494C20.6048 3.3699 20.6527 3.37711 20.6998 3.37711C20.899 3.37711 21.0839 3.24934 21.1473 3.04936C21.2258 2.80209 21.089 2.53804 20.8417 2.45956C20.3908 2.31645 19.9273 2.19469 19.4641 2.09768C19.2103 2.04463 18.9613 2.20722 18.908 2.46113C18.8548 2.71485 19.0176 2.96387 19.2715 3.0171Z" fill="#3F3356"/>
<path id="Vector_20" d="M16.6298 2.73418C17.0727 2.73756 17.5195 2.76299 17.958 2.80984C17.9749 2.81159 17.9917 2.81253 18.0084 2.81253C18.2454 2.81253 18.4492 2.63366 18.4749 2.39259C18.5024 2.13468 18.3156 1.90325 18.0577 1.87563C17.5888 1.82559 17.1107 1.79835 16.637 1.79471C16.376 1.79152 16.1657 2.00146 16.1636 2.26081C16.1616 2.5203 16.3703 2.73218 16.6298 2.73418Z" fill="#3F3356"/>
<path id="Vector_21" d="M10.9116 9.3203C11.0637 9.11017 11.0167 8.81649 10.8066 8.6643C10.5965 8.51223 10.3028 8.55921 10.1506 8.76933C10.1268 8.80215 10.1013 8.83334 10.0766 8.86522C9.8086 8.19444 9.28375 7.6632 8.62693 7.38299C8.82541 7.12433 8.95719 6.81217 8.99639 6.47208H9.39536C9.87824 6.47208 10.2711 6.07926 10.2711 5.59644V4.62503C10.2711 4.58789 10.27 4.55094 10.2686 4.51417C10.6473 5.10328 10.868 5.80312 10.868 6.55394C10.868 6.71516 10.8565 6.88395 10.8337 7.05549C10.7997 7.31266 10.9806 7.54878 11.2378 7.58285C11.4947 7.61673 11.731 7.43598 11.7651 7.17881C11.7932 6.9665 11.8075 6.7563 11.8075 6.55394C11.8075 3.94974 9.68878 1.83105 7.08458 1.83105C4.48044 1.83105 2.36182 3.94974 2.36182 6.55394C2.36182 9.15815 4.48044 11.2768 7.08458 11.2768C8.59399 11.2768 10.0246 10.5454 10.9116 9.3203ZM9.31105 9.60859C8.67065 10.0747 7.89202 10.3373 7.08464 10.3373C6.27432 10.3373 5.52331 10.0804 4.90702 9.64492C5.02095 8.7677 5.76212 8.10431 6.66727 8.10431H7.55613C8.44073 8.10431 9.17984 8.74497 9.31105 9.60859ZM8.06945 6.25895C8.06945 6.72881 7.71183 7.11662 7.2545 7.16485H6.91491C6.45758 7.11662 6.09996 6.72887 6.09996 6.25895V5.20061H8.06945V6.25895ZM9.33166 5.53268H9.00892V4.73088C9.00892 4.4714 8.79867 4.26114 8.53919 4.26114H5.63022C5.37074 4.26114 5.16049 4.4714 5.16049 4.73088V5.53268H4.83775V4.62503C4.83775 3.81828 5.36892 3.13341 6.09983 2.90136C6.1966 2.87524 6.29493 2.85319 6.39451 2.83478C6.47674 2.82332 6.56054 2.81693 6.64591 2.81693H7.52356C7.60886 2.81693 7.6926 2.82332 7.77477 2.83478C7.87448 2.85326 7.97294 2.8753 8.06977 2.90148C8.80061 3.13359 9.33172 3.8184 9.33172 4.62515V5.53268H9.33166ZM3.30135 6.55394C3.30135 5.80281 3.52225 5.10272 3.90123 4.51348C3.89972 4.55056 3.89822 4.58758 3.89822 4.62503V5.59644C3.89822 6.07926 4.29104 6.47208 4.77393 6.47208H5.17283C5.21291 6.81956 5.35007 7.13754 5.55588 7.3994C4.89994 7.69076 4.3838 8.23346 4.12826 8.91075C3.61143 8.26377 3.30135 7.44462 3.30135 6.55394Z" fill="#D23C41"/>
<path id="Vector_22" d="M27.3107 19.0199C27.5756 18.056 27.7101 17.0603 27.7101 16.0523C27.7101 14.5693 27.4154 13.115 26.8568 11.768C26.8478 11.7374 26.8355 11.7078 26.8203 11.6795C26.3634 10.6037 25.7372 9.59806 24.9568 8.7035C23.5257 7.06325 21.6571 5.88334 19.5913 5.2948C19.5743 5.2891 19.5571 5.28434 19.5396 5.28064C19.2086 5.18808 18.8726 5.11085 18.5327 5.0491C18.3924 4.08439 17.5601 3.34102 16.5572 3.34102C15.5581 3.34102 14.7281 4.07857 14.583 5.03782C14.2243 5.10077 13.868 5.18112 13.5172 5.27889C12.922 2.27134 10.2642 -0.00341797 7.08464 -0.00341797C3.46894 -0.00341797 0.527344 2.93824 0.527344 6.55394C0.527344 9.71963 2.78231 12.3685 5.77032 12.9788C5.48598 13.975 5.34149 15.0063 5.34149 16.0522C5.34149 17.5681 5.64518 19.0141 6.19402 20.3336C6.20373 20.367 6.21732 20.3994 6.23435 20.4301C7.54873 23.5081 10.2048 25.8814 13.4636 26.8103C13.4792 26.8154 13.4949 26.8197 13.5109 26.8232C14.4704 27.0922 15.4815 27.2365 16.5258 27.2365C17.5559 27.2365 18.572 27.0964 19.5542 26.8206C19.5559 26.8202 19.5576 26.8201 19.5593 26.8196C20.195 29.7747 22.8277 31.9965 25.9699 31.9965C29.5856 31.9965 32.5273 29.0549 32.5273 25.4392C32.5273 22.2829 30.2856 19.6405 27.3107 19.0199ZM25.9699 18.8819C24.3655 18.8819 22.8941 19.4614 21.7533 20.4217C21.8579 19.7047 21.9359 18.9661 21.9875 18.2117C22.8722 18.0672 23.58 17.3904 23.7708 16.5219H26.7596C26.7231 17.328 26.5928 18.1228 26.3703 18.8945C26.2378 18.8864 26.1044 18.8819 25.9699 18.8819ZM19.4132 25.3919C19.3201 25.5925 19.2244 25.7837 19.1273 25.9633C18.4319 26.1454 17.7185 26.2534 16.9956 26.2861V23.1968C17.9809 23.1781 18.9524 23.0997 19.8983 22.9637C19.5911 23.7142 19.4193 24.5336 19.4132 25.3919ZM13.9248 25.9621C13.6286 25.4156 13.3576 24.7862 13.1165 24.0831C13.5189 23.8676 13.8309 23.5052 13.9811 23.068C14.6628 23.1405 15.3575 23.1836 16.0561 23.197V26.2859C15.3231 26.2526 14.6101 26.1421 13.9248 25.9621ZM6.29216 16.522H10.9947C11.0164 18.0324 11.1433 19.4984 11.3724 20.8921C11.1119 21.0385 10.8911 21.2472 10.73 21.4978C9.31274 21.097 8.04252 20.5458 7.02795 19.891C6.60256 18.8424 6.34596 17.7082 6.29216 16.522ZM13.64 6.71051C13.7328 6.51078 13.8278 6.32013 13.9242 6.14189C14.1693 6.07775 14.4169 6.02264 14.666 5.97692C14.8805 6.6098 15.4038 7.10146 16.0561 7.27062V8.90774C15.0536 8.92678 14.0667 9.00707 13.1071 9.14699C13.4314 8.39648 13.6197 7.57395 13.64 6.71051ZM18.4446 5.98769C18.6744 6.03128 18.9022 6.08257 19.1275 6.14164C19.5866 6.98897 19.9794 8.02783 20.292 9.19948C19.233 9.02837 18.1268 8.92903 16.9956 8.90743V7.28522C17.673 7.13284 18.2209 6.63542 18.4446 5.98769ZM26.7598 15.5825H23.7708C23.5801 14.7141 22.8725 14.0375 21.988 13.8929C21.9045 12.6748 21.7493 11.4986 21.5313 10.3988C23.2564 10.8035 24.7955 11.4194 26.0249 12.2143C26.4556 13.2806 26.7065 14.4188 26.7598 15.5825ZM20.4354 21.9261C19.3249 22.1224 18.1711 22.2341 16.9955 22.2574V16.522H19.4962C19.6701 17.3137 20.2737 17.9459 21.0493 18.161C20.9639 19.4033 20.8035 20.5988 20.5712 21.7219C20.5248 21.7891 20.4794 21.8571 20.4354 21.9261ZM21.6335 17.3013C20.9448 17.3013 20.3844 16.741 20.3844 16.0523C20.3844 15.3635 20.9448 14.8032 21.6335 14.8032C22.3223 14.8032 22.8826 15.3635 22.8826 16.0523C22.8826 16.741 22.3223 17.3013 21.6335 17.3013ZM21.0497 13.9434C20.2739 14.1585 19.6702 14.7907 19.4962 15.5825H16.9956V9.84714C18.2173 9.87119 19.4061 9.98869 20.5311 10.1919C20.7821 11.3554 20.9587 12.622 21.0497 13.9434ZM12.512 10.2301C12.5206 10.2174 12.529 10.2047 12.5375 10.192C13.6709 9.98712 14.8511 9.87101 16.056 9.84721V15.5825H11.9332C11.9618 13.712 12.1603 11.8729 12.512 10.2301ZM16.056 16.522V22.2574C15.3787 22.2439 14.7057 22.2013 14.0458 22.13C13.8844 21.3013 13.1585 20.6722 12.286 20.6602C12.0733 19.3401 11.9553 17.9524 11.934 16.522H16.056ZM12.0178 21.6338C12.0215 21.6328 12.0253 21.632 12.0289 21.6309C12.103 21.6106 12.1804 21.5989 12.2608 21.5989C12.7457 21.5989 13.1402 21.9934 13.1403 22.4783C13.1401 22.4845 13.1396 22.4906 13.1391 22.4968L13.1372 22.5276C13.137 22.5317 13.1372 22.5357 13.1371 22.5398C13.1054 22.9962 12.725 23.358 12.2608 23.358C11.7758 23.358 11.3813 22.9634 11.3813 22.4785C11.3813 22.0779 11.6508 21.7396 12.0178 21.6338ZM24.2489 9.32111C24.6304 9.75846 24.9712 10.2251 25.2702 10.7146C24.1013 10.1435 22.7597 9.69614 21.3084 9.38881C21.0533 8.34682 20.7388 7.39106 20.373 6.55619C21.8509 7.15576 23.1825 8.09873 24.2489 9.32111ZM16.5571 4.28043C17.1401 4.28043 17.6143 4.75467 17.6143 5.33764C17.6143 5.92061 17.1401 6.39485 16.5571 6.39485C15.9741 6.39485 15.4999 5.92061 15.4999 5.33764C15.4999 4.75467 15.9742 4.28043 16.5571 4.28043ZM1.46681 6.55394C1.46681 3.4562 3.98696 0.936049 7.08464 0.936049C10.1824 0.936049 12.7025 3.4562 12.7025 6.55394C12.7025 6.56571 12.7021 6.57736 12.7021 6.58907C12.702 6.59064 12.7021 6.5922 12.702 6.59377C12.6805 9.67315 10.169 12.1718 7.08464 12.1718C3.98696 12.1718 1.46681 9.65161 1.46681 6.55394ZM7.08464 13.1113C8.69664 13.1113 10.1743 12.5263 11.3174 11.5579C11.1242 12.8437 11.014 14.2056 10.9936 15.5825H6.29191C6.33012 14.7377 6.47135 13.906 6.71342 13.1006C6.83637 13.1074 6.96006 13.1113 7.08464 13.1113ZM7.78397 21.3889C8.59023 21.7814 9.48673 22.1204 10.444 22.393C10.4427 22.4213 10.4418 22.4498 10.4418 22.4785C10.4418 23.4598 11.223 24.2616 12.1961 24.2958C12.3453 24.7392 12.5067 25.156 12.6782 25.5466C10.6377 24.7166 8.92286 23.2476 7.78397 21.3889ZM25.9699 31.0571C22.8896 31.0571 20.3807 28.565 20.3527 25.4912C20.3527 25.4906 20.3527 25.4901 20.3527 25.4896L20.352 25.4392C20.352 22.3416 22.8721 19.8214 25.9699 19.8214C29.0676 19.8214 31.5877 22.3416 31.5877 25.4392C31.5879 28.5369 29.0677 31.0571 25.9699 31.0571Z" fill="#3F3356"/>
<path id="Vector_23" d="M30.2139 25.9809C29.9618 25.9203 29.708 26.0755 29.6473 26.3277C29.5529 26.7198 29.3996 27.0843 29.1991 27.4137V23.5208C29.1991 23.5038 29.1978 23.4872 29.1975 23.4704C29.4138 23.8222 29.5749 24.2127 29.666 24.6314C29.7211 24.8849 29.9708 25.0453 30.2248 24.9906C30.4783 24.9355 30.6391 24.6853 30.584 24.4318C30.3584 23.3945 29.779 22.452 28.9524 21.7776C28.1135 21.0932 27.0543 20.7163 25.9699 20.7163C23.3657 20.7163 21.2471 22.8349 21.2471 25.4391C21.2471 28.0433 23.3657 30.162 25.9699 30.162C28.1607 30.162 30.0485 28.6757 30.5607 26.5475C30.6214 26.2952 30.4662 26.0416 30.2139 25.9809ZM26.9975 25.1547C26.9975 25.6245 26.6401 26.0122 26.1829 26.0606H25.8425C25.3854 26.0122 25.0279 25.6245 25.0279 25.1547V24.0964H26.9974V25.1547H26.9975ZM27.4672 23.1569H24.5583C24.2988 23.1569 24.0885 23.3672 24.0885 23.6267V25.1547C24.0885 25.5849 24.237 25.9805 24.4842 26.2951C24.2192 26.4127 23.9772 26.5713 23.7657 26.7633V23.5208C23.7657 22.5238 24.5769 21.7126 25.5739 21.7126H26.4515C26.5426 21.7126 26.632 21.7196 26.7195 21.7326C26.8392 21.7572 26.9572 21.7869 27.0729 21.8227C27.7647 22.0767 28.2596 22.7421 28.2596 23.5208V26.7182C28.0499 26.5374 27.8126 26.3886 27.5546 26.2786C27.7939 25.9668 27.937 25.5773 27.937 25.1547V23.6267C27.937 23.3672 27.7266 23.1569 27.4672 23.1569ZM22.1865 25.4391C22.1865 24.6569 22.4252 23.9294 22.8334 23.3255C22.8288 23.39 22.8262 23.4551 22.8262 23.5208V27.5416C22.4225 26.9399 22.1865 26.2166 22.1865 25.4391ZM23.833 28.5591C23.9389 27.6728 24.6838 27.0001 25.5953 27.0001H26.4842C27.3582 27.0001 28.09 27.6258 28.2338 28.4739C27.5983 28.9477 26.8123 29.2225 25.9699 29.2225C25.1775 29.2226 24.4415 28.9772 23.833 28.5591Z" fill="#D23C41"/>
</g>
</g>
<defs>
<clipPath id="clip0_1129_5815">
<rect width="32" height="32" fill="white" transform="translate(0.527344 -0.00341797)"/>
</clipPath>
</defs>
</svg>
