<svg width="33" height="32" viewBox="0 0 33 32" fill="none" xmlns="http://www.w3.org/2000/svg">
<g id="09-smart" clip-path="url(#clip0_1129_5849)">
<path id="Vector" d="M26.5277 19.2273L25.0419 17.3622V14.2857C25.0419 12.1848 24.2768 10.1872 22.8825 8.62808C23.0914 7.98974 23.1996 7.32138 23.1996 6.64458C23.1996 4.91054 22.5042 3.26929 21.2417 2.02328C19.9149 0.714088 18.1406 -0.00341797 16.2357 -0.00341797C16.2022 -0.00341797 16.1685 -0.00316821 16.1349 -0.00273112C12.3132 0.0479707 9.23282 3.05818 9.26822 6.70752C9.27384 7.29003 9.36013 7.86149 9.51842 8.40997C8.56938 9.40009 6.36516 12.0787 6.34487 15.5963C6.32976 18.221 7.50902 20.772 9.85067 23.1814V31.2422C9.85067 31.5009 10.0603 31.7105 10.319 31.7105C10.5777 31.7105 10.7873 31.5009 10.7873 31.2422V22.9899C10.7873 22.8663 10.7384 22.7477 10.6513 22.6599C9.62738 21.6284 8.83544 20.5745 8.27679 19.5044H8.80404C8.86704 19.9201 9.2257 20.24 9.65872 20.24H10.3355C10.8128 20.24 11.2009 19.8517 11.2009 19.3745V18.6978C11.2009 18.2205 10.8127 17.8323 10.3355 17.8323H9.65872C9.2257 17.8323 8.86704 18.1522 8.80404 18.5679H7.849C7.57882 17.8777 7.40461 17.1816 7.32756 16.4812H9.44262C9.50562 16.8969 9.86428 17.2167 10.2972 17.2167H10.974C11.4513 17.2167 11.8395 16.8285 11.8395 16.3512V15.6744C11.8395 15.1972 11.4513 14.809 10.974 14.809H10.2972C9.86428 14.809 9.50562 15.1288 9.44262 15.5445H7.28298C7.29285 14.8056 7.40961 14.1066 7.59475 13.4578H8.80404C8.86704 13.8735 9.2257 14.1934 9.65872 14.1934H10.3355C10.8128 14.1934 11.2009 13.8052 11.2009 13.3279V12.6512C11.2009 12.174 10.8127 11.7857 10.3355 11.7857H9.65872C9.22576 11.7857 8.8671 12.1056 8.80404 12.5213H7.91994C8.48546 11.135 9.30824 10.0484 9.88988 9.3896C10.4177 10.5002 11.2631 11.4681 12.3572 12.1686C12.757 12.4247 12.9958 12.8483 12.9958 13.3019V14.4713C12.9958 14.8793 13.2957 15.2196 13.6911 15.2938V15.597C13.6911 16.1183 14.0118 16.5659 14.466 16.7539V17.1737C14.466 17.8639 15.0276 18.4255 15.7178 18.4255H16.7498C17.4401 18.4255 18.0016 17.8639 18.0016 17.1737V16.7539C18.4559 16.5659 18.7765 16.1184 18.7765 15.597V15.2777C19.1375 15.1792 19.4035 14.8554 19.4035 14.4713V13.3453C19.4035 12.8862 19.6459 12.4602 20.0519 12.2058C20.3185 12.0388 20.5781 11.85 20.8234 11.6448C21.0218 11.4788 21.0481 11.1835 20.8821 10.9851C20.7162 10.7867 20.4207 10.7604 20.2224 10.9264C20.0098 11.1043 19.7851 11.2677 19.5546 11.4121C18.8736 11.8388 18.4669 12.5616 18.4669 13.3453V14.3726H18.3082H17.7863V12.4413C17.7863 12.1827 17.5767 11.973 17.318 11.973C17.0593 11.973 16.8497 12.1827 16.8497 12.4413V14.3726H15.6179V8.79136L16.1775 8.38487C16.2111 8.36033 16.2565 8.36033 16.2902 8.38487L16.8497 8.79136V10.6528C16.8497 10.9115 17.0593 11.1211 17.318 11.1211C17.5767 11.1211 17.7863 10.9115 17.7863 10.6528V9.32947C17.8362 9.33703 17.8865 9.34115 17.9367 9.34115C18.148 9.34115 18.3593 9.27415 18.5437 9.14021C18.9124 8.87234 19.0597 8.41921 18.9188 7.98581L18.5217 6.7636C18.5089 6.72395 18.5229 6.68086 18.5566 6.65638L19.5962 5.90104C19.9649 5.63317 20.1122 5.18004 19.9714 4.74664C19.8305 4.31323 19.4451 4.03319 18.9893 4.03319H17.7042C17.6626 4.03319 17.6258 4.00653 17.613 3.96688L17.2159 2.74472C17.0751 2.31138 16.6897 2.03128 16.2339 2.03128C16.2339 2.03128 16.2339 2.03128 16.2339 2.03128C15.7782 2.03128 15.3927 2.31126 15.2518 2.74472L14.8547 3.96688C14.8419 4.00653 14.8052 4.03319 14.7635 4.03319H13.4785C13.0227 4.03319 12.6372 4.31323 12.4964 4.7467C12.3555 5.1801 12.5028 5.63323 12.8715 5.9011L13.9111 6.65638C13.9448 6.68092 13.9588 6.72401 13.946 6.76366L13.5489 7.98581C13.408 8.41921 13.5553 8.87234 13.924 9.14021C14.1523 9.30606 14.4217 9.36893 14.6814 9.32953V14.3726H14.1595H13.9325V13.302C13.9325 12.5275 13.5324 11.8089 12.8622 11.3799C11.2166 10.3261 10.2231 8.576 10.2049 6.69847C10.1744 3.5637 12.8402 0.977713 16.1474 0.93388C17.8361 0.911963 19.4135 1.53518 20.5839 2.69015C21.6668 3.75876 22.2631 5.16324 22.2631 6.64477C22.2631 7.69128 21.961 8.71524 21.3894 9.60596C21.2498 9.82363 21.3129 10.1134 21.5306 10.253C21.7482 10.3927 22.038 10.3295 22.1777 10.1119C22.2853 9.9442 22.3838 9.77205 22.4749 9.59684C23.5308 10.9279 24.1054 12.5681 24.1054 14.2859V17.5261C24.1054 17.6321 24.1414 17.7349 24.2074 17.8179L25.7318 19.7313L24.019 21.0319C23.9023 21.1204 23.8338 21.2584 23.8338 21.4048V25.8075C23.8338 26.0307 23.6907 26.2254 23.4777 26.2921L19.0811 27.6681C18.8857 27.7293 18.7527 27.9103 18.7527 28.1151V31.5284C18.7527 31.787 18.9623 31.9967 19.221 31.9967C19.4797 31.9967 19.6893 31.787 19.6893 31.5284V28.4592L23.7575 27.186C24.3633 26.9963 24.7704 26.4424 24.7704 25.8075V21.6372L26.3792 20.4157C26.5602 20.2783 26.6754 20.0784 26.7037 19.8529C26.7318 19.6273 26.6693 19.4052 26.5277 19.2273ZM9.72984 18.7689H10.2644V19.3034H9.72984V18.7689ZM9.72984 12.7223H10.2644V13.2568H9.72984V12.7223ZM10.3684 15.7456H10.9029V16.2801H10.3684V15.7456ZM14.4745 8.38243C14.4181 8.34147 14.4338 8.29333 14.4396 8.27516L14.8366 7.05301C14.9753 6.62629 14.8246 6.16235 14.4615 5.89854L13.4219 5.14326C13.4065 5.13202 13.3656 5.1023 13.3871 5.03599C13.4086 4.96967 13.4592 4.96967 13.4783 4.96967H14.7634C15.2121 4.96967 15.6067 4.68295 15.7454 4.25616L16.1424 3.03407C16.1484 3.0159 16.164 2.9677 16.2337 2.96776C16.3034 2.96776 16.3191 3.0159 16.325 3.03401L16.7221 4.25623C16.8608 4.68295 17.2554 4.96967 17.7041 4.96967H18.9892C19.0083 4.96967 19.0589 4.96967 19.0804 5.03599C19.102 5.1023 19.061 5.13208 19.0456 5.14326L18.0059 5.8986C17.6429 6.16235 17.4922 6.62629 17.6308 7.05301L18.0279 8.27522C18.0338 8.29333 18.0494 8.34147 17.993 8.38243C17.9366 8.42346 17.8957 8.39367 17.8802 8.38243L16.8407 7.62709C16.6591 7.49515 16.4465 7.42928 16.2337 7.42928C16.021 7.42928 15.8083 7.49521 15.6267 7.62709L14.5872 8.38243C14.5719 8.39361 14.5309 8.42346 14.4745 8.38243ZM17.0649 17.1737C17.0649 17.3474 16.9235 17.4889 16.7497 17.4889H15.7178C15.544 17.4889 15.4026 17.3474 15.4026 17.1737V16.8486H17.0649V17.1737ZM17.8398 15.3092V15.5969C17.8398 15.7707 17.6984 15.912 17.5246 15.912H14.9428C14.7691 15.912 14.6276 15.7707 14.6276 15.5969V15.3092H17.8398Z" fill="#3F3356"/>
<path id="Vector_2" d="M14.4741 8.38243C14.4177 8.34147 14.4334 8.29333 14.4392 8.27516L14.8363 7.05301C14.975 6.62629 14.8243 6.16235 14.4612 5.89854L13.4216 5.14326C13.4061 5.13202 13.3652 5.1023 13.3867 5.03599C13.4083 4.96967 13.4589 4.96967 13.478 4.96967H14.763C15.2117 4.96967 15.6064 4.68295 15.745 4.25616L16.1421 3.03407C16.148 3.0159 16.1636 2.9677 16.2334 2.96776C16.3031 2.96776 16.3187 3.0159 16.3247 3.03401L16.7217 4.25623C16.8604 4.68295 17.255 4.96967 17.7037 4.96967H18.9888C19.0079 4.96967 19.0585 4.96967 19.0801 5.03599C19.1017 5.1023 19.0606 5.13208 19.0452 5.14326L18.0055 5.8986C17.6426 6.16235 17.4918 6.62629 17.6305 7.05301L18.0276 8.27522C18.0334 8.29333 18.0491 8.34147 17.9927 8.38243C17.9362 8.42346 17.8953 8.39367 17.8798 8.38243L16.8403 7.62709C16.6587 7.49515 16.4461 7.42928 16.2333 7.42928C16.0207 7.42928 15.8079 7.49521 15.6264 7.62709L14.5868 8.38243C14.5715 8.39361 14.5306 8.42346 14.4741 8.38243ZM17.0646 17.1737C17.0646 17.3474 16.9232 17.4889 16.7494 17.4889H15.7174C15.5437 17.4889 15.4022 17.3474 15.4022 17.1737V16.8486H17.0646V17.1737ZM17.8395 15.3092V15.5969C17.8395 15.7707 17.6981 15.912 17.5243 15.912H14.9425C14.7687 15.912 14.6273 15.7707 14.6273 15.5969V15.3092H17.8395Z" fill="#D23C41"/>
</g>
<defs>
<clipPath id="clip0_1129_5849">
<rect width="32" height="32" fill="white" transform="translate(0.527344 -0.00341797)"/>
</clipPath>
</defs>
</svg>
