<svg width="24" height="18" viewBox="-2.5 0 24 18" fill="none" xmlns="http://www.w3.org/2000/svg">
<g id="search-normal">
<g id="Group 293">
<path id="Vector" d="M8.20238 14.9607C4.20106 14.9607 0.943359 11.703 0.943359 7.70164C0.943359 3.70033 4.20106 0.442627 8.20238 0.442627C12.2037 0.442627 15.4614 3.70033 15.4614 7.70164C15.4614 11.703 12.2037 14.9607 8.20238 14.9607ZM8.20238 1.50492C4.78179 1.50492 2.00565 4.28814 2.00565 7.70164C2.00565 11.1152 4.78179 13.8984 8.20238 13.8984C11.623 13.8984 14.3991 11.1152 14.3991 7.70164C14.3991 4.28814 11.623 1.50492 8.20238 1.50492Z" fill="#1E386B"/>
<path id="Vector_2" d="M17.5267 17.5573C17.3921 17.5573 17.2576 17.5078 17.1513 17.4015L13.8464 14.0966C13.641 13.8912 13.641 13.5513 13.8464 13.3459C14.0518 13.1406 14.3917 13.1406 14.5971 13.3459L17.902 16.6508C18.1074 16.8562 18.1074 17.1962 17.902 17.4015C17.7958 17.5078 17.6612 17.5573 17.5267 17.5573Z" fill="#1E386B"/>
</g>
</g>
</svg>
