<svg width="25" height="24" viewBox="0 0 25 24" fill="none" xmlns="http://www.w3.org/2000/svg">
<path d="M10.5673 10.3241C10.5673 9.92642 10.8897 9.60407 11.2873 9.60407C11.685 9.60407 12.0073 9.92642 12.0073 10.3241L12.0073 14.5721C12.0073 15.1494 12.4765 15.6521 13.0873 15.6521C13.6982 15.6521 14.1673 15.1494 14.1673 14.5721V6.65207C14.1673 5.02124 12.8289 3.77207 11.2873 3.77207C9.74572 3.77207 8.40732 5.02124 8.40732 6.65207L8.40732 14.5721C8.40732 17.1693 10.5385 19.2521 13.0873 19.2521C15.6361 19.2521 17.7673 17.1693 17.7673 14.5721V10.3241C17.7673 9.92642 18.0897 9.60407 18.4873 9.60407C18.885 9.60407 19.2073 9.92642 19.2073 10.3241V14.5721C19.2073 17.9721 16.4241 20.6921 13.0873 20.6921C9.75055 20.6921 6.96732 17.9721 6.96732 14.5721L6.96732 6.65207C6.96732 4.2029 8.97178 2.33207 11.2873 2.33207C13.6029 2.33207 15.6073 4.2029 15.6073 6.65207L15.6073 14.5721C15.6073 15.9233 14.5165 17.0921 13.0873 17.0921C11.6582 17.0921 10.5673 15.9233 10.5673 14.5721L10.5673 10.3241Z" fill="black"/>
</svg>
