<svg width="25" height="24" viewBox="0 0 25 24" fill="none" xmlns="http://www.w3.org/2000/svg">
<rect width="25" height="24" fill="#E5E5E5"/>
<g clip-path="url(#clip0_1596_443)">
<rect width="360" height="2539" transform="translate(-11 -1393)" fill="white"/>
<path d="M-11 -632H349V296H-11V-632Z" fill="#F5F7F7"/>
<rect x="-2.5" y="-8.5" width="342" height="109" fill="white" stroke="#D0D0D0"/>
<mask id="path-3-inside-1_1596_443" fill="white">
<path fill-rule="evenodd" clip-rule="evenodd" d="M7.26642 4.5H11.3375C13.5858 4.5 15.4085 6.29086 15.4085 8.5C15.4085 9.71881 14.8537 10.8103 13.9787 11.544C15.9398 11.8314 17.444 13.4931 17.444 15.5C17.444 17.7091 15.6213 19.5 13.373 19.5H7.26642V4.5ZM9.30194 6.5H11.3375C12.4616 6.5 13.373 7.39543 13.373 8.5C13.373 9.60457 12.4616 10.5 11.3375 10.5H9.30194V6.5ZM9.30194 17.5V13.5H13.373C14.4972 13.5 15.4085 14.3954 15.4085 15.5C15.4085 16.6046 14.4972 17.5 13.373 17.5H9.30194Z"/>
</mask>
<path fill-rule="evenodd" clip-rule="evenodd" d="M7.26642 4.5H11.3375C13.5858 4.5 15.4085 6.29086 15.4085 8.5C15.4085 9.71881 14.8537 10.8103 13.9787 11.544C15.9398 11.8314 17.444 13.4931 17.444 15.5C17.444 17.7091 15.6213 19.5 13.373 19.5H7.26642V4.5ZM9.30194 6.5H11.3375C12.4616 6.5 13.373 7.39543 13.373 8.5C13.373 9.60457 12.4616 10.5 11.3375 10.5H9.30194V6.5ZM9.30194 17.5V13.5H13.373C14.4972 13.5 15.4085 14.3954 15.4085 15.5C15.4085 16.6046 14.4972 17.5 13.373 17.5H9.30194Z" stroke="black" stroke-width="4" mask="url(#path-3-inside-1_1596_443)"/>
</g>
<defs>
<clipPath id="clip0_1596_443">
<rect width="360" height="2539" fill="white" transform="translate(-11 -1393)"/>
</clipPath>
</defs>
</svg>
