<svg width="24" height="24" viewBox="0 0 24 24" fill="none" xmlns="http://www.w3.org/2000/svg">
<path d="M17.0332 5.99998C18.5615 5.99998 19.1157 6.15911 19.6745 6.45792C20.2332 6.75674 20.6717 7.19523 20.9705 7.75396C21.2693 8.31269 21.4284 8.8669 21.4284 10.3952V16.1762C21.4284 17.7045 21.2693 18.2587 20.9705 18.8174C20.6717 19.3762 20.2332 19.8147 19.6745 20.1135C19.1157 20.4123 18.5615 20.5714 17.0332 20.5714H6.96652C5.4382 20.5714 4.884 20.4123 4.32527 20.1135C3.76654 19.8147 3.32804 19.3762 3.02923 18.8174C2.74615 18.2881 2.58843 17.7628 2.57261 16.4095L2.57129 10.3952C2.57129 8.8669 2.73042 8.31269 3.02923 7.75396C3.32804 7.19523 3.76654 6.75674 4.32527 6.45792C4.85459 6.17484 5.37985 6.01712 6.73316 6.0013L17.0332 5.99998ZM17.1419 12.3548L12.909 16.5887C12.4383 17.0595 11.6934 17.0889 11.1884 16.677L11.0907 16.5887L9.42843 14.9263L5.58598 18.7692C5.84274 18.8256 6.19072 18.8516 6.76284 18.8563L17.0332 18.8571C18.1678 18.8571 18.5133 18.7904 18.866 18.6018C19.126 18.4627 19.3198 18.269 19.4588 18.009L19.5239 17.8755C19.6531 17.5803 19.7064 17.2241 19.7134 16.3799L19.7133 14.9263L17.1419 12.3548ZM17.2369 7.71506H6.76284L6.40628 7.72167C5.7021 7.74357 5.42027 7.81636 5.13372 7.9696C4.87374 8.10864 4.67995 8.30243 4.54091 8.56242L4.47579 8.69589C4.3466 8.99109 4.29332 9.34728 4.28637 10.1915V16.3799L4.29298 16.7364C4.30446 17.1057 4.32995 17.3589 4.37369 17.5575L8.51929 13.4112C8.99002 12.9405 9.73493 12.9111 10.2399 13.323L10.3376 13.4112L11.9999 15.0737L16.2336 10.8398C16.7043 10.3691 17.4492 10.3397 17.9542 10.7515L18.0519 10.8398L19.7141 12.5014V10.3952C19.7141 9.26061 19.6474 8.91509 19.4588 8.56242C19.3198 8.30243 19.126 8.10864 18.866 7.9696L18.7325 7.90448C18.4373 7.77529 18.0811 7.72202 17.2369 7.71506ZM7.28557 9.42855C7.99566 9.42855 8.57129 10.0042 8.57129 10.7143C8.57129 11.4243 7.99566 12 7.28557 12C6.57549 12 5.99986 11.4243 5.99986 10.7143C5.99986 10.0042 6.57549 9.42855 7.28557 9.42855ZM14.9451 2.57141C15.7093 2.57141 15.9864 2.65098 16.2657 2.80038C16.5451 2.94979 16.7643 3.16904 16.9137 3.4484C17.0263 3.65885 17.0992 3.86802 17.1283 4.28508H6.87138C6.90051 3.86802 6.97342 3.65885 7.08597 3.4484C7.23538 3.16904 7.45463 2.94979 7.73399 2.80038C8.01336 2.65098 8.29046 2.57141 9.05462 2.57141H14.9451Z" fill="black"/>
</svg>
