<svg width="25" height="24" viewBox="0 0 25 24" fill="none" xmlns="http://www.w3.org/2000/svg">
<mask id="path-1-outside-1_304_208" maskUnits="userSpaceOnUse" x="0.459961" y="0" width="25" height="24" fill="black">
<rect fill="white" x="0.459961" width="25" height="24"/>
<path d="M21.7986 13.6696C21.7923 13.7048 21.7878 13.7404 21.7812 13.7756L21.7469 13.5737C21.7656 13.6051 21.7812 13.6378 21.7986 13.6696C21.9021 13.1063 21.9564 12.5297 21.9564 11.9535C21.9564 10.6756 21.7062 9.43575 21.2119 8.26863C20.735 7.14121 20.0527 6.12871 19.1828 5.25941C18.3141 4.39011 17.301 3.70781 16.1742 3.23093C15.0074 2.73722 13.7676 2.48704 12.4896 2.48704C11.8874 2.48704 11.2841 2.54355 10.6971 2.65626C10.6958 2.65658 10.6942 2.65658 10.6926 2.6569C10.7256 2.67436 10.759 2.68992 10.7914 2.70802L10.5923 2.6769C10.6256 2.67055 10.6593 2.66357 10.6926 2.6569C9.88713 2.2286 8.98132 2 8.06439 2C6.5674 2 5.15994 2.58292 4.10141 3.64177C3.0432 4.7003 2.45996 6.10776 2.45996 7.60475C2.45996 8.55755 2.70507 9.49417 3.16512 10.3219C3.17115 10.2876 3.17528 10.253 3.18195 10.2187L3.21624 10.4171C3.19846 10.386 3.1829 10.3536 3.16512 10.3219C3.07177 10.8581 3.02256 11.4061 3.02256 11.9535C3.02256 13.2317 3.27275 14.4712 3.76709 15.6387C4.24333 16.7664 4.92595 17.7783 5.79493 18.6476C6.66487 19.5169 7.67673 20.2001 8.80479 20.6757C9.97159 21.1704 11.2117 21.4209 12.4896 21.4209C13.0459 21.4209 13.6034 21.3701 14.1476 21.2736C14.1159 21.2558 14.0835 21.2396 14.0511 21.2209L14.2533 21.2564C14.2184 21.2631 14.1832 21.2672 14.1476 21.2736C14.9861 21.7479 15.9354 22 16.9047 22C18.4014 22 19.8082 21.418 20.8668 20.3589C21.9256 19.301 22.5082 17.8932 22.5082 16.3962C22.5082 15.4402 22.2618 14.5004 21.7986 13.6696ZM12.5274 17.7513C9.1642 17.7513 7.65959 16.0978 7.65959 14.8586C7.65959 14.2229 8.12884 13.7775 8.77558 13.7775C10.2148 13.7775 9.84205 15.8441 12.5274 15.8441C13.9022 15.8441 14.6613 15.0976 14.6613 14.3338C14.6613 13.8743 14.4346 13.3651 13.5294 13.1419L10.538 12.3951C8.12884 11.7909 7.69165 10.4886 7.69165 9.2643C7.69165 6.72243 10.0849 5.76804 12.3325 5.76804C14.4029 5.76804 16.8435 6.91229 16.8435 8.43722C16.8435 9.09063 16.2777 9.47067 15.6313 9.47067C14.4029 9.47067 14.6289 7.77048 12.1547 7.77048C10.9269 7.77048 10.2469 8.32642 10.2469 9.12206C10.2469 9.91612 11.2165 10.1698 12.0585 10.3616L14.2727 10.853C16.698 11.3934 17.313 12.8095 17.313 14.1433C17.313 16.2089 15.7275 17.7513 12.5274 17.7513ZM14.0511 21.2209C14.0835 21.2396 14.1159 21.2558 14.1476 21.2736C14.1832 21.2672 14.2184 21.2631 14.2533 21.2564L14.0511 21.2209ZM21.7812 13.7756C21.7878 13.7404 21.7923 13.7048 21.7986 13.6696C21.7812 13.6378 21.7656 13.6051 21.7469 13.5737L21.7812 13.7756ZM3.18195 10.2187C3.17528 10.253 3.17115 10.2876 3.16512 10.3219C3.1829 10.3536 3.19846 10.386 3.21624 10.4171L3.18195 10.2187ZM10.7914 2.70802C10.759 2.68992 10.7256 2.67436 10.6926 2.6569C10.6593 2.66357 10.6256 2.67055 10.5923 2.6769L10.7914 2.70802Z"/>
</mask>
<path d="M21.7812 13.7756L19.8094 14.1104L23.7463 14.1474L21.7812 13.7756ZM21.7469 13.5737L23.4649 12.5498L19.7751 13.9085L21.7469 13.5737ZM21.2119 8.26863L19.3699 9.04776L19.3703 9.04867L21.2119 8.26863ZM19.1828 5.25941L17.768 6.67311L17.7691 6.67414L19.1828 5.25941ZM16.1742 3.23093L16.9537 1.38909L16.9535 1.38903L16.1742 3.23093ZM10.6971 2.65626L10.32 0.692137L10.2656 0.702567L10.212 0.715983L10.6971 2.65626ZM10.6926 2.6569L10.3004 0.695736L4.79004 1.7978L9.75763 4.42489L10.6926 2.6569ZM10.7914 2.70802L10.4825 4.68402L11.767 0.962129L10.7914 2.70802ZM10.5923 2.6769L10.2181 0.712224L10.2834 4.65291L10.5923 2.6769ZM10.6926 2.6569L11.0849 4.61806L16.5756 3.51991L11.6316 0.891019L10.6926 2.6569ZM4.10141 3.64177L2.68699 2.22777L2.68699 2.22777L4.10141 3.64177ZM3.16512 10.3219L1.41699 11.2935L4.15748 16.2241L5.13487 10.6684L3.16512 10.3219ZM3.18195 10.2187L5.15274 9.87814L1.21871 9.83695L3.18195 10.2187ZM3.21624 10.4171L1.47975 11.4094L5.18703 10.0766L3.21624 10.4171ZM3.16512 10.3219L4.91013 9.34467L2.15999 4.43369L1.19475 9.9789L3.16512 10.3219ZM3.76709 15.6387L5.60954 14.8606L5.60878 14.8588L3.76709 15.6387ZM5.79493 18.6476L4.38046 20.0615L4.38124 20.0623L5.79493 18.6476ZM8.80479 20.6757L9.58543 18.8344L9.58179 18.8328L8.80479 20.6757ZM14.1476 21.2736L14.4969 23.2428L20.011 22.2648L15.1248 19.5286L14.1476 21.2736ZM14.0511 21.2209L14.3974 19.2511L13.0497 22.9521L14.0511 21.2209ZM14.2533 21.2564L14.6284 23.2209L14.5997 19.2866L14.2533 21.2564ZM14.1476 21.2736L13.796 19.3047L8.3305 20.2807L13.1629 23.0143L14.1476 21.2736ZM20.8668 20.3589L19.4532 18.944L19.4521 18.9451L20.8668 20.3589ZM13.5294 13.1419L13.045 15.0823L13.0506 15.0837L13.5294 13.1419ZM10.538 12.3951L10.0515 14.335L10.0536 14.3356L10.538 12.3951ZM12.0585 10.3616L11.6143 12.3117L11.6251 12.314L12.0585 10.3616ZM14.2727 10.853L14.7076 8.90091L14.7061 8.90057L14.2727 10.853ZM14.0511 21.2209L14.3974 19.2511L13.0497 22.9521L14.0511 21.2209ZM14.1476 21.2736L13.1704 23.0186L13.7948 23.3682L14.4992 23.2424L14.1476 21.2736ZM14.2533 21.2564L14.6284 23.2209L14.5997 19.2866L14.2533 21.2564ZM21.7812 13.7756L19.8094 14.1104L23.7463 14.1474L21.7812 13.7756ZM21.7986 13.6696L23.7669 14.0242L23.8926 13.3267L23.551 12.7057L21.7986 13.6696ZM21.7469 13.5737L23.4649 12.5498L19.7751 13.9085L21.7469 13.5737ZM3.18195 10.2187L5.15274 9.87814L1.21871 9.83695L3.18195 10.2187ZM3.16512 10.3219L1.19537 9.97535L1.07188 10.6773L1.42011 11.2991L3.16512 10.3219ZM3.21624 10.4171L1.47975 11.4094L5.18703 10.0766L3.21624 10.4171ZM10.7914 2.70802L10.4825 4.68402L11.767 0.962129L10.7914 2.70802ZM10.6926 2.6569L11.6276 0.888909L10.9984 0.556139L10.3004 0.695737L10.6926 2.6569ZM10.5923 2.6769L10.2181 0.712224L10.2834 4.65291L10.5923 2.6769ZM19.8303 13.3149C19.8256 13.341 19.8219 13.3636 19.8192 13.3802C19.8168 13.3955 19.8144 13.4111 19.8135 13.4168C19.8122 13.4251 19.8121 13.4259 19.8123 13.4246C19.8126 13.4228 19.8139 13.4151 19.816 13.4038L23.7463 14.1474C23.7566 14.0929 23.7639 14.0448 23.7665 14.0283C23.7683 14.0163 23.7687 14.0143 23.769 14.0119C23.7692 14.0108 23.7684 14.0158 23.7669 14.0242L19.8303 13.3149ZM23.7529 13.4408L23.7186 13.2388L19.7751 13.9085L19.8094 14.1104L23.7529 13.4408ZM20.0288 14.5975C20.0179 14.5793 20.01 14.565 20.0057 14.5571C20.0016 14.5496 19.9994 14.5454 20.0013 14.549C20.0023 14.5509 20.0033 14.5529 20.0057 14.5575C20.0078 14.5615 20.011 14.5677 20.0146 14.5745C20.0216 14.5879 20.0327 14.609 20.0462 14.6334L23.551 12.7057C23.5558 12.7143 23.5584 12.7193 23.557 12.7167C23.5563 12.7155 23.5554 12.7137 23.5533 12.7096C23.5515 12.7062 23.5484 12.7002 23.5451 12.694C23.5332 12.6712 23.5037 12.6149 23.4649 12.5498L20.0288 14.5975ZM23.7657 14.031C23.8904 13.3522 23.9564 12.6546 23.9564 11.9535L19.9564 11.9535C19.9564 12.4048 19.9138 12.8604 19.8316 13.3081L23.7657 14.031ZM23.9564 11.9535C23.9564 10.4104 23.6534 8.90504 23.0535 7.4886L19.3703 9.04867C19.759 9.96646 19.9564 10.9408 19.9564 11.9535L23.9564 11.9535ZM23.0539 7.48951C22.4763 6.124 21.6484 4.89581 20.5965 3.84468L17.7691 6.67414C18.4571 7.36162 18.9937 8.15842 19.3699 9.04776L23.0539 7.48951ZM20.5975 3.84571C19.5467 2.79415 18.3179 1.96645 16.9537 1.38909L15.3947 5.07277C16.2841 5.44917 17.0815 5.98607 17.768 6.67311L20.5975 3.84571ZM16.9535 1.38903C15.5378 0.789983 14.0327 0.487038 12.4896 0.487038V4.48704C13.5024 4.48704 14.477 4.68447 15.3948 5.07283L16.9535 1.38903ZM12.4896 0.487038C11.7632 0.487038 11.0336 0.555112 10.32 0.692137L11.0742 4.62039C11.5346 4.53199 12.0115 4.48704 12.4896 4.48704V0.487038ZM10.212 0.715983C10.2589 0.70425 10.3002 0.695749 10.3337 0.689572C10.3671 0.683397 10.3956 0.679025 10.4171 0.676006C10.4384 0.672997 10.4558 0.670912 10.4665 0.669679C10.4767 0.668495 10.4849 0.667647 10.4855 0.667576C10.489 0.667216 10.4824 0.667899 10.477 0.668493C10.4701 0.669244 10.4579 0.670616 10.4426 0.672548C10.4127 0.676333 10.3623 0.68336 10.3004 0.695736L11.0848 4.61806C11.0238 4.63028 10.9741 4.63719 10.945 4.64087C10.9301 4.64275 10.9183 4.64408 10.9118 4.64479C10.9067 4.64534 10.9006 4.64599 10.9044 4.64559C10.9054 4.64548 10.9139 4.64459 10.9246 4.64336C10.9356 4.64209 10.9533 4.63996 10.975 4.6369C11.0158 4.63116 11.0904 4.61947 11.1822 4.59654L10.212 0.715983ZM9.75763 4.42489C9.77988 4.43665 9.79927 4.44656 9.81275 4.4534C9.81953 4.45684 9.82575 4.45998 9.83027 4.46225C9.83554 4.4649 9.83796 4.46612 9.84094 4.46763C9.84641 4.47039 9.84534 4.46988 9.84171 4.46798C9.8377 4.46589 9.8284 4.46099 9.81572 4.4539L11.767 0.962129C11.7118 0.931274 11.6637 0.906996 11.6435 0.896812C11.6273 0.8886 11.6293 0.889657 11.6221 0.886016C11.619 0.884457 11.6219 0.885874 11.6276 0.888909L9.75763 4.42489ZM11.1002 0.732006L10.9011 0.700892L10.2834 4.65291L10.4825 4.68402L11.1002 0.732006ZM10.9665 4.64158C11.0113 4.63304 11.0712 4.62079 11.0849 4.61806L10.3004 0.695737C10.2474 0.70634 10.2399 0.708061 10.2181 0.712224L10.9665 4.64158ZM11.6316 0.891019C10.5398 0.310481 9.31192 0 8.06439 0V4C8.65072 4 9.23447 4.14671 9.75365 4.42278L11.6316 0.891019ZM8.06439 0C6.037 0 4.1207 0.793625 2.68699 2.22777L5.51584 5.05577C6.19919 4.37222 7.09781 4 8.06439 4V0ZM2.68699 2.22777C1.25404 3.66114 0.459961 5.57713 0.459961 7.60475H4.45996C4.45996 6.63839 4.83236 5.73946 5.51584 5.05577L2.68699 2.22777ZM0.459961 7.60475C0.459961 8.89976 0.792823 10.1705 1.41699 11.2935L4.91324 9.35025C4.61731 8.81782 4.45996 8.21534 4.45996 7.60475H0.459961ZM5.13487 10.6684C5.13949 10.6422 5.1431 10.6195 5.14554 10.6038C5.14678 10.5959 5.14787 10.5887 5.14867 10.5834C5.14907 10.5808 5.14947 10.5782 5.14977 10.5762C5.15009 10.5741 5.15034 10.5725 5.15056 10.571C5.15155 10.5645 5.15137 10.5658 5.15069 10.5699C5.14994 10.5745 5.14809 10.5854 5.14518 10.6004L1.21871 9.83695C1.20686 9.89792 1.19893 9.95052 1.19603 9.96959C1.19381 9.98419 1.19379 9.98444 1.19317 9.9884C1.19294 9.9899 1.19377 9.98444 1.19537 9.97535L5.13487 10.6684ZM1.21115 10.5592L1.24544 10.7577L5.18703 10.0766L5.15274 9.87814L1.21115 10.5592ZM4.95272 9.42485C4.95988 9.43737 4.96467 9.44627 4.96617 9.44908C4.96734 9.45126 4.96744 9.45148 4.96337 9.4437C4.96068 9.43854 4.95288 9.42357 4.94493 9.40859C4.93635 9.39242 4.92442 9.37019 4.91013 9.34467L1.42011 11.2991C1.41471 11.2894 1.41139 11.2832 1.41128 11.283C1.41118 11.2828 1.41153 11.2834 1.41271 11.2857C1.41414 11.2884 1.41527 11.2906 1.41798 11.2958C1.42225 11.304 1.43068 11.3201 1.44032 11.3381C1.4503 11.3567 1.4637 11.3813 1.47975 11.4094L4.95272 9.42485ZM1.19475 9.9789C1.08242 10.6242 1.02256 11.287 1.02256 11.9535H5.02256C5.02256 11.5253 5.06113 11.0921 5.13549 10.6649L1.19475 9.9789ZM1.02256 11.9535C1.02256 13.497 1.32556 15.0019 1.9254 16.4185L5.60878 14.8588C5.21994 13.9405 5.02256 12.9664 5.02256 11.9535H1.02256ZM1.92464 16.4167C2.502 17.7839 3.33059 19.0113 4.38046 20.0615L7.20941 17.2336C6.52131 16.5453 5.98467 15.7489 5.60954 14.8606L1.92464 16.4167ZM4.38124 20.0623C5.43152 21.1118 6.65892 21.9415 8.0278 22.5186L9.58179 18.8328C8.69455 18.4588 7.89823 17.9219 7.20863 17.2328L4.38124 20.0623ZM8.02416 22.5171C9.44042 23.1175 10.9463 23.4209 12.4896 23.4209L12.4896 19.4209C11.4772 19.4209 10.5028 19.2233 9.58543 18.8344L8.02416 22.5171ZM12.4896 23.4209C13.1668 23.4209 13.8412 23.3591 14.4969 23.2428L13.7983 19.3043C13.3657 19.381 12.925 19.4209 12.4896 19.4209L12.4896 23.4209ZM15.1248 19.5286C15.1037 19.5167 15.0852 19.5067 15.0718 19.4995C15.0602 19.4933 15.046 19.4857 15.0423 19.4837C15.0279 19.476 15.0373 19.4808 15.0525 19.4896L13.0497 22.9521C13.0973 22.9796 13.139 23.0019 13.1568 23.0114C13.1693 23.0181 13.1711 23.0191 13.1756 23.0214C13.1782 23.0229 13.1756 23.0215 13.1704 23.0186L15.1248 19.5286ZM13.7048 23.1907L13.907 23.2262L14.5997 19.2866L14.3974 19.2511L13.7048 23.1907ZM13.8783 19.2919C13.8927 19.2892 13.903 19.2875 13.9066 19.2869C13.9096 19.2864 13.9102 19.2863 13.9023 19.2875C13.8974 19.2882 13.8809 19.2907 13.8652 19.2932C13.8479 19.2959 13.8238 19.2998 13.796 19.3047L14.4992 23.2424C14.494 23.2434 14.4899 23.244 14.4873 23.2445C14.486 23.2447 14.485 23.2449 14.4843 23.245C14.4836 23.2451 14.4833 23.2451 14.4833 23.2451C14.4833 23.2451 14.4835 23.2451 14.4842 23.245C14.4849 23.2449 14.4858 23.2447 14.4872 23.2445C14.4909 23.244 14.4927 23.2437 14.4991 23.2427C14.5159 23.2402 14.5684 23.2324 14.6284 23.2209L13.8783 19.2919ZM13.1629 23.0143C14.3 23.6576 15.5884 24 16.9047 24L16.9047 20C16.2825 20 15.6722 19.8382 15.1324 19.5328L13.1629 23.0143ZM16.9047 24C18.9313 24 20.8472 23.2077 22.2814 21.7727L19.4521 18.9451C18.7693 19.6284 17.8715 20 16.9047 20L16.9047 24ZM22.2803 21.7737C23.7153 20.3401 24.5082 18.4231 24.5082 16.3962L20.5082 16.3962C20.5082 17.3633 20.136 18.2619 19.4532 18.944L22.2803 21.7737ZM24.5082 16.3962C24.5082 15.0972 24.1737 13.8225 23.5455 12.6957L20.0518 14.6434C20.35 15.1784 20.5082 15.7832 20.5082 16.3962L24.5082 16.3962ZM12.5274 15.7513C11.1647 15.7513 10.3798 15.4168 9.99384 15.1415C9.57939 14.8458 9.65959 14.6732 9.65959 14.8586L5.65959 14.8586C5.65959 17.7728 8.73342 19.7513 12.5274 19.7513V15.7513ZM9.65959 14.8586C9.65959 15.0523 9.57814 15.3125 9.36233 15.5203C9.15249 15.7224 8.91838 15.7775 8.77558 15.7775V11.7775C7.09612 11.7775 5.65959 13.0479 5.65959 14.8586L9.65959 14.8586ZM8.77558 15.7775C8.55172 15.7775 8.33001 15.6581 8.23309 15.5684C8.2215 15.5577 8.24014 15.5729 8.31759 15.671C8.35298 15.7158 8.52733 15.944 8.63581 16.0767C8.927 16.4329 9.37522 16.9175 10.0734 17.2879C10.7766 17.661 11.5902 17.8441 12.5274 17.8441V13.8441C12.122 13.8441 11.9751 13.7688 11.948 13.7544C11.9158 13.7373 11.8638 13.7054 11.7326 13.5449C11.6299 13.4192 11.6125 13.3891 11.4566 13.1918C11.3428 13.0476 11.1706 12.8368 10.9496 12.6324C10.4339 12.1552 9.71905 11.7775 8.77558 11.7775V15.7775ZM12.5274 17.8441C14.5159 17.8441 16.6613 16.6362 16.6613 14.3338H12.6613C12.6613 14.0212 12.8208 13.8444 12.8798 13.7984C12.9352 13.7552 12.8601 13.8441 12.5274 13.8441V17.8441ZM16.6613 14.3338C16.6613 13.7712 16.5176 13.0522 15.9976 12.4012C15.4821 11.7556 14.7639 11.3863 14.0083 11.2L13.0506 15.0837C13.2002 15.1206 13.048 15.1176 12.872 14.8973C12.6917 14.6715 12.6613 14.4369 12.6613 14.3338H16.6613ZM14.0138 11.2014L11.0224 10.4547L10.0536 14.3356L13.0451 15.0823L14.0138 11.2014ZM11.0245 10.4552C10.1148 10.227 9.87172 9.94363 9.81856 9.87185C9.76165 9.79502 9.69165 9.64953 9.69165 9.2643H5.69165C5.69165 10.1033 5.84025 11.2212 6.60423 12.2526C7.37195 13.2891 8.55209 13.959 10.0515 14.335L11.0245 10.4552ZM9.69165 9.2643C9.69165 8.74671 9.87913 8.48052 10.2386 8.25307C10.6958 7.96378 11.4449 7.76804 12.3325 7.76804V3.76804C10.9725 3.76804 9.40119 4.04949 8.09987 4.87286C6.70081 5.75808 5.69165 7.24002 5.69165 9.2643H9.69165ZM12.3325 7.76804C13.0422 7.76804 13.8376 7.97442 14.4025 8.28427C14.6799 8.43649 14.8228 8.57053 14.877 8.63732C14.9222 8.69306 14.8435 8.61934 14.8435 8.43722L18.8435 8.43722C18.8435 6.54635 17.3868 5.35906 16.3263 4.77729C15.1532 4.13378 13.6932 3.76804 12.3325 3.76804V7.76804ZM14.8435 8.43722C14.8435 8.30469 14.874 8.14579 14.9527 7.98685C15.03 7.83068 15.1344 7.71355 15.2352 7.63343C15.4253 7.48229 15.5833 7.47067 15.6313 7.47067L15.6313 11.4707C16.3256 11.4707 17.0898 11.269 17.7244 10.7645C18.3999 10.2274 18.8435 9.40359 18.8435 8.43722L14.8435 8.43722ZM15.6313 7.47067C15.8802 7.47067 16.1047 7.59025 16.2023 7.67209C16.2167 7.6841 16.2031 7.67499 16.1262 7.59012C16.0778 7.53664 15.9308 7.36929 15.8059 7.23858C15.5054 6.92423 15.0629 6.52239 14.4059 6.21967C13.7526 5.91865 13.0082 5.77048 12.1547 5.77048L12.1547 9.77048C12.5382 9.77048 12.6935 9.83484 12.732 9.8526C12.7669 9.86867 12.8086 9.89187 12.9145 10.0026C12.9927 10.0844 13.0294 10.1296 13.1614 10.2753C13.265 10.3897 13.4286 10.5665 13.6332 10.7379C14.1113 11.1386 14.7681 11.4707 15.6313 11.4707L15.6313 7.47067ZM12.1547 5.77048C11.2681 5.77048 10.3273 5.96778 9.55371 6.53798C8.71975 7.15269 8.24686 8.08766 8.24686 9.12206L12.2469 9.12206C12.2469 9.21385 12.2256 9.34225 12.1571 9.4778C12.0885 9.61331 11.9984 9.70523 11.927 9.75783C11.8004 9.85115 11.8135 9.77048 12.1547 9.77048L12.1547 5.77048ZM8.24686 9.12206C8.24686 10.5541 9.20796 11.3631 9.89089 11.7298C10.514 12.0643 11.2308 12.2243 11.6144 12.3116L12.5026 8.4115C12.2971 8.3647 12.1363 8.32566 11.998 8.28392C11.8564 8.24121 11.7949 8.21197 11.783 8.20556C11.7678 8.19744 11.8842 8.25432 12.0103 8.42208C12.077 8.51086 12.1402 8.62277 12.1849 8.75501C12.2297 8.88768 12.2469 9.01397 12.2469 9.12206L8.24686 9.12206ZM11.6251 12.314L13.8393 12.8055L14.7061 8.90057L12.4919 8.40908L11.6251 12.314ZM13.8378 12.8052C14.7203 13.0018 15.0208 13.296 15.1228 13.4274C15.2311 13.5668 15.313 13.778 15.313 14.1433H19.313C19.313 13.1747 19.0875 12.011 18.2819 10.9738C17.4701 9.92866 16.2505 9.24467 14.7076 8.90091L13.8378 12.8052ZM15.313 14.1433C15.313 14.6237 15.1509 14.9338 14.8629 15.1665C14.5295 15.436 13.8297 15.7513 12.5274 15.7513V19.7513C14.4252 19.7513 16.1182 19.2953 17.3776 18.2772C18.6824 17.2224 19.313 15.7284 19.313 14.1433H15.313ZM13.0497 22.9521C13.0973 22.9796 13.139 23.0019 13.1568 23.0114C13.1693 23.0181 13.1711 23.0191 13.1756 23.0214C13.1782 23.0229 13.1756 23.0215 13.1704 23.0186L15.1248 19.5286C15.1037 19.5167 15.0852 19.5067 15.0718 19.4995C15.0602 19.4933 15.046 19.4857 15.0423 19.4837C15.0279 19.476 15.0373 19.4808 15.0525 19.4896L13.0497 22.9521ZM14.4992 23.2424C14.494 23.2434 14.4899 23.244 14.4873 23.2445C14.486 23.2447 14.485 23.2449 14.4843 23.245C14.4836 23.2451 14.4833 23.2451 14.4833 23.2451C14.4833 23.2451 14.4835 23.2451 14.4842 23.245C14.4849 23.2449 14.4858 23.2447 14.4872 23.2445C14.4909 23.244 14.4927 23.2437 14.4991 23.2427C14.5159 23.2402 14.5684 23.2324 14.6284 23.2209L13.8783 19.2919C13.8927 19.2892 13.903 19.2875 13.9066 19.2869C13.9096 19.2864 13.9102 19.2863 13.9023 19.2875C13.8974 19.2882 13.8809 19.2907 13.8652 19.2932C13.8479 19.2959 13.8238 19.2998 13.796 19.3047L14.4992 23.2424ZM14.5997 19.2866L14.3974 19.2511L13.7048 23.1907L13.907 23.2262L14.5997 19.2866ZM23.7463 14.1474C23.7566 14.0929 23.7639 14.0448 23.7665 14.0283C23.7683 14.0163 23.7687 14.0143 23.769 14.0119C23.7692 14.0108 23.7684 14.0158 23.7669 14.0242L19.8303 13.3149C19.8256 13.341 19.8219 13.3636 19.8192 13.3802C19.8168 13.3955 19.8144 13.4111 19.8135 13.4168C19.8122 13.4251 19.8121 13.4259 19.8123 13.4246C19.8126 13.4228 19.8139 13.4151 19.816 13.4038L23.7463 14.1474ZM23.551 12.7057C23.5558 12.7143 23.5584 12.7193 23.557 12.7167C23.5563 12.7155 23.5554 12.7137 23.5533 12.7096C23.5515 12.7062 23.5484 12.7002 23.5451 12.694C23.5332 12.6712 23.5037 12.6149 23.4649 12.5498L20.0288 14.5975C20.0179 14.5793 20.01 14.565 20.0057 14.5571C20.0016 14.5496 19.9994 14.5454 20.0013 14.549C20.0023 14.5509 20.0033 14.5529 20.0057 14.5575C20.0078 14.5615 20.011 14.5677 20.0146 14.5745C20.0216 14.5879 20.0327 14.609 20.0462 14.6334L23.551 12.7057ZM19.7751 13.9085L19.8094 14.1104L23.7529 13.4408L23.7186 13.2388L19.7751 13.9085ZM1.21871 9.83695C1.20686 9.89792 1.19893 9.95052 1.19603 9.96959C1.19381 9.98419 1.19379 9.98444 1.19317 9.9884C1.19294 9.9899 1.19377 9.98444 1.19537 9.97535L5.13487 10.6684C5.13949 10.6422 5.1431 10.6195 5.14554 10.6038C5.14678 10.5959 5.14787 10.5887 5.14867 10.5834C5.14907 10.5808 5.14947 10.5782 5.14977 10.5762C5.15009 10.5741 5.15034 10.5725 5.15056 10.571C5.15155 10.5645 5.15137 10.5658 5.15069 10.5699C5.14994 10.5745 5.14809 10.5854 5.14518 10.6004L1.21871 9.83695ZM1.42011 11.2991C1.41471 11.2894 1.41139 11.2832 1.41128 11.283C1.41118 11.2828 1.41153 11.2834 1.41271 11.2857C1.41414 11.2884 1.41527 11.2906 1.41798 11.2958C1.42225 11.304 1.43068 11.3201 1.44032 11.3381C1.4503 11.3567 1.4637 11.3813 1.47975 11.4094L4.95272 9.42485C4.95988 9.43737 4.96467 9.44627 4.96617 9.44908C4.96734 9.45126 4.96744 9.45148 4.96337 9.4437C4.96068 9.43854 4.95288 9.42357 4.94493 9.40859C4.93635 9.39242 4.92442 9.37019 4.91013 9.34467L1.42011 11.2991ZM5.18703 10.0766L5.15274 9.87814L1.21115 10.5592L1.24544 10.7577L5.18703 10.0766ZM11.767 0.962129C11.7118 0.931274 11.6637 0.906996 11.6435 0.896812C11.6273 0.8886 11.6293 0.889657 11.6221 0.886016C11.619 0.884457 11.6219 0.885874 11.6276 0.888909L9.75763 4.42489C9.77988 4.43665 9.79927 4.44656 9.81275 4.4534C9.81953 4.45684 9.82575 4.45998 9.83027 4.46225C9.83554 4.4649 9.83796 4.46612 9.84094 4.46763C9.84641 4.47039 9.84534 4.46988 9.84171 4.46798C9.8377 4.46589 9.8284 4.46099 9.81572 4.4539L11.767 0.962129ZM10.3004 0.695737C10.2474 0.70634 10.2399 0.708061 10.2181 0.712224L10.9665 4.64158C11.0113 4.63304 11.0712 4.62079 11.0849 4.61806L10.3004 0.695737ZM10.2834 4.65291L10.4825 4.68402L11.1002 0.732006L10.9011 0.700892L10.2834 4.65291Z" fill="#4F4F4F" mask="url(#path-1-outside-1_304_208)"/>
</svg>
