<svg width="22" height="22" viewBox="0 0 22 22" fill="none" xmlns="http://www.w3.org/2000/svg">
<path d="M17.7413 3.91326L17.7413 3.91329L17.7464 3.91842C19.5811 5.75317 20.608 8.23629 20.608 10.8865C20.608 16.3463 16.1743 20.8297 10.7216 20.8297C9.09639 20.8297 7.47846 20.4506 6.02655 19.644L5.85214 19.5471L5.65894 19.5969L0.988087 20.8007L2.23626 16.2401L2.2889 16.0478L2.19474 15.872C1.37614 14.344 0.891834 12.665 0.891834 10.9432H0.891858L0.891809 10.9383C0.837817 5.48505 5.26608 1 10.7783 1C13.3725 1 15.9091 2.02718 17.7413 3.91326ZM2.29208 18.9322L2.075 19.7571L2.90081 19.5435L6.0114 18.7391L6.16614 18.8164C7.55191 19.655 9.16852 20.0703 10.7783 20.0703C12.4571 20.0703 14.1396 19.592 15.5291 18.6877C19.8534 16.0404 21.1054 10.4547 18.4698 6.14198C15.8241 1.81259 10.2351 0.558174 5.9203 3.19498C1.59176 5.84019 0.334877 11.4871 2.97494 15.7472L2.97931 15.7542L2.98392 15.7611L3.0862 15.9146L2.29208 18.9322ZM13.3513 12.8362C13.3753 12.8093 13.3946 12.7877 13.41 12.7704C13.4212 12.7655 13.4306 12.7619 13.4397 12.7588C13.4446 12.7608 13.4497 12.7628 13.4548 12.7647C13.4698 12.7703 13.4884 12.7767 13.51 12.7828C13.7929 12.9224 14.1387 13.0818 14.4175 13.2079C14.5679 13.2759 14.7003 13.335 14.7952 13.3771L14.907 13.4265L14.9374 13.4398L14.9448 13.4431L14.9453 13.4433L15.4432 13.6696V13.6704V13.6712V13.672V13.6728V13.6736V13.6744V13.6752V13.676V13.6768V13.6775V13.6783V13.6791V13.6799V13.6807V13.6815V13.6823V13.6831V13.6839V13.6847V13.6855V13.6863V13.6871V13.6879V13.6887V13.6894V13.6902V13.691V13.6918V13.6926V13.6934V13.6942V13.6949V13.6957V13.6965V13.6973V13.6981V13.6988V13.6996V13.7004V13.7012V13.702V13.7027V13.7035V13.7043V13.7051V13.7058V13.7066V13.7074V13.7081V13.7089V13.7097V13.7105V13.7112V13.712V13.7128V13.7135V13.7143V13.715V13.7158V13.7166V13.7173V13.7181V13.7189V13.7196V13.7204V13.7211V13.7219V13.7226V13.7234V13.7241V13.7249V13.7256V13.7264V13.7271V13.7279V13.7286V13.7294V13.7301V13.7309V13.7314C15.3875 14.0075 15.3424 14.2052 15.2689 14.3521L15.269 14.352C15.269 14.352 15.2661 14.3575 15.2578 14.369C15.2491 14.3811 15.2367 14.3968 15.2193 14.4167C15.1826 14.4586 15.1381 14.5034 15.0788 14.5627L15.4324 14.9162L15.0788 14.5627C15.0505 14.5909 15.021 14.6139 14.9621 14.6581L14.9561 14.6626C14.9015 14.7036 14.8205 14.7643 14.7383 14.8464L14.6294 14.9553C14.6246 14.9578 14.615 14.9625 14.5979 14.9701C14.5922 14.9727 14.5856 14.9755 14.5783 14.9787C14.5261 15.0014 14.4359 15.0407 14.3344 15.1046C14.1478 15.194 13.9001 15.2676 13.7297 15.2676H13.7287H13.7277H13.7267H13.7257H13.7247H13.7237H13.7227H13.7216H13.7206H13.7196H13.7186H13.7176H13.7166H13.7156H13.7146H13.7135H13.7125H13.7115H13.7105H13.7095H13.7084H13.7074H13.7064H13.7054H13.7043H13.7033H13.7023H13.7012H13.7002H13.6992H13.6981H13.6971H13.6961H13.695H13.694H13.693H13.6919H13.6909H13.6898H13.6888H13.6877H13.6867H13.6856H13.6846H13.6835H13.6825H13.6814H13.6804H13.6793H13.6783H13.6772H13.6762H13.6751H13.674H13.673H13.6719H13.6708H13.6698H13.6687H13.6677H13.6666H13.6655H13.6644H13.6634H13.6623H13.6612H13.6602H13.6591H13.658H13.6569H13.6559H13.6548H13.6537H13.6526H13.6515H13.6505H13.6494H13.6483H13.6472H13.6461H13.645H13.644H13.6429H13.6418H13.6407H13.6396H13.6385H13.6374H13.6363H13.6352H13.6341H13.633H13.6319H13.6309H13.6298H13.6287H13.6276H13.6265H13.6254H13.6243H13.6231H13.622H13.6209H13.6198H13.6187H13.6176H13.6165H13.6154H13.6143H13.6132H13.6121H13.611H13.6099H13.6087H13.6076H13.6065H13.6054H13.6043H13.6032H13.6021H13.6009H13.5998H13.5987H13.5976H13.5965H13.5953H13.5942H13.5931H13.592H13.5909H13.5897H13.5886H13.5875H13.5864H13.5852H13.5841H13.583H13.5818H13.5807H13.5796H13.5785H13.5773H13.5762H13.5751H13.5739H13.5728H13.5717H13.5705H13.5694H13.5683H13.5671H13.566H13.5648H13.5637H13.5626H13.5614H13.5603H13.5592H13.558H13.5569H13.5557H13.5546H13.5535H13.5523H13.5512H13.55H13.5489H13.5477H13.5466H13.5454H13.5443H13.5432H13.542H13.5409H13.5397H13.5386H13.5374H13.5363H13.5351H13.534H13.5328H13.5317H13.5305H13.5294H13.5282H13.5271H13.5259H13.5248H13.5236H13.5225H13.5213H13.5202H13.519H13.5178H13.5167H13.5155H13.5144H13.5132H13.5121H13.5109H13.5098H13.5086H13.5075H13.5063H13.5051H13.504H13.5028H13.5017H13.5005H13.4993H13.4982H13.497H13.4959H13.4947H13.4936H13.4924H13.4912H13.4901H13.4889H13.4877H13.4866H13.4854H13.4843H13.4831H13.4819H13.4808H13.4796H13.4785H13.4773H13.4761H13.475H13.4738H13.4726H13.4715H13.4703H13.4692H13.468H13.4668H13.4657H13.4645H13.4633H13.4622H13.461H13.4599H13.4587H13.4575H13.4564H13.4552H13.454H13.4529H13.4517H13.4505H13.4494H13.4482H13.4471H13.4459H13.4447H13.4436H13.4424H13.4412H13.4401H13.4389H13.4377H13.4366H13.4354H13.4342H13.4331H13.4319H13.4308H13.4296H13.4284H13.4273H13.4261H13.4249H13.4238H13.4226H13.4215H13.4203H13.4191H13.418H13.4168H13.4156H13.4145H13.4133H13.4122H13.411H13.4098H13.4087H13.4075H13.4063H13.4052H13.404H13.4029H13.4017H13.4005H13.3994H13.3982H13.3971H13.3959H13.3947H13.3936H13.3924H13.3913H13.3901H13.389H13.3878H13.3866H13.3855H13.3843H13.3832H13.382H13.3809H13.3797H13.3785H13.3774H13.3762H13.3751H13.3739H13.3728H13.3716H13.3705H13.3693H13.3682H13.367H13.3659H13.3647H13.3635H13.3624H13.3612H13.3601H13.3589H13.3578H13.3566H13.3555H13.3544H13.3532H13.3521H13.3509H13.3498H13.3486H13.3475H13.3463H13.3452H13.344H13.3429H13.3417H13.3406H13.3395H13.3383H13.3372H13.336H13.3349H13.3338H13.3326H13.3315H13.3303H13.3292H13.3281H13.3269H13.3258H13.3246H13.3235H13.3224H13.3212H13.3201H13.319H13.3178H13.3167H13.3156H13.3144H13.3133H13.3122H13.3111H13.3099H13.3088H13.3077H13.3065H13.3054H13.3043H13.3032H13.302H13.3009H13.2998H13.2987H13.2976H13.2964H13.2953H13.2942H13.2931H13.292H13.2908H13.2897H13.2886H13.2875H13.2864H13.2853H13.2841H13.283H13.2819H13.2808H13.2797H13.2786H13.2775H13.2764H13.2753H13.2741H13.273H13.2719H13.2708H13.2697H13.2686H13.2675H13.2664H13.2653H13.2642H13.2631H13.262H13.2609H13.2598H13.2587H13.2576H13.2565H13.2554H13.2544H13.2533H13.2522H13.2511H13.25H13.2489H13.2478H13.2467H13.2456H13.2446H13.2435H13.2424H13.2413H13.2402H13.2391H13.2381H13.237H13.2359H13.2348H13.2338H13.2327H13.2324C13.1313 15.2417 13.0324 15.2277 12.9633 15.2179C12.9584 15.2172 12.9536 15.2165 12.949 15.2158C12.8384 15.2 12.7868 15.1911 12.7526 15.1797L12.7365 15.1743L12.72 15.1701C11.2853 14.7981 10.0058 14.1116 8.87899 13.1565C8.79874 13.0502 8.71132 12.9664 8.63864 12.9003C8.60376 12.8686 8.57404 12.8423 8.54689 12.8184C8.49702 12.7743 8.45588 12.738 8.40755 12.6897L8.18052 12.4627L8.17482 12.457L8.16894 12.4514C7.31686 11.6526 6.67577 10.7487 6.19165 9.73451L6.14455 9.59323L6.13798 9.5735L6.12978 9.55439C5.98067 9.20646 5.88643 8.81956 5.88643 8.44594C5.88643 7.94963 6.06496 7.44035 6.38929 7.01442C6.45892 6.94126 6.51146 6.87116 6.54816 6.82219L6.55264 6.81621C6.57712 6.78358 6.5951 6.75996 6.61107 6.74057C6.67087 6.7031 6.72202 6.66461 6.75555 6.63938C6.75881 6.63694 6.76189 6.63461 6.76481 6.63243C6.79474 6.60998 6.8148 6.59503 6.83321 6.58237C6.84172 6.57652 6.84807 6.57243 6.85269 6.56961C6.85683 6.56709 6.85877 6.56609 6.85877 6.56609L6.92432 6.53331C6.94409 6.5288 6.96082 6.52456 6.97369 6.5213C6.97721 6.5204 6.98044 6.51958 6.98337 6.51885C7.02102 6.50944 7.03678 6.50631 7.04076 6.5054H7.04135H7.04235H7.04335H7.04434H7.04534H7.04634H7.04734H7.04833H7.04933H7.05033H7.05133H7.05232H7.05332H7.05432H7.05531H7.05631H7.05731H7.05831H7.0593H7.0603H7.0613H7.06229H7.06329H7.06428H7.06528H7.06628H7.06727H7.06827H7.06927H7.07026H7.07126H7.07225H7.07325H7.07424H7.07524H7.07623H7.07723H7.07823H7.07922H7.08021H7.08121H7.0822H7.0832H7.08419H7.08519H7.08618H7.08717H7.08817H7.08916H7.09016H7.09115H7.09214H7.09314H7.09413H7.09512H7.09611H7.09711H7.0981H7.09909H7.10008H7.10107H7.10207H7.10306H7.10405H7.10504H7.10603H7.10702H7.10801H7.109H7.10999H7.11098H7.11197H7.11296H7.11395H7.11494H7.11593H7.11692H7.1179H7.11889H7.11988H7.12087H7.12186H7.12284H7.12383H7.12482H7.1258H7.12679H7.12778H7.12876H7.12975H7.13073H7.13172H7.1327H7.13369H7.13467H7.13566H7.13664H7.13762H7.13861H7.13959H7.14057H7.14155H7.14254H7.14352H7.1445H7.14548H7.14646H7.14744H7.14842H7.1494H7.15038H7.15136H7.15234H7.15332H7.1543H7.15528H7.15626H7.15723H7.15821H7.15919H7.16017H7.16114H7.16212H7.16309H7.16407H7.16504H7.16602H7.16699H7.16797H7.16894H7.16991H7.17089H7.17186H7.17283H7.1738H7.17478H7.17575H7.17672H7.17769H7.17866H7.17963H7.1806H7.18157H7.18253H7.1835H7.18447H7.18544H7.18641H7.18737H7.18834H7.1893H7.19027H7.19123H7.1922H7.19316H7.19413H7.19509H7.19605H7.19702H7.19798H7.19894H7.1999H7.20086H7.20182H7.20278H7.20374H7.2047H7.20566H7.20662H7.20757H7.20853H7.20949H7.21044H7.2114H7.21236H7.21331H7.21427H7.21522H7.21617H7.21713H7.21808H7.21903H7.21998H7.22093H7.22188H7.22284H7.22378H7.22473H7.22568H7.22663H7.22758H7.22853H7.22947H7.23042H7.23136H7.23231H7.23325H7.2342H7.23514H7.23608H7.23703H7.23797H7.23891H7.23985H7.24079H7.24173H7.24267H7.24361H7.24455H7.24549H7.24642H7.24736H7.2483H7.24923H7.25017H7.2511H7.25203H7.25297H7.2539H7.25483H7.25576H7.25669H7.25762H7.25855H7.25948H7.26041H7.26134H7.26227H7.26319H7.26412H7.26504H7.26597H7.26689H7.26782H7.26874H7.26966H7.27059H7.27151H7.27243H7.27335H7.27427H7.27519H7.2761H7.27702H7.27794H7.27885H7.27977H7.28068H7.2816H7.28251H7.28342H7.28434H7.28525H7.28616H7.28707H7.28798H7.28889H7.2898H7.2907H7.29161H7.29252H7.29342H7.29433H7.29523H7.29613H7.29704H7.29794H7.29884H7.29974H7.30064H7.30154H7.30244H7.30334H7.30423H7.30513H7.30603H7.30692H7.30782H7.30871H7.3096H7.31049H7.31139H7.31228H7.31317H7.31406H7.31494H7.31583H7.31672H7.3176H7.31849H7.31937H7.32026H7.32114H7.32202H7.32291H7.32379H7.32467H7.32555H7.32642H7.3273H7.32818H7.32906H7.32993H7.33081H7.33168H7.33255H7.33342H7.3343H7.33517H7.33604H7.33691H7.33777H7.33864H7.33951H7.34037H7.34124H7.3421H7.34297H7.34383H7.34469H7.34555H7.34641H7.34727H7.34813H7.34898H7.34984H7.3507H7.35155H7.35241H7.35326H7.35411H7.35496H7.35581H7.35666H7.35751H7.35836H7.35921H7.36005H7.3609H7.36174H7.36259H7.36343H7.36427H7.36511H7.36595H7.36679H7.36763H7.36847H7.3693H7.37014H7.37097H7.37181H7.37264H7.37347H7.3743H7.37513H7.37596H7.37679H7.37762H7.37844H7.37927H7.38009H7.38092H7.38174H7.38256H7.38338H7.3842H7.38502H7.38584H7.38666H7.38747H7.38829H7.3891H7.38991H7.39073H7.39154H7.39235H7.39316H7.39396H7.39477H7.39558H7.39638H7.39719H7.39799H7.39879H7.39959H7.40039H7.40119H7.40199H7.40279H7.40358H7.40438H7.40517H7.40597H7.40676H7.40755H7.40834H7.40913H7.40992H7.41071H7.41149H7.41228H7.41306H7.41384H7.41462H7.41541H7.41618H7.41696H7.41774H7.41852H7.41929H7.42007H7.42084H7.42161H7.42238H7.42315H7.42392H7.42469H7.42546H7.42622H7.42699H7.42775H7.42852H7.42928H7.43004H7.4308H7.43155H7.43231H7.43307H7.43382H7.43458H7.43533H7.43608H7.43683H7.43758H7.43833H7.43908H7.43982H7.44057H7.44131H7.44205H7.44279H7.44353H7.44427H7.44501H7.44575H7.44648H7.44722H7.44795H7.44868H7.44941H7.45014H7.45087H7.4516H7.45233H7.45305H7.45378H7.4545H7.45522H7.45594H7.45666H7.45738H7.45809H7.45881H7.45952H7.46024H7.46095H7.46166H7.46237H7.46308H7.46379H7.46449H7.4652H7.4659H7.4666H7.4673H7.468H7.4687H7.4694H7.4701H7.47079H7.47148H7.47218H7.47287H7.47356H7.47425H7.47493H7.47562H7.47631H7.47699H7.47767H7.47835H7.47903H7.47971H7.48039H7.48106H7.48174H7.48241H7.48309H7.48376H7.48443H7.48509H7.48576H7.48643H7.5686C7.58726 6.51326 7.5952 6.51804 7.59928 6.52075C7.59931 6.52077 7.59937 6.52081 7.59944 6.52085C7.60071 6.52163 7.60808 6.52614 7.62271 6.54512C7.71077 6.72591 7.90552 7.15512 8.09141 7.58666C8.18972 7.81488 8.28325 8.03842 8.35507 8.22055C8.39107 8.31182 8.4204 8.38964 8.44181 8.45084C8.46262 8.51036 8.47018 8.53808 8.47158 8.54319C8.47178 8.54395 8.47185 8.54421 8.47181 8.544L8.47792 8.57453L8.48437 8.5939C8.48433 8.59863 8.48376 8.60881 8.4803 8.62496C8.47448 8.65211 8.46318 8.68237 8.44798 8.71049C8.37138 8.7985 8.3167 8.89004 8.28468 8.94366C8.28231 8.94762 8.28007 8.95138 8.27795 8.95491C8.25531 8.99265 8.24162 9.01516 8.22842 9.03446C8.21642 9.052 8.211 9.05751 8.21123 9.05728C8.11083 9.15768 8.00059 9.2842 7.92061 9.37871C7.87944 9.42738 7.84394 9.47035 7.81866 9.50124L7.78873 9.53804L7.78857 9.53823C7.66596 9.67624 7.63429 9.83481 7.62287 9.91476C7.61058 10.0008 7.61068 10.0895 7.61074 10.1393C7.61075 10.1426 7.61075 10.1457 7.61075 10.1486V10.2667L7.66354 10.3723C7.67377 10.3927 7.67715 10.4016 7.6847 10.4214C7.68893 10.4326 7.69447 10.4471 7.70327 10.4691C7.7214 10.5145 7.75027 10.5803 7.80278 10.6507L7.83381 10.7128L7.83867 10.7225L7.84394 10.732C8.16056 11.3019 8.59507 11.7941 9.00585 12.2049C9.08257 12.2816 9.1723 12.3534 9.23714 12.4052L9.2457 12.4121C9.32226 12.4733 9.3698 12.5121 9.40314 12.5454C9.91511 13.0574 10.5412 13.4279 11.1957 13.7254L11.2062 13.7302L11.2169 13.7345L11.429 13.8193C11.48 13.8568 11.5316 13.8867 11.5763 13.909C11.6341 13.9379 11.7637 13.9973 11.9135 13.9973H11.9702C12.224 13.9973 12.5012 13.8779 12.6629 13.619C13.0389 13.1893 13.2422 12.959 13.3513 12.8362Z" stroke="#000"/>
</svg>
