<svg width="24" height="24" viewBox="0 0 24 24" fill="none" xmlns="http://www.w3.org/2000/svg">
<path d="M22.46 7.53589V1.53589H16.46" stroke="#000" stroke-width="2" stroke-linecap="round" stroke-linejoin="round"/>
<path d="M15.46 8.53589L22.46 1.53589" stroke="#000" stroke-width="2" stroke-linecap="round" stroke-linejoin="round"/>
<path d="M21.4599 17.456V20.456C21.461 20.7345 21.404 21.0102 21.2924 21.2653C21.1808 21.5205 21.0172 21.7496 20.812 21.9379C20.6067 22.1261 20.3645 22.2695 20.1006 22.3587C19.8368 22.4479 19.5573 22.4811 19.2799 22.456C16.2027 22.1216 13.2469 21.0701 10.6499 19.386C8.23372 17.8507 6.18523 15.8022 4.64989 13.386C2.95987 10.7772 1.90814 7.80698 1.57989 4.71599C1.5549 4.43945 1.58777 4.16075 1.67639 3.89761C1.76502 3.63447 1.90746 3.39267 2.09466 3.18761C2.28186 2.98254 2.5097 2.81869 2.76368 2.70651C3.01767 2.59432 3.29223 2.53625 3.56989 2.53599H6.56989C7.0552 2.53121 7.52569 2.70306 7.89366 3.01952C8.26163 3.33597 8.50197 3.77543 8.56989 4.25599C8.69652 5.21605 8.93134 6.15871 9.26989 7.06599C9.40444 7.42391 9.43356 7.8129 9.3538 8.18687C9.27405 8.56083 9.08876 8.9041 8.81989 9.17599L7.54989 10.446C8.97345 12.9495 11.0463 15.0224 13.5499 16.446L14.8199 15.176C15.0918 14.9071 15.435 14.7218 15.809 14.6421C16.183 14.5623 16.572 14.5914 16.9299 14.726C17.8372 15.0645 18.7798 15.2994 19.7399 15.426C20.2257 15.4945 20.6693 15.7392 20.9864 16.1135C21.3036 16.4878 21.4721 16.9656 21.4599 17.456Z" stroke="#000" stroke-width="2" stroke-linecap="round" stroke-linejoin="round"/>
</svg>
