<svg width="24" height="24" viewBox="0 0 24 24" fill="none" xmlns="http://www.w3.org/2000/svg">
<path d="M20.7086 2.34153C20.1131 1.79413 17.7027 0.0414914 12.3295 0.0174826C12.3295 0.0174826 5.99598 -0.366658 2.90845 2.46638C1.18942 4.18541 0.584399 6.69672 0.521976 9.81786C0.459553 12.9342 0.377923 18.7779 6.01038 20.3625H6.01518L6.01038 22.7778C6.01038 22.7778 5.97677 23.7574 6.6202 23.9542C7.39809 24.1943 7.85906 23.45 8.60333 22.6482C9.01148 22.2064 9.57328 21.563 10.0006 21.0684C13.8516 21.3901 16.8143 20.6506 17.1505 20.5402C17.9283 20.2857 22.3315 19.7239 23.047 13.8801C23.7865 7.86835 22.6869 4.06056 20.7086 2.34153ZM21.3616 13.4576C20.7566 18.3362 17.1889 18.6435 16.531 18.8548C16.2525 18.946 13.65 19.5942 10.3752 19.3782C10.3752 19.3782 7.93588 22.3216 7.17721 23.0851C7.05716 23.2052 6.91791 23.2532 6.82668 23.2292C6.69703 23.1956 6.65862 23.0419 6.66342 22.8162C6.66342 22.4897 6.68263 18.7971 6.68263 18.7971C6.67782 18.7971 6.67782 18.7971 6.68263 18.7971C1.91448 17.4767 2.19299 12.502 2.24581 9.89949C2.29862 7.29694 2.7884 5.16016 4.24334 3.72444C6.85069 1.36197 12.2335 1.7125 12.2335 1.7125C16.7759 1.73171 18.9511 3.10021 19.4553 3.55638C21.1311 4.9969 21.9858 8.43016 21.3616 13.4576Z" fill="#000"/>
<path d="M14.5429 9.99074C14.3844 9.99074 14.25 9.86589 14.2404 9.70263C14.1876 8.67026 13.7026 8.16607 12.7134 8.11325C12.5453 8.10365 12.4157 7.9596 12.4253 7.79154C12.4349 7.62347 12.579 7.49383 12.747 7.50343C14.0531 7.57546 14.783 8.32453 14.8502 9.66902C14.8598 9.83708 14.7301 9.98114 14.5621 9.98594C14.5525 9.99074 14.5477 9.99074 14.5429 9.99074Z" fill="#000"/>
<path d="M16.0988 10.5093H16.094C15.926 10.5045 15.7915 10.3653 15.7963 10.1972C15.8203 9.16004 15.5226 8.31974 14.8888 7.62828C14.2597 6.93683 13.3906 6.56229 12.243 6.48066C12.075 6.46626 11.9501 6.32221 11.9645 6.15414C11.9789 5.98608 12.123 5.86124 12.291 5.87564C13.5875 5.97168 14.6103 6.42304 15.3401 7.22013C16.0748 8.02203 16.4301 9.02559 16.4061 10.2116C16.4013 10.3797 16.2621 10.5093 16.0988 10.5093Z" fill="#000"/>
<path d="M17.6931 11.1335C17.525 11.1335 17.3905 10.9991 17.3905 10.831C17.3761 8.97273 16.8431 7.55621 15.7579 6.49502C14.6872 5.44824 13.3283 4.91524 11.7293 4.90084C11.5612 4.90084 11.4268 4.76159 11.4268 4.59353C11.4268 4.42546 11.566 4.29102 11.7293 4.29102C13.4915 4.30542 14.9897 4.89604 16.1757 6.05806C17.3665 7.22009 17.9764 8.82387 17.9956 10.8214C18.0004 10.9943 17.8659 11.1335 17.6931 11.1335C17.6979 11.1335 17.6979 11.1335 17.6931 11.1335Z" fill="#000"/>
<path d="M12.7856 13.7504C12.7856 13.7504 13.2129 13.7888 13.4434 13.5055L13.89 12.9437C14.106 12.6652 14.6294 12.4875 15.1384 12.7708C15.4217 12.9293 15.9355 13.2462 16.2524 13.4815C16.5934 13.7312 17.2848 14.3074 17.2896 14.3122C17.6209 14.5907 17.6978 14.9988 17.4721 15.4358C17.4721 15.4358 17.4721 15.4406 17.4721 15.4454C17.2416 15.8536 16.9295 16.2377 16.5405 16.593C16.5357 16.593 16.5357 16.5978 16.5309 16.5978C16.2092 16.8667 15.8923 17.0204 15.585 17.054C15.5466 17.0636 15.5034 17.0636 15.4457 17.0636C15.3113 17.0636 15.1768 17.0444 15.0424 17.0012L15.0328 16.9868C14.5526 16.8523 13.7555 16.5162 12.4302 15.7815C11.5659 15.3062 10.8505 14.8212 10.2406 14.3362C9.91892 14.0817 9.5924 13.7984 9.25627 13.4623C9.24667 13.4527 9.23227 13.4383 9.22266 13.4287C9.21306 13.4191 9.19865 13.4047 9.18905 13.3951C9.17945 13.3855 9.16504 13.3711 9.15544 13.3615C9.14583 13.3518 9.13143 13.3374 9.12182 13.3278C8.7905 12.9917 8.5024 12.6652 8.24791 12.3435C7.76293 11.7385 7.27795 11.0182 6.80258 10.1539C6.06791 8.8238 5.73179 8.0267 5.59734 7.55133L5.58293 7.54173C5.53971 7.40728 5.52051 7.27283 5.52051 7.13838C5.52051 7.08076 5.52051 7.03754 5.53011 6.99913C5.56853 6.68701 5.72218 6.3749 5.98628 6.05318C5.98628 6.04838 5.99108 6.04838 5.99108 6.04358C6.34641 5.64984 6.73055 5.34252 7.1387 5.11204C7.1387 5.11204 7.1435 5.11204 7.1483 5.11204C7.58046 4.88636 7.98861 4.96318 8.27191 5.29451C8.27191 5.29451 8.85293 5.99076 9.10262 6.33168C9.3379 6.6534 9.65482 7.16239 9.81328 7.44569C10.0966 7.95468 9.91892 8.47807 9.64041 8.69415L9.07861 9.14071C8.79531 9.37119 8.83372 9.79855 8.83372 9.79855C8.83372 9.79855 9.66442 12.9581 12.7856 13.7504Z" fill="#000"/>
</svg>
