<svg width="25" height="22" viewBox="0 0 25 22" fill="none" xmlns="http://www.w3.org/2000/svg">
<mask id="path-1-outside-1_304_222" maskUnits="userSpaceOnUse" x="0.108154" y="-0.0620117" width="25" height="22" fill="black">
<rect fill="white" x="0.108154" y="-0.0620117" width="25" height="22"/>
<path fill-rule="evenodd" clip-rule="evenodd" d="M18.0494 19.9133C19.3075 20.4637 19.7793 19.3104 19.7793 19.3104L23.1081 2.58776C23.0819 1.46068 21.5617 2.14217 21.5617 2.14217L2.92561 9.45507C2.92561 9.45507 2.03443 9.7696 2.11307 10.32C2.1917 10.8705 2.8994 11.1326 2.8994 11.1326L7.59118 12.7052C7.59118 12.7052 9.00658 17.3446 9.2949 18.2358C9.55701 19.1007 9.79291 19.127 9.79291 19.127C10.055 19.2318 10.2909 19.0483 10.2909 19.0483L13.3314 16.2962L18.0494 19.9133ZM18.8619 5.54958C18.8619 5.54958 19.5172 5.15641 19.491 5.54958C19.491 5.54958 19.5958 5.602 19.2551 5.96896C18.9405 6.28349 11.5228 12.9411 10.5268 13.8323C10.4482 13.8847 10.3957 13.9633 10.3957 14.0682L10.1074 16.532C10.055 16.7941 9.71425 16.8203 9.63561 16.5844L8.40369 12.5479C8.35127 12.3907 8.40369 12.2072 8.56096 12.1024L18.8619 5.54958Z"/>
</mask>
<path d="M19.7793 19.3104L21.1677 19.8784L21.2223 19.7448L21.2505 19.6033L19.7793 19.3104ZM18.0494 19.9133L17.1368 21.1037L17.2813 21.2145L17.4482 21.2875L18.0494 19.9133ZM23.1081 2.58776L24.5793 2.8806L24.6116 2.71831L24.6077 2.55288L23.1081 2.58776ZM21.5617 2.14217L22.1096 3.53851L22.1428 3.5255L22.1753 3.51093L21.5617 2.14217ZM2.92561 9.45507L3.42484 10.8696L3.44935 10.8609L3.47354 10.8514L2.92561 9.45507ZM2.11307 10.32L3.59799 10.1079V10.1079L2.11307 10.32ZM2.8994 11.1326L2.37843 12.5392L2.40043 12.5473L2.42268 12.5548L2.8994 11.1326ZM7.59118 12.7052L9.0259 12.2675L8.80045 11.5286L8.06791 11.283L7.59118 12.7052ZM9.2949 18.2358L10.7304 17.8008L10.7264 17.7874L10.7221 17.7741L9.2949 18.2358ZM9.79291 19.127L10.35 17.7342L10.1609 17.6586L9.95856 17.6361L9.79291 19.127ZM10.2909 19.0483L11.2118 20.2324L11.256 20.198L11.2975 20.1604L10.2909 19.0483ZM13.3314 16.2962L14.2441 15.1058L13.2518 14.345L12.3248 15.1841L13.3314 16.2962ZM19.491 5.54958L17.9943 5.4498L17.928 6.44511L18.8202 6.89122L19.491 5.54958ZM18.8619 5.54958L18.0902 4.26334L18.0734 4.27343L18.0568 4.28396L18.8619 5.54958ZM19.2551 5.96896L20.3157 7.02962L20.3354 7.00998L20.3543 6.98963L19.2551 5.96896ZM10.5268 13.8323L11.3588 15.0804L11.4475 15.0212L11.527 14.9501L10.5268 13.8323ZM10.3957 14.0682L11.8856 14.2425L11.8957 14.1557V14.0682H10.3957ZM10.1074 16.532L11.5783 16.8262L11.5902 16.7667L11.5972 16.7064L10.1074 16.532ZM9.63561 16.5844L8.20094 17.0223L8.20653 17.0406L8.21259 17.0588L9.63561 16.5844ZM8.40369 12.5479L9.83836 12.1101L9.83277 12.0918L9.82672 12.0736L8.40369 12.5479ZM8.56096 12.1024L7.75585 10.8367L7.74228 10.8454L7.7289 10.8543L8.56096 12.1024ZM19.7793 19.3104C18.391 18.7425 18.3913 18.7417 18.3916 18.741C18.3917 18.7408 18.392 18.74 18.3922 18.7395C18.3926 18.7386 18.393 18.7376 18.3934 18.7367C18.3942 18.7348 18.3949 18.733 18.3957 18.7312C18.3972 18.7277 18.3986 18.7243 18.3999 18.7212C18.4026 18.7149 18.4051 18.7095 18.4072 18.7047C18.4115 18.6952 18.4148 18.6883 18.4172 18.6836C18.4196 18.6789 18.4212 18.6759 18.4222 18.6742C18.4231 18.6726 18.4236 18.6719 18.4237 18.6717C18.4238 18.6715 18.4239 18.6714 18.424 18.6712C18.4241 18.671 18.4248 18.6702 18.4261 18.6686C18.4282 18.6661 18.4359 18.6575 18.4508 18.6456C18.485 18.6184 18.5535 18.5782 18.6441 18.5656C18.7372 18.5526 18.751 18.583 18.6506 18.5391L17.4482 21.2875C17.9768 21.5188 18.5215 21.6114 19.0568 21.5371C19.5898 21.463 20.0121 21.2377 20.3215 20.9909C20.6226 20.7508 20.8243 20.4855 20.9482 20.2924C21.0121 20.193 21.0607 20.1041 21.096 20.0342C21.1137 19.999 21.1284 19.9679 21.1403 19.9418C21.1462 19.9287 21.1514 19.9169 21.156 19.9063C21.1582 19.901 21.1603 19.896 21.1623 19.8913C21.1633 19.889 21.1642 19.8868 21.1651 19.8846C21.1655 19.8835 21.166 19.8825 21.1664 19.8814C21.1666 19.8809 21.1669 19.8802 21.167 19.8799C21.1673 19.8791 21.1677 19.8784 19.7793 19.3104ZM21.637 2.29492L18.3082 19.0176L21.2505 19.6033L24.5793 2.8806L21.637 2.29492ZM21.5617 2.14217C22.1753 3.51093 22.1749 3.51112 22.1745 3.5113C22.1743 3.51136 22.1739 3.51154 22.1737 3.51165C22.1732 3.51188 22.1727 3.5121 22.1722 3.51232C22.1712 3.51274 22.1704 3.51312 22.1696 3.51347C22.168 3.51417 22.1667 3.51472 22.1658 3.51514C22.1639 3.51598 22.1631 3.51628 22.1635 3.51612C22.1643 3.51578 22.1693 3.51367 22.1779 3.51028C22.1956 3.50329 22.2252 3.49219 22.2617 3.48036C22.3475 3.45257 22.413 3.43998 22.4401 3.43789C22.4502 3.43712 22.4198 3.44094 22.36 3.43095C22.2994 3.42081 22.1785 3.39123 22.0406 3.30201C21.8916 3.20558 21.7676 3.06784 21.6893 2.90935C21.6163 2.7615 21.6092 2.6494 21.6086 2.62264L24.6077 2.55288C24.5925 1.8958 24.3256 1.2073 23.6703 0.783295C23.1193 0.426751 22.5328 0.4219 22.21 0.446729C21.8538 0.474133 21.5376 0.561466 21.3376 0.626238C21.2312 0.660688 21.1417 0.694024 21.0762 0.719903C21.0432 0.732944 21.0155 0.744369 20.994 0.753462C20.9833 0.758017 20.974 0.762011 20.9663 0.765357C20.9625 0.767031 20.959 0.768546 20.956 0.76989C20.9545 0.770562 20.9531 0.771192 20.9517 0.771779C20.9511 0.772072 20.9505 0.772354 20.9499 0.772626C20.9495 0.772761 20.9491 0.772957 20.949 0.773025C20.9485 0.773217 20.9481 0.773407 21.5617 2.14217ZM3.47354 10.8514L22.1096 3.53851L21.0138 0.745829L2.37768 8.05872L3.47354 10.8514ZM3.59799 10.1079C3.64293 10.4225 3.53301 10.6697 3.4483 10.7946C3.37826 10.8979 3.32026 10.9306 3.34367 10.9144C3.35753 10.9048 3.3849 10.8892 3.41747 10.8742C3.43123 10.8678 3.44098 10.8638 3.44405 10.8626C3.44545 10.862 3.44484 10.8623 3.44185 10.8634C3.44035 10.864 3.43821 10.8648 3.4354 10.8658C3.434 10.8663 3.43242 10.8669 3.43066 10.8675C3.42978 10.8678 3.42886 10.8681 3.42789 10.8685C3.4274 10.8686 3.42691 10.8688 3.4264 10.869C3.42615 10.8691 3.42576 10.8692 3.42563 10.8693C3.42524 10.8694 3.42484 10.8696 2.92561 9.45507C2.42638 8.04058 2.42598 8.04072 2.42557 8.04087C2.42543 8.04092 2.42502 8.04106 2.42474 8.04116C2.42418 8.04136 2.4236 8.04156 2.42301 8.04178C2.42182 8.0422 2.42058 8.04264 2.41927 8.04311C2.41666 8.04404 2.4138 8.04507 2.41071 8.0462C2.40453 8.04844 2.39741 8.05107 2.38939 8.05407C2.37338 8.06007 2.35371 8.06762 2.33089 8.07674C2.28554 8.09486 2.22628 8.11975 2.15772 8.15147C2.02565 8.21258 1.83514 8.31001 1.63604 8.44785C1.36302 8.63686 0.456668 9.33184 0.628144 10.5322L3.59799 10.1079ZM2.8994 11.1326C3.42037 9.72595 3.42082 9.72612 3.42126 9.72628C3.4214 9.72634 3.42184 9.7265 3.42213 9.7266C3.4227 9.72682 3.42327 9.72703 3.42383 9.72724C3.42494 9.72765 3.42602 9.72806 3.42706 9.72845C3.42915 9.72924 3.43111 9.72998 3.43293 9.73067C3.43656 9.73206 3.43968 9.73328 3.4423 9.73431C3.44754 9.73638 3.45092 9.73778 3.45271 9.73854C3.45608 9.73997 3.45411 9.73922 3.4486 9.73652C3.43457 9.72963 3.42004 9.72107 3.41162 9.71501C3.34914 9.67007 3.55141 9.78179 3.59799 10.1079L0.628144 10.5322C0.753363 11.4087 1.3488 11.9267 1.65983 12.1504C1.83816 12.2787 2.00546 12.3701 2.12658 12.4295C2.18865 12.46 2.24258 12.484 2.28497 12.5019C2.30626 12.5109 2.32493 12.5185 2.34056 12.5247C2.34839 12.5278 2.35549 12.5305 2.36181 12.5329C2.36497 12.5342 2.36794 12.5353 2.37071 12.5363C2.37209 12.5368 2.37343 12.5373 2.37472 12.5378C2.37536 12.5381 2.37599 12.5383 2.37661 12.5385C2.37692 12.5386 2.37737 12.5388 2.37753 12.5389C2.37798 12.539 2.37843 12.5392 2.8994 11.1326ZM8.06791 11.283L3.37612 9.71035L2.42268 12.5548L7.11446 14.1275L8.06791 11.283ZM10.7221 17.7741C10.5824 17.3424 10.1609 15.9743 9.76899 14.6965C9.57423 14.0615 9.38844 13.4542 9.25133 13.0056C9.18278 12.7813 9.12641 12.5968 9.08718 12.4683C9.06757 12.4041 9.05224 12.3538 9.04182 12.3197C9.03661 12.3026 9.03263 12.2896 9.02995 12.2808C9.02861 12.2764 9.02759 12.2731 9.02692 12.2709C9.02658 12.2697 9.02632 12.2689 9.02615 12.2684C9.02607 12.2681 9.026 12.2679 9.02596 12.2677C9.02594 12.2677 9.02593 12.2676 9.02591 12.2676C9.0259 12.2675 9.0259 12.2675 7.59118 12.7052C6.15647 13.143 6.15647 13.143 6.15649 13.143C6.1565 13.143 6.15651 13.1431 6.15654 13.1432C6.15658 13.1433 6.15664 13.1435 6.15673 13.1438C6.1569 13.1444 6.15716 13.1452 6.15751 13.1464C6.15819 13.1486 6.15921 13.1519 6.16056 13.1564C6.16325 13.1652 6.16725 13.1783 6.17248 13.1954C6.18293 13.2297 6.1983 13.28 6.21795 13.3444C6.25725 13.4731 6.31371 13.6579 6.38236 13.8825C6.51964 14.3317 6.70573 14.9399 6.90086 15.5761C7.28874 16.8409 7.71908 18.238 7.86774 18.6975L10.7221 17.7741ZM9.79291 19.127C9.95856 17.6361 9.96111 17.6364 9.96365 17.6367C9.9645 17.6368 9.96705 17.6371 9.96875 17.6373C9.97214 17.6377 9.97553 17.6381 9.97892 17.6385C9.9857 17.6394 9.99247 17.6403 9.99924 17.6412C10.0128 17.6431 10.0262 17.6452 10.0397 17.6474C10.0665 17.6519 10.0932 17.6571 10.1195 17.663C10.1722 17.6749 10.2232 17.6895 10.2722 17.7064C10.3709 17.7405 10.4577 17.7829 10.5325 17.8284C10.6817 17.9193 10.771 18.0156 10.8135 18.0687C10.8874 18.1611 10.8328 18.1386 10.7304 17.8008L7.85937 18.6708C8.01909 19.1979 8.21351 19.621 8.4709 19.9428C8.60514 20.1106 8.76984 20.2674 8.97141 20.3903C9.07239 20.4518 9.17973 20.503 9.29232 20.5419C9.34833 20.5612 9.40463 20.5772 9.46094 20.5899C9.48904 20.5962 9.51701 20.6017 9.54479 20.6063C9.55867 20.6086 9.5725 20.6107 9.58625 20.6127C9.59313 20.6136 9.59998 20.6145 9.60682 20.6154C9.61024 20.6158 9.61365 20.6162 9.61706 20.6166C9.61877 20.6168 9.62132 20.6171 9.62217 20.6172C9.62472 20.6175 9.62727 20.6178 9.79291 19.127ZM10.2909 19.0483C9.37001 17.8643 9.37049 17.8639 9.37096 17.8636C9.37111 17.8634 9.37158 17.8631 9.3719 17.8628C9.37252 17.8624 9.37315 17.8619 9.37377 17.8614C9.37502 17.8604 9.37626 17.8595 9.37749 17.8585C9.37997 17.8566 9.38242 17.8547 9.38486 17.8529C9.38973 17.8492 9.39454 17.8456 9.3993 17.8421C9.40879 17.8351 9.41815 17.8285 9.42741 17.8221C9.44576 17.8094 9.46458 17.7972 9.48416 17.7856C9.52118 17.7636 9.57142 17.7373 9.6357 17.7143C9.75719 17.671 10.0312 17.6067 10.35 17.7342L9.23583 20.5197C9.81675 20.752 10.3398 20.6485 10.6447 20.5396C10.8007 20.4838 10.9263 20.4182 11.0158 20.3651C11.0616 20.338 11.1009 20.3123 11.1331 20.2899C11.1494 20.2787 11.1641 20.2682 11.1771 20.2586C11.1837 20.2538 11.1898 20.2492 11.1956 20.2448C11.1985 20.2426 11.2013 20.2405 11.204 20.2384C11.2054 20.2374 11.2067 20.2363 11.208 20.2353C11.2086 20.2348 11.2093 20.2343 11.2099 20.2338C11.2103 20.2336 11.2107 20.2332 11.2109 20.2331C11.2114 20.2327 11.2118 20.2324 10.2909 19.0483ZM12.3248 15.1841L9.2843 17.9362L11.2975 20.1604L14.338 17.4082L12.3248 15.1841ZM18.9621 18.7229L14.2441 15.1058L12.4188 17.4866L17.1368 21.1037L18.9621 18.7229ZM20.9877 5.64936C21.0032 5.41655 20.9824 5.05624 20.7728 4.69062C20.5444 4.29231 20.1917 4.06066 19.8598 3.95472C19.3319 3.78624 18.8634 3.93227 18.7472 3.96784C18.5517 4.02768 18.3855 4.10613 18.2895 4.15445C18.2363 4.1812 18.1915 4.20546 18.1584 4.22399C18.1416 4.23336 18.1273 4.24153 18.1159 4.24815C18.1102 4.25147 18.1052 4.25442 18.1009 4.25696C18.0987 4.25823 18.0968 4.2594 18.095 4.26046C18.0941 4.261 18.0932 4.2615 18.0924 4.26198C18.092 4.26222 18.0917 4.26246 18.0913 4.26268C18.0911 4.2628 18.0908 4.26296 18.0907 4.26302C18.0904 4.26318 18.0902 4.26334 18.8619 5.54958C19.6337 6.83582 19.6334 6.83598 19.6331 6.83613C19.6331 6.83619 19.6328 6.83634 19.6326 6.83644C19.6323 6.83665 19.632 6.83684 19.6316 6.83703C19.631 6.83742 19.6304 6.83778 19.6298 6.83813C19.6286 6.83882 19.6276 6.83943 19.6267 6.83997C19.6249 6.84105 19.6235 6.84184 19.6226 6.84237C19.6208 6.84342 19.6206 6.84353 19.6217 6.84292C19.6242 6.84148 19.6304 6.8381 19.6383 6.83413C19.6644 6.82102 19.6603 6.82575 19.6254 6.83644C19.6069 6.8421 19.5473 6.85958 19.4578 6.86884C19.3789 6.877 19.1865 6.88893 18.9477 6.8127C18.6735 6.7252 18.3677 6.52733 18.1702 6.18278C17.9914 5.87092 17.9853 5.58432 17.9943 5.4498L20.9877 5.64936ZM20.3543 6.98963C20.5513 6.77747 20.8275 6.45002 20.9461 6.02313C21.0155 5.7731 21.0572 5.38974 20.8835 4.97906C20.7987 4.77872 20.6783 4.61167 20.5429 4.47949C20.4768 4.4149 20.4097 4.36113 20.3453 4.31656C20.3131 4.29429 20.2815 4.27427 20.2509 4.25628C20.2355 4.24728 20.2204 4.23877 20.2056 4.23073C20.1982 4.22671 20.1908 4.2228 20.1835 4.21901C20.1799 4.21711 20.1762 4.21524 20.1726 4.21339C20.1708 4.21248 20.1681 4.2111 20.1672 4.21065C20.1645 4.20929 20.1618 4.20794 19.491 5.54958C18.8202 6.89122 18.8175 6.88987 18.8148 6.88851C18.8139 6.88806 18.8112 6.88669 18.8094 6.88577C18.8058 6.88393 18.8021 6.88206 18.7985 6.88017C18.7912 6.87639 18.7839 6.8725 18.7765 6.86851C18.7618 6.86052 18.7468 6.85209 18.7317 6.8432C18.7014 6.82544 18.6704 6.80576 18.6389 6.78396C18.5758 6.74034 18.5106 6.68805 18.4467 6.62561C18.3158 6.49773 18.2008 6.33764 18.1206 6.14795C17.9558 5.75857 18.0025 5.41125 18.0555 5.22019C18.106 5.03839 18.1791 4.92925 18.1918 4.91034C18.2099 4.88347 18.2064 4.89388 18.1559 4.94828L20.3543 6.98963ZM11.527 14.9501C12.4891 14.0893 19.9621 7.38324 20.3157 7.02962L18.1944 4.9083C18.2008 4.90189 18.1784 4.92364 18.0993 4.9966C18.0308 5.05975 17.9372 5.14542 17.8206 5.25153C17.5879 5.46343 17.2702 5.75123 16.8931 6.09196C16.1391 6.77311 15.1523 7.66175 14.1434 8.56908C12.1256 10.3839 10.0232 12.2701 9.5266 12.7144L11.527 14.9501ZM11.8957 14.0682C11.8957 14.2765 11.8407 14.4922 11.7274 14.6864C11.6181 14.8738 11.4789 15.0004 11.3588 15.0804L9.69475 12.5842C9.27039 12.8671 8.89573 13.3815 8.89573 14.0682H11.8957ZM11.5972 16.7064L11.8856 14.2425L8.9059 13.8938L8.61758 16.3577L11.5972 16.7064ZM8.21259 17.0588C8.49716 17.9125 9.30698 18.3076 10.0258 18.238C10.7505 18.1679 11.4157 17.6393 11.5783 16.8262L8.63654 16.2379C8.74674 15.6869 9.21537 15.3024 9.73685 15.252C10.2526 15.2021 10.8527 15.4923 11.0586 16.1101L8.21259 17.0588ZM6.96902 12.9858L8.20094 17.0223L11.0703 16.1466L9.83836 12.1101L6.96902 12.9858ZM7.7289 10.8543C6.99056 11.3465 6.72136 12.2444 6.98067 13.0223L9.82672 12.0736C9.98118 12.537 9.81682 13.0679 9.39301 13.3504L7.7289 10.8543ZM18.0568 4.28396L7.75585 10.8367L9.36606 13.368L19.667 6.81521L18.0568 4.28396Z" fill="#4F4F4F" mask="url(#path-1-outside-1_304_222)"/>
</svg>
