<svg width="221" height="44" viewBox="0 0 221 44" fill="none" xmlns="http://www.w3.org/2000/svg">
<path d="M54.4448 26.759C54.4448 27.6418 54.3967 28.6033 54.2962 29.6479H36.6301C37.1502 36.5666 40.4457 40.0238 46.5165 40.0238C49.5497 40.0238 51.9142 39.1278 53.61 37.3315C53.0549 38.9486 52.7096 40.6007 52.5829 42.279C50.332 42.9259 48.0156 43.2493 45.6336 43.2493C41.1974 43.2493 37.7053 42.0124 35.1616 39.5386C32.6179 37.0649 31.3461 33.6121 31.3461 29.1803C31.3461 25.0107 32.3382 21.724 34.3312 19.3114C36.5165 16.7065 39.6459 15.4041 43.728 15.4041C50.5015 15.4041 54.4448 20.1713 54.4448 26.7546V26.759ZM49.3049 26.759C49.3355 21.0509 47.3556 18.1969 43.3565 18.1969C39.3574 18.1969 36.9885 21.0509 36.6301 26.759H49.3049Z" fill="#CB2026"/>
<path d="M82.5828 30.015C82.5828 38.287 77.644 45.5 65.1615 42.6636C62.1469 41.9786 59.6327 38.2187 59.6327 33.9617C59.6327 33.376 59.672 32.4888 59.7551 31.3C59.9754 27.97 59.8294 24.6384 59.8294 21.3044C59.8294 18.5684 60.026 16.4486 60.415 14.9495C61.1012 12.2441 62.6834 10.2118 65.1615 8.83939C67.2813 7.66807 69.8424 7.07804 72.8451 7.07804C75.1615 7.07804 77.2812 7.48887 79.2087 8.3018C78.5574 9.73974 78.033 11.2214 77.644 12.7555C76.4027 11.0597 74.5452 10.2118 72.0671 10.2118C71.1536 10.2118 70.2489 10.4478 69.3529 10.9198C66.3598 12.4967 64.4841 14.6787 64.4841 18.3324V23.8131C66.1493 20.1593 69.0033 18.3324 73.0461 18.3324C76.3415 18.3324 78.8197 19.4906 80.4849 21.7983C81.8879 23.8175 82.5872 26.5535 82.5872 30.0019L82.5828 30.015ZM77.8363 31.8245C77.8363 29.3201 77.3643 27.2222 76.4158 25.5308C75.2096 23.481 73.4482 22.4582 71.1318 22.4582C68.5225 22.4582 66.7262 23.1575 65.7515 24.5561C64.9998 25.6969 64.6283 27.633 64.6283 30.3647C64.6283 33.0963 64.8556 35.487 65.3145 37.6374C66.1798 41.6919 73.5052 40.4573 75.686 38.612C77.1195 37.3752 77.8407 35.1155 77.8407 31.8288L77.8363 31.8245Z" fill="#CB2026"/>
<path d="M122.552 4.28526C121.407 6.20833 120.188 9.11479 118.881 12.9959L112.224 32.668C111.018 36.2563 109.694 38.7869 108.26 40.2511C106.403 42.2091 103.789 43.1881 100.432 43.1881C99.9735 43.1881 99.3398 43.1532 98.5224 43.092C99.2086 41.3962 99.6457 39.6173 99.8424 37.7598C100.463 38.3804 101.21 38.6908 102.093 38.6908C103.855 38.6908 105.323 37.8909 106.499 36.2913C107.084 35.474 107.867 33.8918 108.846 31.5448C107.771 31.5448 106.822 31.5929 106.005 31.6934C102.124 17.5282 98.7628 8.39364 95.9263 4.28963C97.102 4.42075 98.3083 4.48631 99.5452 4.48631C100.555 4.48631 101.945 4.42075 103.706 4.28963C103.575 4.74418 103.509 5.26428 103.509 5.85431C103.509 7.67686 104.213 10.6882 105.612 14.8884L110.113 28.4154C110.209 27.7293 110.668 26.099 111.481 23.5203C112.425 20.5527 113.374 17.5982 114.318 14.6655C115.559 10.5527 116.175 7.65064 116.175 5.95484C116.175 5.39977 116.079 4.8447 115.883 4.28963C117.316 4.42075 118.444 4.48631 119.257 4.48631C120.07 4.48631 121.167 4.42075 122.535 4.28963L122.552 4.28526Z" fill="#1E386B"/>
<path d="M139.712 16.5317C139.126 18.0308 138.685 19.5168 138.392 20.9854C136.893 19.4513 134.965 18.6864 132.618 18.6864C129.813 18.6864 127.658 19.7135 126.159 21.7677C124.821 23.5946 124.153 25.9591 124.153 28.8612C124.153 32.1567 124.952 34.8315 126.552 36.8857C128.313 39.1365 130.792 40.2598 133.991 40.2598C136.014 40.2598 137.728 39.6872 139.126 38.5465C138.606 39.9801 138.261 41.383 138.099 42.7554C136.272 43.1488 134.69 43.3411 133.353 43.3411C128.816 43.3411 125.28 42.1435 122.732 39.744C117.386 34.701 117.586 24.3278 122.658 19.1934C125.153 16.6672 128.536 15.3997 132.811 15.3997C134.834 15.3997 137.133 15.7756 139.708 16.523L139.712 16.5317Z" fill="#1E386B"/>
<path d="M165.664 15.6489C164.947 20.2468 164.589 23.8044 164.589 26.3175V36.6409C164.589 39.3158 164.912 41.4661 165.568 43.1007C164.13 42.904 163.024 42.8079 162.242 42.8079C161.459 42.8079 160.384 42.904 159.012 43.1007C159.597 40.9154 159.895 36.1514 159.895 28.8132C159.895 27.5107 159.877 25.8936 159.847 23.9705C159.847 20.7406 159.847 19.141 159.847 19.176H148.933V36.2039C148.933 39.1715 149.261 41.4705 149.912 43.1007C148.479 42.904 147.368 42.8079 146.586 42.8079C145.804 42.8079 144.729 42.904 143.356 43.1007C143.911 40.981 144.187 38.2231 144.187 34.8315V23.7258C144.187 20.4653 143.907 17.773 143.356 15.6532H165.668L165.664 15.6489Z" fill="#1E386B"/>
<path d="M191.451 26.759C191.451 27.6418 191.402 28.6033 191.302 29.6479H173.636C174.156 36.5666 177.451 40.0238 183.522 40.0238C186.555 40.0238 188.92 39.1278 190.616 37.3315C190.061 38.9486 189.72 40.6007 189.589 42.279C187.338 42.9259 185.021 43.2493 182.639 43.2493C178.203 43.2493 174.711 42.0124 172.167 39.5386C169.624 37.0649 168.352 33.6121 168.352 29.1803C168.352 25.0107 169.348 21.724 171.337 19.3114C175.284 14.6063 184.402 13.6809 188.706 18.4373C190.533 20.4609 191.446 23.2319 191.446 26.7546L191.451 26.759ZM186.315 26.759C186.375 15.6379 174.308 16.1199 173.64 26.759H186.315Z" fill="#1E386B"/>
<path d="M220.568 43.1487C218.837 42.8865 217.499 42.7554 216.555 42.7554C215.738 42.7554 214.453 42.8865 212.692 43.1487C212.429 41.7458 211.647 40.0019 210.34 37.9127C209.23 36.2825 208.12 34.6523 207.014 33.0177C205.839 34.6566 204.65 36.3131 203.443 37.9827C201.909 40.2772 201.013 41.9993 200.751 43.1444C199.252 42.9171 198.076 42.8035 197.228 42.8035C196.153 42.8035 195.074 42.9171 193.999 43.1444C195.79 41.7064 197.718 39.5998 199.772 36.8201C201.468 34.4993 203.146 32.1654 204.811 29.8096C203.181 27.3577 201.533 24.9058 199.868 22.4582C197.941 19.6785 196.101 17.3927 194.339 15.5964C196.101 15.7581 197.438 15.8411 198.352 15.8411C199.265 15.8411 200.651 15.7581 202.412 15.5964C202.346 15.793 202.316 15.9722 202.316 16.1339C202.316 16.8507 203.085 18.4679 204.624 20.9766C205.703 22.5762 206.765 24.189 207.814 25.8236C209.06 24.224 210.283 22.6112 211.494 20.9766C212.866 19.0186 213.767 17.2266 214.195 15.5964C215.633 15.7581 216.761 15.8411 217.578 15.8411C218.688 15.8411 219.689 15.7581 220.572 15.5964C218.933 17.3927 215.393 21.8944 209.951 29.1016C211.582 31.5491 213.212 33.9923 214.846 36.4398C216.835 39.2764 218.745 41.5098 220.572 43.1444L220.568 43.1487Z" fill="#1E386B"/>
<path d="M24.8965 6.72332L29.9679 8.85938L8.76392 23.4612V13.5662H11.725V13.5755C12.1596 13.5872 12.9285 13.6153 13.674 13.6667C13.6834 13.6667 13.6881 13.6667 13.6974 13.6667C13.7091 13.6667 13.7185 13.6667 13.7301 13.669C13.9451 13.683 14.1602 13.7017 14.3611 13.7204C14.4336 13.7274 14.5084 13.7345 14.5761 13.7438C15.0202 13.7929 15.3894 13.8513 15.5577 13.9284C15.5717 13.9354 15.5694 13.9471 15.5787 13.9541C15.6699 13.9822 15.7447 14.0102 15.8218 14.0406C15.8755 14.0593 15.9363 14.0733 15.9831 14.0967C15.9924 14.1014 15.9994 14.1084 16.0088 14.1131C16.2331 14.2136 16.378 14.3117 16.4645 14.3818C16.8431 14.6366 17.1165 14.9684 17.231 15.3423C17.238 15.3564 17.2474 15.3681 17.2544 15.3797L24.8405 10.1564C24.539 9.78018 24.2165 9.41794 23.8566 9.08374C22.8283 8.13256 21.6083 7.38471 20.1967 6.84018C18.7852 6.29331 17.2427 5.99183 15.5764 5.93574L13.1319 5.85394H0V36.3337L41.0479 0.658691L24.8965 6.72332Z" fill="#1E386B"/>
<path d="M0.00237649 38.3505V43.0526H15.2656C16.9343 43.0526 18.4837 42.8049 19.914 42.3048C21.3419 41.807 22.5876 41.1012 23.6463 40.1851C24.7049 39.269 25.5323 38.1776 26.1282 36.9085C26.7218 35.6419 27.0186 34.235 27.0186 32.6925C27.0186 31.9213 26.9298 31.1431 26.7545 30.3578C26.5769 29.5702 26.2895 28.8154 25.8875 28.0932C25.4855 27.3711 24.9714 26.712 24.3474 26.1184C23.8706 25.6674 23.291 25.2958 22.6577 24.9639L17.3713 30.699C17.5372 31.1057 17.6284 31.559 17.6284 32.0685C17.6284 32.4214 17.5793 32.7743 17.4835 33.1272C17.3877 33.4801 17.2124 33.819 16.9576 34.1391C16.7029 34.4617 16.3664 34.7164 15.9504 34.9104C15.5344 35.1043 15.0085 35.2002 14.3682 35.2002H10.7224L32.4359 11.6474L33.6044 17.1722L42.2071 1.84585L0.00237649 38.3505Z" fill="#CB2026"/>
</svg>
