<svg width="181" height="53" viewBox="0 0 181 53" fill="none" xmlns="http://www.w3.org/2000/svg">
<path d="M44.3982 30.5991H28.9923C27.9116 30.5991 27.0378 31.4729 27.0378 32.5536C27.0378 33.6343 27.9116 34.5081 28.9923 34.5081H46.7435C46.7435 34.5081 47.6633 33.5883 46.6746 32.0937C45.6628 30.5991 44.3982 30.5991 44.3982 30.5991Z" fill="black"/>
<path d="M43.6164 14.1586L34.051 30.7141C33.5221 31.6568 33.821 32.8525 34.7638 33.3814C35.7065 33.9102 36.9022 33.6113 37.431 32.6686L46.9965 16.113C47.5253 15.1703 47.2264 13.9746 46.2837 13.4458C45.3409 12.8939 44.1452 13.2158 43.6164 14.1586Z" fill="black"/>
<path d="M55.3203 37.8192L45.5019 20.7808C45.5019 20.7808 44.0763 21.8845 44.0763 24.0689C44.0763 26.2533 44.9731 27.7249 44.9731 27.7249L51.9402 39.7966C52.469 40.7394 53.6647 41.0613 54.6075 40.5095C55.5272 39.9576 55.8491 38.7619 55.3203 37.8192Z" fill="black"/>
<path d="M56.309 30.5991H50.8595C49.7788 30.5991 48.905 31.4729 48.905 32.5536C48.905 33.6343 49.7788 34.5081 50.8595 34.5081H56.309C57.3897 34.5081 58.2635 33.6343 58.2635 32.5536C58.2635 31.4959 57.3897 30.5991 56.309 30.5991Z" fill="black"/>
<path d="M43.7314 17.7455L41.6619 14.1355C41.1331 13.2158 39.9144 12.8938 38.9946 13.4227C38.0749 13.9516 37.753 15.1702 38.2818 16.09L40.3513 19.7C40.8801 20.6198 42.0988 20.9417 43.0186 20.4128C43.9383 19.884 44.2602 18.6883 43.7314 17.7455Z" fill="black"/>
<path d="M29.9582 37.7961L31.1998 35.6577C31.1998 35.6577 31.4988 35.0598 32.6714 35.0598C33.9131 35.0598 35.1088 36.0945 35.2008 36.4854L33.3383 39.7506C32.8094 40.6933 31.6137 41.0152 30.671 40.4634C29.7282 39.9345 29.4293 38.7388 29.9582 37.7961Z" fill="black"/>
<path d="M75.2911 28.6815H69.7485L68.4175 32.6118H66.0698L71.3197 18.0708H73.7588L79.0087 32.6118H76.621L75.2911 28.6815ZM70.3226 26.8679H74.716L72.5502 20.4894H72.4895L70.3226 26.8679Z" fill="black"/>
<path d="M90.3466 27.3114C90.3466 30.6059 88.5833 32.7226 85.9223 32.7226C85.2483 32.7578 84.5779 32.6025 83.988 32.2745C83.3981 31.9465 82.9124 31.459 82.5867 30.8678H82.5364V36.1188H80.3603V22.0101H82.4666V23.7734H82.5066C82.8473 23.185 83.3412 22.7 83.9356 22.37C84.53 22.04 85.2028 21.8773 85.8823 21.8992C88.573 21.8992 90.3466 24.0261 90.3466 27.3114ZM88.1099 27.3114C88.1099 25.1651 87.0007 23.754 85.3083 23.754C83.6456 23.754 82.5272 25.1948 82.5272 27.3114C82.5272 29.4475 83.6456 30.8781 85.3083 30.8781C87.0007 30.8781 88.1098 29.4773 88.1098 27.3114H88.1099Z" fill="black"/>
<path d="M102.016 27.3114C102.016 30.6059 100.252 32.7226 97.5908 32.7226C96.9167 32.7578 96.2463 32.6025 95.6564 32.2745C95.0665 31.9465 94.5809 31.459 94.2551 30.8678H94.2048V36.1188H92.0287V22.0101H94.135V23.7734H94.1751C94.5158 23.185 95.0096 22.7 95.604 22.37C96.1984 22.04 96.8712 21.8773 97.5507 21.8992C100.241 21.8992 102.016 24.0261 102.016 27.3114ZM99.7783 27.3114C99.7783 25.1651 98.6691 23.754 96.9767 23.754C95.314 23.754 94.1957 25.1948 94.1957 27.3114C94.1957 29.4475 95.314 30.8781 96.9767 30.8781C98.6691 30.8781 99.7783 29.4773 99.7783 27.3114Z" fill="black"/>
<path d="M109.726 28.5603C109.888 30.0023 111.288 30.9491 113.203 30.9491C115.037 30.9491 116.356 30.0023 116.356 28.7021C116.356 27.5734 115.561 26.8976 113.676 26.4345L111.792 25.9805C109.121 25.3356 107.882 24.0868 107.882 22.0605C107.882 19.5516 110.068 17.8284 113.172 17.8284C116.246 17.8284 118.352 19.5516 118.423 22.0605H116.226C116.095 20.6094 114.895 19.7335 113.142 19.7335C111.389 19.7335 110.189 20.6197 110.189 21.9096C110.189 22.9376 110.956 23.5425 112.83 24.0056L114.432 24.399C117.415 25.1045 118.654 26.303 118.654 28.4299C118.654 31.1503 116.488 32.8541 113.041 32.8541C109.817 32.8541 107.639 31.1903 107.499 28.5602L109.726 28.5603Z" fill="black"/>
<path d="M123.352 19.5012V22.0101H125.369V23.7334H123.352V29.5779C123.352 30.4858 123.756 30.9089 124.642 30.9089C124.882 30.9048 125.121 30.8879 125.358 30.8586V32.5716C124.96 32.646 124.555 32.6797 124.15 32.6722C122.003 32.6722 121.166 31.866 121.166 29.81V23.7334H119.625V22.0101H121.166V19.5012H123.352Z" fill="black"/>
<path d="M126.535 27.3116C126.535 23.9759 128.499 21.8799 131.563 21.8799C134.637 21.8799 136.592 23.9759 136.592 27.3116C136.592 30.6564 134.647 32.7433 131.563 32.7433C128.48 32.7433 126.535 30.6564 126.535 27.3116ZM134.375 27.3116C134.375 25.0234 133.326 23.6729 131.563 23.6729C129.8 23.6729 128.751 25.0337 128.751 27.3116C128.751 29.6089 129.8 30.9491 131.563 30.9491C133.326 30.9491 134.375 29.6089 134.375 27.3116H134.375Z" fill="black"/>
<path d="M138.386 22.0102H140.462V23.8147H140.512C140.653 23.2511 140.983 22.7531 141.447 22.4043C141.911 22.0555 142.482 21.8771 143.062 21.8993C143.313 21.8984 143.563 21.9257 143.808 21.9805V24.016C143.491 23.9192 143.161 23.8748 142.83 23.8845C142.514 23.8716 142.199 23.9274 141.906 24.0478C141.614 24.1683 141.351 24.3507 141.135 24.5824C140.92 24.8141 140.757 25.0897 140.658 25.3903C140.559 25.6908 140.527 26.0092 140.562 26.3236V32.6118H138.386L138.386 22.0102Z" fill="black"/>
<path d="M153.841 29.498C153.548 31.4225 151.674 32.7433 149.276 32.7433C146.192 32.7433 144.278 30.6769 144.278 27.3619C144.278 24.0366 146.202 21.8799 149.185 21.8799C152.118 21.8799 153.962 23.8948 153.962 27.1092V27.8548H146.474V27.9863C146.44 28.3764 146.489 28.7695 146.618 29.1393C146.747 29.5091 146.953 29.8473 147.223 30.1313C147.492 30.4153 147.819 30.6387 148.182 30.7866C148.545 30.9345 148.935 31.0035 149.326 30.9891C149.841 31.0373 150.357 30.9182 150.798 30.6495C151.239 30.3809 151.581 29.977 151.775 29.498L153.841 29.498ZM146.485 26.3339H151.785C151.804 25.9831 151.751 25.632 151.629 25.3027C151.506 24.9734 151.317 24.673 151.073 24.4204C150.828 24.1677 150.535 23.9683 150.21 23.8345C149.885 23.7008 149.536 23.6356 149.185 23.6432C148.83 23.6411 148.479 23.7092 148.151 23.8435C147.823 23.9779 147.525 24.1758 147.274 24.426C147.023 24.6762 146.824 24.9735 146.688 25.301C146.553 25.6285 146.484 25.9795 146.485 26.3339V26.3339Z" fill="black"/>
</svg>
