<svg width="181" height="53" viewBox="0 0 181 53" fill="none" xmlns="http://www.w3.org/2000/svg">
<path d="M30.1858 12.3157C29.8345 12.667 29.7174 13.2524 29.7174 13.955V39.8332C29.7174 40.5358 29.9516 41.1213 30.3029 41.4726L30.42 41.5897L44.9399 27.0698V26.9527V26.8356L30.1858 12.3157Z" fill="url(#paint0_linear_1202_1357)"/>
<path d="M49.6237 31.9881L44.8228 27.1871V26.9529V26.8358L49.6237 22.0349L49.7408 22.152L55.4785 25.4307C57.1179 26.3675 57.1179 27.8897 55.4785 28.8265L49.6237 31.9881Z" fill="url(#paint1_linear_1202_1357)"/>
<path d="M49.7408 31.8709L44.8228 26.9529L30.1858 41.5899C30.7713 42.1754 31.5909 42.1754 32.6448 41.707L49.7408 31.8709Z" fill="url(#paint2_linear_1202_1357)"/>
<path d="M49.7408 22.0348L32.6448 12.3158C31.5909 11.7304 30.7713 11.8474 30.1858 12.4329L44.8228 26.9528L49.7408 22.0348Z" fill="url(#paint3_linear_1202_1357)"/>
<path opacity="0.2" d="M49.6237 31.7539L32.6448 41.3558C31.708 41.9413 30.8884 41.8242 30.3029 41.3558L30.1858 41.4729L30.3029 41.59C30.8884 42.0584 31.708 42.1754 32.6448 41.59L49.6237 31.7539Z" fill="black"/>
<path opacity="0.12" d="M30.1858 41.3557C29.8345 41.0044 29.7174 40.4189 29.7174 39.7163V39.8334C29.7174 40.536 29.9516 41.1215 30.3029 41.4728V41.3557H30.1858Z" fill="black"/>
<path opacity="0.12" d="M55.4785 28.4751L49.6237 31.7538L49.7408 31.8709L55.4785 28.5922C56.2982 28.1238 56.6495 27.5384 56.6495 26.9529C56.6495 27.5384 56.1811 28.0067 55.4785 28.4751Z" fill="black"/>
<path opacity="0.25" d="M32.6448 12.4328L55.4785 25.4305C56.1811 25.8988 56.6495 26.3672 56.6495 26.9527C56.6495 26.3672 56.2982 25.7818 55.4785 25.3134L32.6448 12.3157C31.0055 11.3789 29.7174 12.0815 29.7174 13.9551V14.0722C29.7174 12.3157 31.0055 11.496 32.6448 12.4328Z" fill="white"/>
<path d="M92.3833 23.0509C89.9243 23.0509 88.0508 24.9245 88.0508 27.3835C88.0508 29.8425 90.0414 31.716 92.3833 31.716C94.8423 31.716 96.7159 29.8425 96.7159 27.3835C96.833 24.9245 94.8423 23.0509 92.3833 23.0509ZM92.3833 30.0767C91.0952 30.0767 89.9243 29.0228 89.9243 27.3835C89.9243 25.8612 91.0952 24.6903 92.3833 24.6903C93.6714 24.6903 94.8423 25.7441 94.8423 27.3835C94.8423 28.9057 93.7885 30.0767 92.3833 30.0767ZM82.8985 23.0509C80.4395 23.0509 78.566 24.9245 78.566 27.3835C78.566 29.8425 80.5566 31.716 82.8985 31.716C85.2404 31.716 87.2311 29.8425 87.2311 27.3835C87.2311 24.9245 85.2404 23.0509 82.8985 23.0509ZM82.8985 30.0767C81.6105 30.0767 80.4395 29.0228 80.4395 27.3835C80.4395 25.8612 81.6105 24.6903 82.8985 24.6903C84.1866 24.6903 85.3575 25.7441 85.3575 27.3835C85.3575 28.9057 84.1866 30.0767 82.8985 30.0767ZM71.5402 24.339V26.2125H75.9899C75.8728 27.2664 75.5215 27.969 74.936 28.5544C74.3505 29.1399 73.2967 29.9596 71.5402 29.9596C68.847 29.9596 66.7393 27.7348 66.7393 25.0416C66.7393 22.3484 68.847 20.1235 71.5402 20.1235C73.0625 20.1235 74.1163 20.709 74.8189 21.4116L76.107 20.1235C75.0531 19.0697 73.5309 18.25 71.4231 18.25C67.6761 18.25 64.5145 21.2945 64.5145 25.0416C64.5145 28.7886 67.6761 31.8331 71.4231 31.8331C73.4138 31.8331 74.936 31.1306 76.107 29.9596C77.2779 28.7886 77.7463 27.0322 77.7463 25.627C77.7463 25.1587 77.7463 24.8074 77.6292 24.4561H71.5402V24.339ZM117.91 25.8612C117.559 24.9245 116.388 23.0509 114.163 23.0509C111.938 23.0509 110.065 24.8074 110.065 27.3835C110.065 29.8425 111.938 31.716 114.397 31.716C116.388 31.716 117.559 30.5451 118.027 29.8425L116.505 28.9057C116.037 29.6083 115.334 30.0767 114.397 30.0767C113.461 30.0767 112.758 29.6083 112.29 28.7886L118.144 26.3296L117.91 25.8612ZM111.938 27.2664C111.938 25.627 113.226 24.6903 114.163 24.6903C114.866 24.6903 115.568 25.0416 115.802 25.627L111.938 27.2664ZM107.254 31.4818H109.128V18.7184H107.254V31.4818ZM104.093 23.9877C103.625 23.5193 102.805 23.0509 101.751 23.0509C99.5262 23.0509 97.5355 24.9245 97.5355 27.3835C97.5355 29.8425 99.5262 31.716 101.751 31.716C102.805 31.716 103.625 31.2477 104.093 30.7793H104.21V31.3647C104.21 33.0041 103.273 33.9409 101.868 33.9409C100.697 33.9409 99.9945 33.1212 99.6433 32.4186L98.0039 33.1212C98.4723 34.2921 99.7603 35.6973 101.868 35.6973C104.093 35.6973 105.966 34.4092 105.966 31.1306V23.2851H104.21V23.9877H104.093ZM101.868 30.0767C100.58 30.0767 99.4091 29.0228 99.4091 27.5006C99.4091 25.9783 100.463 24.8074 101.868 24.8074C103.156 24.8074 104.21 25.9783 104.21 27.5006C104.21 28.9057 103.273 30.0767 101.868 30.0767ZM126.927 18.7184H122.36V31.4818H124.233V26.6809H126.927C129.034 26.6809 131.142 25.1587 131.142 22.6996C131.142 20.2406 129.034 18.7184 126.927 18.7184ZM126.927 24.8074H124.233V20.4748H126.927C128.332 20.4748 129.151 21.6458 129.151 22.6996C129.151 23.6364 128.332 24.8074 126.927 24.8074ZM138.753 23.0509C137.348 23.0509 135.943 23.6364 135.358 25.0416L136.997 25.7441C137.348 25.0416 138.051 24.8074 138.753 24.8074C139.69 24.8074 140.744 25.3929 140.744 26.4467V26.5638C140.393 26.3296 139.69 26.0954 138.753 26.0954C136.88 26.0954 135.123 27.1493 135.123 29.0228C135.123 30.7793 136.646 31.8331 138.285 31.8331C139.573 31.8331 140.276 31.2477 140.744 30.5451H140.861V31.4818H142.735V26.5638C142.617 24.339 140.861 23.0509 138.753 23.0509ZM138.519 30.0767C137.934 30.0767 136.997 29.7254 136.997 29.0228C136.997 28.0861 138.051 27.6177 138.987 27.6177C139.807 27.6177 140.276 27.8519 140.744 28.0861C140.627 29.1399 139.573 30.0767 138.519 30.0767ZM149.292 23.2851L147.067 28.7886H146.95L144.725 23.2851H142.617L146.013 31.0135L144.023 35.346H146.013L151.283 23.2851H149.292ZM132.079 31.4818H133.952V18.7184H132.079V31.4818Z" fill="black"/>
<defs>
<linearGradient id="paint0_linear_1202_1357" x1="43.5345" y1="13.7323" x2="23.883" y2="33.3838" gradientUnits="userSpaceOnUse">
<stop stop-color="#00A0FF"/>
<stop offset="0.00657445" stop-color="#00A1FF"/>
<stop offset="0.2601" stop-color="#00BEFF"/>
<stop offset="0.5122" stop-color="#00D2FF"/>
<stop offset="0.7604" stop-color="#00DFFF"/>
<stop offset="1" stop-color="#00E3FF"/>
</linearGradient>
<linearGradient id="paint1_linear_1202_1357" x1="57.6267" y1="26.9548" x2="29.2931" y2="26.9548" gradientUnits="userSpaceOnUse">
<stop stop-color="#FFE000"/>
<stop offset="0.4087" stop-color="#FFBD00"/>
<stop offset="0.7754" stop-color="#FFA500"/>
<stop offset="1" stop-color="#FF9C00"/>
</linearGradient>
<linearGradient id="paint2_linear_1202_1357" x1="47.0792" y1="29.6416" x2="20.4303" y2="56.2907" gradientUnits="userSpaceOnUse">
<stop stop-color="#FF3A44"/>
<stop offset="1" stop-color="#C31162"/>
</linearGradient>
<linearGradient id="paint3_linear_1202_1357" x1="26.5528" y1="3.74008" x2="38.4526" y2="15.64" gradientUnits="userSpaceOnUse">
<stop stop-color="#32A071"/>
<stop offset="0.0685" stop-color="#2DA771"/>
<stop offset="0.4762" stop-color="#15CF74"/>
<stop offset="0.8009" stop-color="#06E775"/>
<stop offset="1" stop-color="#00F076"/>
</linearGradient>
</defs>
</svg>
