<svg width="181" height="53" viewBox="0 0 181 53" fill="none" xmlns="http://www.w3.org/2000/svg">
<path fill-rule="evenodd" clip-rule="evenodd" d="M44.0104 12.0039H30.9285C24.761 12.0039 22.5045 14.2604 22.5045 20.4279V33.5193C22.5045 39.6868 24.761 41.9433 30.9285 41.9433H44.0104C50.1779 41.9433 52.4376 39.6868 52.4376 33.5193V20.4279C52.4439 14.2604 50.1874 12.0039 44.0104 12.0039Z" fill="#C8102E"/>
<path d="M28.4325 26.9736H29.2267V30.891H28.4325V29.2995H26.6393V30.891H25.8451V26.9736H26.6393V28.5494H28.4325V26.9736ZM32.9077 29.2144C32.9077 29.8447 32.5925 30.1913 32.0189 30.1913C31.4454 30.1913 31.1239 29.8447 31.1239 29.1797V26.9736H30.3297V29.2112C30.3297 30.3111 30.9411 30.9414 32.0063 30.9414C33.0715 30.9414 33.7019 30.3111 33.7019 29.1765V26.9736H32.9077V29.2144ZM42.0849 29.665L41.1962 26.9736H40.5438L39.6614 29.6682L38.7947 26.9736H37.9501L39.3147 30.891H39.9734L40.8589 28.3193L41.7477 30.891H42.4126L43.7772 26.9736H42.9515L42.0849 29.665ZM45.1986 29.2018H46.6451V28.4927H45.1986V27.6922H47.2975V26.9736H44.417V30.8815H47.3731V30.1756H45.1986V29.2018ZM48.3186 30.8815H49.1033V26.9736H48.3186V30.8815ZM35.2713 30.0716L34.9152 30.8847H34.1052L35.8165 26.9736H36.5162L38.2337 30.8847H37.4143L37.0771 30.0747L35.2713 30.0716ZM35.5675 29.3656H36.762L36.1632 27.9664L35.5675 29.3656Z" fill="white"/>
<path d="M37.4742 21.9911C36.153 21.9903 34.8861 21.465 33.9519 20.5308C33.0177 19.5966 32.4925 18.3297 32.4916 17.0085H33.1944C33.1944 18.1436 33.6453 19.2322 34.4479 20.0348C35.2505 20.8374 36.3391 21.2883 37.4742 21.2883C38.6092 21.2883 39.6978 20.8374 40.5004 20.0348C41.303 19.2322 41.7539 18.1436 41.7539 17.0085H42.4567C42.4559 18.3297 41.9307 19.5966 40.9964 20.5308C40.0622 21.465 38.7954 21.9903 37.4742 21.9911Z" fill="white"/>
<path d="M69.6417 28.5326H64.0982L62.7525 32.2325H60.3164L65.737 18.4099H68.0376L73.5811 32.2325H71.0315L69.6417 28.5326ZM64.8041 26.6417H68.9326L67.4546 22.6834C67.2529 22.1382 67.0512 21.5331 66.8558 20.8712C66.6761 21.4574 66.4807 22.0531 66.2727 22.6645L64.8041 26.6417Z" fill="black"/>
<path d="M74.5612 24.4578C74.5612 23.6951 74.536 22.8547 74.4856 21.9366H76.6917C76.7745 22.3687 76.8314 22.8055 76.8618 23.2445C77.2478 22.7819 77.7294 22.4083 78.2733 22.1493C78.8173 21.8904 79.4109 21.7522 80.0134 21.7443C80.7197 21.7332 81.4134 21.9329 82.0056 22.318C82.5979 22.7031 83.0619 23.2561 83.3382 23.9063C83.7259 24.8001 83.91 25.7689 83.8771 26.7426C83.9011 27.8043 83.6857 28.8578 83.2468 29.8248C82.8797 30.6274 82.2803 31.3015 81.5261 31.7599C80.7501 32.2083 79.8663 32.436 78.9702 32.4185C78.2651 32.4181 77.5651 32.2988 76.8997 32.0655V36.3295L74.5423 36.5312L74.5612 24.4578ZM80.7571 29.7114C81.2361 29.0811 81.4788 28.1356 81.4788 26.875C81.4788 25.7258 81.2792 24.8853 80.88 24.3538C80.6997 24.1068 80.4621 23.9072 80.1876 23.7721C79.9131 23.6371 79.61 23.5707 79.3043 23.5785C78.8639 23.5726 78.4295 23.6812 78.0437 23.8937C77.6338 24.1258 77.261 24.418 76.9375 24.7603V30.2755C77.1986 30.3986 77.4738 30.4896 77.7569 30.5465C78.0613 30.6124 78.3719 30.6462 78.6834 30.6474C79.079 30.6711 79.4745 30.5982 79.8357 30.4352C80.197 30.2721 80.5132 30.0237 80.7571 29.7114Z" fill="black"/>
<path d="M85.311 24.4578C85.311 23.6951 85.2858 22.8547 85.2354 21.9366H87.4415C87.527 22.3684 87.5848 22.8053 87.6148 23.2445C88.5329 22.2444 89.5834 21.7443 90.7663 21.7443C91.4727 21.7332 92.1663 21.9329 92.7586 22.318C93.3508 22.7031 93.8148 23.2561 94.0912 23.9063C94.4788 24.8001 94.6629 25.7689 94.6301 26.7426C94.659 27.8031 94.449 28.8565 94.0155 29.8248C93.6475 30.6279 93.047 31.3019 92.2916 31.7599C91.5158 32.2087 90.6319 32.4365 89.7358 32.4185C89.0307 32.4181 88.3307 32.2988 87.6652 32.0655V36.3295L85.3079 36.5312L85.311 24.4578ZM91.5164 29.7114C91.9954 29.0664 92.2349 28.1209 92.2349 26.875C92.2349 25.7258 92.0364 24.8853 91.6393 24.3538C91.4589 24.1068 91.2213 23.9072 90.9469 23.7721C90.6724 23.6371 90.3693 23.5707 90.0635 23.5785C89.6232 23.5732 89.189 23.6818 88.8029 23.8937C88.3931 24.1258 88.0202 24.418 87.6967 24.7603V30.2755C87.9583 30.3977 88.2333 30.4887 88.5161 30.5465C88.8206 30.6124 89.1312 30.6462 89.4427 30.6474C89.8382 30.6705 90.2335 30.5975 90.5947 30.4345C90.9558 30.2714 91.2721 30.0233 91.5164 29.7114Z" fill="black"/>
<path d="M98.9634 31.5801C97.9557 31.0286 97.1375 30.1862 96.6155 29.1629C96.0441 28.0072 95.7629 26.7298 95.7961 25.441C95.7553 24.0621 96.0816 22.6971 96.7416 21.4858C97.3376 20.4346 98.2328 19.5845 99.3132 19.0434C100.449 18.4886 101.699 18.2089 102.963 18.2272C103.729 18.2238 104.493 18.3127 105.238 18.4919C105.935 18.656 106.611 18.897 107.255 19.2104L106.644 21.0225C105.529 20.4602 104.302 20.1544 103.054 20.1275C102.173 20.1128 101.303 20.3302 100.533 20.7578C99.8017 21.1775 99.2141 21.808 98.8468 22.5668C98.4244 23.4668 98.2193 24.4535 98.248 25.4473C98.2323 26.3427 98.3885 27.2328 98.7082 28.0693C98.9983 28.8098 99.5087 29.4434 100.17 29.8846C100.924 30.3563 101.803 30.5892 102.692 30.5527C103.152 30.5516 103.612 30.5126 104.066 30.4361C104.505 30.3663 104.937 30.2544 105.355 30.1021V27.2909H102.159V25.4599H107.646V31.287C106.85 31.658 106.016 31.9422 105.159 32.1348C104.31 32.3305 103.441 32.4299 102.569 32.431C101.314 32.4612 100.072 32.1681 98.9634 31.5801Z" fill="black"/>
<path d="M116.019 32.2326C115.93 31.7825 115.876 31.3263 115.856 30.868C115.463 31.3267 114.981 31.7018 114.441 31.971C113.831 32.28 113.154 32.4357 112.471 32.4248C111.911 32.4319 111.358 32.3123 110.851 32.075C110.37 31.848 109.967 31.4826 109.694 31.0255C109.393 30.5067 109.244 29.9138 109.263 29.3143C109.245 28.8595 109.333 28.4069 109.521 27.9922C109.709 27.5776 109.99 27.2123 110.344 26.9254C111.062 26.3287 112.261 26.0314 113.939 26.0335C114.565 26.0333 115.189 26.0775 115.808 26.1659V25.9642C115.808 25.0566 115.615 24.4158 115.228 24.0418C114.766 23.6441 114.166 23.4438 113.558 23.484C113.013 23.4906 112.471 23.5647 111.945 23.7046C111.423 23.8304 110.914 24.0056 110.425 24.2277L110.054 22.5133C110.588 22.2852 111.143 22.109 111.711 21.987C112.426 21.8254 113.156 21.7451 113.889 21.7475C114.665 21.7263 115.438 21.8646 116.158 22.154C116.792 22.4342 117.308 22.9269 117.617 23.547C118.004 24.3773 118.185 25.2887 118.144 26.2037V30.3007C118.144 30.7209 118.169 31.3659 118.219 32.2357L116.019 32.2326ZM114.608 30.3417C115.062 30.1306 115.47 29.8317 115.808 29.4624V27.5715C115.285 27.5096 114.759 27.4749 114.233 27.4675C113.26 27.4675 112.586 27.6251 112.212 27.9402C112.03 28.0943 111.885 28.2879 111.788 28.5063C111.692 28.7247 111.646 28.9622 111.655 29.2008C111.638 29.407 111.665 29.6145 111.735 29.8092C111.805 30.0038 111.916 30.1811 112.061 30.3291C112.368 30.5881 112.763 30.72 113.164 30.6978C113.666 30.6902 114.16 30.5684 114.608 30.3417Z" fill="black"/>
<path d="M119.965 29.7619V17.597L122.31 17.408V29.3427C122.276 29.6741 122.355 30.007 122.534 30.2882C122.624 30.385 122.735 30.4601 122.858 30.5076C122.981 30.5551 123.114 30.5738 123.246 30.5624C123.46 30.5531 123.671 30.5171 123.876 30.4552L124.153 32.1444C123.89 32.2441 123.616 32.3159 123.337 32.3587C123.036 32.4109 122.732 32.4383 122.426 32.4407C120.786 32.4302 119.965 31.5373 119.965 29.7619Z" fill="black"/>
<path d="M125.83 29.7619V17.597L128.178 17.408V29.3427C128.145 29.6741 128.223 30.007 128.402 30.2882C128.492 30.385 128.603 30.4601 128.726 30.5076C128.85 30.5551 128.982 30.5738 129.114 30.5624C129.328 30.5531 129.539 30.5171 129.744 30.4552L130.018 32.1444C129.756 32.2441 129.483 32.3159 129.205 32.3587C128.903 32.4111 128.598 32.4385 128.291 32.4407C126.653 32.4302 125.832 31.5373 125.83 29.7619Z" fill="black"/>
<path d="M139.662 27.3856H132.927C133.034 29.5434 134.062 30.6222 136.009 30.6222C136.509 30.6197 137.007 30.5605 137.494 30.4458C137.991 30.3301 138.477 30.172 138.947 29.973L139.464 31.5866C138.25 32.1584 136.922 32.4452 135.581 32.4249C134.62 32.4526 133.668 32.2358 132.814 31.7946C132.074 31.3948 131.48 30.7701 131.118 30.0109C130.718 29.1312 130.524 28.1719 130.551 27.206C130.525 26.1938 130.731 25.1891 131.153 24.2688C131.513 23.4878 132.095 22.8301 132.826 22.3779C133.576 21.9363 134.434 21.7116 135.304 21.7287C136.167 21.6982 137.018 21.9372 137.74 22.4126C138.39 22.8641 138.894 23.4962 139.189 24.231C139.514 25.0313 139.675 25.8886 139.662 26.7522V27.3856ZM137.365 25.8887C137.371 25.2193 137.148 24.5679 136.734 24.0419C136.549 23.8347 136.321 23.6709 136.066 23.5619C135.81 23.453 135.534 23.4017 135.256 23.4116C134.977 23.4058 134.7 23.459 134.442 23.5676C134.185 23.6762 133.953 23.8378 133.762 24.0419C133.318 24.5596 133.046 25.2029 132.984 25.8824L137.365 25.8887Z" fill="black"/>
<path d="M141.446 24.5238C141.446 23.9597 141.417 23.0962 141.367 21.9395H143.573C143.611 22.2263 143.646 22.5698 143.683 22.9638C143.721 23.3577 143.74 23.6855 143.753 23.9345C143.99 23.5328 144.26 23.1512 144.56 22.7936C144.82 22.488 145.134 22.2327 145.486 22.0404C145.856 21.8405 146.272 21.7395 146.693 21.7473C147.012 21.7395 147.331 21.7788 147.639 21.8639L147.342 23.9061C146.973 23.7993 146.586 23.7721 146.205 23.8264C145.825 23.8808 145.461 24.0154 145.136 24.2212C144.615 24.609 144.16 25.0795 143.791 25.6142V32.2324H141.446V24.5238Z" fill="black"/>
<path d="M148.95 36.4464C148.662 36.3999 148.379 36.3314 148.102 36.2415L148.53 34.5239C148.729 34.5773 148.93 34.6204 149.132 34.6531C149.359 34.6934 149.589 34.7145 149.819 34.7162C150.87 34.7162 151.651 34.0449 152.164 32.7024L152.319 32.321L148.521 21.9399H151.042L152.971 27.7419C153.218 28.4882 153.418 29.2492 153.57 30.0204C153.749 29.2767 153.957 28.5329 154.2 27.7892L156.122 21.9399H158.496L154.714 32.3683C154.428 33.2083 154.04 34.0096 153.557 34.754C153.189 35.3162 152.686 35.7777 152.095 36.0965C151.461 36.4061 150.761 36.5575 150.056 36.5378C149.685 36.5392 149.315 36.5086 148.95 36.4464Z" fill="black"/>
</svg>
