<svg width="181" height="53" viewBox="0 0 181 53" fill="none" xmlns="http://www.w3.org/2000/svg">
<g clip-path="url(#clip0_1202_1359)">
<path fill-rule="evenodd" clip-rule="evenodd" d="M44.9921 41.9433C38.2176 41.9433 34.8304 41.9433 32.7258 39.8387C30.6212 37.7342 30.6212 34.3469 30.6212 27.5723L30.6212 26.3747C30.6212 19.6002 30.6212 16.2129 32.7258 14.1084C34.8304 12.0039 38.2176 12.0039 44.9921 12.0039L46.1897 12.0039C52.9642 12.0039 56.3515 12.0039 58.456 14.1084C60.5606 16.2129 60.5606 19.6002 60.5606 26.3747V27.5723C60.5606 34.3469 60.5606 37.7342 58.456 39.8387C56.3515 41.9433 52.9642 41.9433 46.1897 41.9433H44.9921Z" fill="#2B71F6"/>
<path d="M47.934 30.4546C47.1273 30.2531 46.5617 29.5316 46.5617 28.704V18.954C46.5617 18.014 47.45 17.3246 48.3662 17.5535L54.1683 19.0029C54.975 19.2043 55.5406 19.9259 55.5406 20.7535V30.5035C55.5406 31.4435 54.6523 32.1329 53.7361 31.904L47.934 30.4546Z" fill="white"/>
<path d="M37.0134 34.9444C36.2067 34.7428 35.6411 34.0213 35.6411 33.1937V23.4437C35.6411 22.5037 36.5293 21.8143 37.4456 22.0432L43.2477 23.4926C44.0544 23.6941 44.62 24.4157 44.62 25.2432V34.9933C44.62 35.9332 43.7317 36.6226 42.8155 36.3938L37.0134 34.9444Z" fill="white"/>
<path d="M42.4738 32.6995C41.6672 32.498 41.1016 31.7764 41.1016 30.9488V21.1989C41.1016 20.2588 41.9898 19.5695 42.9061 19.7983L48.7082 21.2477C49.5148 21.4492 50.0804 22.1708 50.0804 22.9984V32.7484C50.0804 33.6884 49.1922 34.3778 48.276 34.1489L42.4738 32.6995Z" fill="white"/>
<path d="M46.2713 33.6507C46.0172 33.586 45.8364 33.3613 45.8275 33.0993L45.5751 25.6533C45.5021 24.6678 44.7706 23.884 44.0061 23.6532C43.9632 23.6402 43.9174 23.6577 43.8919 23.6946C43.8661 23.7321 43.8761 23.7841 43.9121 23.812C44.1009 23.9581 44.6205 24.435 44.6205 25.2575L44.6189 33.232L46.2713 33.6507Z" fill="#2B71F6"/>
<path d="M51.7328 31.4039C51.479 31.3404 51.2979 31.1164 51.2891 30.8548L51.0366 23.4094C50.9636 22.4239 50.2321 21.6401 49.4676 21.4093C49.4247 21.3963 49.3789 21.4138 49.3534 21.4507C49.3276 21.4882 49.3376 21.5402 49.3736 21.568C49.5624 21.7142 50.082 22.1911 50.082 23.0136L50.0804 30.9908L51.7328 31.4039Z" fill="#2B71F6"/>
<path d="M77.7955 29.204C80.0627 28.626 81.5526 26.8919 81.5526 24.6227C81.5526 21.8182 79.3071 19.8486 76.1543 19.8486H70.5403V34.9415H73.1314V29.3967H74.9669L78.9832 34.9415H82.0275L77.7955 29.204ZM76.1543 22.2035C77.7737 22.2035 78.8968 23.1883 78.8968 24.6227C78.8968 26.057 77.7737 27.0418 76.1543 27.0418H73.1314V22.2035H76.1543Z" fill="black"/>
<path d="M87.8592 35.1555C89.2194 35.1555 90.4718 34.449 91.1845 33.2716L91.6809 34.9414H93.5382V23.8091H91.0549V30.253C91.0549 31.8372 89.9968 32.9504 88.5502 32.9504C87.125 32.9504 86.1316 31.8372 86.1316 30.253V23.8091H83.6486V30.5313C83.6486 33.2073 85.4624 35.1555 87.8592 35.1555Z" fill="black"/>
<path d="M101.463 35.1553C104.334 35.1553 106.71 33.5283 106.71 30.8308C106.71 27.8123 104.227 26.9345 102.089 26.2066C100.426 25.65 98.9797 25.1362 98.9797 23.7875C98.9797 22.61 100.081 21.9892 101.376 21.9892C102.737 21.9892 103.708 22.6957 104.248 23.8945L106.71 23.4878C105.932 21.1329 103.967 19.6343 101.29 19.6343C98.5261 19.6343 96.3236 21.2185 96.3236 23.916C96.3236 26.9559 98.8068 27.7908 100.944 28.4973C102.586 29.0325 104.054 29.5463 104.054 30.9164C104.054 32.1153 102.953 32.8004 101.484 32.8004C99.7999 32.8004 98.8932 32.0083 98.0944 30.5739L95.5894 31.0021C96.3236 33.5497 98.6558 35.1553 101.463 35.1553Z" fill="black"/>
<path d="M113.465 32.8006C112.623 32.8006 112.213 32.3939 112.213 31.559V25.95H115.559V23.8091H112.213V20.5979H110.356L109.729 23.8091H107.894V25.95H109.729V31.559C109.729 33.7426 111.003 34.9415 113.465 34.9415H115.559L115.775 32.8006H113.465Z" fill="black"/>
<path d="M122.871 35.1554C126.391 35.1554 128.874 32.7577 128.874 29.3752C128.874 25.9927 126.391 23.595 122.871 23.595C119.352 23.595 116.868 25.9927 116.868 29.3752C116.868 32.7577 119.352 35.1554 122.871 35.1554ZM122.871 32.9076C120.842 32.9076 119.46 31.4732 119.46 29.3752C119.46 27.2772 120.842 25.8428 122.871 25.8428C124.901 25.8428 126.283 27.2772 126.283 29.3752C126.283 31.4732 124.901 32.9076 122.871 32.9076Z" fill="black"/>
<path d="M133.516 34.9414V28.3691C133.516 26.9561 134.207 26.164 135.718 26.164H137.144L136.928 23.8091H136.453C135.135 23.8091 134.12 24.173 133.365 25.4147L132.89 23.8091H131.033V34.9414H133.516Z" fill="black"/>
<path d="M149.362 29.2467C149.362 26.0355 146.944 23.595 143.532 23.595C140.12 23.595 137.702 26.0141 137.702 29.3752C137.702 32.7363 140.12 35.1554 143.532 35.1554C145.864 35.1554 148.066 34.0636 148.909 31.9442L146.576 31.5588C146.037 32.351 145 32.9076 143.683 32.9076C141.783 32.9076 140.531 31.7515 140.293 30.0388H149.319C149.34 29.8034 149.362 29.5465 149.362 29.2467ZM143.532 25.7358C145.087 25.7358 146.253 26.7206 146.663 28.1121H140.444C140.855 26.6777 142.021 25.7358 143.532 25.7358Z" fill="black"/>
</g>
<defs>
<clipPath id="clip0_1202_1359">
<rect width="119.758" height="29.9394" fill="white" transform="translate(30.6212 12.0039)"/>
</clipPath>
</defs>
</svg>
