<svg width="181" height="53" viewBox="0 0 181 53" fill="none" xmlns="http://www.w3.org/2000/svg">
<path d="M34.9976 30.0327C34.9976 28.7779 35.2076 27.607 35.6278 26.5202C36.048 25.4335 36.6361 24.4867 37.3924 23.68C38.1487 22.8733 39.0535 22.2403 40.1067 21.781C41.1599 21.3216 42.3139 21.0918 43.5687 21.0918C44.5212 21.0918 45.3867 21.232 46.1654 21.5119C46.944 21.7921 47.6976 22.2515 48.4257 22.89V21.4279H52.6945V38.6377H48.4257V37.1754C47.6976 37.8141 46.944 38.2735 46.1654 38.5535C45.3867 38.8337 44.5212 38.9736 43.5687 38.9736C42.3139 38.9736 41.1597 38.744 40.1067 38.2846C39.0535 37.8254 38.1487 37.1923 37.3924 36.3856C36.6361 35.5787 36.048 34.6321 35.6278 33.5452C35.2076 32.4586 34.9976 31.2877 34.9976 30.0327ZM44.1234 34.957C44.4596 34.957 44.8124 34.9207 45.1823 34.8478C45.5518 34.7749 45.9245 34.6516 46.2999 34.478C46.6752 34.3044 47.0421 34.0719 47.4007 33.7805C47.7592 33.4892 48.1008 33.1307 48.4257 32.7049V27.3605C48.1008 26.9349 47.7592 26.5792 47.4007 26.2934C47.0419 26.0078 46.6752 25.7751 46.2997 25.5959C45.9243 25.4166 45.5518 25.2905 45.182 25.2178C44.8124 25.1449 44.4593 25.1087 44.1234 25.1084C43.4623 25.1084 42.8432 25.2317 42.2663 25.4782C41.689 25.7248 41.1877 26.0694 40.7621 26.5119C40.3363 26.9544 40.003 27.4755 39.7621 28.0749C39.5212 28.6744 39.4007 29.3269 39.4007 30.0327C39.4007 30.7387 39.5212 31.3913 39.7621 31.9907C40.003 32.5901 40.3363 33.1112 40.7621 33.5537C41.1879 33.9964 41.6893 34.3408 42.2661 34.5874C42.8434 34.8337 43.4623 34.957 44.1234 34.957ZM63.3656 25.3402C61.3429 25.355 59.5857 26.7645 59.5857 28.8564V38.6377H55.3168V28.9741C55.3407 24.9444 58.8304 21.146 63.3044 21.0918H63.4237C67.8977 21.146 71.3874 24.9444 71.4113 28.9741V38.6377H67.1424V28.8564C67.1424 26.7645 65.3854 25.355 63.3625 25.3402M73.432 30.0327C73.432 28.7779 73.6421 27.607 74.0622 26.5202C74.4824 25.4335 75.0707 24.4867 75.8268 23.68C76.5832 22.8733 77.4879 22.2403 78.5411 21.781C79.5944 21.3216 80.7483 21.0918 82.0033 21.0918C82.9556 21.0918 83.8239 21.232 84.6082 21.5119C85.3926 21.7921 86.1433 22.2459 86.8603 22.8733V16.2684H91.1291V38.6377H86.8603V37.1923C86.1433 37.8308 85.3926 38.2874 84.6082 38.5619C83.8239 38.8365 82.9556 38.9736 82.0033 38.9736C80.7483 38.9736 79.5944 38.744 78.5411 38.2846C77.4879 37.8254 76.5832 37.1923 75.8268 36.3856C75.0707 35.579 74.4824 34.6321 74.0624 33.5452C73.6421 32.4586 73.432 31.2877 73.432 30.0327ZM82.5578 34.957C82.894 34.957 83.2469 34.9207 83.6167 34.8478C83.9863 34.7749 84.3589 34.6516 84.7343 34.478C85.1096 34.3044 85.4766 34.0719 85.8351 33.7805C86.1936 33.4892 86.5352 33.1307 86.8603 32.7049V27.3605C86.5352 26.9349 86.1936 26.5792 85.8351 26.2934C85.4766 26.0078 85.1096 25.7751 84.7343 25.5959C84.3589 25.4166 83.9863 25.2905 83.6167 25.2178C83.2469 25.1449 82.894 25.1087 82.5578 25.1084C81.8968 25.1084 81.2778 25.2317 80.7007 25.4782C80.1237 25.7248 79.6221 26.0694 79.1968 26.5119C78.7708 26.9544 78.4374 27.4755 78.1965 28.0749C77.9556 28.6744 77.8352 29.3269 77.8354 30.0327C77.8354 30.7387 77.9556 31.3913 78.1965 31.9907C78.4374 32.5901 78.7708 33.1112 79.1966 33.5537C79.6224 33.9964 80.1237 34.3408 80.7007 34.5874C81.2778 34.8337 81.8968 34.957 82.5578 34.957ZM111.12 34.957C111.758 34.957 112.361 34.8365 112.926 34.5956C113.483 34.3608 113.987 34.0148 114.405 33.5789C114.826 33.142 115.156 32.6237 115.397 32.0243C115.638 31.4249 115.758 30.7612 115.758 30.0327C115.758 29.3157 115.635 28.6574 115.388 28.058C115.142 27.4586 114.806 26.9403 114.38 26.5035C113.958 26.0692 113.456 25.721 112.901 25.4782C112.341 25.2317 111.747 25.1087 111.12 25.1084C110.481 25.1084 109.879 25.2317 109.313 25.4782C108.757 25.7182 108.254 26.0667 107.834 26.5035C107.414 26.9403 107.081 27.4586 106.834 28.058C106.588 28.6574 106.464 29.3157 106.464 30.0329C106.464 30.761 106.585 31.4249 106.826 32.0243C107.066 32.6237 107.397 33.142 107.817 33.5789C108.236 34.0148 108.739 34.3608 109.296 34.5956C109.862 34.8365 110.47 34.957 111.12 34.957ZM111.12 38.9736C109.876 38.9736 108.705 38.7497 107.607 38.3015C106.509 37.8534 105.548 37.2288 104.725 36.4275C103.901 35.6265 103.251 34.6796 102.775 33.5873C102.299 32.4948 102.061 31.3101 102.061 30.0327C102.061 28.7892 102.299 27.6237 102.775 26.5371C103.252 25.4503 103.899 24.5036 104.717 23.6969C105.534 22.89 106.495 22.2544 107.599 21.7893C108.702 21.3244 109.876 21.0918 111.12 21.0918C112.363 21.0918 113.534 21.3244 114.632 21.7893C115.73 22.2544 116.688 22.89 117.506 23.6969C118.324 24.5036 118.971 25.4505 119.447 26.5371C119.923 27.624 120.161 28.7892 120.161 30.0327C120.161 31.3101 119.923 32.4948 119.447 33.5873C118.971 34.6796 118.321 35.6265 117.498 36.4275C116.674 37.2288 115.716 37.8534 114.624 38.3015C113.531 38.7497 112.363 38.9736 111.12 38.9736ZM124.209 20.0804C123.863 20.0804 123.536 20.0129 123.228 19.8777C122.925 19.7465 122.65 19.5595 122.417 19.3265C122.184 19.0933 121.997 18.8183 121.866 18.5159C121.731 18.2067 121.662 17.8725 121.663 17.535C121.663 17.1893 121.731 16.8596 121.866 16.5462C121.996 16.2407 122.183 15.9628 122.417 15.7276C122.65 15.4946 122.925 15.3076 123.228 15.1764C123.537 15.041 123.871 14.972 124.209 14.9737C124.554 14.9737 124.884 15.0412 125.197 15.1764C125.503 15.3062 125.781 15.4933 126.016 15.7276C126.25 15.9628 126.437 16.2407 126.567 16.5462C126.703 16.8596 126.77 17.1893 126.77 17.5352C126.77 17.8809 126.703 18.208 126.567 18.5161C126.436 18.8184 126.249 19.0933 126.016 19.3265C125.781 19.5608 125.503 19.7479 125.197 19.8777C124.885 20.0126 124.549 20.0816 124.209 20.0804ZM122.074 21.4279H126.343V38.6377H122.074V21.4279ZM128.305 30.0327C128.305 28.7779 128.516 27.607 128.936 26.5202C129.356 25.4335 129.944 24.4867 130.7 23.68C131.457 22.8733 132.361 22.2403 133.415 21.781C134.468 21.3216 135.622 21.0918 136.877 21.0918C137.829 21.0918 138.697 21.232 139.482 21.5119C140.266 21.7921 141.017 22.2459 141.734 22.8733V16.2684H146.002V38.6377H141.734V37.1923C141.017 37.8308 140.266 38.2874 139.482 38.5619C138.697 38.8365 137.829 38.9736 136.877 38.9736C135.622 38.9736 134.468 38.744 133.415 38.2846C132.361 37.8254 131.457 37.1923 130.7 36.3856C129.944 35.579 129.356 34.6321 128.936 33.5452C128.516 32.4586 128.305 31.2877 128.305 30.0327ZM137.431 34.957C137.767 34.957 138.12 34.9207 138.49 34.8478C138.86 34.7749 139.232 34.6516 139.608 34.478C139.983 34.3044 140.35 34.0719 140.708 33.7805C141.067 33.4892 141.409 33.1307 141.734 32.7049V27.3605C141.409 26.9349 141.067 26.5792 140.708 26.2934C140.35 26.0078 139.983 25.7751 139.608 25.5959C139.232 25.4166 138.86 25.2905 138.49 25.2178C138.12 25.1449 137.767 25.1087 137.431 25.1084C136.77 25.1084 136.151 25.2317 135.574 25.4782C134.997 25.7248 134.496 26.0694 134.07 26.5119C133.644 26.9544 133.311 27.4755 133.07 28.0749C132.829 28.6744 132.709 29.3269 132.709 30.0327C132.709 30.7387 132.829 31.3913 133.07 31.9907C133.311 32.5901 133.644 33.1112 134.07 33.5537C134.496 33.9964 134.997 34.3408 135.574 34.5874C136.151 34.8337 136.77 34.957 137.431 34.957ZM101.654 25.2886C98.7935 25.2886 97.532 26.7645 97.532 28.8564V38.6377H93.2631V28.9741C93.287 24.9444 95.6148 20.9828 101.654 20.9828" fill="#77C159"/>
</svg>
