<svg width="181" height="53" viewBox="0 0 181 53" fill="none" xmlns="http://www.w3.org/2000/svg">
<path d="M78.9548 27.6097C78.9321 25.083 81.0237 23.8537 81.1193 23.7965C79.9348 22.0694 78.0987 21.8335 77.4536 21.8146C75.9115 21.6524 74.4157 22.7374 73.6302 22.7374C72.829 22.7374 71.6193 21.8303 70.3156 21.857C68.638 21.8828 67.0685 22.8542 66.2077 24.3625C64.4312 27.438 65.7561 31.9575 67.4581 34.4434C68.3095 35.6609 69.3043 37.0203 70.6065 36.9724C71.8804 36.9199 72.3563 36.1603 73.8936 36.1603C75.4168 36.1603 75.8637 36.9724 77.1917 36.9419C78.5589 36.9199 79.4197 35.7189 80.2413 34.4904C81.2252 33.095 81.6203 31.7207 81.636 31.6502C81.6038 31.6392 78.9807 30.6381 78.9548 27.6097Z" fill="black"/>
<path d="M76.4462 20.1792C77.1314 19.3224 77.6002 18.1566 77.47 16.9736C76.4783 17.0175 75.2381 17.6596 74.5239 18.4976C73.8921 19.2361 73.3276 20.4466 73.4734 21.5849C74.5874 21.668 75.7312 21.0228 76.4462 20.1792Z" fill="black"/>
<path d="M92.4747 22.9442C92.4747 23.2082 92.3139 23.4036 92.0381 23.4036C91.8083 23.4036 91.636 23.2082 91.636 22.9442C91.636 22.6913 91.8197 22.4845 92.061 22.4845C92.3139 22.4845 92.4747 22.6913 92.4747 22.9442ZM91.8388 36.7533V26.1901H92.2718V36.7533H91.8388ZM106.673 29.2271C106.673 34.5527 103.717 36.9736 100.481 36.9736C97.1751 36.9736 94.498 34.355 94.498 29.4473C94.498 24.4082 97.2683 21.7012 100.714 21.7012C104.089 21.7008 106.673 24.3636 106.673 29.2271ZM94.9368 29.3371C94.9368 33.3751 96.8938 36.512 100.501 36.512C104.134 36.512 106.217 33.2786 106.217 29.2912C106.217 25.5935 104.548 22.2189 100.739 22.2189C96.9291 22.2189 94.9368 25.3962 94.9368 29.3371ZM108.263 35.6088C108.989 36.0929 110.243 36.5605 111.321 36.5605C113.368 36.5605 115.188 35.1287 115.188 33.0213C115.188 31.0656 113.975 30.0452 111.917 29.1686C110.074 28.3841 108.418 27.5326 108.418 25.4419C108.418 23.2635 110.134 21.7226 112.467 21.7226C113.721 21.7226 114.668 22.0747 115.108 22.3828L114.933 22.7627C114.559 22.4988 113.548 22.1625 112.448 22.1625C109.982 22.1625 108.908 24.0254 108.908 25.3967C108.908 27.2909 110.377 27.9242 112.269 28.8265C114.47 29.9046 115.636 30.8554 115.636 32.9242C115.636 35.1469 114.052 36.951 111.235 36.951C110.068 36.951 108.726 36.5551 108.066 36.0487L108.263 35.6088Z" fill="black" stroke="black" stroke-width="0.5"/>
</svg>
