<svg width="1161" height="203" viewBox="0 0 1161 203" fill="none" xmlns="http://www.w3.org/2000/svg">
<path opacity="0.1" d="M187.182 202.437C187.182 177.972 182.363 153.747 173.001 131.144C163.638 108.541 149.916 88.004 132.616 70.7046C115.317 53.4052 94.7797 39.6826 72.177 30.3203C49.5743 20.9579 25.3488 16.1392 0.883789 16.1392L0.883797 202.437H187.182Z" fill="#F7A9B4"/>
<path opacity="0.1" d="M374.675 202.437C374.675 187.153 371.664 172.018 365.815 157.896C359.966 143.775 351.392 130.944 340.585 120.137C329.777 109.329 316.946 100.756 302.825 94.9063C288.704 89.0572 273.569 86.0466 258.284 86.0466C242.999 86.0466 227.864 89.0572 213.743 94.9063C199.622 100.756 186.791 109.329 175.984 120.137C165.176 130.944 156.602 143.775 150.753 157.896C144.904 172.018 141.894 187.153 141.894 202.437L374.675 202.437Z" fill="#B8D0FF"/>
<path opacity="0.1" d="M644.927 202.437C644.927 175.86 639.693 149.543 629.522 124.989C619.351 100.435 604.444 78.1247 585.651 59.3318C566.858 40.539 544.548 25.6316 519.994 15.461C495.44 5.29041 469.123 0.0556629 442.546 0.0556641C415.969 0.0556652 389.652 5.29042 365.098 15.461C340.544 25.6317 318.234 40.539 299.441 59.3318C280.648 78.1247 265.741 100.435 255.57 124.989C245.399 149.543 240.165 175.86 240.165 202.437L644.927 202.437Z" fill="#F8C924"/>
<path opacity="0.1" d="M853.469 202.437C853.469 177.782 848.612 153.367 839.177 130.589C829.742 107.81 815.913 87.1128 798.478 69.6787C781.044 52.2447 760.347 38.4152 737.568 28.98C714.79 19.5447 690.376 14.6885 665.72 14.6885C641.065 14.6885 616.651 19.5447 593.872 28.98C571.093 38.4152 550.396 52.2447 532.962 69.6788C515.528 87.1128 501.698 107.81 492.263 130.589C482.828 153.367 477.972 177.782 477.972 202.437L853.469 202.437Z" fill="#8E24F8"/>
<path opacity="0.1" d="M1035.23 202.437C1035.23 181.152 1031.04 160.075 1022.9 140.41C1014.75 120.745 1002.81 102.877 987.761 87.8262C972.71 72.7753 954.842 60.8362 935.177 52.6907C915.512 44.5452 894.435 40.3528 873.15 40.3528C851.865 40.3528 830.788 44.5452 811.123 52.6907C791.458 60.8362 773.59 72.7753 758.539 87.8262C743.488 102.877 731.549 120.745 723.404 140.41C715.258 160.075 711.066 181.152 711.066 202.437L1035.23 202.437Z" fill="#24C5F8"/>
<path opacity="0.1" d="M1160.31 1.39575C1133.91 1.39575 1107.77 6.59584 1083.38 16.6991C1058.99 26.8024 1036.83 41.611 1018.16 60.2794C999.489 78.9478 984.68 101.11 974.577 125.502C964.474 149.893 959.273 176.036 959.273 202.437L1160.31 202.437L1160.31 1.39575Z" fill="#FF996A"/>
</svg>
