<svg width="451" height="411" viewBox="0 0 451 411" fill="none" xmlns="http://www.w3.org/2000/svg">
<g clip-path="url(#clip0_1102_1457)">
<path fill-rule="evenodd" clip-rule="evenodd" d="M193.071 21.5926C241.539 15.5119 292.963 14.0521 332.427 42.839C377.526 75.7361 414.409 126.384 413.242 182.194C412.089 237.352 367.269 278.433 326.72 315.843C288.357 351.238 245.181 388.348 193.071 385.327C142.655 382.404 108.665 337.987 74.0701 301.196C41.0535 266.083 -0.203377 230.339 2.06626 182.194C4.28983 135.028 48.6438 104.296 84.785 73.908C116.682 47.0887 151.722 26.7803 193.071 21.5926Z" fill="#F5F5F5"/>
<g clip-path="url(#clip1_1102_1457)">
<path opacity="0.8" d="M428.52 285.78H412.22C415.24 281.37 417.01 276.03 417.01 270.28C417.01 260.92 412.33 252.65 405.18 247.69C413.99 243.11 420.01 233.9 420.01 223.28C420.01 211.49 412.58 201.43 402.15 197.52C407.01 192.56 410.01 185.77 410.01 178.28C410.01 169.75 406.13 162.13 400.03 157.08C410.53 153.21 418.01 143.12 418.01 131.28C418.01 122.57 413.96 114.82 407.64 109.78H206.5C205.12 109.78 204 108.66 204 107.28C204 105.9 205.12 104.78 206.5 104.78H411.65C415.56 100.97 418 95.67 418 89.78C418 78.18 408.6 68.78 397 68.78H346.04C347.93 64.85 349 60.44 349 55.78C349 39.21 335.57 25.78 319 25.78H143C126.43 25.78 113 39.21 113 55.78C113 58.55 113.38 61.23 114.09 63.78H283.5C284.88 63.78 286 64.9 286 66.28C286 67.66 284.88 68.78 283.5 68.78H75C63.4 68.78 54 78.18 54 89.78C54 95.17 56.04 100.06 59.38 103.78H54.5C39.31 103.78 27 116.09 27 131.28C27 139.81 30.88 147.43 36.98 152.47C26.49 156.34 19 166.43 19 178.28C19 190.13 26.43 200.13 36.86 204.04C32 209 29 215.79 29 223.28C29 232.64 33.68 240.91 40.83 245.87C32.02 250.45 26 259.66 26 270.28C26 273.62 26.61 276.82 27.71 279.78H217.5C218.88 279.78 220 280.9 220 282.28C220 283.66 218.88 284.78 217.5 284.78H30.15C30.36 285.11 30.56 285.45 30.78 285.78H22.48C7.86 285.78 -4 297.64 -4 312.26C-4 326.88 7.86 338.74 22.48 338.74H36.85C30.82 343.97 27 351.67 27 360.28C27 376.02 39.76 388.78 55.5 388.78H403.72C419.46 388.78 432.22 376.02 432.22 360.28C432.22 353.68 429.97 347.61 426.2 342.78H221.5C220.12 342.78 219 341.66 219 340.28C219 338.9 220.12 337.78 221.5 337.78H434.5C434.74 337.78 434.97 337.83 435.2 337.89C446.59 334.93 455 324.58 455 312.26C455 297.63 443.14 285.78 428.52 285.78Z" fill="#EBF3FF"/>
<path d="M90.5 219.83H19V333.39H90.5V219.83Z" fill="#B8D0FF"/>
<path d="M84.86 251.26C84.86 255.8 81.18 259.48 76.64 259.48H32.85C28.32 259.48 24.64 255.8 24.64 251.26C24.64 246.73 28.32 243.05 32.85 243.05H76.64C81.18 243.05 84.86 246.73 84.86 251.26Z" fill="#D2E3FF"/>
<path d="M84.86 269.94C84.86 274.47 81.18 278.15 76.64 278.15H32.85C28.32 278.15 24.64 274.47 24.64 269.94C24.64 265.4 28.32 261.73 32.85 261.73H76.64C81.18 261.73 84.86 265.4 84.86 269.94Z" fill="#D2E3FF"/>
<path d="M84.86 288.61C84.86 293.14 81.18 296.82 76.64 296.82H32.85C28.32 296.82 24.64 293.14 24.64 288.61C24.64 284.08 28.32 280.4 32.85 280.4H76.64C81.18 280.4 84.86 284.08 84.86 288.61Z" fill="#D2E3FF"/>
<path d="M84.86 307.29C84.86 311.83 81.18 315.5 76.64 315.5H32.85C28.32 315.5 24.64 311.83 24.64 307.29C24.64 302.75 28.32 299.08 32.85 299.08H76.64C81.18 299.08 84.86 302.75 84.86 307.29Z" fill="#D2E3FF"/>
<path d="M79.87 245.95H29.64V256.42H79.87V245.95Z" fill="#B8D0FF"/>
<path d="M79.87 264.7H29.64V275.17H79.87V264.7Z" fill="#B8D0FF"/>
<path d="M79.87 283.38H29.64V293.85H79.87V283.38Z" fill="#B8D0FF"/>
<path d="M79.87 302.06H29.64V312.52H79.87V302.06Z" fill="#B8D0FF"/>
<path d="M68.0801 248.57H41.4301V251.15H68.0801V248.57Z" fill="#4E73A8"/>
<path d="M84.86 232.22C84.86 236.76 81.18 240.43 76.65 240.43H32.85C28.31 240.43 24.64 236.76 24.64 232.22C24.64 227.68 28.32 224.01 32.85 224.01H76.64C81.17 224.01 84.85 227.69 84.85 232.22H84.86Z" fill="#D2E3FF"/>
<path d="M79.87 226.91H29.64V237.38H79.87V226.91Z" fill="#B8D0FF"/>
<path d="M68.0801 229.52H41.4301V232.1H68.0801V229.52Z" fill="#4E73A8"/>
<path d="M68.0801 267.25H41.4301V269.82H68.0801V267.25Z" fill="#4E73A8"/>
<path d="M68.0801 285.92H41.4301V288.49H68.0801V285.92Z" fill="#4E73A8"/>
<path d="M68.0801 304.6H41.4301V307.17H68.0801V304.6Z" fill="#4E73A8"/>
<path d="M90.5 325.71H19V335.73H90.5V325.71Z" fill="#D2E3FF"/>
<path d="M31.28 233.89H77.01" stroke="#1E386B" stroke-width="0.5" stroke-miterlimit="10" stroke-linecap="round"/>
<path d="M31.02 253.45H78.03" stroke="#1E386B" stroke-width="0.5" stroke-miterlimit="10" stroke-linecap="round"/>
<path d="M31.53 272.51H79.55" stroke="#1E386B" stroke-width="0.5" stroke-miterlimit="10" stroke-linecap="round"/>
<path d="M32.04 291.57H78.03" stroke="#1E386B" stroke-width="0.5" stroke-miterlimit="10" stroke-linecap="round"/>
<path d="M31.78 309.61H78.03" stroke="#1E386B" stroke-width="0.5" stroke-miterlimit="10" stroke-linecap="round"/>
<path d="M383.87 346.6V172.58C383.87 163.27 376.31 155.71 367 155.71H83.14C73.82 155.71 66.27 163.26 66.27 172.58V346.6H383.87Z" fill="#03486E"/>
<path d="M370.97 346V182.42C370.97 173.86 364.03 166.92 355.47 166.92H94.67C86.11 166.92 79.17 173.86 79.17 182.42V345.99H370.97V346Z" fill="#B8D0FF"/>
<g style="mix-blend-mode:multiply" opacity="0.5">
<path d="M355.47 166.92H94.6701C91.5101 166.92 88.5601 167.87 86.1101 169.5L370.97 344.79V182.42C370.97 173.86 364.03 166.92 355.47 166.92Z" fill="#B8D0FF"/>
</g>
<path d="M338 192.78H102.71V345.45H338V192.78Z" fill="white"/>
<g style="mix-blend-mode:multiply" opacity="0.5">
<path d="M168.9 198.16H102.71V345.45H168.9V198.16Z" fill="#B8D0FF"/>
</g>
<path d="M338.12 192.78H102.83V210.74H338.12V192.78Z" fill="#5D81EC"/>
<path d="M125.71 200.35H115.53V202.74H125.71V200.35Z" fill="white"/>
<path d="M142.32 200.35H132.14V202.74H142.32V200.35Z" fill="white"/>
<path d="M158.93 200.35H148.75V202.74H158.93V200.35Z" fill="white"/>
<path d="M174.13 271.1C174.13 257.02 184.94 246.94 199.5 246.94C207.58 246.94 214.32 249.88 218.72 255.22L211.78 261.63C208.64 258.03 204.7 256.16 200.03 256.16C191.29 256.16 185.08 262.3 185.08 271.11C185.08 279.92 191.29 286.06 200.03 286.06C204.7 286.06 208.64 284.19 211.78 280.52L218.72 286.93C214.31 292.34 207.57 295.27 199.43 295.27C184.95 295.27 174.13 285.19 174.13 271.11V271.1Z" fill="#FE6B6B"/>
<path d="M255.75 294.47L246.74 281.45H236.79V294.47H225.98V247.75H246.21C258.69 247.75 266.5 254.22 266.5 264.7C266.5 271.71 262.96 276.85 256.89 279.45L267.37 294.47H255.75ZM245.6 256.56H236.79V272.85H245.6C252.21 272.85 255.55 269.78 255.55 264.71C255.55 259.64 252.21 256.57 245.6 256.57V256.56Z" fill="#FE6B6B"/>
<path d="M317.56 294.47L317.49 266.44L303.74 289.53H298.87L285.19 267.04V294.47H275.04V247.75H283.98L301.47 276.79L318.69 247.75H327.57L327.7 294.47H317.55H317.56Z" fill="#FE6B6B"/>
<path d="M221.38 213.78H173.04V231.28H221.38V213.78Z" fill="#B8D0FF"/>
<path d="M276.21 213.78H227.87V231.28H276.21V213.78Z" fill="#B8D0FF"/>
<path d="M331.03 213.78H282.69V231.28H331.03V213.78Z" fill="#B8D0FF"/>
<path d="M173.04 242.28H328.54" stroke="#B8D0FF" stroke-miterlimit="10"/>
<path d="M174.54 301.78H330.04" stroke="#B8D0FF" stroke-miterlimit="10"/>
<path d="M175.54 312.28H331.04" stroke="#B8D0FF" stroke-miterlimit="10"/>
<path d="M175.04 324.28H330.54" stroke="#B8D0FF" stroke-miterlimit="10"/>
<g style="mix-blend-mode:multiply">
<path d="M142.27 332.45L156.2 268.11H113.26L125.84 332.45H142.27Z" fill="#B8D0FF"/>
<g style="mix-blend-mode:multiply">
<path d="M153.2 283.21H116.2L120.87 306.62H147.87L153.2 283.21Z" fill="#B8D0FF"/>
</g>
</g>
<path d="M37.66 343.4V357.7C37.66 366.72 44.97 374.03 53.99 374.03H396.14C405.16 374.03 412.47 366.72 412.47 357.7V343.4H37.66Z" fill="#4E73A8"/>
<path d="M407.28 343.4V346.96C407.28 355.69 400.18 362.76 391.43 362.76H59.43C50.68 362.76 43.58 355.69 43.58 346.96V343.4H37.52V357.7C37.52 366.72 44.85 374.03 53.89 374.03H396.96C406.01 374.03 413.34 366.72 413.34 357.7V343.4H407.29H407.28Z" fill="#03486E"/>
<path d="M346.83 111.94H341.18V128.58H346.83V111.94Z" fill="#B8D0FF"/>
<path d="M360.83 101.23H355.18V128.58H360.83V101.23Z" fill="#B8D0FF"/>
<path d="M374.83 97.1799H369.18V128.59H374.83V97.1799Z" fill="#B8D0FF"/>
<path d="M388.82 100.97H383.17V128.58H388.82V100.97Z" fill="#B8D0FF"/>
<path d="M402.82 98.5698H397.17V128.59H402.82V98.5698Z" fill="#B8D0FF"/>
<path d="M416.82 88.99H411.17V128.58H416.82V88.99Z" fill="#B8D0FF"/>
<path d="M352.35 106.33H349.44V128.59H352.35V106.33Z" fill="#B8D0FF"/>
<path d="M366.67 106.33H363.76V128.59H366.67V106.33Z" fill="#B8D0FF"/>
<path d="M380.76 106.33H377.85V128.59H380.76V106.33Z" fill="#B8D0FF"/>
<path d="M394.11 106.33H391.2V128.59H394.11V106.33Z" fill="#B8D0FF"/>
<path d="M409.17 106.33H406.25V128.59H409.17V106.33Z" fill="#B8D0FF"/>
<path d="M420.89 127.84H338.33V129.5H420.89V127.84Z" fill="#B8D0FF"/>
<path d="M339.47 82.0299V77.0899C339.47 75.9399 338.54 75.0199 337.4 75.0199H335.86C334.89 75.0199 334 74.3999 333.69 73.4799C333.45 72.7799 333.16 72.0899 332.84 71.4399C332.41 70.5499 332.59 69.4999 333.28 68.8099L334.37 67.7199C335.18 66.9099 335.18 65.5999 334.37 64.7799L330.87 61.2899C330.06 60.4799 328.75 60.4799 327.94 61.2899L326.85 62.3699C326.16 63.0599 325.1 63.2399 324.23 62.8099C323.57 62.4899 322.88 62.2099 322.18 61.9599C321.25 61.6399 320.64 60.7699 320.64 59.7899V58.2499C320.64 57.1099 319.72 56.1799 318.57 56.1799H313.63C312.48 56.1799 311.55 57.1099 311.55 58.2499V59.7899C311.55 60.7699 310.93 61.6399 310 61.9599C309.3 62.2099 308.62 62.4899 307.95 62.8099C307.07 63.2399 306.02 63.0599 305.33 62.3699L304.24 61.2899C303.43 60.4799 302.12 60.4799 301.31 61.2899L297.81 64.7799C297 65.5999 297 66.9099 297.81 67.7199L298.89 68.8099C299.59 69.4999 299.77 70.5599 299.34 71.4399C299.01 72.0899 298.73 72.7799 298.49 73.4799C298.17 74.4099 297.29 75.0199 296.32 75.0199H294.78C293.63 75.0199 292.7 75.9499 292.7 77.0899V82.0299C292.7 83.1799 293.63 84.1099 294.78 84.1099H296.32C297.3 84.1099 298.17 84.7299 298.49 85.6499C298.73 86.3499 299.01 87.0299 299.34 87.6999C299.77 88.5799 299.59 89.6399 298.89 90.3299L297.81 91.4099C297 92.2299 297 93.5399 297.81 94.3499L301.31 97.8499C302.12 98.6599 303.43 98.6599 304.24 97.8499L305.33 96.7499C306.02 96.0699 307.07 95.8799 307.95 96.3099C308.61 96.6299 309.3 96.9099 310 97.1599C310.93 97.4699 311.55 98.3599 311.55 99.3299V100.87C311.55 102.02 312.48 102.94 313.63 102.94H318.57C319.72 102.94 320.64 102.02 320.64 100.87V99.3299C320.64 98.3599 321.26 97.4799 322.18 97.1599C322.88 96.9099 323.57 96.6299 324.23 96.3099C325.11 95.8799 326.17 96.0599 326.85 96.7499L327.94 97.8499C328.75 98.6599 330.07 98.6599 330.87 97.8499L334.37 94.3499C335.18 93.5399 335.18 92.2299 334.37 91.4099L333.28 90.3299C332.59 89.6399 332.4 88.5799 332.84 87.6999C333.16 87.0299 333.45 86.3499 333.69 85.6499C334.01 84.7299 334.89 84.1099 335.86 84.1099H337.4C338.54 84.1099 339.47 83.1799 339.47 82.0299ZM317 90.7799C310.06 91.3299 304.31 85.5799 304.86 78.6499C305.29 73.1899 309.71 68.7699 315.18 68.3399C322.11 67.7999 327.85 73.5399 327.3 80.4799C326.88 85.9399 322.45 90.3599 317 90.7899V90.7799Z" fill="#B8D0FF"/>
<path d="M125.9 71.19V47.27C113.8 47.27 103.99 57.08 103.99 69.18C103.99 81.28 113.8 91.08 125.9 91.08C137.31 91.08 146.69 82.35 147.71 71.19H125.9Z" fill="#B8D0FF"/>
<path d="M154.99 67.39C154.99 67.39 154.99 67.3 154.99 67.26C154.99 54.29 144.48 43.78 131.51 43.78C131.01 43.78 130.51 43.8 130.02 43.83V67.39H154.99Z" fill="#B8D0FF"/>
<path d="M363.47 192.87C353.86 199.23 342.18 202.58 329.12 203.89C333.04 232.25 345.48 250.57 363.47 262.33C381.47 250.57 393.91 232.25 397.83 203.89C384.76 202.58 373.08 199.23 363.47 192.87Z" fill="#FE6B6B"/>
<path d="M363.47 198.86C355.52 204.13 345.85 206.89 335.04 207.98C338.28 231.45 348.58 246.61 363.47 256.34C378.37 246.6 388.66 231.44 391.9 207.98C381.09 206.89 371.42 204.13 363.47 198.86Z" fill="#5D81EC"/>
<g style="mix-blend-mode:multiply" opacity="0.5">
<path d="M363.47 198.86C355.52 204.12 345.85 206.89 335.04 207.98C338.28 231.45 348.58 246.61 363.47 256.34V198.86Z" fill="#77A3E8"/>
</g>
<path d="M348.57 221.92L353.07 217.33L363.14 227.46L377.16 213.77L382.1 217.94C382.1 217.94 363.37 237.35 363.25 237.09C363.13 236.83 348.57 221.91 348.57 221.91V221.92Z" fill="white"/>
<path opacity="0.5" d="M363.47 227.14L363.14 227.47L353.07 217.34L348.57 221.93C348.57 221.93 363.13 236.84 363.25 237.11C363.25 237.13 363.34 237.07 363.47 236.95V227.16V227.14Z" fill="#BED1FA"/>
<path d="M250.92 149.9C248.45 143.64 242.35 139.21 235.21 139.21H217.58C210.44 139.21 204.34 143.64 201.87 149.9H250.92Z" fill="#FE6B6B"/>
<path d="M254.06 149.9H198.73V156.2H254.06V149.9Z" fill="#CB2026"/>
<path d="M190.55 36.2001C186.06 36.2201 181.57 36.2301 177.08 36.2501C175.42 36.2501 171.9 35.5601 170.29 36.8301C166.44 39.8501 168.37 49.9601 168.69 53.9701C169.64 65.9401 181.76 80.2001 193.1 84.9101C196.25 86.2201 196.68 79.5001 193.57 78.2101C189.31 76.4401 183.86 72.2001 180.89 68.8801C173.67 59.6301 172.51 43.6401 175.59 41.5501C177.9 39.9901 187.51 41.5201 190.56 41.5101C193.97 41.5101 193.98 36.2001 190.56 36.2101L190.55 36.2001Z" fill="#CB2026"/>
<path d="M262.85 36.2001C267.34 36.2201 271.84 36.2301 276.33 36.2501C277.98 36.2501 281.51 35.5601 283.12 36.8301C286.96 39.8501 285.04 49.9601 284.72 53.9701C283.77 65.9401 271.65 80.2001 260.31 84.9101C257.17 86.2201 256.74 79.5001 259.85 78.2101C264.11 76.4401 269.56 72.2001 272.53 68.8801C279.75 59.6301 280.91 43.6401 277.83 41.5501C275.52 39.9901 265.91 41.5201 262.86 41.5101C259.45 41.5101 259.44 36.2001 262.86 36.2101L262.85 36.2001Z" fill="#CB2026"/>
<path d="M226.84 22H191.01V84.1C191.01 98.41 202.61 110.02 216.92 110.02H235.59C249.9 110.02 261.51 98.42 261.51 84.1V22H226.84Z" fill="#FE6B6B"/>
<path d="M232.37 110.01H220.44V143.28H232.37V110.01Z" fill="#FE6B6B"/>
<path d="M234.88 95.52C222.18 91.98 216.96 78.13 215.34 66.31C213.32 51.65 215.7 36.58 213.2 22H191.02V84.1C191.02 98.41 202.62 110.02 216.93 110.02H235.6C249.32 110.02 260.55 99.35 261.45 85.86C254.34 91.94 244.57 98.23 234.88 95.53V95.52Z" fill="#CB2026"/>
<path d="M226.4 49.47L230.86 58.51L240.84 59.96L233.62 67L235.33 76.93L226.4 72.24L217.48 76.93L219.18 67L211.96 59.96L221.94 58.51L226.4 49.47Z" fill="white"/>
<path d="M195.5 25.78H255.75" stroke="#1E386B" stroke-width="0.5" stroke-miterlimit="10"/>
<path d="M258.25 84.78C255.25 109.53 228.5 105.78 228.5 105.78" stroke="#1E386B" stroke-width="0.5" stroke-miterlimit="10"/>
<path d="M349.5 119.62H260.24V186.14H349.5V119.62Z" fill="#EBF3FF"/>
<path d="M260.24 186.14L304.25 119.62H260.24V186.14Z" fill="white"/>
<path d="M349.5 186.14V119.62H304.25L349.5 186.14Z" fill="white"/>
<path d="M260.24 119.62L304.87 162.94L349.5 119.62H260.24Z" fill="#2E6ADB"/>
<path d="M260.24 119.62L304.87 160.17L349.5 119.62H260.24Z" fill="white"/>
<path d="M260.24 186.14L287.41 145.94" stroke="#1E386B" stroke-width="0.5" stroke-miterlimit="10"/>
<path d="M321.99 146.47L349.5 186.14" stroke="#1E386B" stroke-width="0.5" stroke-miterlimit="10"/>
<path d="M364.78 352.02C365.34 353.31 364.74 354.81 363.45 355.37L353.8 359.52C352.51 360.08 351.01 359.48 350.45 358.18L334.67 321.48C334.12 320.19 334.71 318.69 336 318.13L345.65 313.98C346.94 313.43 348.44 314.02 349 315.32L364.78 352.02Z" fill="#03486E"/>
<path d="M352.16 319.83C352.59 321.34 351.72 322.91 350.21 323.33L335.89 327.41C334.39 327.84 332.82 326.97 332.39 325.46L323.84 295.48C323.42 293.98 324.29 292.41 325.8 291.98L340.11 287.9C341.62 287.47 343.19 288.34 343.62 289.85L352.16 319.83Z" fill="#2E6ADB"/>
<path d="M444.39 321.2L352.07 320.25L343.23 289.19L418.92 231.8L444.39 321.2Z" fill="#D2E3FF"/>
<path d="M351.76 320.34L348.52 307.48C358.15 300.45 369.51 296.29 379.97 293.99C394.31 290.84 414.39 288.21 420.02 272.16C421.81 267.06 423.26 261.03 425.67 256.66L444.08 321.29L351.76 320.33V320.34Z" fill="#B8D0FF"/>
<path d="M438.79 274.47C445.83 299.16 448.33 320.08 444.39 321.2C440.44 322.33 431.55 303.22 424.52 278.54C417.48 253.85 414.98 232.93 418.92 231.8C422.86 230.68 431.76 249.78 438.79 274.47Z" fill="#4E73A8"/>
<path d="M350.9 306.02C351.39 304.8 363.45 299.15 366.26 298.12C372.85 295.69 378.12 294.48 384 293.22C389.6 292.02 395.32 290.93 400.82 289.2C406.95 287.28 412.8 283.9 416.36 278.96" stroke="#1E386B" stroke-width="0.5" stroke-miterlimit="10" stroke-linecap="round"/>
<path d="M428.89 292.58C426.45 285.4 423.5 275.79 422.73 271.99C422.28 269.78 421.29 266.66 420.57 263.24C421.31 262.9 422.37 262.36 423.17 262.14C431.49 259.76 440.16 264.59 442.53 272.91C444.9 281.23 440.08 289.9 431.75 292.27C430.88 292.52 429.75 292.5 428.89 292.59V292.58Z" fill="#FE6B6B"/>
<path d="M430.93 277.54C427.64 276.78 425.04 275.33 423.04 273.33C424.1 277.73 426.71 286.13 428.9 292.59C429.77 292.49 430.9 292.52 431.76 292.27C439.11 290.18 443.72 283.18 443.07 275.84C439.53 277.95 434.73 278.43 430.93 277.55V277.54Z" fill="#CB2026"/>
<path d="M153.51 107.78C150.78 103 145.02 99.7 138.34 99.7H97.85V172.86H187.82V107.78H153.51Z" fill="#4E73A8"/>
<path d="M180.25 111.17H105.42V142.69H180.25V111.17Z" fill="#EBF3FF"/>
<path d="M180.25 113.5H105.42V145.03H180.25V113.5Z" fill="white"/>
<path d="M180.25 116.25H105.42V147.78H180.25V116.25Z" fill="#EBF3FF"/>
<path d="M180.25 119.15H105.42V150.68H180.25V119.15Z" fill="white"/>
<path d="M188.69 179.28V132.84C188.69 126.89 183.87 122.07 177.92 122.07H107.75C101.8 122.07 96.98 126.89 96.98 132.84V179.28H188.69Z" fill="#CAE0FF"/>
<path d="M178.46 126.6H107.29" stroke="#1E386B" stroke-width="0.5" stroke-miterlimit="10"/>
<g style="mix-blend-mode:multiply" opacity="0.2">
<path d="M153.3 162.02C140.63 152.81 120.07 138.97 116.49 122.08H107.75C101.8 122.08 96.98 126.9 96.98 132.85V179.29H188.69V177.78C176.19 175.14 164.18 169.93 153.3 162.02Z" fill="#B8D0FF"/>
</g>
<path d="M110.31 130.87H54.6V204.37H110.31V130.87Z" fill="#2E6ADB"/>
<path d="M112.21 129.37H56.5V202.87H112.21V129.37Z" fill="white"/>
<path d="M62.6799 141.11H104.06" stroke="#1E386B" stroke-width="0.5" stroke-miterlimit="10"/>
<path d="M62.6799 149.01H104.06" stroke="#1E386B" stroke-width="0.5" stroke-miterlimit="10"/>
<path d="M62.6799 156.92H104.06" stroke="#1E386B" stroke-width="0.5" stroke-miterlimit="10"/>
<path d="M62.6799 164.82H104.06" stroke="#1E386B" stroke-width="0.5" stroke-miterlimit="10"/>
<path d="M62.6799 172.72H104.06" stroke="#1E386B" stroke-width="0.5" stroke-miterlimit="10"/>
<path d="M62.6799 180.62H104.06" stroke="#1E386B" stroke-width="0.5" stroke-miterlimit="10"/>
<g style="mix-blend-mode:multiply" opacity="0.2">
<path d="M88.34 185.64C70.55 173.14 64 150.65 63.64 129.38H56.5V202.88H112.21V193.87C103.92 192.79 95.28 190.52 88.34 185.65V185.64Z" fill="#B8D0FF"/>
</g>
<path d="M56.2599 365.93C54.2599 368.82 50.2899 369.55 47.3999 367.55C44.4999 365.55 43.7799 361.58 45.7799 358.69L100.18 279.91C102.18 277.02 106.15 276.29 109.04 278.29C111.93 280.29 112.66 284.26 110.66 287.15L56.2499 365.93H56.2599Z" fill="#4E73A8"/>
<path d="M86.66 290.43L40.96 356.62C37.34 361.86 38.66 369.03 43.89 372.64C49.12 376.26 56.29 374.94 59.91 369.71L105.62 303.53L86.67 290.44L86.66 290.43Z" fill="#2E6ADB"/>
<g style="mix-blend-mode:multiply" opacity="0.3">
<path d="M55.27 373.37C50.04 369.76 48.72 362.59 52.34 357.35L94.71 295.99L86.66 290.43L40.96 356.62C37.34 361.86 38.66 369.03 43.89 372.64C47.44 375.09 51.87 375.27 55.49 373.51C55.42 373.46 55.34 373.42 55.27 373.38V373.37Z" fill="#0093CC"/>
</g>
<path d="M162.28 280.43C149.41 300.78 122.47 306.85 102.11 293.97C81.75 281.09 75.69 254.15 88.57 233.8C101.45 213.44 128.38 207.38 148.74 220.26C169.1 233.13 175.16 260.07 162.28 280.43Z" fill="#FE6B6B"/>
<path d="M157.11 277.16C146.04 294.65 122.89 299.87 105.39 288.8C87.9 277.74 82.68 254.58 93.75 237.09C104.82 219.59 127.97 214.38 145.47 225.45C162.96 236.52 168.18 259.67 157.11 277.17V277.16Z" fill="#2E6ADB"/>
<path d="M155.05 275.75C144.69 292.12 123.02 297 106.64 286.64C90.26 276.28 85.38 254.61 95.74 238.24C106.1 221.86 127.77 216.99 144.15 227.35C160.53 237.71 165.4 259.38 155.04 275.76L155.05 275.75Z" fill="#B8D0FF"/>
<path opacity="0.4" d="M141.19 278.38C141.31 281 141.22 283.58 140.95 286.09C152.14 280.43 159.57 268.59 158.96 255.25C158.13 237.11 142.76 223.08 124.62 223.91C115.32 224.33 107.1 228.6 101.41 235.08C122.56 235.77 140.09 254.53 141.18 278.37L141.19 278.38Z" fill="white"/>
<mask id="mask0_1102_1457" style="mask-type:luminance" maskUnits="userSpaceOnUse" x="90" y="221" width="71" height="72">
<path d="M155.05 275.75C144.69 292.12 123.02 297 106.64 286.64C90.26 276.28 85.38 254.61 95.74 238.24C106.1 221.86 127.77 216.99 144.15 227.35C160.53 237.71 165.4 259.38 155.04 275.76L155.05 275.75Z" fill="white"/>
</mask>
<g mask="url(#mask0_1102_1457)">
<path d="M128.17 251.13C132.47 249.62 135.69 244.73 135.83 238.86C136 231.68 131.51 225.74 125.79 225.6C120.07 225.46 115.29 231.17 115.12 238.36C114.98 244.24 117.96 249.27 122.18 250.99C110.08 252.31 100.45 263.29 100.12 276.89L99.6901 294.64L148.5 295.83L148.93 278.08C149.26 264.48 140.19 253.04 128.16 251.13H128.17Z" fill="#9FC4FF"/>
<g style="mix-blend-mode:multiply" opacity="0.8">
<path d="M121.94 251.02C109.95 252.46 100.46 263.37 100.13 276.88L99.7001 294.63L148.51 295.82L148.66 289.76C132.29 285.35 124.5 268.84 121.94 251.01V251.02Z" fill="#B8D0FF"/>
</g>
<g style="mix-blend-mode:multiply">
<path d="M121.92 250.86C120.77 242.74 120.7 234.36 121.39 226.73C117.81 228.72 115.26 233.14 115.13 238.36C114.99 244.11 117.85 249.05 121.92 250.86Z" fill="#B8D0FF"/>
</g>
<path d="M121.57 260.52L120.41 268.15L123.72 282.97L127.44 268.42L126.96 260.56" stroke="#1E386B" stroke-width="0.5" stroke-miterlimit="10"/>
<path d="M121.697 255.246L121.572 260.414L126.95 260.545L127.076 255.376L121.697 255.246Z" stroke="#1E386B" stroke-width="0.5" stroke-miterlimit="10"/>
<path d="M122.24 254.03L119.28 257.88L115.04 253.28" stroke="#1E386B" stroke-width="0.5" stroke-miterlimit="10"/>
<path d="M126.49 254.04L128.71 257.92L133.91 253.26" stroke="#1E386B" stroke-width="0.5" stroke-miterlimit="10"/>
<path d="M111.39 255.11L122.81 295.01" stroke="#1E386B" stroke-width="0.5" stroke-miterlimit="10"/>
<path d="M136.75 254.39L125.04 294.87" stroke="#1E386B" stroke-width="0.5" stroke-miterlimit="10"/>
</g>
</g>
</g>
<defs>
<clipPath id="clip0_1102_1457">
<rect width="450" height="410.479" fill="white" transform="translate(0.5)"/>
</clipPath>
<clipPath id="clip1_1102_1457">
<rect width="459" height="366.78" fill="white" transform="translate(-4 22)"/>
</clipPath>
</defs>
</svg>
