<svg width="405" height="309" viewBox="0 0 405 309" fill="none" xmlns="http://www.w3.org/2000/svg">
<path d="M178.88 0.0390455C178.88 0.0390455 122.41 2.52905 92.5 61.569C62.59 120.609 31.7 102.179 13.46 155.439C-4.78 208.699 32 269.259 56.66 275.829C81.31 282.389 362.93 275.829 362.93 275.829C362.93 275.829 400.14 250.389 403.06 184.309C405.98 118.229 350.53 96.159 327.55 86.769C304.57 77.379 269.15 -1.42095 178.88 0.0390455Z" fill="#F3F5F4"/>
<path d="M259.79 161.509C324.84 117.739 337.45 95.269 369.55 91.089C447.75 80.909 390.45 283.049 211.39 326.239C126.31 346.759 20.92 290.789 5.84997 247.299C-8.72003 205.249 30.51 189.479 88.44 212.029C146.37 234.579 226.65 183.799 259.79 161.499V161.509Z" stroke="#BBBFBD" stroke-miterlimit="10"/>
<path d="M336.144 118.31C339.835 114.276 339.557 108.014 335.524 104.323C331.49 100.632 325.228 100.91 321.537 104.944C317.846 108.977 318.123 115.239 322.157 118.93C326.191 122.622 332.453 122.344 336.144 118.31Z" fill="#D9D9D9"/>
<path d="M331.829 313.209C335.695 309.343 335.695 303.074 331.829 299.208C327.963 295.342 321.694 295.342 317.828 299.208C313.962 303.074 313.962 309.343 317.828 313.209C321.694 317.075 327.963 317.075 331.829 313.209Z" stroke="#BBBFBD" stroke-miterlimit="10"/>
<path d="M195.84 90.819C201.308 90.819 205.74 86.3867 205.74 80.919C205.74 75.4514 201.308 71.019 195.84 71.019C190.372 71.019 185.94 75.4514 185.94 80.919C185.94 86.3867 190.372 90.819 195.84 90.819Z" stroke="#BBBFBD" stroke-miterlimit="10"/>
<path d="M167.81 120.489L157.77 134.469H176.86L167.81 120.489Z" stroke="#BBBFBD" stroke-linecap="round" stroke-linejoin="round"/>
<path d="M120.6 298.129L114.29 310.289H133.38L120.6 298.129Z" fill="#D9D9D9"/>
<path d="M66.979 154.351C68.1823 149.233 65.0087 144.108 59.8905 142.905C54.7722 141.701 49.6477 144.875 48.4444 149.993C47.2411 155.112 50.4147 160.236 55.5329 161.439C60.6512 162.643 65.7757 159.469 66.979 154.351Z" fill="#D9D9D9"/>
<path d="M378.08 15.789H292.92C288.06 15.789 284.12 19.729 284.12 24.589V75.839C284.12 80.699 288.06 84.639 292.92 84.639H310.25L306.81 93.519C305.81 96.089 308.79 98.369 311.01 96.739L327.47 84.639H378.06C382.92 84.639 386.86 80.699 386.86 75.839V24.589C386.86 19.729 382.92 15.789 378.06 15.789H378.08Z" fill="#5D81EC"/>
<path d="M294.17 30.159H375.62" stroke="white" stroke-linecap="round" stroke-linejoin="round"/>
<path d="M294.17 37.559H375.62" stroke="white" stroke-linecap="round" stroke-linejoin="round"/>
<path d="M294.17 44.959H375.62" stroke="white" stroke-linecap="round" stroke-linejoin="round"/>
<path d="M294.17 52.359H375.62" stroke="white" stroke-linecap="round" stroke-linejoin="round"/>
<path d="M294.17 59.759H375.62" stroke="white" stroke-linecap="round" stroke-linejoin="round"/>
<path d="M294.17 67.149H375.62" stroke="white" stroke-linecap="round" stroke-linejoin="round"/>
<path d="M111.82 178.709C111.82 178.709 110.95 171.429 109.83 167.959C108.7 164.489 103.94 157.909 103.94 157.909C103.94 157.909 102.03 161.979 104.81 165.359C104.81 165.359 104.64 170.729 104.9 172.639C104.9 172.639 95.89 164.939 94.16 164.159C93.06 163.279 91.72 162.209 90.08 160.909C84.1 156.139 80.11 157.619 80.63 157.959C80.99 158.199 87.83 163.729 92.06 167.159L91.51 167.949C90.22 166.919 88.18 165.289 85.14 162.869C79.16 158.099 75.17 159.579 75.69 159.919C76.12 160.209 86.13 168.319 89.4 170.959L88.44 172.339C87.17 171.329 85.07 169.649 81.85 167.079C75.87 162.309 71.88 163.789 72.4 164.129C72.85 164.429 83.33 172.919 86.33 175.349L85.31 176.809C84.2 175.799 81.11 173.049 78.12 170.969C74.39 168.369 71.71 169.579 71.71 169.579L73.36 171.049C75.01 172.519 83.59 179.279 83.59 179.279C83.59 179.279 96.69 190.979 99.97 192.109L103.18 195.169L114.97 182.409L111.84 178.689L111.82 178.709Z" fill="#FF996A"/>
<path d="M206.11 259.519C199.08 269.659 189.24 275.919 176.17 273.259C141.15 266.139 99.8 198.169 99.8 198.169L101.88 195.919L117.31 179.219L171.02 228.029L187.79 203.749L204.17 180.039L212.27 168.319C212.27 168.319 217.01 175.819 220 199.649C221.86 214.589 217.93 242.509 206.11 259.519Z" fill="#C1C1C1"/>
<path d="M206.11 259.519C199.08 269.659 189.24 275.919 176.17 273.259C141.15 266.139 99.8 198.169 99.8 198.169L101.88 195.919L103.16 195.209C103.16 195.209 152.43 262.999 173.2 252.909C186.04 246.679 188.1 221.819 187.8 203.749L204.18 180.039L206.11 259.519Z" fill="#DEDEDE"/>
<path d="M337.65 252.909L334.45 309.089H322.08L326.94 252.909H337.65Z" fill="#03486E"/>
<path d="M261.91 252.909L258.72 309.089H246.35L251.21 252.909H261.91Z" fill="#03486E"/>
<path d="M338.92 172.509H240.88C231.138 172.509 223.24 180.407 223.24 190.149V244.989C223.24 254.731 231.138 262.629 240.88 262.629H338.92C348.662 262.629 356.56 254.731 356.56 244.989V190.149C356.56 180.407 348.662 172.509 338.92 172.509Z" fill="#03486E"/>
<path d="M330.65 172.509H232.61C222.868 172.509 214.97 180.407 214.97 190.149V244.989C214.97 254.731 222.868 262.629 232.61 262.629H330.65C340.392 262.629 348.29 254.731 348.29 244.989V190.149C348.29 180.407 340.392 172.509 330.65 172.509Z" fill="#1E386B"/>
<path d="M256.75 147.209C256.75 147.209 276.08 144.109 302.09 171.009L308.09 309.089H199.38C199.38 309.089 187.51 215.939 201.35 182.809C215.19 149.679 240.04 145.729 256.75 147.209Z" fill="#F2F2F2"/>
<path d="M218.83 72.329L223.6 65.799L264.29 79.419L263.94 94.699H266.63C272.09 94.699 276.51 99.119 276.51 104.579C276.51 110.039 272.09 114.459 266.63 114.459H263.49L263.01 135.209V153.439L233.55 157.489L232.83 145.299L232.45 138.889L228.18 136.849C215.94 131.009 208.15 118.659 208.15 105.099C208.15 93.319 211.9 81.839 218.84 72.329H218.83Z" fill="#FF996A"/>
<path d="M232.44 138.889L232.82 145.299C233.9 145.169 235.04 144.999 236.21 144.789C254.41 141.469 261.53 125.029 260.79 116.549C260.79 116.549 254.65 136.929 232.43 138.889H232.44Z" fill="#D37A57"/>
<path d="M266.93 101.749C266.17 102.329 265.47 103.089 265.21 104.039C265.21 104.039 266.73 104.549 266.87 106.249C267.01 107.949 265.21 108.689 265.21 108.689C265.21 108.689 266.59 110.989 268.89 109.749C271.19 108.509 270.81 104.169 268.52 103.259C268.52 103.259 272.16 102.849 273.49 104.179C273.49 104.179 273.8 102.839 272.28 101.659C270.71 100.439 268.51 100.549 266.92 101.749H266.93Z" fill="#D37A57"/>
<path d="M218.83 72.329C218.83 72.329 224.34 81.809 231.46 84.879C238.58 87.949 246.19 83.479 253.31 87.559C260.43 91.639 255.89 99.269 257.48 102.939C259.08 106.609 260.85 107.099 260.85 107.099C260.85 107.099 261.81 96.669 263.94 94.699C263.94 94.699 270.33 94.649 272.32 96.509C272.32 96.509 275.89 89.299 276.51 83.649C277.12 77.999 270.86 76.159 270.86 76.159C270.86 76.159 269.39 62.659 252.82 57.619C236.25 52.579 223.6 60.569 216.98 57.619C210.35 54.669 204.34 59.089 203.97 65.779C203.6 72.469 208.14 74.919 208.14 74.919C208.14 74.919 205.07 77.509 206.3 81.489C207.53 85.469 211.38 86.389 211.38 86.389C211.38 86.389 215.92 76.289 218.84 72.299L218.83 72.329Z" fill="#3F2D1F"/>
<path d="M222.13 120.859L239 120.029C239 120.029 235.09 126.109 229.53 126.049C224.41 125.999 222.12 120.859 222.12 120.859H222.13Z" fill="white"/>
<path d="M241.52 93.379C241.31 93.379 241.09 93.309 240.92 93.159C237.36 90.229 233.86 92.719 233.82 92.739C233.4 93.049 232.8 92.959 232.49 92.529C232.18 92.109 232.27 91.509 232.7 91.199C234.32 90.019 238.38 88.589 242.13 91.679C242.54 92.009 242.59 92.609 242.26 93.019C242.07 93.249 241.8 93.369 241.53 93.369L241.52 93.379Z" fill="#3F2D1F"/>
<path d="M220.54 93.379C220.33 93.379 220.11 93.309 219.94 93.159C216.38 90.229 212.88 92.719 212.84 92.739C212.42 93.049 211.82 92.959 211.51 92.529C211.2 92.109 211.29 91.509 211.72 91.199C213.34 90.019 217.4 88.589 221.15 91.679C221.56 92.009 221.61 92.609 221.28 93.019C221.09 93.249 220.82 93.369 220.55 93.369L220.54 93.379Z" fill="#3F2D1F"/>
<path d="M268.4 148.649L263.06 141.699L241.85 149.169L238.42 155.129L236.1 149.779L232.88 146.259L229.54 152.709C229.54 152.709 229.64 159.169 237.82 160.889C246 162.609 263.88 155.939 268.41 148.649H268.4Z" fill="#9C897A"/>
<path d="M272.32 96.509C272.32 96.509 269.02 95.249 265.89 98.129C262.76 101.009 263.82 103.839 263.82 103.839C263.82 103.839 265.27 100.429 268.36 100.799C271.46 101.169 273.71 109.539 269.57 111.109C265.43 112.679 260.14 110.289 260.33 103.839C260.51 97.389 262.88 93.739 266.78 93.179C270.68 92.619 272.22 95.899 272.31 96.509H272.32Z" fill="#599AF2"/>
<path d="M243.04 128.939C242.64 128.939 242.28 128.659 242.2 128.249C242.11 127.789 242.41 127.339 242.88 127.249C258.92 124.169 264.35 109.059 264.41 108.909C264.56 108.469 265.05 108.229 265.49 108.389C265.93 108.539 266.17 109.029 266.02 109.469C265.96 109.629 260.23 125.649 243.2 128.929C243.15 128.939 243.09 128.949 243.04 128.949V128.939Z" fill="#599AF2"/>
<path d="M239.46 128.379C239.46 130.359 241.07 131.969 243.05 131.969C245.03 131.969 246.64 130.359 246.64 128.379C246.64 126.399 245.03 124.789 243.05 124.789C241.07 124.789 239.46 126.399 239.46 128.379Z" fill="#03486E"/>
<path d="M267.96 102.339C267.96 102.339 267.51 106.309 268.38 108.429C269.25 110.549 270.61 109.449 270.88 106.879C271.15 104.299 268.57 100.689 267.96 102.349V102.339Z" fill="#03486E"/>
<path d="M233.83 101.009C233.83 101.009 233.83 104.709 238.68 105.329C243.52 105.939 244.41 101.009 244.41 101.009C244.41 101.009 241.66 98.429 238.1 98.349C234.54 98.269 233.83 101.009 233.83 101.009Z" fill="white"/>
<path d="M211.7 101.009C211.7 101.009 211.7 104.709 216.45 105.329C221.19 105.939 221.82 101.019 221.82 101.019C221.82 101.019 219.36 98.439 215.88 98.359C212.4 98.279 211.7 101.019 211.7 101.019V101.009Z" fill="white"/>
<path d="M221.82 101.019C221.82 101.019 219.28 98.229 216.56 97.729C213.84 97.229 211.98 98.549 211.69 101.019C211.69 101.019 212.23 98.979 214.95 98.729C217.67 98.479 221.82 101.019 221.82 101.019Z" fill="#3F2D1F"/>
<path d="M244.41 101.009C244.41 101.009 241.76 98.099 238.92 97.569C236.08 97.049 234.13 98.429 233.84 101.009C233.84 101.009 234.4 98.879 237.24 98.619C240.08 98.359 244.41 101.009 244.41 101.009Z" fill="#3F2D1F"/>
<path d="M226.48 101.119L224.25 114.609C224.25 114.609 222.47 114.749 220.01 113.739C220.01 113.739 225.85 102.629 226.48 101.119Z" fill="#D37A57"/>
<path d="M159.99 309.089C159.99 309.089 159.63 298.319 171.76 294.949C183.89 291.579 198.66 301.439 201.03 309.089H159.99Z" fill="#03486E"/>
<path d="M238.48 105.799C240.159 105.799 241.52 104.08 241.52 101.959C241.52 99.8382 240.159 98.119 238.48 98.119C236.801 98.119 235.44 99.8382 235.44 101.959C235.44 104.08 236.801 105.799 238.48 105.799Z" fill="#3F2D1F"/>
<path d="M220.21 102.079C220.21 104.139 218.88 105.799 217.25 105.799C215.62 105.799 214.29 104.129 214.29 102.079C214.29 100.029 215.62 98.359 217.25 98.359C218.88 98.359 220.21 100.029 220.21 102.079Z" fill="#3F2D1F"/>
<path d="M251.92 111.579C251.92 113.259 249.93 114.619 247.49 114.619C245.05 114.619 243.06 113.259 243.06 111.579C243.06 109.899 245.05 108.539 247.49 108.539C249.93 108.539 251.92 109.899 251.92 111.579Z" fill="#D37A57"/>
<path d="M215.71 110.119C215.71 111.799 213.72 113.159 211.28 113.159C208.84 113.159 206.85 111.799 206.85 110.119C206.85 108.439 208.84 107.079 211.28 107.079C213.72 107.079 215.71 108.439 215.71 110.119Z" fill="#D37A57"/>
<path d="M331.97 274.809C328.9 284.049 323.28 291.029 316.63 295.969C312.1 299.319 307.09 301.729 302.09 303.239C281.22 309.569 203.93 309.079 203.93 309.079L206.84 285.729L293.39 266.279C293.39 266.279 282.2 230.769 282.69 202.079C283.14 175.379 291.1 164.369 300.07 169.569C300.74 169.969 301.42 170.439 302.09 171.009C302.09 171.009 315.76 191.379 329.86 233.199C335.63 250.309 335.52 264.069 331.97 274.809Z" fill="white"/>
<path d="M198.05 288.839L179.69 285.489C179.69 285.489 176.32 284.909 172.94 286.369C169.57 287.829 165.74 294.939 165.74 294.939C165.74 294.939 168.84 294.989 170.94 293.089C173.04 291.199 173.31 289.559 173.31 289.559L180.05 290.089L180.17 291.649C177.92 292.139 171.51 293.599 168.39 294.939C164.56 296.579 162.55 301.599 162.55 301.599C162.55 301.599 167.57 300.869 170.12 297.769L180.55 296.589L180.62 297.559C178.47 297.709 174.63 298.189 171.03 299.779C165.65 302.149 164.01 305.339 164.01 305.339C164.01 305.339 169.39 305.339 173.18 302.419L175.73 302.209C173.21 303.819 171.04 307.709 171.04 307.709C171.04 307.709 172.13 307.979 174.6 306.889C177.06 305.799 177.7 304.549 177.7 304.549L184.88 305.089C188.61 305.619 194.24 306.139 197.46 305.069L204.32 306.129L206.47 288.839H198.06H198.05Z" fill="#FF996A"/>
<path d="M153.49 287.319H34.59C30.58 287.319 27.1099 284.529 26.2499 280.609L10.8799 210.809C10.1299 207.389 12.7299 204.139 16.2399 204.139H136.48C140.03 204.139 143.11 206.609 143.87 210.079L159.29 280.099C160.11 283.799 157.29 287.309 153.49 287.309V287.319Z" fill="#1E386B"/>
<path d="M54.09 275.489C53.1 280.489 47.26 283.549 41.05 282.319C34.84 281.089 30.61 276.029 31.61 271.029C32.6 266.029 38.44 262.969 44.65 264.199C50.86 265.429 55.09 270.489 54.09 275.489Z" fill="#4E73A8"/>
<path d="M159.29 280.109L143.87 210.089C143.11 206.619 140.03 204.149 136.48 204.149H129.55C133.1 204.149 136.18 206.619 136.94 210.089L152.36 280.109C153.18 283.809 150.36 287.319 146.56 287.319H153.49C157.28 287.319 160.1 283.809 159.29 280.109Z" fill="#03486E"/>
<path d="M138.71 306.289C138.71 307.839 137.46 309.089 135.91 309.089H37.21C35.63 309.089 34.19 308.439 33.15 307.399C32.1 306.359 31.46 304.929 31.46 303.339C31.46 302.209 31.8 301.099 32.43 300.159L56.86 263.559C57.56 262.529 58.72 261.909 59.96 261.909H102.67C104.2 261.909 105.16 263.569 104.39 264.899L83.77 300.529C83 301.849 83.96 303.489 85.47 303.489H135.91C136.68 303.489 137.38 303.799 137.89 304.319C138.39 304.819 138.71 305.519 138.71 306.289Z" fill="#03486E"/>
<path d="M109.41 245.249H48.8499C48.1399 245.249 47.5699 244.679 47.5699 243.969C47.5699 243.259 48.1399 242.689 48.8499 242.689H109.41C110.12 242.689 110.69 243.259 110.69 243.969C110.69 244.679 110.12 245.249 109.41 245.249Z" fill="#03486E"/>
<path d="M112.33 252.909H51.77C51.06 252.909 50.49 252.339 50.49 251.629C50.49 250.919 51.06 250.349 51.77 250.349H112.33C113.04 250.349 113.61 250.919 113.61 251.629C113.61 252.339 113.04 252.909 112.33 252.909Z" fill="#03486E"/>
<path d="M12.13 208.279H140.36C141.4 208.279 142.4 208.469 143.33 208.819C142.18 206.029 139.44 204.149 136.34 204.149H16.1C13.43 204.149 11.29 206.029 10.75 208.439C11.19 208.339 11.66 208.279 12.13 208.279Z" fill="#4E73A8"/>
<path d="M143.87 275.489C142.88 280.489 137.04 283.549 130.83 282.319C124.62 281.089 120.39 276.029 121.39 271.029C122.38 266.029 128.22 262.969 134.43 264.199C140.64 265.429 144.86 270.489 143.87 275.489Z" fill="#4E73A8"/>
<path d="M138.7 306.489C138.59 307.979 137.25 309.089 135.76 309.089H79.59C77.32 309.089 75.48 307.249 75.48 304.979C75.48 304.199 75.7 303.439 76.11 302.789L101.92 261.909H102.67C104.2 261.909 105.16 263.569 104.39 264.899L83.77 300.529C83 301.849 83.96 303.489 85.47 303.489H135.91C136.68 303.489 137.38 303.799 137.89 304.319C138.44 304.869 138.76 305.639 138.7 306.499V306.489Z" fill="#5D81EC"/>
<path d="M302.09 303.239C281.22 309.569 203.93 309.079 203.93 309.079L303.79 282.509C314.23 279.729 320.88 269.509 319.18 258.839C314.79 231.249 306.3 181.749 300.06 169.559C300.73 169.959 301.41 170.429 302.08 170.999C302.08 170.999 315.75 191.369 329.85 233.189C343.95 275.019 322.96 296.909 302.08 303.229L302.09 303.239Z" fill="#C1C1C1"/>
<path d="M296.2 267.259C296.2 267.259 310.48 267.059 322.07 277.649" stroke="#9C897A" stroke-linecap="round" stroke-linejoin="round"/>
<path d="M266.33 151.149C266.33 151.149 285.12 157.539 294.37 168.489" stroke="white" stroke-linecap="round" stroke-linejoin="round"/>
<path d="M172.8 231.219C172.8 231.219 183.18 244.659 184.5 260.139" stroke="#9C897A" stroke-linecap="round" stroke-linejoin="round"/>
<path d="M226.47 152.809C226.47 152.809 222.52 163.879 239 165.239C255.48 166.599 273.54 150.429 273.54 150.429" stroke="white" stroke-linecap="round" stroke-linejoin="round"/>
<path d="M203.93 288.839L200.08 305.479L204.31 306.129L206.46 288.839H203.93Z" fill="#D37A57"/>
<path d="M237.82 160.899C237.82 160.899 232.94 174.819 229.54 210.819" stroke="white" stroke-linecap="round" stroke-linejoin="round"/>
<path d="M269.37 76.319C269.37 76.319 261.67 74.499 254.71 77.179" stroke="#543E2F" stroke-linecap="round" stroke-linejoin="round"/>
<path d="M218.83 72.329C218.83 72.329 218.05 83.599 232.31 85.209" stroke="#543E2F" stroke-linecap="round" stroke-linejoin="round"/>
<path d="M270.64 68.889C270.64 68.889 272.3 73.369 270.86 76.159" stroke="#543E2F" stroke-linecap="round" stroke-linejoin="round"/>
<path d="M206.07 64.319C206.07 64.319 205.43 71.239 212.5 73.959" stroke="#543E2F" stroke-linecap="round" stroke-linejoin="round"/>
<path d="M208.64 77.169C208.64 77.169 207.33 82.349 212.22 84.579" stroke="#543E2F" stroke-linecap="round" stroke-linejoin="round"/>
<path d="M231.46 59.499C231.46 59.499 240.58 55.499 253.53 61.319C265.21 66.569 266.33 73.109 266.33 73.109" stroke="#543E2F" stroke-linecap="round" stroke-linejoin="round"/>
<path d="M270.64 79.099C270.64 79.099 273.21 80.309 273.21 83.959C273.21 87.609 271.45 91.319 271.45 91.319" stroke="#543E2F" stroke-linecap="round" stroke-linejoin="round"/>
<path d="M227.82 77.819C227.82 77.819 229.64 82.639 240.25 83.179C250.86 83.719 254.29 83.719 257.18 87.139C260.07 90.569 259.11 94.319 259.11 94.319" stroke="#543E2F" stroke-linecap="round" stroke-linejoin="round"/>
</svg>
