<svg width="443" height="534" viewBox="0 0 443 534" fill="none" xmlns="http://www.w3.org/2000/svg">
<path opacity="0.15" d="M221.554 534C343.639 534 442.609 522.128 442.609 507.483C442.609 492.837 343.639 480.965 221.554 480.965C99.4694 480.965 0.5 492.837 0.5 507.483C0.5 522.128 99.4694 534 221.554 534Z" fill="white"/>
<path opacity="0.15" d="M218.337 527.421C165.135 527.421 115.103 525.312 77.4662 521.474C50.5674 518.733 18.5081 513.918 18.5081 506.565C18.5081 499.212 50.5674 494.397 77.4662 491.656C115.103 487.818 165.123 485.708 218.337 485.708C271.55 485.708 321.57 487.818 359.207 491.656C386.106 494.397 418.165 499.212 418.165 506.565C418.165 513.918 386.106 518.733 359.207 521.474C321.57 525.312 271.55 527.421 218.337 527.421ZM218.337 486.817C165.194 486.817 115.246 488.926 77.6807 492.764C25.6469 498.067 20.0336 504.181 20.0336 506.565C20.0336 508.949 25.6469 515.062 77.6807 520.366C115.246 524.192 165.206 526.313 218.337 526.313C271.467 526.313 321.427 524.203 358.992 520.366C411.026 515.062 416.651 508.949 416.651 506.565C416.651 504.181 411.038 498.067 358.992 492.764C321.427 488.938 271.479 486.817 218.337 486.817Z" fill="white"/>
<path opacity="0.15" d="M218.337 516.826C159.116 516.826 97.8459 512.047 97.8459 504.05C97.8459 496.053 159.104 491.274 218.337 491.274C277.569 491.274 338.827 496.053 338.827 504.05C338.827 512.047 277.569 516.826 218.337 516.826ZM218.337 492.406C147.174 492.406 99.3595 498.437 99.3595 504.062C99.3595 509.687 147.162 515.718 218.337 515.718C289.511 515.718 337.314 509.687 337.314 504.062C337.314 498.437 289.511 492.406 218.337 492.406Z" fill="white"/>
<path d="M371.917 48.9705H156.945C143.527 48.9705 132.65 59.848 132.65 73.2662V492.53C132.65 505.949 143.527 516.826 156.945 516.826H371.917C385.335 516.826 396.213 505.949 396.213 492.53V73.2662C396.213 59.848 385.335 48.9705 371.917 48.9705Z" fill="#263238"/>
<path d="M132.708 475.788H396.213V492.907C396.213 506.046 385.548 516.725 372.395 516.725H157.351C143.734 516.725 132.693 505.67 132.693 492.067V475.803L132.708 475.788Z" fill="#03486E"/>
<path d="M157.018 48.9561H372.149C385.432 48.9561 396.227 59.7509 396.227 73.0347V79.6911H132.722V73.2807C132.722 59.8667 143.618 48.9705 157.032 48.9705L157.018 48.9561Z" fill="#03486E"/>
<path d="M265.068 72.3255C268.528 72.3255 271.334 69.5203 271.334 66.0598C271.334 62.5994 268.528 59.7942 265.068 59.7942C261.608 59.7942 258.802 62.5994 258.802 66.0598C258.802 69.5203 261.608 72.3255 265.068 72.3255Z" fill="white"/>
<path d="M352.426 93.1199C372.988 93.1199 389.658 109.79 389.658 130.352V475.774H142.909V97.432L352.44 93.1343L352.426 93.1199Z" fill="#EBEBEB"/>
<g opacity="0.3">
<path d="M136.644 505.409H296.31C323.195 505.409 345.002 483.603 345.002 456.717V134.939C345.002 134.939 346.059 103.206 359.458 96.5059L277.99 109.905L284.69 464.314L132.693 492.068C132.693 492.068 132.881 500.895 136.629 505.424L136.644 505.409Z" fill="#1E386B"/>
</g>
<path d="M93.5073 154.286V498.941H281C310.331 498.941 334.121 481.765 334.121 434.374V94.2917H142.866C115.604 94.2917 93.5073 121.149 93.5073 154.286Z" fill="#F5F5F5"/>
<path d="M93.5074 426.285C93.5074 426.285 93.4785 425.923 93.464 425.243C93.464 424.52 93.4495 423.507 93.4206 422.161C93.4061 419.426 93.3772 415.447 93.3482 410.324C93.3193 400.021 93.2759 385.16 93.2325 366.797C93.2035 330.028 93.1601 279.252 93.1167 223.193C93.1167 209.172 93.1167 195.483 93.1167 182.257C93.1167 175.644 93.1167 169.147 93.1167 162.794C93.1746 156.456 92.9141 150.162 93.8836 144.113C95.5333 132.016 100.337 121.004 107.066 112.495C110.51 108.299 114.287 104.58 118.483 101.773C119.482 100.991 120.625 100.47 121.667 99.8191C122.202 99.5008 122.738 99.1969 123.258 98.893C123.794 98.6036 124.373 98.3866 124.908 98.1261C126.022 97.6486 127.108 97.1277 128.193 96.6935C129.322 96.3463 130.436 95.999 131.55 95.6517C132.635 95.261 133.778 95.0873 134.878 94.8847C135.992 94.7111 137.078 94.4217 138.177 94.3349C140.377 94.2336 142.519 94.0021 144.588 94.0599C148.726 94.0599 152.633 94.0744 156.28 94.0889C163.573 94.1178 169.853 94.1323 175.004 94.1468C180.127 94.1757 184.106 94.2046 186.841 94.2191C188.173 94.2336 189.2 94.2481 189.923 94.2625C190.618 94.2625 190.965 94.3059 190.965 94.3059C190.965 94.3059 190.604 94.3349 189.923 94.3493C189.2 94.3493 188.187 94.3638 186.841 94.3927C184.106 94.4072 180.127 94.4362 175.004 94.4651C169.853 94.4796 163.573 94.5085 156.28 94.523C152.633 94.523 148.726 94.5375 144.588 94.5519C142.504 94.494 140.406 94.74 138.235 94.8413C137.15 94.9281 136.079 95.2176 134.979 95.3912C133.88 95.5938 132.765 95.7674 131.695 96.1581C130.609 96.5054 129.51 96.8527 128.395 97.2C127.31 97.6341 126.239 98.155 125.154 98.6326C124.619 98.893 124.054 99.0956 123.519 99.385C122.998 99.6889 122.477 99.9928 121.942 100.311C120.914 100.962 119.786 101.483 118.802 102.25C114.663 105.043 110.93 108.718 107.544 112.871C100.902 121.308 96.17 132.218 94.5493 144.2C93.5798 150.176 93.8547 156.413 93.8113 162.78C93.8113 169.147 93.8113 175.629 93.8113 182.242C93.8113 195.468 93.8113 209.157 93.8113 223.179C93.7679 279.252 93.7245 330.014 93.6955 366.783C93.6521 385.146 93.6087 400.007 93.5798 410.31C93.5508 415.432 93.5219 419.412 93.5074 422.146C93.4929 423.478 93.4785 424.505 93.464 425.229C93.464 425.923 93.4206 426.271 93.4206 426.271L93.5074 426.285Z" fill="#263238"/>
<path d="M145.716 199.506C157.592 199.506 167.219 189.879 167.219 178.003C167.219 166.127 157.592 156.5 145.716 156.5C133.841 156.5 124.214 166.127 124.214 178.003C124.214 189.879 133.841 199.506 145.716 199.506Z" fill="#CB2026"/>
<path d="M144.457 188.118L133.344 179.537L136.34 175.659L143.792 181.418L154.399 169.219L158.089 172.432L144.457 188.118Z" fill="white"/>
<path d="M363.322 94.8707C348.142 100.095 334.034 111.729 334.077 133.391V169.683H317.567V93.9446L355.667 93.2356C358.547 93.2356 360.095 93.7565 363.322 94.8852V94.8707Z" fill="#F5F5F5"/>
<path d="M291.636 166.933H184.786V179.479H291.636V166.933Z" fill="#E0E0E0"/>
<path d="M250.004 194.615H184.786V207.16H250.004V194.615Z" fill="#E0E0E0"/>
<path d="M145.716 280.019C157.592 280.019 167.219 270.391 167.219 258.516C167.219 246.64 157.592 237.013 145.716 237.013C133.841 237.013 124.214 246.64 124.214 258.516C124.214 270.391 133.841 280.019 145.716 280.019Z" fill="#CB2026"/>
<path d="M291.636 247.446H184.786V259.992H291.636V247.446Z" fill="#E0E0E0"/>
<path d="M250.004 275.128H184.786V287.674H250.004V275.128Z" fill="#E0E0E0"/>
<path d="M145.716 361.255C133.46 361.255 123.49 351.285 123.49 339.029C123.49 326.773 133.46 316.802 145.716 316.802C157.973 316.802 167.943 326.773 167.943 339.029C167.943 351.285 157.973 361.255 145.716 361.255ZM145.716 318.25C134.256 318.25 124.937 327.568 124.937 339.029C124.937 350.489 134.256 359.808 145.716 359.808C157.177 359.808 166.496 350.489 166.496 339.029C166.496 327.568 157.177 318.25 145.716 318.25Z" fill="#CB2026"/>
<path d="M291.636 327.959H184.786V340.505H291.636V327.959Z" fill="#E0E0E0"/>
<path d="M250.004 355.626H184.786V368.172H250.004V355.626Z" fill="#E0E0E0"/>
<path d="M145.716 441.754C133.46 441.754 123.49 431.784 123.49 419.528C123.49 407.271 133.46 397.301 145.716 397.301C157.973 397.301 167.943 407.271 167.943 419.528C167.943 431.784 157.973 441.754 145.716 441.754ZM145.716 398.748C134.256 398.748 124.937 408.067 124.937 419.528C124.937 430.988 134.256 440.307 145.716 440.307C157.177 440.307 166.496 430.988 166.496 419.528C166.496 408.067 157.177 398.748 145.716 398.748Z" fill="#CB2026"/>
<path d="M291.636 408.458H184.786V421.004H291.636V408.458Z" fill="#E0E0E0"/>
<path d="M250.004 436.14H184.786V448.686H250.004V436.14Z" fill="#E0E0E0"/>
<g opacity="0.3">
<path d="M272.969 441.031H251.509L240.324 463.416C240.324 463.908 269.51 498.941 269.51 498.941H286.455C256.024 488.508 272.969 441.031 272.969 441.031Z" fill="#1E386B"/>
</g>
<path d="M22.6169 426.285C22.6169 427.978 16.3657 489.926 57.3024 498.941H286.455C286.455 498.941 243.247 484.297 252.913 426.285H22.6169Z" fill="#EBEBEB"/>
<path d="M144.457 269.441L133.344 260.846L136.34 256.968L143.792 262.727L154.399 250.528L158.089 253.755L144.457 269.441Z" fill="white"/>
<path d="M281 498.941C281 498.941 281.39 498.898 282.157 498.854C282.939 498.811 284.067 498.767 285.543 498.695C287.034 498.652 288.857 498.319 291.013 498.087C292.099 497.972 293.227 497.639 294.457 497.407C295.687 497.147 296.99 496.901 298.321 496.423C303.718 494.846 310.201 491.937 316.09 486.468C321.951 481.041 327.117 473.14 329.939 463.431C331.357 458.583 332.485 453.403 333.021 447.919C333.165 446.544 333.296 445.155 333.44 443.766C333.6 442.362 333.556 440.944 333.628 439.511C333.73 436.646 333.817 433.723 333.788 430.742C333.788 418.833 333.759 406.099 333.759 392.7C333.759 365.901 333.744 336.453 333.73 305.545C333.773 243.698 333.802 187.713 333.831 147.181C333.846 142.116 333.788 137.298 333.874 132.725C334.048 128.153 334.815 123.84 336.161 120.02C337.492 116.186 339.388 112.886 341.457 110.122C343.526 107.344 345.755 105.072 347.911 103.22C352.252 99.5302 356.275 97.5477 359.009 96.4046C361.773 95.2759 363.307 94.8997 363.307 94.8997C363.307 94.8997 362.945 95.0444 362.222 95.3048C361.498 95.5653 360.428 95.9415 359.067 96.5493C356.347 97.7358 352.382 99.7472 348.099 103.452C345.972 105.304 343.772 107.576 341.746 110.34C339.706 113.103 337.854 116.374 336.551 120.165C335.235 123.942 334.497 128.21 334.338 132.754C334.265 137.298 334.338 142.131 334.338 147.196C334.366 187.742 334.41 243.713 334.468 305.559C334.468 336.468 334.453 365.93 334.439 392.714C334.439 406.114 334.41 418.833 334.41 430.757C334.439 433.738 334.338 436.661 334.236 439.54C334.164 440.973 334.207 442.405 334.034 443.809C333.889 445.213 333.744 446.602 333.6 447.991C333.035 453.504 331.878 458.728 330.445 463.604C327.565 473.372 322.327 481.36 316.365 486.801C310.389 492.299 303.82 495.179 298.393 496.727C297.047 497.19 295.731 497.451 294.501 497.697C293.256 497.928 292.127 498.247 291.028 498.348C288.857 498.565 287.019 498.869 285.529 498.898C284.053 498.941 282.924 498.97 282.128 498.985C281.362 498.999 280.971 498.985 280.971 498.985L281 498.941Z" fill="#263238"/>
<path d="M57.3025 498.941C57.3025 498.941 56.7671 498.825 55.7542 498.565C55.2332 498.434 54.5965 498.275 53.8585 498.073C53.1061 497.856 52.2668 497.508 51.3118 497.175C47.5205 495.728 41.9639 492.892 36.8559 487.075C31.7478 481.301 27.3778 472.721 24.9178 462.258C22.4 451.811 21.4449 439.526 22.3276 426.285V425.981H22.6315C55.1609 425.967 94.6939 425.938 137.295 425.909C180.358 425.938 220.268 425.952 252.913 425.981H253.275L253.217 426.343C251.046 439.28 251.408 451.507 254.23 461.709C256.993 471.954 262.145 479.898 267.253 485.411C272.404 490.968 277.426 494.252 280.913 496.249C282.664 497.233 284.068 497.899 285.008 498.333C285.963 498.753 286.455 498.955 286.455 498.955C286.455 498.955 285.934 498.811 284.965 498.42C283.995 498.029 282.592 497.378 280.812 496.423C277.281 494.484 272.202 491.214 266.978 485.672C261.798 480.158 256.559 472.185 253.723 461.868C250.829 451.594 250.424 439.265 252.58 426.271L252.884 426.632C220.224 426.647 180.315 426.676 137.266 426.705C94.665 426.676 55.1319 426.661 22.6026 426.632L22.9064 426.329C21.9948 439.583 22.9064 451.767 25.3664 462.186C27.783 472.605 32.0662 481.142 37.0874 486.887C42.1086 492.69 47.5929 495.555 51.3407 497.06C52.2957 497.407 53.1206 497.769 53.873 498C54.611 498.203 55.2477 498.391 55.7542 498.536C56.7671 498.825 57.288 498.999 57.288 498.999L57.3025 498.941Z" fill="#263238"/>
<path d="M300.245 72.3692C300.911 64.7144 307.162 58.767 313.573 54.5272C314.586 53.8616 315.642 53.1815 316.38 52.212C317.118 51.2425 317.451 49.8678 316.901 48.7825C316.163 47.3499 314.311 47.0171 312.719 46.8435C310.143 46.5685 307.582 46.2936 305.006 46.0187L306.439 35.1948C310.867 35.6 315.353 36.0052 319.549 37.4522C323.76 38.8848 327.739 41.475 329.968 45.3096C332.196 49.1587 332.355 54.3681 329.606 57.8699C327.551 60.489 324.252 61.8492 322.125 64.4105C319.737 67.2901 319.216 71.5733 320.837 74.9304C322.009 77.3759 324.252 79.4886 324.324 82.209C324.425 85.9134 320.345 88.4458 316.655 88.7641C312.27 89.1403 307.741 87.5052 304.63 84.3796C301.519 81.2685 299.869 76.7392 300.245 72.3547V72.3692Z" fill="#CB2026"/>
<path d="M305.18 49.824C309.738 43.1243 310.462 34.0803 307.322 26.6136C304.196 19.1469 297.409 13.3877 289.61 11.1737C281.81 8.95975 273.172 10.2476 266.168 14.3138C263.505 15.8621 261.06 17.7867 258.209 18.9443C255.359 20.1019 245.215 21.5924 242.697 19.8125L229.457 47.6101L235.636 49.2886L305.18 49.824Z" fill="#CB2026"/>
<path d="M200.458 36.7864C200.458 36.7864 192.543 30.1734 192.803 28.0608C193.237 24.53 203.309 23.9367 203.309 23.9367C203.309 23.9367 203.468 20.8545 208.807 16.8028C214.147 12.7511 216.94 12.7801 216.94 12.7801C216.94 12.7801 219.544 0.335553 223.278 0.480256C227.011 0.62496 232.264 13.9088 232.264 13.9088C232.264 13.9088 243.16 15.3124 244.318 25.6587C245.49 36.0195 242.494 45.9172 236.619 47.2051C230.744 48.4929 208.084 54.802 203.627 44.3544" fill="#CB2026"/>
<path d="M218.618 35.7012L218.995 35.6433C218.864 35.6433 218.734 35.6433 218.618 35.7012Z" fill="#03486E"/>
<g opacity="0.3">
<path d="M219.993 12.9248C222.844 12.7367 225.709 12.9538 228.502 13.5615C227.59 11.0581 226.664 8.56925 225.752 6.06588C225.492 5.34236 224.855 4.27155 224.074 4.25708C223.524 4.25708 222.916 4.82142 222.684 5.24107C221.411 7.55632 220.774 10.132 220.21 12.7078" fill="#1E386B"/>
</g>
<g opacity="0.3">
<path d="M281.478 32.1125C280.334 29.2474 278.612 26.6572 276.89 24.0959C273.114 26.4691 271.146 31.4179 272.26 35.7446C268.874 35.9761 265.43 37.3942 263.462 40.158C261.494 42.9219 261.407 47.1038 263.795 49.5059L276.5 47.755C279.466 46.9012 281.666 44.1808 282.418 41.1854C283.171 38.1901 282.635 34.9921 281.492 32.127L281.478 32.1125Z" fill="#1E386B"/>
</g>
<path d="M284.864 19.5811C273.172 18.8576 272.289 31.577 277.093 38.8267C273.693 38.19 270.075 38.7543 267.022 40.375C265.618 41.1275 264.287 42.1404 263.578 43.5585C262.869 44.9766 263.824 48.681 264.938 49.8097H299.609" fill="#CB2026"/>
<path d="M299.609 49.8241C299.609 49.8241 299.377 49.8531 298.929 49.8675C298.408 49.8675 297.757 49.8965 296.961 49.911C295.152 49.9254 292.678 49.9544 289.653 49.9833C283.344 49.9978 274.72 50.0267 264.938 50.0557H264.837L264.779 49.9833C263.997 49.0861 263.636 48.0009 263.346 46.8866C263.129 45.7724 262.869 44.5569 263.419 43.3703C264.07 42.1259 265.155 41.2287 266.269 40.5486C267.398 39.8685 268.613 39.3621 269.829 39.0003C272.274 38.2913 274.807 38.2044 277.122 38.6241L276.905 38.9424C274.821 35.6287 273.982 31.9243 274.213 28.6974C274.373 25.4416 275.878 22.7211 277.773 21.303C279.683 19.8271 281.666 19.6824 282.896 19.5232C283.475 19.5232 283.952 19.5377 284.343 19.5377C284.676 19.5377 284.835 19.5521 284.835 19.5666C284.835 19.5666 284.661 19.5955 284.328 19.61C283.938 19.61 283.46 19.639 282.881 19.6534C281.666 19.856 279.727 20.0441 277.903 21.5056C276.095 22.9093 274.662 25.5429 274.546 28.7263C274.329 31.8664 275.183 35.4985 277.223 38.7109L277.484 39.1161L277.006 39.0292C274.763 38.6241 272.303 38.7109 269.916 39.4199C268.729 39.7672 267.557 40.2737 266.457 40.9249C265.372 41.576 264.359 42.4442 263.766 43.5729C263.317 44.5135 263.52 45.729 263.737 46.7709C263.997 47.8272 264.374 48.9125 265.039 49.6505L264.88 49.5781C274.662 49.6071 283.286 49.636 289.595 49.6505C292.62 49.6794 295.08 49.6939 296.903 49.7228C297.699 49.7373 298.35 49.7518 298.871 49.7662C299.32 49.7662 299.551 49.7952 299.551 49.8097L299.609 49.8241Z" fill="#263238"/>
<path d="M307.958 28.2778C307.958 28.2778 308.32 29.175 308.609 30.6944C308.899 32.2138 309.145 34.3554 309.058 36.7141C308.971 39.0872 308.581 41.1999 308.161 42.6903C307.756 44.1808 307.379 45.0635 307.322 45.049C307.249 45.02 307.524 44.1084 307.843 42.618C308.161 41.1275 308.508 39.0293 308.595 36.6996C308.682 34.3699 308.494 32.2572 308.291 30.7523C308.074 29.2329 307.872 28.3068 307.944 28.2923L307.958 28.2778Z" fill="#263238"/>
<g opacity="0.3">
<path d="M235.028 49.8674C234.984 45.5697 237.328 41.3444 240.975 39.087C239.846 36.1351 240.454 32.5898 242.509 30.1877C242.683 32.8214 244.795 34.9196 245.533 37.4519C246.184 39.7237 245.649 42.2271 244.535 44.3108C243.406 46.3945 241.742 48.131 240.02 49.7517C239.369 50.3594 238.689 50.9817 237.878 51.3434C237.068 51.7052 236.07 51.792 235.303 51.3434" fill="#1E386B"/>
</g>
<path d="M243.059 29.3345C241.424 32.2864 241.597 36.15 243.493 38.9428C243.753 39.3335 244.057 39.7242 244.101 40.2017C244.159 40.9976 243.421 41.6053 242.784 42.0829C239.557 44.5139 236.808 47.5382 234.695 50.9821C234.695 50.9821 228.415 61.4153 234.84 65.9445C241.264 70.4882 245.692 59.5341 248.312 56.5677C250.931 53.6013 256.994 49.6509 256.994 49.6509C262.247 47.0607 262.218 44.1955 261.943 42.0539C261.653 39.8978 260.64 37.9154 259.483 36.0777C258.325 34.2399 257.008 32.5035 256.039 30.5645" fill="#CB2026"/>
<path d="M256.024 30.5642C256.024 30.5642 256.111 30.6799 256.241 30.9259C256.415 31.2153 256.617 31.5626 256.863 31.9678C257.413 32.8794 258.325 34.1528 259.439 35.8314C260.496 37.4955 261.856 39.666 262.145 42.5167C262.319 43.9058 262.058 45.5555 261.045 46.8288C260.061 48.1167 258.614 49.0428 257.081 49.8242H257.095C255.619 50.7937 254.1 51.879 252.58 53.0511C251.075 54.2377 249.484 55.4966 248.196 57.0594C246.966 58.6801 245.938 60.5612 244.65 62.3266C243.348 64.0486 241.93 65.9442 239.716 66.8558C238.935 67.2031 238.052 67.2755 237.213 67.1742C236.793 67.1018 236.402 66.9427 235.997 66.8269C235.621 66.6532 235.274 66.4217 234.912 66.2191C233.537 65.3075 232.51 63.9328 232.076 62.3845C231.222 59.2734 232.134 56.1767 233.176 53.5576C234.246 50.8806 235.881 48.6521 237.517 46.7276C239.166 44.803 240.946 43.2113 242.668 41.9089C243.088 41.5906 243.493 41.2722 243.739 40.8671C243.999 40.4619 243.97 39.9988 243.739 39.5937C243.232 38.8123 242.711 38.0019 242.422 37.1916C241.8 35.5709 241.742 34.037 241.858 32.836C241.988 31.635 242.306 30.7233 242.567 30.1445C242.827 29.5657 243.03 29.2908 243.03 29.2908C243.117 29.3197 242.277 30.4484 242.046 32.8505C241.959 34.037 242.046 35.5275 242.668 37.0903C242.972 37.9006 243.435 38.6242 243.999 39.449C244.274 39.8831 244.318 40.5342 243.999 41.0118C243.71 41.4893 243.276 41.8366 242.856 42.1549C241.163 43.4573 239.412 45.0345 237.792 46.9591C236.185 48.8836 234.594 51.0831 233.552 53.7023C232.524 56.278 231.671 59.3168 232.481 62.2398C232.886 63.6868 233.841 64.9602 235.129 65.814C236.388 66.7256 238.066 67.0295 239.528 66.3928C241.568 65.5535 242.986 63.7158 244.26 62.0227C245.533 60.2718 246.561 58.4051 247.834 56.741C249.18 55.1204 250.786 53.8759 252.305 52.6749C253.839 51.4883 255.373 50.4175 256.863 49.4335C258.383 48.6666 259.772 47.7694 260.727 46.5684C261.697 45.3673 261.957 43.8624 261.798 42.5022C261.552 39.7384 260.25 37.5823 259.208 35.9037C258.137 34.2252 257.24 32.9228 256.719 31.9823C256.183 31.0562 255.981 30.5208 255.981 30.5208L256.024 30.5642Z" fill="#263238"/>
<g opacity="0.4">
<path d="M211.933 31.8377L212.41 30.9261C212.555 30.4051 212.787 29.9131 213.091 29.4501L206.217 19.2051C207.925 17.1937 209.82 16.0216 211.398 15.0376C211.398 15.0376 212.439 20.5508 216.317 26.9756C216.766 26.8309 217.244 26.7441 217.721 26.7152C220.123 26.5994 222.525 28.1477 223.422 30.3762C224.32 32.6046 223.683 35.3685 221.889 36.9747C220.094 38.5809 217.287 38.9282 215.145 37.8284C213.004 36.7142 211.687 34.2253 211.947 31.8377H211.933Z" fill="white"/>
</g>
<path d="M216.592 27.4387C215.247 27.8439 214.176 28.6976 213.351 29.8987C213.047 30.1302 213.163 30.6222 213.539 30.6945L215.826 31.1142C216.043 31.1576 216.26 31.0274 216.332 30.8103L217.287 27.9307C217.432 27.5111 216.94 27.1638 216.592 27.4387Z" fill="#263238"/>
<path d="M215.985 30.9261C215.985 30.9261 216.028 31.0708 216.158 31.2879C216.289 31.5049 216.506 31.8233 216.838 32.1561C217.171 32.4889 217.62 32.8217 218.199 33.0533C218.778 33.2993 219.472 33.4006 220.196 33.2848C220.905 33.1835 221.556 32.8652 222.019 32.4455C222.482 32.0259 222.757 31.5049 222.902 31.0564C223.046 30.6078 223.061 30.2171 223.032 29.9566C223.003 29.6962 222.959 29.5659 222.945 29.5659C222.902 29.5659 223.075 30.1447 222.771 31.013C222.612 31.4326 222.337 31.9101 221.903 32.3153C221.469 32.706 220.847 32.9954 220.181 33.0967C219.501 33.198 218.835 33.0967 218.286 32.8796C217.736 32.6626 217.287 32.3442 216.954 32.0403C216.289 31.4181 216.043 30.8827 216.014 30.9117L215.985 30.9261Z" fill="#263238"/>
<path d="M212.758 36.3235C212.758 36.3235 212.874 36.3959 213.105 36.4827C213.337 36.5695 213.655 36.6853 214.089 36.7721C214.509 36.8445 215.059 36.9024 215.623 36.6853C216.187 36.4827 216.679 36.0052 216.969 35.3974C217.258 34.7897 217.331 34.124 217.244 33.5452C217.171 32.9664 216.983 32.4744 216.795 32.0837C216.607 31.693 216.419 31.4036 216.274 31.201C216.13 30.9984 216.043 30.9116 216.043 30.9116C216.014 30.9261 216.332 31.3602 216.679 32.1416C216.853 32.5323 217.027 33.0098 217.085 33.5597C217.157 34.1096 217.085 34.7318 216.81 35.3106C216.535 35.8894 216.086 36.3235 215.58 36.5261C215.073 36.7287 214.552 36.6998 214.133 36.6419C213.293 36.4972 212.801 36.2946 212.787 36.338L212.758 36.3235Z" fill="#263238"/>
<path d="M217.432 36.0775C217.432 36.0775 217.649 36.1932 218.054 36.2222C218.445 36.2511 219.009 36.1643 219.544 35.846C220.065 35.5276 220.413 35.0646 220.572 34.7028C220.731 34.341 220.745 34.095 220.731 34.0806C220.702 34.0806 220.644 34.3121 220.456 34.6304C220.268 34.9633 219.95 35.3829 219.458 35.6723C218.966 35.9617 218.445 36.063 218.068 36.0775C217.692 36.0775 217.461 36.0341 217.446 36.0775H217.432Z" fill="#263238"/>
<path d="M215.015 14.5598C215.97 13.3154 217.678 12.3025 219.11 11.6658C218.72 12.1433 218.502 12.7655 218.474 13.3733C220.905 12.4761 223.466 11.5645 226.042 11.9552L224.898 13.4022L218.908 16.8751L215.015 14.5454V14.5598Z" fill="#CB2026"/>
<path d="M211.803 30.2893C213.25 32.8071 212.381 36.0196 209.864 37.4666C207.346 38.9136 204.133 38.0454 202.686 35.5276C201.239 33.0097 202.108 29.7973 204.625 28.3503C207.143 26.9032 210.356 27.7715 211.803 30.2893Z" fill="white"/>
<path d="M211.803 30.2893C211.803 30.2893 211.571 29.8841 210.992 29.2908C210.428 28.712 209.386 27.9596 207.91 27.7714C207.187 27.6846 206.347 27.728 205.537 28.0319C204.727 28.3358 203.916 28.8278 203.294 29.5802C202.976 29.942 202.715 30.3761 202.513 30.8392C202.31 31.3022 202.165 31.8087 202.107 32.3296C201.977 33.3859 202.209 34.5002 202.759 35.4697C203.323 36.4392 204.177 37.2061 205.146 37.6113C205.624 37.8284 206.13 37.9586 206.637 38.0165C207.143 38.0743 207.65 38.0599 208.127 37.9731C209.097 37.8139 209.936 37.3653 210.602 36.8154C211.267 36.2655 211.73 35.571 212.02 34.8909C212.599 33.5162 212.483 32.2428 212.266 31.4614C212.034 30.6655 211.774 30.2748 211.803 30.2604C211.803 30.2604 211.817 30.2893 211.846 30.3327C211.875 30.3906 211.918 30.4629 211.962 30.5498C212.02 30.6511 212.078 30.7668 212.135 30.926C212.193 31.0707 212.266 31.2443 212.324 31.4469C212.454 31.8521 212.541 32.3586 212.541 32.9663C212.541 33.5596 212.425 34.2542 212.135 34.9488C211.846 35.6433 211.383 36.3668 210.703 36.9457C210.023 37.51 209.155 37.9875 208.156 38.1467C207.664 38.248 207.143 38.2625 206.622 38.1901C206.101 38.1322 205.566 38.002 205.074 37.7705C204.061 37.3364 203.178 36.555 202.599 35.542C202.035 34.5291 201.789 33.3715 201.934 32.2862C201.992 31.7363 202.136 31.2154 202.353 30.7379C202.556 30.2604 202.831 29.8118 203.164 29.4355C203.801 28.6541 204.654 28.1477 205.479 27.8438C206.318 27.5399 207.172 27.511 207.925 27.5978C208.677 27.6991 209.328 27.9451 209.849 28.249C210.37 28.5528 210.775 28.8857 211.05 29.1895C211.195 29.3343 211.311 29.4934 211.412 29.6237C211.513 29.7539 211.586 29.8697 211.643 29.9565C211.701 30.0433 211.73 30.1157 211.774 30.1735C211.803 30.2169 211.817 30.2459 211.817 30.2459L211.803 30.2893Z" fill="#263238"/>
<path d="M203.772 36.1352C202.426 34.746 201.992 33.0096 202.773 32.2426C203.555 31.4757 205.277 31.9967 206.622 33.3713C207.968 34.7605 208.402 36.4969 207.621 37.2639C206.839 38.0308 205.117 37.5099 203.772 36.1352Z" fill="#CB2026"/>
<path d="M206.535 32.2863C206.709 32.3731 206.564 33.0098 206.203 33.7044C205.841 34.399 205.407 34.8765 205.233 34.7897C205.06 34.7029 205.204 34.0662 205.566 33.3716C205.928 32.677 206.362 32.1995 206.535 32.2863Z" fill="white"/>
<path d="M227.72 20.2468C229.167 22.7647 228.299 25.9771 225.781 27.4241C223.263 28.8711 220.051 28.0029 218.604 25.4851C217.157 22.9672 218.025 19.7548 220.543 18.3078C223.061 16.8607 226.273 17.729 227.72 20.2468Z" fill="white"/>
<path d="M227.72 20.2469C227.72 20.2469 227.489 19.8417 226.91 19.2484C226.346 18.6696 225.304 17.9171 223.828 17.729C223.104 17.6422 222.265 17.6856 221.455 17.9895C220.644 18.2934 219.834 18.7854 219.212 19.5378C218.893 19.8996 218.633 20.3337 218.43 20.7968C218.228 21.2598 218.083 21.7663 218.025 22.2872C217.895 23.3435 218.126 24.4578 218.676 25.4273C219.241 26.3968 220.094 27.1637 221.064 27.5689C221.541 27.7859 222.048 27.9162 222.554 27.9741C223.061 28.0319 223.567 28.0175 224.045 27.9306C225.014 27.7715 225.854 27.3229 226.519 26.773C227.185 26.2231 227.648 25.5286 227.937 24.8485C228.516 23.4738 228.4 22.2004 228.183 21.419C227.966 20.6231 227.691 20.2324 227.72 20.2179C227.72 20.2179 227.735 20.2469 227.764 20.2903C227.793 20.3482 227.836 20.4205 227.879 20.5073C227.937 20.6086 227.995 20.7244 228.053 20.8691C228.111 21.0138 228.183 21.1875 228.241 21.39C228.371 21.7952 228.458 22.3017 228.458 22.9094C228.458 23.5027 228.342 24.1973 228.053 24.8919C227.764 25.5864 227.301 26.31 226.62 26.8888C225.94 27.4531 225.072 27.9306 224.074 28.0898C223.582 28.1911 223.061 28.2056 222.54 28.1332C222.019 28.0753 221.484 27.9451 220.992 27.7136C219.979 27.2795 219.096 26.4981 218.517 25.4851C217.953 24.4722 217.707 23.3146 217.851 22.2293C217.909 21.6794 218.054 21.1585 218.271 20.681C218.474 20.2035 218.749 19.7549 219.081 19.3787C219.718 18.5973 220.572 18.0908 221.411 17.7869C222.25 17.483 223.104 17.4541 223.857 17.5409C224.609 17.6422 225.26 17.8882 225.781 18.1921C226.302 18.496 226.707 18.8288 226.982 19.1327C227.127 19.2774 227.243 19.4365 227.344 19.5668C227.445 19.697 227.518 19.8128 227.576 19.8996C227.633 19.9864 227.662 20.0588 227.706 20.1166C227.735 20.1601 227.749 20.189 227.749 20.189L227.72 20.2469Z" fill="#263238"/>
<path d="M219.805 25.7892C218.546 24.3277 218.213 22.5623 219.038 21.8532C219.863 21.1442 221.556 21.7519 222.815 23.2134C224.074 24.6749 224.407 26.4403 223.582 27.1494C222.757 27.8584 221.064 27.2507 219.805 25.7892Z" fill="#CB2026"/>
<path d="M222.901 22.1281C223.061 22.2438 222.829 22.8516 222.38 23.4883C221.932 24.125 221.425 24.5446 221.266 24.4289C221.107 24.3131 221.339 23.7053 221.787 23.0687C222.236 22.432 222.742 22.0123 222.901 22.1281Z" fill="white"/>
<path d="M221.049 29.6815C221.049 29.6815 226.808 26.3823 233.856 22.2003C240.903 18.0184 246.604 14.6034 246.575 14.56C246.546 14.5166 240.816 17.8592 233.754 22.0412C226.707 26.2231 221.006 29.6381 221.035 29.6815H221.049Z" fill="#263238"/>
<path d="M220.991 30.7235C220.991 30.7235 221.078 30.6945 221.223 30.6366C221.397 30.5643 221.614 30.4775 221.889 30.3617C222.467 30.1157 223.292 29.7539 224.305 29.2909C226.331 28.3648 229.109 27.048 232.134 25.4852C235.158 23.9369 237.849 22.4464 239.788 21.3322C240.758 20.7823 241.525 20.3193 242.06 20.0009C242.306 19.8417 242.509 19.726 242.668 19.6247C242.813 19.5379 242.885 19.4945 242.871 19.48C242.871 19.48 242.784 19.5089 242.639 19.5957C242.48 19.6826 242.263 19.7983 242.017 19.943C241.453 20.2614 240.671 20.6955 239.716 21.2309C237.763 22.3162 235.071 23.7777 232.047 25.326C229.023 26.8743 226.259 28.2201 224.247 29.1751C223.249 29.6382 222.453 30.0289 221.86 30.3038C221.599 30.434 221.382 30.5353 221.209 30.6077C221.064 30.68 220.991 30.7235 220.991 30.7235Z" fill="#263238"/>
<path d="M198.186 48.0735C198.186 48.0735 201.963 45.0203 206.536 41.1567C211.108 37.2931 214.798 34.1386 214.755 34.0952C214.711 34.0518 210.992 37.1484 206.405 41.012C201.833 44.8756 198.143 48.0301 198.186 48.0735Z" fill="#263238"/>
<path d="M203.367 48.6234C203.367 48.6234 205.942 45.7872 209.025 42.1986C212.107 38.61 214.567 35.6869 214.538 35.6435C214.494 35.6146 211.962 38.4797 208.88 42.0684C205.798 45.657 203.338 48.58 203.367 48.6234Z" fill="#263238"/>
<path d="M214.133 29.4501C214.133 29.4501 214.653 29.0305 215.348 28.5819C216.028 28.1333 216.65 27.8729 216.636 27.8294C216.636 27.786 215.956 27.9597 215.247 28.4227C214.538 28.8858 214.104 29.4212 214.147 29.4501H214.133Z" fill="white"/>
<g opacity="0.3">
<path d="M310.549 37.4812C310.375 36.584 309.782 35.7158 308.884 35.5132C308.812 38.9137 307.857 42.6905 307.408 46.0765C309.116 45.1215 309.926 42.0827 310.346 40.1726C310.534 39.2899 310.722 38.3638 310.549 37.4812Z" fill="#1E386B"/>
</g>
</svg>
