<svg width="301" height="309" viewBox="0 0 301 309" fill="none" xmlns="http://www.w3.org/2000/svg">
<g clip-path="url(#clip0_1096_2397)">
<rect x="0.5" y="0.513672" width="300" height="307.89" rx="150" fill="white"/>
<path d="M169.118 217.615H169.071C168.386 217.615 167.701 217.61 167.015 217.594L167.036 216.548C167.711 216.563 168.391 216.569 169.066 216.569L169.113 217.615H169.118ZM171.216 217.594L171.195 216.548C171.886 216.532 172.576 216.511 173.267 216.48L173.314 217.526C172.618 217.557 171.917 217.578 171.221 217.594H171.216ZM164.918 217.531C164.217 217.5 163.516 217.463 162.82 217.421L162.888 216.375C163.578 216.417 164.269 216.459 164.96 216.485L164.912 217.531H164.918ZM175.407 217.416L175.339 216.37C176.029 216.323 176.72 216.27 177.41 216.213L177.499 217.254C176.803 217.317 176.102 217.369 175.407 217.411V217.416ZM160.727 217.264C160.026 217.207 159.331 217.139 158.635 217.06L158.745 216.019C159.43 216.093 160.121 216.161 160.811 216.218L160.722 217.259L160.727 217.264ZM179.586 217.055L179.471 216.014C180.162 215.941 180.847 215.857 181.532 215.768L181.668 216.804C180.978 216.893 180.282 216.977 179.581 217.055H179.586ZM156.553 216.815C155.857 216.726 155.166 216.626 154.476 216.522L154.633 215.486C155.318 215.59 156.003 215.685 156.689 215.773L156.553 216.809V216.815ZM183.751 216.506L183.594 215.47C184.279 215.365 184.964 215.25 185.644 215.135L185.827 216.166C185.137 216.286 184.446 216.401 183.756 216.506H183.751ZM152.399 216.182C151.708 216.061 151.018 215.93 150.333 215.8L150.537 214.774C151.217 214.91 151.897 215.036 152.577 215.156L152.399 216.187V216.182ZM187.883 215.784L187.679 214.759C188.359 214.623 189.039 214.481 189.714 214.335L189.939 215.355C189.259 215.507 188.574 215.648 187.883 215.784ZM148.277 215.371C147.591 215.219 146.911 215.062 146.231 214.895L146.477 213.88C147.147 214.042 147.822 214.199 148.502 214.351L148.277 215.371ZM191.979 214.874L191.734 213.859C192.408 213.697 193.078 213.524 193.742 213.346L194.014 214.356C193.34 214.539 192.66 214.712 191.979 214.879V214.874ZM144.196 214.377C143.521 214.194 142.847 214.011 142.172 213.812L142.465 212.807C143.129 213.001 143.793 213.184 144.468 213.367L144.196 214.377ZM196.039 213.791L195.746 212.786C196.41 212.593 197.075 212.389 197.734 212.185L198.048 213.184C197.383 213.393 196.714 213.597 196.039 213.796V213.791ZM140.163 213.205C139.493 212.996 138.824 212.776 138.159 212.551L138.494 211.562C139.153 211.787 139.812 212.002 140.477 212.211L140.163 213.21V213.205ZM200.041 212.525L199.706 211.536C200.36 211.311 201.014 211.081 201.663 210.846L202.024 211.829C201.365 212.07 200.705 212.3 200.041 212.525ZM136.171 211.85C135.512 211.609 134.853 211.363 134.199 211.107L134.576 210.134C135.224 210.385 135.873 210.631 136.527 210.866L136.171 211.85ZM203.991 211.086L203.614 210.108C204.257 209.857 204.896 209.6 205.534 209.339L205.937 210.307C205.293 210.574 204.645 210.835 203.996 211.086H203.991ZM132.248 210.322C131.599 210.056 130.956 209.778 130.312 209.496L130.736 208.539C131.369 208.816 132.007 209.093 132.651 209.355L132.248 210.322ZM207.857 209.48L207.433 208.523C208.066 208.246 208.694 207.958 209.316 207.665L209.761 208.612C209.128 208.905 208.495 209.192 207.857 209.475V209.48ZM128.398 208.627C127.759 208.329 127.126 208.026 126.499 207.717L126.964 206.781C127.587 207.089 128.209 207.388 128.842 207.681L128.398 208.627ZM211.649 207.712L211.184 206.776C211.801 206.467 212.418 206.158 213.03 205.839L213.517 206.765C212.9 207.089 212.277 207.403 211.649 207.712ZM124.621 206.765C123.998 206.441 123.381 206.111 122.769 205.771L123.271 204.856C123.878 205.19 124.49 205.515 125.107 205.839L124.626 206.765H124.621ZM215.364 205.776L214.861 204.861C215.468 204.526 216.07 204.186 216.666 203.841L217.189 204.746C216.583 205.096 215.976 205.436 215.364 205.776ZM120.938 204.741C120.331 204.39 119.729 204.034 119.128 203.668L119.672 202.774C120.263 203.135 120.859 203.49 121.461 203.836L120.938 204.741ZM218.994 203.684L218.45 202.789C219.041 202.428 219.627 202.067 220.208 201.696L220.773 202.58C220.182 202.957 219.591 203.323 218.994 203.689V203.684ZM117.349 202.559C116.758 202.182 116.172 201.801 115.591 201.408L116.172 200.54C116.747 200.927 117.328 201.304 117.914 201.68L117.349 202.564V202.559ZM222.531 201.429L221.95 200.561C222.525 200.174 223.096 199.786 223.661 199.389L224.262 200.247C223.692 200.65 223.111 201.042 222.531 201.434V201.429ZM113.854 200.221C113.279 199.818 112.714 199.41 112.149 198.997L112.766 198.154C113.326 198.568 113.886 198.97 114.456 199.368L113.854 200.226V200.221ZM225.962 199.023L225.345 198.18C225.905 197.772 226.454 197.354 227.003 196.935L227.642 197.767C227.087 198.191 226.527 198.615 225.962 199.028V199.023ZM110.47 197.731C109.915 197.302 109.366 196.873 108.817 196.433L109.471 195.617C110.009 196.051 110.553 196.48 111.103 196.904L110.464 197.736L110.47 197.731ZM229.289 196.47L228.636 195.654C229.174 195.219 229.708 194.78 230.242 194.335L230.916 195.136C230.383 195.586 229.839 196.03 229.295 196.465L229.289 196.47ZM107.195 195.099C106.656 194.649 106.128 194.194 105.599 193.729L106.29 192.944C106.808 193.399 107.336 193.854 107.864 194.299L107.19 195.099H107.195ZM232.507 193.77L231.816 192.986C232.339 192.531 232.852 192.07 233.365 191.599L234.071 192.368C233.553 192.839 233.035 193.31 232.507 193.77ZM104.04 192.327C103.522 191.856 103.015 191.374 102.508 190.893L103.23 190.135C103.732 190.616 104.234 191.087 104.747 191.552L104.04 192.321V192.327ZM235.604 190.935L234.882 190.176C235.384 189.7 235.876 189.214 236.368 188.727L237.105 189.465C236.608 189.962 236.111 190.449 235.604 190.935ZM101.006 189.423C100.509 188.926 100.023 188.429 99.5362 187.922L100.289 187.2C100.771 187.702 101.252 188.194 101.744 188.686L101.006 189.423ZM238.57 187.969L237.817 187.247C238.298 186.75 238.769 186.242 239.24 185.73L240.009 186.436C239.533 186.954 239.056 187.461 238.57 187.969ZM98.1028 186.389C97.632 185.871 97.1611 185.353 96.7008 184.825L97.4855 184.134C97.9406 184.652 98.4062 185.17 98.8718 185.678L98.1028 186.384V186.389ZM241.411 184.872L240.626 184.181C241.081 183.663 241.536 183.135 241.981 182.607L242.781 183.282C242.331 183.815 241.876 184.349 241.411 184.877V184.872ZM95.3354 183.234C94.8855 182.701 94.4408 182.157 94.0014 181.613L94.8175 180.959C95.2517 181.498 95.6911 182.031 96.1358 182.56L95.3354 183.234ZM244.115 181.66L243.299 181.006C243.733 180.467 244.162 179.923 244.586 179.374L245.413 180.012C244.984 180.566 244.555 181.116 244.115 181.665V181.66ZM92.7093 179.965C92.2855 179.41 91.8618 178.851 91.4485 178.286L92.2907 177.668C92.6988 178.228 93.1173 178.777 93.5358 179.327L92.704 179.965H92.7093ZM246.679 178.327L245.836 177.705C246.25 177.145 246.652 176.585 247.05 176.015L247.908 176.617C247.505 177.192 247.097 177.762 246.684 178.322L246.679 178.327ZM90.2244 176.585C89.8216 176.015 89.4292 175.44 89.0368 174.854L89.9053 174.273C90.2924 174.849 90.6795 175.419 91.0771 175.984L90.2191 176.585H90.2244ZM249.09 174.89L248.222 174.305C248.609 173.729 248.986 173.148 249.362 172.568L250.246 173.133C249.87 173.724 249.483 174.31 249.095 174.89H249.09ZM87.8912 173.101C87.5145 172.515 87.1483 171.919 86.7821 171.323L87.6767 170.779C88.0377 171.37 88.4039 171.956 88.7753 172.536L87.8912 173.101ZM251.355 171.344L250.461 170.8C250.822 170.208 251.177 169.612 251.523 169.01L252.428 169.534C252.077 170.14 251.716 170.742 251.355 171.344ZM85.7149 169.518C85.3644 168.916 85.0244 168.304 84.6844 167.692L85.5998 167.19C85.9347 167.797 86.2747 168.398 86.62 168.995L85.7149 169.518ZM253.464 167.703L252.548 167.2C252.883 166.594 253.212 165.981 253.532 165.364L254.458 165.851C254.133 166.473 253.804 167.09 253.464 167.703ZM83.6956 165.851C83.3713 165.233 83.0574 164.611 82.7488 163.983L83.6852 163.517C83.9938 164.135 84.3025 164.752 84.6216 165.364L83.6956 165.851ZM255.415 163.973L254.478 163.512C254.787 162.89 255.085 162.267 255.378 161.634L256.325 162.079C256.027 162.712 255.724 163.345 255.415 163.973ZM81.8385 162.095C81.5455 161.462 81.2526 160.829 80.9701 160.19L81.9274 159.767C82.2047 160.4 82.4924 161.027 82.7854 161.65L81.8385 162.095ZM257.194 160.154L256.236 159.735C256.513 159.102 256.791 158.464 257.058 157.821L258.025 158.223C257.759 158.872 257.481 159.516 257.199 160.159L257.194 160.154ZM80.1488 158.265C79.882 157.622 79.6204 156.973 79.3693 156.324L80.3423 155.942C80.5934 156.586 80.8498 157.224 81.1166 157.862L80.1488 158.265ZM258.81 156.267L257.837 155.885C258.088 155.236 258.334 154.588 258.569 153.934L259.553 154.289C259.312 154.949 259.066 155.608 258.81 156.262V156.267ZM78.6264 154.363C78.3858 153.703 78.1556 153.044 77.9307 152.38L78.9194 152.045C79.1444 152.699 79.3745 153.353 79.6099 154.002L78.6264 154.363ZM260.249 152.312L259.26 151.977C259.485 151.318 259.699 150.659 259.909 149.994L260.908 150.308C260.699 150.978 260.479 151.648 260.254 152.312H260.249ZM77.2715 150.392C77.0623 149.728 76.8583 149.058 76.6595 148.383L77.6639 148.09C77.8574 148.755 78.0615 149.419 78.2655 150.078L77.2663 150.392H77.2715ZM261.515 148.299L260.51 148.007C260.704 147.342 260.892 146.678 261.07 146.008L262.08 146.28C261.897 146.955 261.708 147.63 261.515 148.305V148.299ZM76.0997 146.359C75.9166 145.684 75.744 145.004 75.5766 144.324L76.5915 144.078C76.7536 144.753 76.9263 145.422 77.1094 146.087L76.0997 146.359ZM262.603 144.24L261.588 143.994C261.75 143.324 261.907 142.65 262.059 141.97L263.079 142.194C262.927 142.88 262.77 143.56 262.603 144.24ZM75.1005 142.278C74.9488 141.598 74.8076 140.913 74.6663 140.222L75.6917 140.018C75.8277 140.698 75.9689 141.378 76.1206 142.053L75.1005 142.278ZM263.503 140.139L262.477 139.935C262.613 139.254 262.739 138.574 262.859 137.894L263.89 138.072C263.769 138.763 263.639 139.453 263.503 140.139ZM74.2792 138.161C74.1589 137.471 74.0438 136.78 73.9392 136.089L74.975 135.933C75.0796 136.618 75.1947 137.303 75.315 137.983L74.2844 138.166L74.2792 138.161ZM264.225 136.006L263.189 135.849C263.293 135.164 263.387 134.478 263.482 133.793L264.517 133.929C264.429 134.625 264.329 135.315 264.225 136.006ZM73.641 134.013C73.552 133.322 73.4683 132.626 73.3899 131.931L74.4309 131.815C74.5041 132.506 74.5878 133.191 74.6768 133.877L73.641 134.013ZM264.769 131.842L263.728 131.727C263.801 131.041 263.869 130.351 263.926 129.66L264.967 129.749C264.91 130.45 264.842 131.146 264.763 131.842H264.769ZM73.1858 129.838C73.1231 129.142 73.0707 128.446 73.0237 127.745L74.0699 127.677C74.117 128.368 74.1693 129.059 74.2269 129.749L73.1858 129.838ZM265.13 127.662L264.083 127.594C264.13 126.903 264.167 126.213 264.193 125.522L265.239 125.569C265.208 126.27 265.171 126.971 265.124 127.667L265.13 127.662ZM72.9138 125.653C72.8824 124.957 72.8615 124.261 72.8458 123.56L73.8921 123.539C73.9078 124.23 73.9287 124.921 73.9601 125.611L72.9138 125.658V125.653ZM265.313 123.471L264.266 123.451C264.282 122.76 264.287 122.069 264.287 121.374V121.201H265.334V121.374C265.334 122.075 265.328 122.776 265.313 123.471ZM73.8659 121.463H72.8196V121.379C72.8196 120.704 72.8249 120.034 72.8406 119.365L73.8868 119.386C73.8711 120.045 73.8659 120.709 73.8659 121.374V121.463ZM264.261 119.124C264.245 118.428 264.219 117.738 264.193 117.047L265.239 117C265.271 117.696 265.297 118.397 265.313 119.098L264.266 119.124H264.261ZM73.9496 117.309L72.9033 117.267C72.9347 116.566 72.9714 115.865 73.0132 115.169L74.0595 115.237C74.0176 115.928 73.981 116.618 73.9496 117.309ZM264.073 114.971C264.026 114.28 263.973 113.589 263.911 112.899L264.952 112.81C265.014 113.506 265.067 114.201 265.114 114.903L264.068 114.971H264.073ZM74.2112 113.16L73.1701 113.072C73.2277 112.371 73.2957 111.675 73.3742 110.979L74.4152 111.089C74.342 111.774 74.274 112.465 74.2164 113.155L74.2112 113.16ZM263.707 110.833C263.628 110.142 263.55 109.457 263.456 108.771L264.491 108.635C264.58 109.326 264.669 110.022 264.742 110.717L263.701 110.833H263.707ZM74.6559 109.033L73.62 108.897C73.709 108.201 73.8084 107.505 73.913 106.815L74.9488 106.972C74.8442 107.657 74.75 108.342 74.6611 109.028L74.6559 109.033ZM263.163 106.715C263.058 106.03 262.943 105.345 262.822 104.665L263.853 104.482C263.973 105.172 264.088 105.863 264.198 106.553L263.163 106.71V106.715ZM75.2784 104.926L74.2478 104.748C74.3681 104.058 74.4937 103.367 74.6297 102.682L75.655 102.886C75.519 103.566 75.3935 104.246 75.2784 104.926ZM262.441 102.63C262.305 101.95 262.163 101.275 262.012 100.6L263.032 100.37C263.183 101.05 263.33 101.735 263.466 102.426L262.441 102.63ZM76.0788 100.856L75.0587 100.631C75.2104 99.9461 75.3673 99.266 75.5295 98.5859L76.5444 98.8318C76.3822 99.5014 76.2253 100.176 76.0788 100.856ZM261.536 98.5754C261.368 97.9006 261.196 97.231 261.018 96.5666L262.027 96.2946C262.21 96.9694 262.383 97.6495 262.55 98.3296L261.536 98.5807V98.5754ZM77.057 96.8177L76.0474 96.5509C76.2253 95.8761 76.4136 95.2012 76.6124 94.5264L77.6168 94.8193C77.4232 95.4837 77.2401 96.1481 77.0623 96.8229L77.057 96.8177ZM260.458 94.563C260.264 93.8986 260.06 93.2342 259.851 92.5751L260.85 92.2612C261.06 92.9256 261.264 93.5952 261.462 94.27L260.458 94.563ZM78.2184 92.8262L77.2192 92.5123C77.4285 91.8427 77.6482 91.1731 77.8731 90.5087L78.8619 90.8435C78.6369 91.5026 78.4224 92.1618 78.2132 92.8262H78.2184ZM259.208 90.6029C258.983 89.9489 258.753 89.295 258.517 88.6463L259.501 88.2854C259.741 88.9393 259.977 89.6037 260.202 90.268L259.213 90.6029H259.208ZM79.5576 88.8765L78.5741 88.5208C78.8148 87.8616 79.0606 87.2025 79.317 86.5486L80.29 86.9252C80.0389 87.5739 79.793 88.2226 79.5576 88.8765ZM257.779 86.7003C257.528 86.0568 257.272 85.4186 257.005 84.7803L257.973 84.3775C258.24 85.021 258.501 85.6645 258.758 86.3184L257.785 86.7003H257.779ZM81.0643 84.9896L80.0965 84.592C80.3633 83.9433 80.6405 83.2946 80.923 82.6564L81.8804 83.0802C81.6031 83.7132 81.3311 84.3514 81.0643 84.9948V84.9896ZM256.189 82.8814C255.912 82.2484 255.624 81.6206 255.331 80.9981L256.278 80.5534C256.576 81.1864 256.864 81.8194 257.146 82.4576L256.189 82.8814ZM82.7383 81.1812L81.7914 80.7417C82.0896 80.1035 82.393 79.4705 82.7017 78.8428L83.6381 79.3031C83.3294 79.9257 83.0313 80.5482 82.7383 81.1812ZM254.431 79.1357C254.123 78.5184 253.809 77.9011 253.49 77.289L254.416 76.8025C254.74 77.4198 255.054 78.0424 255.368 78.6701L254.431 79.1357ZM84.5797 77.4512L83.6538 76.9699C83.9781 76.3474 84.3077 75.7301 84.6477 75.1128L85.5632 75.615C85.2284 76.2219 84.9041 76.8339 84.5797 77.4512ZM252.506 75.4685C252.171 74.8617 251.831 74.2601 251.486 73.6637L252.391 73.1406C252.742 73.7422 253.087 74.3543 253.422 74.9663L252.506 75.4738V75.4685ZM86.5781 73.805L85.6731 73.2818C86.0236 72.675 86.3793 72.0734 86.7455 71.4718L87.6401 72.0158C87.2791 72.607 86.9286 73.2034 86.5781 73.805ZM250.424 71.8851C250.063 71.2939 249.697 70.708 249.326 70.1273L250.204 69.5623C250.581 70.1483 250.953 70.7446 251.314 71.341L250.419 71.8851H250.424ZM88.7387 70.2476L87.8546 69.6827C88.2312 69.0915 88.6131 68.5056 89.0055 67.9197L89.8739 68.5004C89.4867 69.0758 89.1101 69.6565 88.7387 70.2424V70.2476ZM248.19 68.3905C247.803 67.8151 247.411 67.2448 247.013 66.6799L247.871 66.0783C248.274 66.6485 248.666 67.2239 249.059 67.8046L248.19 68.3905ZM91.0509 66.7897L90.193 66.1881C90.5958 65.6127 91.0038 65.0424 91.4171 64.4775L92.2594 65.0948C91.8513 65.6545 91.4433 66.2143 91.0457 66.7845L91.0509 66.7897ZM245.805 64.9954C245.397 64.4408 244.978 63.8863 244.56 63.337L245.386 62.6988C245.815 63.2533 246.234 63.8131 246.647 64.3728L245.805 64.9954ZM93.5097 63.4364L92.6779 62.7982C93.1068 62.2437 93.5358 61.6891 93.9752 61.1451L94.7913 61.799C94.3571 62.3378 93.9282 62.8819 93.5097 63.4312V63.4364ZM243.273 61.7101C242.839 61.1712 242.399 60.6376 241.955 60.1093L242.755 59.4344C243.205 59.968 243.65 60.5069 244.089 61.0561L243.273 61.7101ZM96.1096 60.1982L95.3092 59.5234C95.7591 58.9898 96.2143 58.4562 96.6746 57.9278L97.4593 58.6183C97.0042 59.1415 96.5491 59.6646 96.1044 60.193L96.1096 60.1982ZM240.6 58.5346C240.145 58.0167 239.679 57.4988 239.213 56.9914L239.982 56.2852C240.453 56.7978 240.924 57.321 241.384 57.8441L240.6 58.5346ZM98.8509 57.0751L98.0819 56.3689C98.5527 55.8509 99.034 55.3435 99.5153 54.8361L100.274 55.558C99.7925 56.0602 99.3217 56.5624 98.8561 57.0751H98.8509ZM237.79 55.4743C237.309 54.9721 236.828 54.4803 236.336 53.9938L237.074 53.2562C237.571 53.7479 238.057 54.2502 238.544 54.7576L237.79 55.4795V55.4743ZM101.718 54.0723L100.975 53.3347C101.472 52.8377 101.969 52.3512 102.476 51.8647L103.198 52.618C102.696 53.0993 102.204 53.5805 101.712 54.0723H101.718ZM234.85 52.5395C234.348 52.0582 233.846 51.5874 233.333 51.1218L234.04 50.3476C234.557 50.8184 235.065 51.2997 235.572 51.781L234.85 52.5395ZM104.715 51.2003L104.009 50.4313C104.522 49.9604 105.045 49.4896 105.568 49.0293L106.258 49.814C105.741 50.2691 105.223 50.7347 104.715 51.2003ZM231.785 49.7355C231.262 49.2804 230.739 48.8305 230.205 48.3858L230.88 47.5854C231.419 48.0353 231.947 48.4904 232.475 48.9508L231.785 49.7355ZM107.833 48.459L107.158 47.6586C107.692 47.2088 108.236 46.7641 108.78 46.3246L109.434 47.1407C108.895 47.5749 108.361 48.0144 107.833 48.459ZM228.599 47.0623C228.06 46.6281 227.516 46.1991 226.967 45.7806L227.605 44.9488C228.16 45.3725 228.714 45.8067 229.258 46.2462L228.604 47.0623H228.599ZM111.066 45.8538L110.428 45.0273C110.982 44.6035 111.542 44.1798 112.102 43.7665L112.719 44.6088C112.159 45.0168 111.61 45.4353 111.061 45.8538H111.066ZM225.303 44.5303C224.743 44.1222 224.184 43.7194 223.613 43.3219L224.215 42.4639C224.791 42.8667 225.361 43.2748 225.926 43.688L225.308 44.5303H225.303ZM114.409 43.3951L113.807 42.5371C114.378 42.1343 114.953 41.742 115.534 41.3496L116.114 42.218C115.539 42.6052 114.969 42.9923 114.404 43.3899L114.409 43.3951ZM221.898 42.1448C221.322 41.7577 220.741 41.381 220.156 41.0096L220.715 40.1255C221.306 40.5022 221.892 40.884 222.478 41.2764L221.898 42.1448ZM117.856 41.0881L117.291 40.204C117.877 39.8273 118.474 39.4559 119.07 39.0949L119.614 39.9895C119.023 40.3504 118.437 40.7166 117.856 41.0881ZM218.393 39.911C217.801 39.55 217.205 39.1995 216.603 38.849L217.127 37.944C217.733 38.2945 218.335 38.6503 218.937 39.0164L218.393 39.911ZM121.398 38.9327L120.875 38.0277C121.476 37.6772 122.089 37.3319 122.701 36.9971L123.203 37.9126C122.596 38.2474 121.994 38.5875 121.398 38.9327ZM214.788 37.8342C214.181 37.4994 213.569 37.175 212.952 36.8559L213.433 35.9299C214.056 36.2543 214.673 36.5839 215.29 36.9239L214.788 37.8394V37.8342ZM125.023 36.9344L124.537 36.0084C125.154 35.6841 125.777 35.3702 126.404 35.0563L126.87 35.9927C126.253 36.3014 125.635 36.61 125.023 36.9344ZM211.095 35.909C210.472 35.6004 209.85 35.3022 209.217 35.0092L209.656 34.0624C210.294 34.3605 210.927 34.664 211.555 34.9726L211.095 35.909ZM128.738 35.0929L128.293 34.1461C128.926 33.8531 129.559 33.5601 130.197 33.2776L130.621 34.235C129.988 34.5122 129.36 34.8 128.738 35.0929ZM207.323 34.1513C206.69 33.874 206.052 33.602 205.408 33.3352L205.806 32.3674C206.455 32.6342 207.103 32.9115 207.742 33.1939L207.323 34.1513ZM132.525 33.4189L132.122 32.4511C132.766 32.1843 133.414 31.9227 134.063 31.6664L134.445 32.6394C133.802 32.8905 133.163 33.1469 132.525 33.4137V33.4189ZM203.473 32.5557C202.824 32.3046 202.175 32.0587 201.521 31.8233L201.877 30.8398C202.536 31.0805 203.196 31.3264 203.849 31.5775L203.473 32.5505V32.5557ZM136.386 31.907L136.025 30.9235C136.684 30.6829 137.343 30.4527 138.002 30.2225L138.342 31.2113C137.688 31.4362 137.035 31.6664 136.386 31.9018V31.907ZM199.554 31.1328C198.895 30.9131 198.236 30.6934 197.572 30.4893L197.886 29.4901C198.555 29.6994 199.225 29.9191 199.889 30.1441L199.554 31.1328ZM140.315 30.5678L140.001 29.5686C140.665 29.3594 141.335 29.1553 142.01 28.9565L142.303 29.961C141.638 30.1545 140.974 30.3586 140.315 30.5678ZM195.584 29.8877C194.919 29.6942 194.255 29.5111 193.58 29.3332L193.847 28.3236C194.522 28.5014 195.197 28.6897 195.872 28.8833L195.579 29.8877H195.584ZM144.301 29.4012L144.029 28.3916C144.704 28.2085 145.384 28.0358 146.064 27.8684L146.315 28.8833C145.64 29.0507 144.971 29.2181 144.301 29.4012ZM191.566 28.8205C190.897 28.6584 190.222 28.5014 189.542 28.3549L189.767 27.3348C190.452 27.4865 191.132 27.6435 191.812 27.8056L191.566 28.8205ZM148.334 28.4125L148.109 27.3924C148.789 27.2407 149.475 27.0942 150.165 26.9582L150.369 27.9835C149.689 28.1195 149.014 28.2608 148.34 28.4125H148.334ZM187.512 27.9312C186.832 27.8004 186.152 27.6696 185.472 27.5545L185.65 26.524C186.34 26.6443 187.031 26.7698 187.716 26.9059L187.517 27.9312H187.512ZM152.409 27.5964L152.226 26.5658C152.917 26.4455 153.607 26.3304 154.298 26.2258L154.455 27.2616C153.77 27.3662 153.084 27.4813 152.404 27.6016L152.409 27.5964ZM183.421 27.2197C182.736 27.1151 182.05 27.0209 181.365 26.932L181.501 25.8962C182.197 25.9851 182.887 26.0845 183.578 26.1892L183.421 27.225V27.2197ZM156.516 26.9634L156.38 25.9276C157.071 25.8387 157.766 25.755 158.462 25.6765L158.577 26.7175C157.887 26.7908 157.201 26.8745 156.516 26.9686V26.9634ZM179.304 26.6861C178.619 26.6129 177.928 26.5449 177.238 26.4873L177.326 25.4463C178.027 25.5039 178.723 25.5719 179.419 25.6451L179.309 26.6861H179.304ZM160.649 26.5083L160.56 25.4672C161.256 25.4045 161.951 25.3521 162.652 25.3051L162.72 26.3513C162.03 26.3984 161.339 26.4507 160.649 26.5083ZM175.166 26.3304C174.475 26.2886 173.785 26.2519 173.094 26.2205L173.136 25.1743C173.837 25.2057 174.538 25.2371 175.234 25.2841L175.166 26.3304ZM164.792 26.231L164.745 25.1847C165.441 25.1534 166.137 25.1324 166.838 25.1167L166.864 26.163C166.173 26.1787 165.483 26.2049 164.792 26.231ZM171.017 26.1578C170.374 26.1473 169.725 26.1368 169.077 26.1368H168.941V25.0906H169.077C169.731 25.0906 170.39 25.0958 171.038 25.1115L171.017 26.1578Z" fill="#03486E"/>
<path d="M198.785 152.223H116.794C114.249 152.223 112.186 154.286 112.186 156.832V157.883C112.186 160.429 114.249 162.492 116.794 162.492H198.785C201.331 162.492 203.394 160.429 203.394 157.883V156.832C203.394 154.286 201.331 152.223 198.785 152.223Z" fill="#03486E"/>
<path d="M112.144 237.965C113.085 233.257 113.729 227.157 113.729 218.918C113.729 203.161 112.923 182.293 104.809 144.507V106.103C104.809 96.3521 101.346 90.7964 93.1643 90.1477L86.5467 89.6194C86.4839 90.7755 86.4054 91.9421 86.3113 93.1139C86.2851 93.4697 86.2537 93.8306 86.2223 94.1864C86.1543 95.0286 86.0759 95.8709 85.9922 96.7236C85.9555 97.1107 85.9137 97.503 85.8718 97.8902C85.7777 98.7847 85.673 99.6845 85.5632 100.584C85.5266 100.893 85.4899 101.202 85.4533 101.51C85.2964 102.734 85.129 103.959 84.9511 105.193C83.3922 115.797 80.8759 126.903 77.6534 138.376H77.622C77.5017 138.36 77.3918 138.444 77.3761 138.564C77.3657 138.674 77.4337 138.768 77.5331 138.794C77.2976 139.636 77.057 140.479 76.8111 141.321H76.7797C76.6594 141.3 76.5496 141.384 76.5339 141.504C76.5182 141.624 76.6019 141.734 76.7222 141.75H76.7536C76.7431 175.047 74.0385 194.32 71.9198 206.76L24.5185 254.161L74.6715 304.314L126.587 252.398L112.149 237.96L112.144 237.965Z" fill="white"/>
<path d="M74.6663 304.691L24.1471 254.172L71.674 206.64C73.9078 193.488 76.4659 174.257 76.4868 141.938C76.4397 141.907 76.3979 141.87 76.3665 141.828C76.288 141.724 76.2566 141.598 76.2723 141.473C76.2985 141.284 76.4345 141.133 76.6071 141.08C76.8164 140.353 77.0204 139.631 77.2297 138.904C77.1407 138.805 77.0989 138.674 77.1146 138.533C77.1355 138.339 77.2715 138.187 77.4494 138.13C80.8341 126.056 83.2039 115.269 84.6896 105.151C84.8622 103.974 85.0296 102.771 85.1918 101.468L85.3016 100.542C85.4115 99.6426 85.5161 98.7428 85.6103 97.8535C85.6521 97.4664 85.6888 97.074 85.7306 96.6869C85.8143 95.8394 85.8928 94.9972 85.9608 94.1549L85.9869 93.8201C86.0079 93.5742 86.0288 93.3284 86.0497 93.0825C86.1491 91.7851 86.2276 90.6395 86.2799 89.5932L86.2956 89.3264L93.1801 89.8757C101.179 90.5139 105.066 95.8185 105.066 106.093V144.47C112.908 180.99 113.985 201.827 113.985 218.907C113.985 226.341 113.473 232.545 112.421 237.866L126.943 252.388L74.6558 304.675L74.6663 304.691ZM24.8847 254.172L74.6663 303.953L126.216 252.403L111.866 238.049L111.893 237.913C112.955 232.592 113.472 226.377 113.472 218.918C113.472 201.863 112.395 181.053 104.558 144.559V144.507L104.553 106.103C104.553 96.0121 100.928 91.0266 93.1487 90.404L86.7978 89.8966C86.7455 90.8749 86.6723 91.9368 86.5781 93.1296C86.5572 93.3754 86.5362 93.6213 86.5153 93.8724L86.4892 94.2072C86.4212 95.0495 86.3427 95.897 86.259 96.7444C86.2224 97.1316 86.1805 97.5239 86.1387 97.9163C86.0445 98.8108 85.9399 99.7106 85.83 100.616L85.7202 101.542C85.5527 102.844 85.3906 104.053 85.2179 105.23C83.7165 115.415 81.331 126.281 77.915 138.449L77.8522 138.663L77.7947 138.867C77.5592 139.71 77.3186 140.552 77.0727 141.394L77.0099 141.609H77.0047L77.0256 141.755C77.0152 174.289 74.4361 193.608 72.1919 206.807L72.1762 206.891L72.1186 206.948L24.9004 254.166L24.8847 254.172Z" fill="#03486E"/>
<path d="M90.3553 292.356L102.618 280.093L48.6366 226.112L36.374 238.375L90.3553 292.356Z" fill="#9BEAFF"/>
<path d="M90.35 292.727L36.0014 238.378L48.6351 225.745L102.984 280.093L90.35 292.727ZM36.739 238.378L90.35 291.989L102.246 280.093L48.6351 226.482L36.739 238.378Z" fill="#03486E"/>
<path d="M116.104 264.111C116.104 264.111 116.088 264.111 116.078 264.111C108.194 263.196 100.739 260.747 93.9125 256.834C93.8079 256.772 93.7712 256.641 93.8288 256.536C93.8863 256.432 94.0223 256.395 94.127 256.453C100.902 260.334 108.304 262.767 116.125 263.672C116.245 263.688 116.329 263.792 116.318 263.912C116.308 264.022 116.209 264.106 116.099 264.106L116.104 264.111Z" fill="white"/>
<path d="M116.104 264.373H116.046C108.131 263.452 100.64 260.993 93.7817 257.059C93.6718 256.997 93.5881 256.892 93.5567 256.766C93.5253 256.641 93.541 256.51 93.6038 256.4C93.6666 256.29 93.7712 256.207 93.8968 256.175C94.0223 256.144 94.1479 256.16 94.2629 256.222C101.006 260.088 108.377 262.505 116.161 263.41C116.287 263.426 116.402 263.489 116.481 263.588C116.559 263.687 116.596 263.813 116.58 263.939C116.554 264.179 116.344 264.362 116.104 264.362V264.373Z" fill="#03486E"/>
<path fill-rule="evenodd" clip-rule="evenodd" d="M66.1863 326.077L94.0955 296.101L32.6271 234.627L4.80676 262.254L5.50253 326.056L66.1863 326.077Z" fill="#03486E"/>
<path d="M220.386 114.908L188.731 142.833C184.253 146.782 183.703 153.479 187.507 157.784C191.31 162.095 198.016 162.382 202.495 158.433L234.149 130.508C238.627 126.558 239.177 119.862 235.374 115.556C231.57 111.246 224.864 110.958 220.386 114.908Z" fill="white"/>
<path d="M195.223 161.482C195.061 161.482 194.899 161.482 194.736 161.472C191.833 161.346 189.196 160.101 187.313 157.962C183.421 153.552 183.981 146.678 188.558 142.639L220.213 114.714C224.791 110.676 231.68 110.979 235.572 115.389C239.465 119.799 238.905 126.673 234.322 130.712L202.667 158.637C200.575 160.483 197.943 161.482 195.218 161.482H195.223ZM220.564 115.106L188.909 143.031C184.546 146.882 184.007 153.421 187.705 157.616C189.495 159.646 192 160.829 194.763 160.949C197.525 161.069 200.214 160.107 202.327 158.244L233.982 130.319C238.345 126.469 238.884 119.93 235.185 115.734C231.487 111.539 224.927 111.256 220.564 115.106Z" fill="#03486E"/>
<path d="M201.862 71.8223H113.713C108.796 71.8223 104.809 75.8087 104.809 80.7261V272.335C104.809 277.252 108.796 281.239 113.713 281.239H201.862C206.779 281.239 210.765 277.252 210.765 272.335V80.7261C210.765 75.8087 206.779 71.8223 201.862 71.8223Z" fill="#03486E"/>
<path d="M206.449 78.6596H109.125V89.928H206.449V78.6596Z" fill="#A3BECC"/>
<path d="M206.449 89.928H109.125V252.142H206.449V89.928Z" fill="white"/>
<path d="M118.202 81.8979C116.878 81.8979 115.806 82.9703 115.806 84.2939C115.806 85.6174 116.878 86.6898 118.202 86.6898C119.525 86.6898 120.598 85.6174 120.598 84.2939C120.598 82.9703 119.525 81.8979 118.202 81.8979ZM125.583 85.1152H146.299V83.4673H125.583V85.1152ZM152.315 85.1152H173.032V83.4673H152.315V85.1152ZM179.048 83.4673V85.1152H199.764V83.4673H179.048Z" fill="#F7F6F0"/>
<path d="M196.41 98.2407H167.931C167.073 98.2407 166.382 98.9364 166.382 99.7891C166.382 100.642 167.078 101.338 167.931 101.338H196.41C197.268 101.338 197.959 100.642 197.959 99.7891C197.959 98.9364 197.263 98.2407 196.41 98.2407Z" fill="#BCCACE"/>
<path d="M161.151 102.023C162.385 102.023 163.385 101.023 163.385 99.7891C163.385 98.5554 162.385 97.5553 161.151 97.5553C159.917 97.5553 158.917 98.5554 158.917 99.7891C158.917 101.023 159.917 102.023 161.151 102.023Z" fill="#CB2026"/>
<path d="M161.151 110.461C162.385 110.461 163.385 109.461 163.385 108.227C163.385 106.994 162.385 105.993 161.151 105.993C159.917 105.993 158.917 106.994 158.917 108.227C158.917 109.461 159.917 110.461 161.151 110.461Z" fill="#F8C924"/>
<path d="M161.151 118.894C162.385 118.894 163.385 117.894 163.385 116.66C163.385 115.427 162.385 114.426 161.151 114.426C159.917 114.426 158.917 115.427 158.917 116.66C158.917 117.894 159.917 118.894 161.151 118.894Z" fill="#2A95BF"/>
<path d="M161.151 127.327C162.385 127.327 163.385 126.327 163.385 125.093C163.385 123.859 162.385 122.859 161.151 122.859C159.917 122.859 158.917 123.859 158.917 125.093C158.917 126.327 159.917 127.327 161.151 127.327Z" fill="#03486E"/>
<path d="M161.151 135.76C162.385 135.76 163.385 134.76 163.385 133.526C163.385 132.292 162.385 131.292 161.151 131.292C159.917 131.292 158.917 132.292 158.917 133.526C158.917 134.76 159.917 135.76 161.151 135.76Z" fill="#FE6B6B"/>
<path d="M161.151 144.193C162.385 144.193 163.385 143.193 163.385 141.959C163.385 140.725 162.385 139.725 161.151 139.725C159.917 139.725 158.917 140.725 158.917 141.959C158.917 143.193 159.917 144.193 161.151 144.193Z" fill="#83A1B5"/>
<path d="M196.41 106.674H167.931C167.073 106.674 166.382 107.369 166.382 108.222C166.382 109.075 167.078 109.77 167.931 109.77H196.41C197.268 109.77 197.959 109.075 197.959 108.222C197.959 107.369 197.263 106.674 196.41 106.674Z" fill="#BCCACE"/>
<path d="M196.41 115.112H167.931C167.073 115.112 166.382 115.808 166.382 116.66C166.382 117.513 167.078 118.209 167.931 118.209H196.41C197.268 118.209 197.959 117.513 197.959 116.66C197.959 115.808 197.263 115.112 196.41 115.112Z" fill="#BCCACE"/>
<path d="M196.41 123.545H167.931C167.073 123.545 166.382 124.24 166.382 125.093C166.382 125.946 167.078 126.642 167.931 126.642H196.41C197.268 126.642 197.959 125.946 197.959 125.093C197.959 124.24 197.263 123.545 196.41 123.545Z" fill="#BCCACE"/>
<path d="M196.41 131.978H167.931C167.073 131.978 166.382 132.673 166.382 133.526C166.382 134.379 167.078 135.075 167.931 135.075H196.41C197.268 135.075 197.959 134.379 197.959 133.526C197.959 132.673 197.263 131.978 196.41 131.978Z" fill="#BCCACE"/>
<path d="M196.41 140.411H167.931C167.073 140.411 166.382 141.106 166.382 141.959C166.382 142.812 167.078 143.508 167.931 143.508H196.41C197.268 143.508 197.959 142.812 197.959 141.959C197.959 141.106 197.263 140.411 196.41 140.411Z" fill="#BCCACE"/>
<path d="M114.901 183.538C114.901 184.396 115.759 185.086 116.815 185.086H151.986C153.042 185.086 153.9 184.391 153.9 183.538C153.9 182.685 153.042 181.989 151.986 181.989H116.815C115.759 181.989 114.901 182.685 114.901 183.538Z" fill="#BCCACE"/>
<path d="M114.901 191.971C114.901 192.829 115.759 193.519 116.815 193.519H151.986C153.042 193.519 153.9 192.824 153.9 191.971C153.9 191.118 153.042 190.422 151.986 190.422H116.815C115.759 190.422 114.901 191.118 114.901 191.971Z" fill="#BCCACE"/>
<path d="M114.901 200.404C114.901 201.262 115.759 201.952 116.815 201.952H151.986C153.042 201.952 153.9 201.257 153.9 200.404C153.9 199.551 153.042 198.855 151.986 198.855H116.815C115.759 198.855 114.901 199.551 114.901 200.404Z" fill="#BCCACE"/>
<path d="M114.901 208.837C114.901 209.695 115.759 210.385 116.815 210.385H151.986C153.042 210.385 153.9 209.689 153.9 208.837C153.9 207.984 153.042 207.288 151.986 207.288H116.815C115.759 207.288 114.901 207.984 114.901 208.837Z" fill="#BCCACE"/>
<path d="M114.901 217.27C114.901 218.128 115.759 218.818 116.815 218.818H151.986C153.042 218.818 153.9 218.122 153.9 217.27C153.9 216.417 153.042 215.721 151.986 215.721H116.815C115.759 215.721 114.901 216.417 114.901 217.27Z" fill="#BCCACE"/>
<path d="M168.862 221.277H192.351C196.948 221.277 200.674 217.551 200.674 212.954V178.139C200.674 173.542 196.948 169.816 192.351 169.816H168.862C164.265 169.816 160.539 173.542 160.539 178.139V212.954C160.539 217.551 164.265 221.277 168.862 221.277Z" fill="#03486E"/>
<path d="M194.239 210.799C194.239 211.568 193.617 212.19 192.848 212.19H168.37C167.601 212.19 166.979 211.568 166.979 210.799C166.979 210.03 167.601 209.407 168.37 209.407H192.848C193.617 209.407 194.239 210.03 194.239 210.799Z" fill="#F7F6F0"/>
<path d="M188.213 215.575C188.213 216.344 187.59 216.966 186.821 216.966H174.397C173.628 216.966 173.005 216.344 173.005 215.575C173.005 214.806 173.628 214.183 174.397 214.183H186.821C187.59 214.183 188.213 214.806 188.213 215.575Z" fill="#F7F6F0"/>
<path d="M174.245 197.145C175.961 196.308 177.358 194.968 178.279 193.326C175.318 191.547 173.183 186.745 173.183 183.454C173.183 179.353 176.51 176.026 180.612 176.026C184.713 176.026 188.04 179.353 188.04 183.454C188.04 186.739 185.906 191.542 182.945 193.326C183.86 194.968 185.262 196.308 186.978 197.145C190.332 198.787 192.958 201.685 194.245 205.227H166.989C168.276 201.685 170.902 198.787 174.256 197.145H174.245Z" fill="#F7F6F0"/>
<path d="M165.184 259.199H151.185C148.779 259.199 146.828 261.15 146.828 263.557C146.828 265.963 148.779 267.914 151.185 267.914H165.184C167.591 267.914 169.542 265.963 169.542 263.557C169.542 261.15 167.591 259.199 165.184 259.199Z" fill="#A3BECC"/>
<path d="M191.488 229.469H122.873C118.557 229.469 115.058 232.968 115.058 237.285V238.3C115.058 242.616 118.557 246.115 122.873 246.115H191.488C195.804 246.115 199.303 242.616 199.303 238.3V237.285C199.303 232.968 195.804 229.469 191.488 229.469Z" fill="#A3BECC"/>
<path d="M165.399 20.1731H211.545C213.956 20.1731 215.913 22.1296 215.913 24.5413V45.2731C215.913 47.6848 213.956 49.6413 211.545 49.6413H184.415L173.178 60.8783V49.6413H165.399C162.987 49.6413 161.031 47.6848 161.031 45.2731V24.5413C161.031 22.1296 162.987 20.1731 165.399 20.1731Z" fill="white"/>
<path d="M172.916 61.5112V49.9029H165.399C162.846 49.9029 160.769 47.826 160.769 45.2731V24.5412C160.769 21.9883 162.846 19.9115 165.399 19.9115H211.545C214.098 19.9115 216.174 21.9883 216.174 24.5412V45.2731C216.174 47.826 214.098 49.9029 211.545 49.9029H184.525L172.916 61.5112ZM165.399 20.4346C163.134 20.4346 161.292 22.2761 161.292 24.5412V45.2731C161.292 47.5383 163.134 49.3797 165.399 49.3797H173.44V60.2453L184.305 49.3797H211.545C213.81 49.3797 215.651 47.5383 215.651 45.2731V24.5412C215.651 22.2761 213.81 20.4346 211.545 20.4346H165.399Z" fill="#F8C924"/>
<path d="M202.552 28.5014C202.552 27.8056 201.987 27.2407 201.291 27.2407H175.652C174.957 27.2407 174.392 27.8056 174.392 28.5014C174.392 29.1972 174.957 29.7622 175.652 29.7622H201.291C201.987 29.7622 202.552 29.1972 202.552 28.5014ZM174.392 32.7702C174.392 33.466 174.957 34.031 175.652 34.031H201.291C201.987 34.031 202.552 33.466 202.552 32.7702C202.552 32.0744 201.987 31.5094 201.291 31.5094H175.652C174.957 31.5094 174.392 32.0744 174.392 32.7702ZM174.392 37.039C174.392 37.7348 174.957 38.2998 175.652 38.2998H201.291C201.987 38.2998 202.552 37.7348 202.552 37.039C202.552 36.3432 201.987 35.7782 201.291 35.7782H175.652C174.957 35.7782 174.392 36.3432 174.392 37.039ZM174.392 41.3078C174.392 42.0035 174.957 42.5685 175.652 42.5685H189.51C190.206 42.5685 190.771 42.0035 190.771 41.3078C190.771 40.612 190.206 40.047 189.51 40.047H175.652C174.957 40.047 174.392 40.612 174.392 41.3078Z" fill="#F8C924"/>
<path d="M150.72 106.459H74.7762C70.8056 106.459 67.5831 109.676 67.5831 113.652V147.771C67.5831 151.742 70.8004 154.964 74.7762 154.964H119.426L137.919 173.457V154.964H150.72C154.69 154.964 157.913 151.742 157.913 147.771V113.652C157.913 109.682 154.696 106.459 150.72 106.459Z" fill="white"/>
<path d="M138.18 174.09L119.316 155.226H74.7709C70.6591 155.226 67.3162 151.883 67.3162 147.771V113.652C67.3162 109.54 70.6591 106.198 74.7709 106.198H150.715C154.826 106.198 158.169 109.54 158.169 113.652V147.771C158.169 151.883 154.826 155.226 150.715 155.226H138.175V174.09H138.18ZM74.7709 106.721C70.952 106.721 67.8394 109.828 67.8394 113.652V147.771C67.8394 151.595 70.9468 154.703 74.7709 154.703H119.53L137.657 172.829V154.703H150.72C154.539 154.703 157.651 151.595 157.651 147.771V113.652C157.651 109.833 154.544 106.721 150.72 106.721H74.7761H74.7709Z" fill="#03486E"/>
<path d="M106.51 122.247H148.7C149.846 122.247 150.777 121.316 150.777 120.17C150.777 119.025 149.846 118.094 148.7 118.094H106.51C105.364 118.094 104.433 119.025 104.433 120.17C104.433 121.316 105.364 122.247 106.51 122.247ZM148.7 125.119H106.51C105.364 125.119 104.433 126.05 104.433 127.196C104.433 128.342 105.364 129.273 106.51 129.273H148.7C149.846 129.273 150.777 128.342 150.777 127.196C150.777 126.05 149.846 125.119 148.7 125.119ZM148.7 132.145H106.51C105.364 132.145 104.433 133.076 104.433 134.222C104.433 135.368 105.364 136.299 106.51 136.299H148.7C149.846 136.299 150.777 135.368 150.777 134.222C150.777 133.076 149.846 132.145 148.7 132.145ZM129.313 139.171H106.51C105.364 139.171 104.433 140.102 104.433 141.248C104.433 142.393 105.364 143.324 106.51 143.324H129.313C130.459 143.324 131.39 142.393 131.39 141.248C131.39 140.102 130.459 139.171 129.313 139.171Z" fill="#03486E"/>
<path d="M72.0663 142.948C72.0663 143.633 72.6208 144.188 73.3061 144.188H95.1157C95.801 144.188 96.3555 143.633 96.3555 142.948C96.3555 142.262 95.801 141.708 95.1157 141.708H73.3061C72.6208 141.708 72.0663 142.262 72.0663 142.948Z" fill="#03486E"/>
<path d="M77.4337 147.206C77.4337 147.891 77.9882 148.446 78.6735 148.446H89.7431C90.4284 148.446 90.9829 147.891 90.9829 147.206C90.9829 146.521 90.4284 145.966 89.7431 145.966H78.6735C77.9882 145.966 77.4337 146.521 77.4337 147.206Z" fill="#03486E"/>
<path d="M89.8742 130.785C88.3467 130.037 87.1016 128.849 86.2855 127.385C88.9221 125.799 90.8263 121.52 90.8263 118.591C90.8263 114.934 87.8654 111.973 84.2087 111.973C80.552 111.973 77.591 114.934 77.591 118.591C77.591 121.52 79.4952 125.799 82.1318 127.385C81.3157 128.849 80.0654 130.037 78.5431 130.785C75.556 132.244 73.2176 134.829 72.0719 137.983H96.3559C95.2102 134.829 92.8718 132.244 89.8847 130.785H89.8742Z" fill="#03486E"/>
<path d="M191.692 85.2617H259.642C263.194 85.2617 266.076 88.1441 266.076 91.6962V122.226C266.076 125.779 263.194 128.661 259.642 128.661H219.69L203.143 145.208V128.661H191.692C188.14 128.661 185.257 125.779 185.257 122.226V91.6962C185.257 88.1441 188.14 85.2617 191.692 85.2617Z" fill="white"/>
<path d="M202.882 145.841V128.923H191.692C187.998 128.923 184.996 125.92 184.996 122.226V91.6962C184.996 88.0029 187.998 85.0001 191.692 85.0001H259.642C263.335 85.0001 266.338 88.0029 266.338 91.6962V122.226C266.338 125.92 263.335 128.923 259.642 128.923H219.8L202.882 145.841ZM191.692 85.5232C188.286 85.5232 185.519 88.2906 185.519 91.6962V122.226C185.519 125.632 188.286 128.399 191.692 128.399H203.405V144.575L219.58 128.399H259.642C263.047 128.399 265.815 125.632 265.815 122.226V91.6962C265.815 88.2906 263.047 85.5232 259.642 85.5232H191.692Z" fill="#CB2026"/>
<path d="M233.103 97.5292C233.103 96.5038 232.271 95.6721 231.246 95.6721H193.497C192.471 95.6721 191.639 96.5038 191.639 97.5292C191.639 98.5545 192.471 99.3863 193.497 99.3863H231.246C232.271 99.3863 233.103 98.5545 233.103 97.5292ZM191.634 103.817C191.634 104.843 192.466 105.674 193.491 105.674H231.241C232.266 105.674 233.098 104.843 233.098 103.817C233.098 102.792 232.266 101.96 231.241 101.96H193.491C192.466 101.96 191.634 102.792 191.634 103.817ZM191.634 110.105C191.634 111.131 192.466 111.962 193.491 111.962H231.241C232.266 111.962 233.098 111.131 233.098 110.105C233.098 109.08 232.266 108.248 231.241 108.248H193.491C192.466 108.248 191.634 109.08 191.634 110.105ZM208.981 116.393C208.981 117.419 209.813 118.251 210.839 118.251H231.241C232.266 118.251 233.098 117.419 233.098 116.393C233.098 115.368 232.266 114.536 231.241 114.536H210.839C209.813 114.536 208.981 115.368 208.981 116.393Z" fill="#CB2026"/>
<path d="M262.064 117.911C262.064 118.523 261.567 119.02 260.955 119.02H241.442C240.83 119.02 240.333 118.523 240.333 117.911C240.333 117.298 240.83 116.801 241.442 116.801H260.955C261.567 116.801 262.064 117.298 262.064 117.911Z" fill="#CB2026"/>
<path d="M257.262 121.719C257.262 122.331 256.765 122.828 256.153 122.828H246.25C245.638 122.828 245.141 122.331 245.141 121.719C245.141 121.107 245.638 120.61 246.25 120.61H256.153C256.765 120.61 257.262 121.107 257.262 121.719Z" fill="#CB2026"/>
<path d="M246.129 107.029C247.495 106.36 248.609 105.298 249.342 103.985C246.982 102.567 245.282 98.7376 245.282 96.1167C245.282 92.8471 247.934 90.1948 251.204 90.1948C254.473 90.1948 257.126 92.8471 257.126 96.1167C257.126 98.7376 255.426 102.567 253.066 103.985C253.799 105.292 254.913 106.36 256.278 107.029C258.952 108.337 261.044 110.649 262.069 113.469H240.344C241.369 110.644 243.461 108.337 246.135 107.029H246.129Z" fill="#CB2026"/>
<path d="M209.96 201.602L203.619 207.942C199.554 212.007 199.554 218.593 203.619 222.653C207.684 226.717 214.27 226.717 218.33 222.653L224.67 216.312C228.735 212.248 228.735 205.661 224.67 201.602C220.605 197.537 214.019 197.537 209.96 201.602Z" fill="white"/>
<path d="M210.975 225.964C208.123 225.964 205.445 224.855 203.431 222.841C199.272 218.682 199.272 211.918 203.431 207.759L209.771 201.419C211.785 199.405 214.464 198.296 217.315 198.296C220.166 198.296 222.839 199.405 224.859 201.419C226.873 203.433 227.982 206.111 227.982 208.962C227.982 211.813 226.873 214.487 224.859 216.506L218.518 222.846C216.504 224.86 213.826 225.969 210.975 225.969V225.964ZM217.315 198.813C214.605 198.813 212.057 199.87 210.143 201.785L203.802 208.125C199.847 212.08 199.847 218.515 203.802 222.47C207.757 226.424 214.192 226.424 218.147 222.47L224.487 216.129C226.402 214.215 227.459 211.667 227.459 208.957C227.459 206.247 226.402 203.699 224.487 201.785C222.572 199.87 220.025 198.813 217.315 198.813Z" fill="#03486E"/>
<path d="M207.867 211.275C206.005 213.137 206.716 216.867 209.457 219.608C212.199 222.349 215.929 223.061 217.791 221.198L219.277 219.713L209.353 209.789L207.867 211.275Z" fill="white"/>
<path d="M215.05 222.491C213.193 222.491 211.027 221.549 209.274 219.796C206.439 216.961 205.722 213.053 207.684 211.091L209.353 209.423L219.643 219.713L217.974 221.381C217.226 222.13 216.195 222.491 215.044 222.491H215.05ZM209.358 210.16L208.055 211.463C206.298 213.221 207.009 216.794 209.646 219.425C212.282 222.056 215.85 222.773 217.608 221.015L218.91 219.713L209.358 210.16Z" fill="#03486E"/>
<path d="M216.195 171.197L199.434 187.958C195.369 192.023 195.369 198.609 199.434 202.669C203.499 206.734 210.085 206.734 214.145 202.669L230.906 185.908C234.971 181.843 234.971 175.257 230.906 171.197C226.841 167.132 220.255 167.132 216.195 171.197Z" fill="white"/>
<path d="M206.789 205.975C204.059 205.975 201.328 204.934 199.246 202.857C195.087 198.698 195.087 191.934 199.246 187.775L216.007 171.014C220.166 166.855 226.93 166.855 231.089 171.014C235.248 175.173 235.248 181.937 231.089 186.096L214.328 202.857C212.251 204.934 209.52 205.975 206.784 205.975H206.789ZM216.379 171.38L199.617 188.141C195.662 192.096 195.662 198.531 199.617 202.486C203.572 206.441 210.007 206.441 213.962 202.486L230.723 185.725C234.678 181.77 234.678 175.335 230.723 171.38C226.768 167.425 220.333 167.425 216.379 171.38Z" fill="#03486E"/>
<path d="M202.986 191.986C200.245 194.728 200.245 199.169 202.986 201.91C205.727 204.652 210.169 204.652 212.91 201.91L215.097 199.724L205.173 189.8L202.986 191.986Z" fill="white"/>
<path d="M207.946 204.228C205.999 204.228 204.174 203.469 202.798 202.099C201.422 200.723 200.669 198.897 200.669 196.951C200.669 195.005 201.427 193.179 202.798 191.803L205.168 189.434L215.458 199.724L213.088 202.093C211.712 203.469 209.886 204.223 207.94 204.223L207.946 204.228ZM205.168 190.171L203.169 192.175C201.893 193.451 201.192 195.146 201.192 196.951C201.192 198.756 201.893 200.451 203.169 201.727C204.446 203.004 206.141 203.705 207.946 203.705C209.75 203.705 211.445 203.004 212.722 201.727L214.725 199.724L205.173 190.171H205.168Z" fill="#03486E"/>
<path d="M216.195 147.509L199.434 164.271C195.369 168.336 195.369 174.922 199.434 178.981C203.499 183.046 210.085 183.046 214.145 178.981L230.906 162.22C234.971 158.155 234.971 151.569 230.906 147.509C226.841 143.445 220.255 143.445 216.195 147.509Z" fill="white"/>
<path d="M206.789 182.293C203.938 182.293 201.26 181.184 199.246 179.17C197.232 177.156 196.123 174.477 196.123 171.631C196.123 168.785 197.232 166.102 199.246 164.088L216.007 147.326C218.021 145.312 220.7 144.203 223.551 144.203C226.402 144.203 229.075 145.312 231.094 147.326C233.114 149.341 234.217 152.019 234.217 154.87C234.217 157.721 233.108 160.394 231.094 162.414L214.333 179.175C212.319 181.189 209.641 182.298 206.789 182.298V182.293ZM216.378 147.693L199.617 164.454C197.703 166.369 196.646 168.916 196.646 171.626C196.646 174.336 197.703 176.884 199.617 178.798C201.532 180.713 204.08 181.77 206.789 181.77C209.499 181.77 212.047 180.713 213.962 178.798L230.723 162.037C232.638 160.122 233.694 157.575 233.694 154.865C233.694 152.155 232.638 149.607 230.723 147.693C228.808 145.778 226.261 144.721 223.551 144.721C220.841 144.721 218.293 145.778 216.378 147.693Z" fill="#03486E"/>
<path d="M202.986 168.299C200.245 171.04 200.245 175.482 202.986 178.223C205.727 180.964 210.169 180.964 212.91 178.223L215.097 176.036L205.173 166.112L202.986 168.299Z" fill="white"/>
<path d="M207.946 180.54C205.999 180.54 204.174 179.782 202.798 178.411C199.962 175.576 199.962 170.956 202.798 168.121L205.168 165.751L215.458 176.041L213.088 178.411C211.712 179.787 209.886 180.54 207.94 180.54H207.946ZM205.168 166.484L203.169 168.482C201.893 169.758 201.192 171.453 201.192 173.258C201.192 175.063 201.893 176.758 203.169 178.034C204.446 179.311 206.141 180.012 207.946 180.012C209.75 180.012 211.445 179.311 212.722 178.034L214.725 176.031L205.173 166.478L205.168 166.484Z" fill="#03486E"/>
<path d="M85.4848 65.0633L87.5145 67.0721L99.0654 53.3869L85.4848 65.0633Z" fill="#38AEF4"/>
<path d="M87.5145 67.0721L90.3081 76.4781L99.0654 53.3869L87.5145 67.0721Z" fill="url(#paint0_linear_1096_2397)"/>
<path d="M85.4847 65.0633L76.0578 62.3587L99.0653 53.3869L85.4847 65.0633Z" fill="url(#paint1_linear_1096_2397)"/>
<path d="M132.882 46.4483C138.723 40.6074 138.723 31.1375 132.882 25.2967C127.041 19.4558 117.572 19.4558 111.731 25.2967C105.89 31.1375 105.89 40.6074 111.731 46.4483C117.572 52.2892 127.041 52.2892 132.882 46.4483Z" fill="white"/>
<path d="M122.308 51.0904C113.917 51.0904 107.09 44.2635 107.09 35.8724C107.09 27.4813 113.917 20.6544 122.308 20.6544C130.699 20.6544 137.526 27.4813 137.526 35.8724C137.526 44.2635 130.699 51.0904 122.308 51.0904ZM122.308 21.1775C114.205 21.1775 107.613 27.769 107.613 35.8724C107.613 43.9757 114.205 50.5673 122.308 50.5673C130.412 50.5673 137.003 43.9757 137.003 35.8724C137.003 27.769 130.412 21.1775 122.308 21.1775Z" fill="#03486E"/>
<path d="M130.637 42.7673H113.975C112.944 42.7673 112.107 41.9303 112.107 40.8997V30.8451C112.107 29.8145 112.944 28.9775 113.975 28.9775H130.637C131.667 28.9775 132.504 29.8145 132.504 30.8451V40.8997C132.504 41.9303 131.667 42.7673 130.637 42.7673ZM113.975 29.8407C113.42 29.8407 112.97 30.2905 112.97 30.8451V40.8997C112.97 41.4543 113.42 41.9042 113.975 41.9042H130.637C131.191 41.9042 131.641 41.4543 131.641 40.8997V30.8451C131.641 30.2905 131.191 29.8407 130.637 29.8407H113.975Z" fill="#03486E"/>
<path d="M122.308 36.3065C122.23 36.3065 122.151 36.2856 122.083 36.2438L112.573 30.4056C112.369 30.28 112.306 30.0132 112.431 29.8144C112.557 29.6104 112.824 29.5476 113.023 29.6732L122.303 35.3701L131.395 29.4535C131.594 29.3227 131.861 29.3802 131.992 29.579C132.122 29.7778 132.065 30.0446 131.866 30.1754L122.544 36.2385C122.47 36.2856 122.392 36.3065 122.308 36.3065Z" fill="#03486E"/>
<path d="M249.016 72.0822C254.857 66.2413 254.857 56.7714 249.016 50.9306C243.175 45.0897 233.705 45.0897 227.865 50.9306C222.024 56.7714 222.024 66.2413 227.865 72.0822C233.705 77.923 243.175 77.923 249.016 72.0822Z" fill="white"/>
<path d="M238.444 76.7241C230.053 76.7241 223.226 69.8971 223.226 61.506C223.226 53.1149 230.053 46.288 238.444 46.288C246.835 46.288 253.662 53.1149 253.662 61.506C253.662 69.8971 246.835 76.7241 238.444 76.7241ZM238.444 46.8112C230.341 46.8112 223.749 53.4027 223.749 61.506C223.749 69.6094 230.341 76.2009 238.444 76.2009C246.548 76.2009 253.139 69.6094 253.139 61.506C253.139 53.4027 246.548 46.8112 238.444 46.8112Z" fill="#03486E"/>
<path d="M246.773 68.4009H230.111C229.08 68.4009 228.243 67.5639 228.243 66.5333V56.4787C228.243 55.4481 229.08 54.6111 230.111 54.6111H246.773C247.803 54.6111 248.64 55.4481 248.64 56.4787V66.5333C248.64 67.5639 247.803 68.4009 246.773 68.4009ZM230.111 55.4743C229.556 55.4743 229.106 55.9242 229.106 56.4787V66.5333C229.106 67.0879 229.556 67.5378 230.111 67.5378H246.773C247.327 67.5378 247.777 67.0879 247.777 66.5333V56.4787C247.777 55.9242 247.327 55.4743 246.773 55.4743H230.111Z" fill="#03486E"/>
<path d="M238.444 61.9402C238.366 61.9402 238.287 61.9193 238.219 61.8774L228.709 56.0392C228.505 55.9137 228.442 55.6469 228.568 55.4481C228.693 55.2441 228.96 55.1813 229.159 55.3069L238.439 61.0038L247.531 55.0871C247.73 54.9564 247.997 55.0139 248.128 55.2127C248.258 55.4115 248.201 55.6783 248.002 55.8091L238.68 61.8722C238.607 61.9193 238.528 61.9402 238.444 61.9402Z" fill="#03486E"/>
<path d="M263.143 176.709C268.983 170.868 268.983 161.398 263.143 155.557C257.302 149.717 247.832 149.717 241.991 155.557C236.15 161.398 236.15 170.868 241.991 176.709C247.832 182.55 257.302 182.55 263.143 176.709Z" fill="white"/>
<path d="M252.569 181.351C244.178 181.351 237.351 174.524 237.351 166.133C237.351 157.742 244.178 150.915 252.569 150.915C260.96 150.915 267.787 157.742 267.787 166.133C267.787 174.524 260.96 181.351 252.569 181.351ZM252.569 151.438C244.466 151.438 237.874 158.03 237.874 166.133C237.874 174.237 244.466 180.828 252.569 180.828C260.672 180.828 267.264 174.237 267.264 166.133C267.264 158.03 260.672 151.438 252.569 151.438Z" fill="#03486E"/>
<path d="M260.897 173.028H244.235C243.205 173.028 242.368 172.191 242.368 171.161V161.106C242.368 160.075 243.205 159.238 244.235 159.238H260.897C261.928 159.238 262.765 160.075 262.765 161.106V171.161C262.765 172.191 261.928 173.028 260.897 173.028ZM244.235 160.101C243.681 160.101 243.231 160.551 243.231 161.106V171.161C243.231 171.715 243.681 172.165 244.235 172.165H260.897C261.452 172.165 261.902 171.715 261.902 171.161V161.106C261.902 160.551 261.452 160.101 260.897 160.101H244.235Z" fill="#03486E"/>
<path d="M252.569 166.567C252.491 166.567 252.412 166.546 252.344 166.505L242.834 160.661C242.629 160.536 242.567 160.269 242.692 160.07C242.818 159.866 243.085 159.803 243.283 159.929L252.564 165.626L261.656 159.709C261.855 159.578 262.122 159.636 262.252 159.835C262.383 160.033 262.326 160.3 262.127 160.431L252.804 166.494C252.731 166.541 252.653 166.562 252.569 166.562V166.567Z" fill="#03486E"/>
</g>
<defs>
<linearGradient id="paint0_linear_1096_2397" x1="89.9323" y1="62.4549" x2="95.9883" y2="65.629" gradientUnits="userSpaceOnUse">
<stop stop-color="#7CC7F4"/>
<stop offset="0.99" stop-color="#A4DFFD"/>
</linearGradient>
<linearGradient id="paint1_linear_1096_2397" x1="80.3715" y1="54.1128" x2="94.7307" y2="61.6387" gradientUnits="userSpaceOnUse">
<stop stop-color="#7CC7F4"/>
<stop offset="0.99" stop-color="#A4DFFD"/>
</linearGradient>
<clipPath id="clip0_1096_2397">
<rect x="0.5" y="0.513672" width="300" height="307.89" rx="150" fill="white"/>
</clipPath>
</defs>
</svg>
