<svg width="451" height="411" viewBox="0 0 451 411" fill="none" xmlns="http://www.w3.org/2000/svg">
<path fill-rule="evenodd" clip-rule="evenodd" d="M193.071 22.0873C241.539 16.0065 292.963 14.5468 332.427 43.3336C377.526 76.2307 414.409 126.879 413.242 182.689C412.089 237.847 367.269 278.927 326.72 316.338C288.357 351.733 245.181 388.843 193.071 385.822C142.655 382.899 108.665 338.482 74.0701 301.69C41.0535 266.578 -0.203377 230.833 2.06626 182.689C4.28983 135.522 48.6438 104.791 84.785 74.4026C116.682 47.5833 151.722 27.2749 193.071 22.0873Z" fill="#F5F5F5"/>
<g opacity="0.73">
<path d="M91.95 152.735C91.46 152.735 90.96 152.665 90.47 152.535L82.07 150.235C79.11 149.425 77.37 146.365 78.18 143.405L80.99 133.145C75.85 130.495 71.31 126.975 67.46 122.655L58.22 127.925C56.93 128.665 55.43 128.845 54 128.455C52.57 128.065 51.37 127.135 50.64 125.845L46.33 118.275C44.81 115.615 45.74 112.215 48.4 110.695L57.64 105.425C55.88 99.9147 55.16 94.2147 55.5 88.4447L45.24 85.6347C42.28 84.8247 40.54 81.7647 41.35 78.8047L43.65 70.4047C44.46 67.4447 47.52 65.7047 50.48 66.5147L60.74 69.3247C63.39 64.1847 66.91 59.6447 71.23 55.7947L65.96 46.5547C65.22 45.2647 65.04 43.7647 65.43 42.3347C65.82 40.9047 66.75 39.7047 68.04 38.9747L75.6 34.6647C78.26 33.1447 81.66 34.0747 83.18 36.7347L88.45 45.9747C93.96 44.2147 99.66 43.4947 105.43 43.8347L108.24 33.5747C109.05 30.6147 112.11 28.8747 115.07 29.6847L123.47 31.9847C126.43 32.7947 128.17 35.8547 127.36 38.8147L124.55 49.0747C129.69 51.7247 134.23 55.2447 138.08 59.5647L147.32 54.2947C148.61 53.5547 150.11 53.3747 151.54 53.7647C152.97 54.1547 154.17 55.0847 154.9 56.3747L159.21 63.9347C159.95 65.2247 160.13 66.7247 159.74 68.1547C159.35 69.5847 158.42 70.7847 157.13 71.5147L147.89 76.7847C149.65 82.2947 150.37 87.9947 150.03 93.7647L160.29 96.5747C161.72 96.9647 162.92 97.8947 163.65 99.1847C164.39 100.475 164.57 101.975 164.18 103.405L161.88 111.805C161.07 114.765 158.01 116.505 155.05 115.695L144.79 112.885C142.14 118.025 138.62 122.565 134.3 126.415L139.57 135.655C140.31 136.945 140.49 138.445 140.1 139.875C139.71 141.305 138.78 142.505 137.49 143.235L129.93 147.545C128.64 148.285 127.14 148.465 125.71 148.075C124.28 147.685 123.08 146.755 122.35 145.465L117.08 136.225C111.57 137.985 105.87 138.705 100.1 138.365L97.29 148.625C96.9 150.055 95.97 151.255 94.68 151.985C93.83 152.465 92.89 152.715 91.94 152.715L91.95 152.735ZM68.13 118.825L68.94 119.775C72.95 124.525 77.82 128.295 83.42 131.005L84.54 131.545L81.08 144.195C80.9 144.855 80.99 145.545 81.33 146.135C81.67 146.725 82.22 147.155 82.88 147.335L91.28 149.635C91.94 149.815 92.63 149.725 93.22 149.385C93.81 149.045 94.24 148.495 94.42 147.835L97.88 135.185L99.12 135.285C105.32 135.805 111.43 135.035 117.3 132.995L118.48 132.585L124.98 143.975C125.32 144.565 125.87 144.995 126.53 145.175C127.19 145.355 127.88 145.265 128.47 144.925L136.03 140.615C136.62 140.275 137.05 139.725 137.23 139.065C137.41 138.405 137.32 137.715 136.98 137.125L130.48 125.735L131.43 124.925C136.17 120.915 139.95 116.045 142.66 110.445L143.2 109.325L155.85 112.785C157.21 113.155 158.62 112.355 158.99 110.995L161.29 102.595C161.47 101.935 161.38 101.245 161.04 100.655C160.7 100.065 160.15 99.6347 159.49 99.4547L146.84 95.9947L146.94 94.7547C147.46 88.5647 146.69 82.4447 144.65 76.5747L144.24 75.3947L155.63 68.8947C156.22 68.5547 156.65 68.0047 156.83 67.3447C157.01 66.6847 156.92 65.9947 156.58 65.4047L152.27 57.8447C151.93 57.2547 151.38 56.8247 150.72 56.6447C150.06 56.4647 149.37 56.5547 148.78 56.8947L137.39 63.3947L136.58 62.4447C132.57 57.6947 127.7 53.9247 122.1 51.2147L120.98 50.6747L124.44 38.0247C124.62 37.3647 124.53 36.6747 124.19 36.0847C123.85 35.4947 123.3 35.0647 122.64 34.8847L114.24 32.5847C112.88 32.2147 111.47 33.0147 111.1 34.3747L107.64 47.0247L106.4 46.9247C100.2 46.4047 94.09 47.1747 88.22 49.2147L87.04 49.6247L80.54 38.2347C80.2 37.6447 79.65 37.2147 78.99 37.0347C78.33 36.8547 77.64 36.9447 77.05 37.2847L69.49 41.5947C68.9 41.9347 68.47 42.4847 68.29 43.1447C68.11 43.8047 68.2 44.4947 68.54 45.0847L75.04 56.4747L74.09 57.2847C69.34 61.2947 65.57 66.1647 62.86 71.7647L62.32 72.8847L49.67 69.4247C49.01 69.2447 48.32 69.3347 47.73 69.6747C47.14 70.0147 46.71 70.5647 46.53 71.2247L44.23 79.6247C44.05 80.2847 44.14 80.9747 44.48 81.5647C44.82 82.1547 45.37 82.5847 46.03 82.7647L58.68 86.2247L58.58 87.4647C58.06 93.6547 58.83 99.7747 60.87 105.645L61.28 106.825L49.89 113.325C49.3 113.665 48.87 114.215 48.69 114.875C48.51 115.535 48.6 116.225 48.94 116.815L53.25 124.385C53.59 124.975 54.14 125.405 54.8 125.585C55.46 125.765 56.15 125.675 56.74 125.335L68.13 118.835V118.825ZM102.81 116.175C100.59 116.175 98.36 115.875 96.16 115.275C89.71 113.505 84.32 109.335 81.01 103.525C77.69 97.7147 76.84 90.9547 78.61 84.5047C80.38 78.0447 84.55 72.6647 90.36 69.3547C96.17 66.0347 102.93 65.1847 109.38 66.9547C115.83 68.7247 121.22 72.8947 124.53 78.7047C127.85 84.5147 128.7 91.2747 126.93 97.7247C125.16 104.175 120.99 109.565 115.18 112.875C111.35 115.065 107.1 116.175 102.81 116.175ZM102.74 69.0447C98.96 69.0447 95.22 70.0247 91.85 71.9547C86.73 74.8747 83.06 79.6147 81.5 85.2947C79.95 90.9747 80.7 96.9247 83.62 102.045C86.54 107.165 91.28 110.835 96.96 112.395C102.64 113.945 108.59 113.195 113.71 110.275C118.83 107.355 122.5 102.615 124.06 96.9347C125.62 91.2547 124.86 85.3047 121.95 80.1847C119.03 75.0647 114.29 71.3947 108.61 69.8347C106.67 69.3047 104.71 69.0447 102.75 69.0447H102.74Z" fill="white"/>
</g>
<g opacity="0.69">
<path d="M335.12 125.675L278.54 126.705C276.91 126.735 275.56 125.705 275.53 124.405L274.85 86.8347C274.83 85.5347 276.14 84.4547 277.77 84.4247L334.35 83.3947C335.99 83.3647 337.33 84.3947 337.36 85.6947L338.04 123.265C338.06 124.565 336.75 125.645 335.12 125.675ZM277.79 85.1247C276.54 85.1447 275.54 85.9047 275.56 86.8247L276.24 124.395C276.26 125.305 277.29 126.035 278.53 126.005L335.11 124.975C336.36 124.955 337.36 124.195 337.34 123.275L336.66 85.7047C336.64 84.7947 335.61 84.0647 334.37 84.0847L277.79 85.1147V85.1247Z" fill="white"/>
<path d="M336.726 91.0133L275.297 92.1284L275.309 92.8283L336.739 91.7131L336.726 91.0133Z" fill="white"/>
<path d="M279.73 90.2246C279 90.2346 278.4 89.6546 278.38 88.9246C278.37 88.1946 278.95 87.5946 279.68 87.5746C280.41 87.5646 281.01 88.1446 281.03 88.8746C281.04 89.6046 280.46 90.2046 279.73 90.2246ZM279.69 88.2846C279.35 88.2846 279.07 88.5746 279.08 88.9146C279.08 89.2546 279.37 89.5346 279.71 89.5246C280.05 89.5246 280.33 89.2346 280.32 88.8946C280.32 88.5546 280.03 88.2746 279.69 88.2846Z" fill="white"/>
<path d="M283.38 90.1648C282.65 90.1748 282.05 89.5948 282.03 88.8648C282.02 88.1348 282.6 87.5348 283.33 87.5148C284.06 87.5048 284.66 88.0848 284.68 88.8148C284.69 89.5448 284.11 90.1448 283.38 90.1648ZM283.34 88.2248C283 88.2248 282.72 88.5148 282.73 88.8548C282.73 89.1948 283.02 89.4748 283.36 89.4648C283.7 89.4648 283.98 89.1748 283.97 88.8348C283.97 88.4948 283.68 88.2148 283.34 88.2248Z" fill="white"/>
<path d="M286.95 90.0947C286.22 90.1047 285.62 89.5247 285.6 88.7947C285.59 88.0647 286.17 87.4647 286.9 87.4447C287.63 87.4347 288.23 88.0147 288.25 88.7447C288.26 89.4747 287.68 90.0747 286.95 90.0947ZM286.91 88.1547C286.57 88.1547 286.29 88.4447 286.3 88.7847C286.3 89.1247 286.59 89.4047 286.93 89.3947C287.27 89.3947 287.55 89.1047 287.54 88.7647C287.54 88.4247 287.25 88.1447 286.91 88.1547Z" fill="white"/>
</g>
<g opacity="0.69">
<path d="M145.23 350.215L88.65 351.245C87.02 351.275 85.67 350.245 85.64 348.945L84.96 311.375C84.94 310.075 86.25 308.995 87.88 308.965L144.46 307.935C146.1 307.905 147.44 308.935 147.47 310.235L148.15 347.805C148.17 349.105 146.86 350.185 145.23 350.215ZM87.9 309.665C86.65 309.685 85.65 310.445 85.67 311.365L86.35 348.935C86.37 349.845 87.4 350.575 88.64 350.555L145.22 349.525C146.47 349.505 147.47 348.745 147.45 347.825L146.77 310.255C146.75 309.345 145.72 308.615 144.48 308.635L87.9 309.665Z" fill="white"/>
<path d="M146.843 315.543L85.4133 316.658L85.426 317.358L146.856 316.243L146.843 315.543Z" fill="white"/>
<path d="M89.84 314.765C89.11 314.775 88.51 314.195 88.49 313.465C88.48 312.735 89.06 312.135 89.79 312.115C90.52 312.105 91.12 312.685 91.14 313.415C91.15 314.145 90.57 314.745 89.84 314.765ZM89.8 312.825C89.46 312.825 89.18 313.115 89.19 313.455C89.19 313.795 89.48 314.075 89.82 314.065C90.16 314.055 90.44 313.775 90.43 313.435C90.43 313.095 90.14 312.815 89.8 312.825Z" fill="white"/>
<path d="M93.49 314.705C92.76 314.715 92.16 314.135 92.14 313.405C92.13 312.675 92.71 312.075 93.44 312.055C94.17 312.045 94.77 312.625 94.79 313.355C94.8 314.085 94.22 314.685 93.49 314.705ZM93.45 312.765C93.11 312.765 92.83 313.055 92.84 313.395C92.85 313.735 93.13 314.015 93.47 314.005C93.81 314.005 94.09 313.715 94.08 313.375C94.07 313.035 93.79 312.755 93.45 312.765Z" fill="white"/>
<path d="M97.07 314.635C96.34 314.645 95.74 314.065 95.72 313.335C95.71 312.605 96.29 312.005 97.02 311.985C97.75 311.975 98.35 312.555 98.37 313.285C98.38 314.015 97.8 314.615 97.07 314.635ZM97.03 312.695C96.69 312.695 96.41 312.985 96.42 313.325C96.42 313.665 96.71 313.945 97.05 313.935C97.39 313.935 97.67 313.645 97.66 313.305C97.66 312.965 97.37 312.685 97.03 312.695Z" fill="white"/>
</g>
<g opacity="0.55">
<path d="M380.32 243.925L374.47 239.235C376.41 235.605 377.52 231.685 377.82 227.735L385.28 226.915C386.69 226.755 387.7 225.495 387.55 224.085L386.95 218.615C386.8 217.205 385.53 216.195 384.12 216.345L376.66 217.165C375.51 213.375 373.58 209.785 370.89 206.665L375.58 200.815C376.47 199.705 376.29 198.095 375.18 197.205L370.88 193.765C369.77 192.875 368.16 193.055 367.27 194.165L362.58 200.015C358.95 198.075 355.03 196.965 351.08 196.665L350.26 189.215C350.11 187.805 348.84 186.795 347.43 186.945L341.96 187.545C340.55 187.705 339.54 188.965 339.69 190.375L340.51 197.835C336.72 198.985 333.13 200.915 330.01 203.605L324.16 198.915C323.05 198.025 321.44 198.205 320.55 199.315L317.11 203.615C316.22 204.725 316.4 206.335 317.51 207.225L323.36 211.915C321.42 215.545 320.31 219.465 320.01 223.415L312.56 224.235C311.15 224.395 310.14 225.655 310.29 227.065L310.89 232.535C311.05 233.945 312.31 234.955 313.72 234.805L321.18 233.985C322.33 237.775 324.26 241.365 326.95 244.485L322.26 250.335C321.37 251.445 321.55 253.055 322.66 253.945L326.96 257.385C328.07 258.275 329.68 258.095 330.57 256.985L335.26 251.135C338.89 253.075 342.81 254.185 346.76 254.485L347.58 261.935C347.74 263.345 349 264.355 350.41 264.205L355.88 263.605C357.29 263.445 358.3 262.185 358.15 260.775L357.33 253.325C361.12 252.175 364.71 250.245 367.83 247.555L373.68 252.245C374.79 253.135 376.4 252.955 377.29 251.845L380.73 247.545C381.62 246.435 381.44 244.825 380.33 243.935L380.32 243.925ZM339.6 237.185C333.18 232.045 332.15 222.675 337.3 216.255C342.44 209.835 351.81 208.805 358.23 213.955C364.65 219.095 365.68 228.465 360.54 234.885C355.4 241.305 346.03 242.335 339.61 237.195L339.6 237.185Z" fill="white"/>
<path d="M350.11 264.705C349.42 264.705 348.75 264.475 348.2 264.035C347.56 263.525 347.16 262.795 347.07 261.975L346.29 254.935C342.46 254.595 338.79 253.535 335.38 251.755L330.95 257.285C330.44 257.925 329.71 258.325 328.89 258.415C328.08 258.505 327.28 258.275 326.64 257.765L322.35 254.325C321.71 253.815 321.31 253.085 321.22 252.265C321.13 251.455 321.36 250.655 321.87 250.015L326.3 244.485C323.83 241.535 321.99 238.185 320.83 234.525L313.79 235.305C312.98 235.395 312.18 235.165 311.54 234.645C310.9 234.135 310.5 233.405 310.41 232.585L309.81 227.115C309.72 226.305 309.95 225.505 310.47 224.865C310.98 224.225 311.71 223.825 312.53 223.735L319.57 222.955C319.91 219.125 320.97 215.455 322.75 212.035L317.22 207.605C316.58 207.095 316.18 206.365 316.09 205.555C316 204.745 316.23 203.945 316.75 203.305L320.19 199.005C320.7 198.365 321.43 197.965 322.25 197.875C323.06 197.785 323.86 198.015 324.5 198.535L330.03 202.965C332.98 200.495 336.33 198.655 339.99 197.485L339.21 190.445C339.02 188.765 340.24 187.245 341.92 187.065L347.39 186.465C349.07 186.285 350.59 187.495 350.77 189.175L351.55 196.225C355.38 196.565 359.05 197.625 362.46 199.405L366.89 193.875C367.95 192.555 369.88 192.345 371.2 193.405L375.49 196.845C376.13 197.355 376.53 198.085 376.62 198.905C376.71 199.715 376.48 200.515 375.96 201.155L371.53 206.685C374 209.635 375.84 212.985 377.01 216.645L384.05 215.865C384.86 215.775 385.66 216.005 386.3 216.525C386.94 217.035 387.34 217.765 387.43 218.585L388.03 224.055C388.12 224.865 387.89 225.665 387.37 226.305C386.86 226.945 386.13 227.345 385.31 227.435L378.27 228.215C377.93 232.045 376.87 235.715 375.09 239.135L380.62 243.565C381.26 244.075 381.66 244.805 381.75 245.625C381.84 246.435 381.61 247.235 381.09 247.875L377.65 252.165C376.59 253.485 374.66 253.695 373.34 252.645L367.81 248.215C364.86 250.685 361.52 252.525 357.85 253.695L358.63 260.735C358.72 261.545 358.49 262.345 357.97 262.985C357.46 263.625 356.73 264.025 355.91 264.115L350.44 264.715C350.33 264.725 350.21 264.735 350.1 264.735L350.11 264.705ZM335.12 250.485L335.49 250.685C339.01 252.575 342.81 253.675 346.79 253.975L347.2 254.005L348.07 261.875C348.13 262.425 348.4 262.915 348.83 263.255C349.26 263.605 349.8 263.765 350.35 263.695L355.82 263.095C356.37 263.035 356.86 262.765 357.2 262.335C357.55 261.905 357.7 261.365 357.64 260.815L356.77 252.945L357.17 252.825C360.99 251.665 364.46 249.765 367.48 247.155L367.79 246.885L373.97 251.835C374.86 252.545 376.16 252.405 376.87 251.515L380.31 247.225C380.66 246.795 380.81 246.255 380.75 245.705C380.69 245.155 380.42 244.665 379.99 244.325L373.81 239.375L374.01 239.005C375.9 235.485 377 231.685 377.3 227.705L377.33 227.295L385.2 226.425C385.75 226.365 386.24 226.095 386.58 225.665C386.93 225.235 387.08 224.695 387.02 224.145L386.42 218.675C386.36 218.125 386.09 217.635 385.66 217.295C385.23 216.955 384.69 216.785 384.14 216.855L376.27 217.725L376.15 217.325C375 213.505 373.09 210.035 370.48 207.015L370.21 206.705L375.16 200.525C375.5 200.095 375.66 199.555 375.6 199.005C375.54 198.455 375.27 197.965 374.84 197.625L370.55 194.185C369.66 193.475 368.36 193.615 367.65 194.505L362.7 200.685L362.33 200.485C358.81 198.595 355.01 197.495 351.03 197.195L350.62 197.165L349.75 189.295C349.63 188.165 348.6 187.345 347.47 187.465L342 188.065C341.45 188.125 340.96 188.395 340.62 188.825C340.27 189.255 340.12 189.795 340.18 190.345L341.05 198.215L340.65 198.335C336.83 199.485 333.36 201.395 330.34 204.005L330.03 204.275L323.85 199.325C323.42 198.975 322.88 198.825 322.33 198.885C321.78 198.945 321.29 199.215 320.95 199.645L317.51 203.945C317.17 204.375 317.01 204.915 317.07 205.465C317.13 206.015 317.4 206.505 317.83 206.845L324.01 211.795L323.81 212.165C321.92 215.685 320.82 219.485 320.52 223.465L320.49 223.875L312.62 224.745C312.07 224.805 311.58 225.075 311.24 225.505C310.89 225.935 310.74 226.475 310.8 227.025L311.4 232.495C311.46 233.045 311.73 233.535 312.16 233.875C312.59 234.215 313.13 234.375 313.68 234.315L321.55 233.445L321.67 233.845C322.82 237.665 324.73 241.135 327.34 244.155L327.61 244.465L322.66 250.645C322.31 251.075 322.16 251.615 322.22 252.165C322.28 252.715 322.55 253.205 322.98 253.545L327.27 256.985C327.7 257.325 328.24 257.485 328.79 257.425C329.34 257.365 329.83 257.095 330.17 256.665L335.12 250.485ZM348.9 240.955C345.52 240.955 342.12 239.855 339.29 237.585C336.08 235.015 334.07 231.345 333.62 227.265C333.17 223.175 334.34 219.165 336.91 215.955C339.48 212.745 343.15 210.735 347.23 210.285C351.32 209.835 355.33 211.005 358.54 213.575C365.16 218.885 366.23 228.585 360.92 235.205C357.88 238.995 353.41 240.965 348.9 240.965V240.955ZM348.94 211.185C348.41 211.185 347.87 211.215 347.34 211.275C343.52 211.695 340.09 213.575 337.69 216.575C332.73 222.765 333.73 231.835 339.92 236.805C346.11 241.765 355.18 240.765 360.15 234.575C365.11 228.385 364.11 219.315 357.92 214.345C355.34 212.275 352.21 211.185 348.95 211.185H348.94Z" fill="white"/>
</g>
<g opacity="0.38">
<path d="M417.63 288.375H361.01C360.03 288.375 359.24 287.425 359.24 286.265V265.425C359.24 264.255 360.04 263.315 361.01 263.315H417.63C418.61 263.315 419.4 264.265 419.4 265.425V286.265C419.4 287.425 418.6 288.375 417.63 288.375ZM361.01 264.315C360.59 264.315 360.24 264.825 360.24 265.425V286.265C360.24 286.865 360.59 287.375 361.01 287.375H417.63C418.05 287.375 418.4 286.865 418.4 286.265V265.425C418.4 264.825 418.05 264.315 417.63 264.315H361.01Z" fill="white"/>
<path d="M409.23 271.375H370.9V272.375H409.23V271.375Z" fill="white"/>
<path d="M409.22 272.875H370.89C370.34 272.875 369.89 272.425 369.89 271.875C369.89 271.325 370.34 270.875 370.89 270.875H409.22C409.77 270.875 410.22 271.325 410.22 271.875C410.22 272.425 409.77 272.875 409.22 272.875Z" fill="white"/>
<path d="M388.03 275.925H370.9V276.925H388.03V275.925Z" fill="white"/>
<path d="M388.02 277.425H370.89C370.34 277.425 369.89 276.975 369.89 276.425C369.89 275.875 370.34 275.425 370.89 275.425H388.02C388.57 275.425 389.02 275.875 389.02 276.425C389.02 276.975 388.57 277.425 388.02 277.425Z" fill="white"/>
<path d="M409.23 275.925H392.1V276.925H409.23V275.925Z" fill="white"/>
<path d="M409.22 277.425H392.09C391.54 277.425 391.09 276.975 391.09 276.425C391.09 275.875 391.54 275.425 392.09 275.425H409.22C409.77 275.425 410.22 275.875 410.22 276.425C410.22 276.975 409.77 277.425 409.22 277.425Z" fill="white"/>
<path d="M409.23 280.675H370.9V281.675H409.23V280.675Z" fill="white"/>
<path d="M409.22 282.175H370.89C370.34 282.175 369.89 281.725 369.89 281.175C369.89 280.625 370.34 280.175 370.89 280.175H409.22C409.77 280.175 410.22 280.625 410.22 281.175C410.22 281.725 409.77 282.175 409.22 282.175Z" fill="white"/>
</g>
<g opacity="0.55">
<path d="M259.98 380.995C259.19 380.995 258.44 380.725 257.81 380.225C257.08 379.645 256.63 378.815 256.53 377.895L255.83 371.505C252.35 371.145 249.01 370.175 245.88 368.615L241.86 373.635C240.66 375.135 238.46 375.375 236.97 374.175L232.82 370.845C232.1 370.265 231.64 369.435 231.54 368.515C231.44 367.595 231.7 366.685 232.28 365.955L236.3 360.935C234.09 358.225 232.42 355.175 231.31 351.855L224.92 352.555C223.01 352.755 221.29 351.385 221.08 349.475L220.5 344.185C220.29 342.275 221.67 340.555 223.58 340.345L229.97 339.645C230.33 336.165 231.3 332.825 232.86 329.695L227.84 325.675C226.34 324.475 226.1 322.285 227.3 320.785L230.63 316.635C231.21 315.905 232.04 315.455 232.96 315.355C233.88 315.255 234.79 315.515 235.52 316.095L240.54 320.115C243.25 317.905 246.3 316.235 249.62 315.125L248.92 308.735C248.82 307.815 249.08 306.905 249.66 306.175C250.24 305.445 251.07 304.995 251.99 304.895L257.28 304.315C258.2 304.215 259.11 304.475 259.84 305.055C260.57 305.635 261.02 306.465 261.12 307.385L261.82 313.775C265.3 314.135 268.64 315.105 271.77 316.665L275.79 311.645C276.99 310.145 279.18 309.905 280.68 311.105L284.83 314.435C285.55 315.015 286.01 315.845 286.11 316.765C286.21 317.685 285.95 318.595 285.37 319.325L281.35 324.345C283.56 327.055 285.23 330.105 286.34 333.425L292.73 332.725C294.63 332.515 296.36 333.895 296.57 335.805L297.15 341.095C297.36 343.005 295.98 344.725 294.07 344.935L287.68 345.635C287.32 349.115 286.35 352.455 284.79 355.575L289.81 359.595C290.54 360.175 290.99 361.005 291.09 361.925C291.19 362.845 290.93 363.755 290.35 364.485L287.02 368.635C286.44 369.365 285.61 369.815 284.69 369.915C283.77 370.025 282.86 369.755 282.13 369.175L277.11 365.155C274.4 367.365 271.35 369.035 268.03 370.145L268.73 376.535C268.94 378.445 267.56 380.165 265.65 380.375L260.36 380.955C260.23 380.965 260.1 380.975 259.97 380.975L259.98 380.995ZM245.35 366.075L246.08 366.465C249.42 368.255 253.02 369.305 256.8 369.585L257.63 369.645L258.51 377.675C258.55 378.065 258.75 378.425 259.05 378.665C259.36 378.915 259.75 379.025 260.14 378.985L265.43 378.405C265.82 378.365 266.18 378.165 266.42 377.855C266.67 377.545 266.78 377.165 266.74 376.765L265.86 368.735L266.66 368.495C270.28 367.405 273.58 365.595 276.44 363.115L277.07 362.575L283.38 367.625C283.69 367.875 284.07 367.985 284.47 367.945C284.86 367.905 285.22 367.705 285.46 367.395L288.79 363.245C289.04 362.935 289.15 362.545 289.11 362.155C289.07 361.765 288.87 361.405 288.57 361.165L282.26 356.105L282.65 355.375C284.44 352.035 285.49 348.435 285.77 344.655L285.83 343.825L293.86 342.945C294.67 342.855 295.26 342.125 295.17 341.315L294.59 336.025C294.5 335.215 293.76 334.635 292.96 334.715L284.93 335.595L284.69 334.795C283.6 331.175 281.79 327.875 279.31 325.015L278.77 324.385L283.83 318.075C284.08 317.765 284.19 317.385 284.15 316.985C284.11 316.595 283.91 316.235 283.61 315.995L279.46 312.665C278.83 312.155 277.89 312.255 277.38 312.895L272.33 319.205L271.6 318.815C268.26 317.025 264.66 315.975 260.88 315.695L260.05 315.635L259.17 307.605C259.13 307.215 258.93 306.855 258.63 306.615C258.32 306.365 257.93 306.255 257.54 306.295L252.25 306.875C251.86 306.915 251.5 307.115 251.26 307.415C251.01 307.725 250.9 308.105 250.94 308.505L251.82 316.535L251.02 316.775C247.4 317.865 244.11 319.675 241.24 322.155L240.61 322.695L234.3 317.645C233.99 317.395 233.61 317.285 233.21 317.325C232.82 317.365 232.46 317.565 232.22 317.865L228.89 322.015C228.64 322.325 228.53 322.715 228.57 323.105C228.61 323.495 228.81 323.855 229.11 324.095L235.42 329.155L235.03 329.885C233.24 333.225 232.19 336.825 231.91 340.605L231.85 341.435L223.82 342.315C223.01 342.405 222.42 343.135 222.51 343.945L223.09 349.235C223.18 350.045 223.91 350.625 224.72 350.545L232.75 349.665L232.99 350.465C234.08 354.085 235.89 357.385 238.37 360.245L238.91 360.875L233.85 367.185C233.6 367.495 233.49 367.875 233.53 368.275C233.57 368.665 233.77 369.025 234.07 369.265L238.22 372.595C238.85 373.105 239.79 373.005 240.3 372.365L245.36 366.055L245.35 366.075ZM258.81 358.035C255.43 358.035 252.03 356.935 249.2 354.655C245.99 352.085 243.98 348.415 243.53 344.325C243.08 340.235 244.25 336.225 246.82 333.015C249.39 329.805 253.06 327.795 257.15 327.345C261.24 326.895 265.26 328.065 268.46 330.635C271.66 333.205 273.68 336.875 274.13 340.965C274.58 345.055 273.41 349.065 270.84 352.275C267.8 356.065 263.33 358.035 258.81 358.035ZM258.85 329.255C258.35 329.255 257.86 329.285 257.36 329.335C253.8 329.725 250.61 331.475 248.38 334.275C246.14 337.065 245.13 340.565 245.52 344.115C245.91 347.675 247.66 350.865 250.46 353.095C256.22 357.715 264.67 356.785 269.29 351.025C271.53 348.235 272.54 344.735 272.15 341.185C271.76 337.625 270.01 334.435 267.21 332.205C264.81 330.285 261.89 329.255 258.86 329.255H258.85Z" fill="white"/>
</g>
<g opacity="0.61">
<path opacity="0.74" d="M126.882 136.906L35.3987 138.024C33.5045 138.047 31.9878 139.601 32.0109 141.495L33.8713 293.764C33.8944 295.658 35.4488 297.175 37.343 297.152L128.826 296.034C130.72 296.011 132.237 294.456 132.214 292.562L130.354 140.294C130.33 138.399 128.776 136.883 126.882 136.906Z" fill="#1E386B"/>
<path d="M130.68 140.245L130.79 149.295L32.44 150.485L32.33 141.265C32.31 139.445 33.76 137.965 35.58 137.935L127.18 136.825C129.09 136.805 130.65 138.335 130.68 140.235V140.245Z" fill="#03486E"/>
<path d="M39.1 145.985C37.98 145.985 37.07 145.095 37.06 143.975C37.06 142.855 37.95 141.945 39.07 141.935C40.19 141.935 41.1 142.825 41.11 143.945C41.11 145.065 40.22 145.975 39.1 145.985ZM39.08 142.745C38.41 142.745 37.87 143.295 37.87 143.965C37.87 144.635 38.42 145.175 39.09 145.175C39.76 145.175 40.3 144.625 40.3 143.955C40.3 143.285 39.75 142.745 39.08 142.745Z" fill="white"/>
<path d="M45.87 145.935C44.75 145.935 43.84 145.045 43.83 143.925C43.83 142.805 44.72 141.895 45.84 141.885C46.96 141.885 47.87 142.775 47.88 143.895C47.88 145.015 46.99 145.925 45.87 145.935ZM45.85 142.695C45.18 142.695 44.64 143.245 44.64 143.915C44.64 144.585 45.19 145.125 45.86 145.125C46.53 145.125 47.07 144.575 47.07 143.905C47.07 143.235 46.52 142.695 45.85 142.695Z" fill="white"/>
<path d="M52.44 145.885C51.32 145.885 50.41 144.995 50.4 143.875C50.4 142.755 51.29 141.845 52.41 141.835C53.53 141.835 54.44 142.725 54.45 143.845C54.45 144.965 53.56 145.875 52.44 145.885ZM52.42 142.645C51.75 142.645 51.21 143.195 51.21 143.865C51.21 144.535 51.76 145.075 52.43 145.075C53.1 145.075 53.64 144.525 53.64 143.855C53.64 143.185 53.09 142.645 52.42 142.645Z" fill="white"/>
<path d="M86.32 164.535L40.87 164.875C40.42 164.875 40.06 164.515 40.05 164.075C40.05 163.625 40.41 163.265 40.85 163.255L86.3 162.915C86.75 162.915 87.11 163.275 87.12 163.715C87.12 164.165 86.76 164.525 86.32 164.535Z" fill="white"/>
<path d="M101.46 164.425L92.03 164.495C91.58 164.495 91.22 164.135 91.21 163.695C91.21 163.245 91.57 162.885 92.01 162.875L101.44 162.805C101.89 162.805 102.25 163.165 102.26 163.605C102.26 164.055 101.9 164.415 101.46 164.425Z" fill="#03486E"/>
<path d="M86.6 202.265L41.15 202.605C40.7 202.605 40.34 202.245 40.33 201.805C40.33 201.355 40.69 200.995 41.13 200.985L86.58 200.645C87.03 200.645 87.39 201.005 87.4 201.445C87.4 201.895 87.04 202.255 86.6 202.265Z" fill="white"/>
<path d="M101.75 202.155L92.32 202.225C91.87 202.225 91.51 201.865 91.5 201.425C91.5 200.975 91.86 200.615 92.3 200.605L101.73 200.535C102.18 200.535 102.54 200.895 102.55 201.335C102.55 201.785 102.19 202.145 101.75 202.155Z" fill="#599AF2"/>
<path d="M86.45 182.545L41 182.885C40.55 182.885 40.19 182.525 40.18 182.085C40.18 181.635 40.54 181.275 40.98 181.265L86.43 180.925C86.88 180.925 87.24 181.285 87.25 181.725C87.25 182.175 86.89 182.535 86.45 182.545Z" fill="#599AF2"/>
<path d="M101.6 182.425L92.17 182.495C91.72 182.495 91.36 182.135 91.35 181.695C91.35 181.245 91.71 180.885 92.15 180.875L101.58 180.805C102.03 180.805 102.39 181.165 102.4 181.605C102.4 182.055 102.04 182.415 101.6 182.425Z" fill="white"/>
<path d="M117.13 182.315L107.7 182.385C107.25 182.385 106.89 182.025 106.88 181.585C106.88 181.135 107.24 180.775 107.68 180.765L117.11 180.695C117.56 180.695 117.92 181.055 117.93 181.495C117.93 181.945 117.57 182.305 117.13 182.315Z" fill="#03486E"/>
<path d="M71.23 173.515L40.93 173.745C40.48 173.745 40.12 173.385 40.11 172.945C40.11 172.495 40.47 172.135 40.91 172.125L71.21 171.895C71.66 171.895 72.02 172.255 72.03 172.695C72.03 173.145 71.67 173.505 71.23 173.515Z" fill="#03486E"/>
<path d="M90.1 173.365L76.81 173.465C76.36 173.465 76 173.105 75.99 172.665C75.99 172.215 76.35 171.855 76.79 171.845L90.08 171.745C90.53 171.745 90.89 172.105 90.9 172.545C90.9 172.995 90.54 173.355 90.1 173.365Z" fill="#F7A9B4"/>
<path d="M90.24 192.345L59.94 192.575C59.49 192.575 59.13 192.215 59.12 191.775C59.12 191.325 59.48 190.965 59.92 190.955L90.22 190.725C90.67 190.725 91.03 191.085 91.04 191.525C91.04 191.975 90.68 192.335 90.24 192.345Z" fill="#03486E"/>
<path d="M54.37 192.615L41.08 192.715C40.63 192.715 40.27 192.355 40.26 191.915C40.26 191.465 40.62 191.105 41.06 191.095L54.35 190.995C54.8 190.995 55.16 191.355 55.17 191.795C55.17 192.245 54.81 192.605 54.37 192.615Z" fill="#F7A9B4"/>
<path d="M86.7 214.985L41.25 215.325C40.8 215.325 40.44 214.965 40.43 214.525C40.43 214.075 40.79 213.715 41.23 213.705L86.68 213.365C87.13 213.365 87.49 213.725 87.5 214.165C87.5 214.615 87.14 214.975 86.7 214.985Z" fill="#F7A9B4"/>
<path d="M101.85 214.875L92.42 214.945C91.97 214.945 91.61 214.585 91.6 214.145C91.6 213.695 91.96 213.335 92.4 213.325L101.83 213.255C102.28 213.255 102.64 213.615 102.65 214.055C102.65 214.505 102.29 214.865 101.85 214.875Z" fill="#03486E"/>
<path d="M86.98 252.715L41.53 253.055C41.08 253.055 40.72 252.695 40.71 252.255C40.71 251.805 41.07 251.445 41.51 251.435L86.96 251.095C87.41 251.095 87.77 251.455 87.78 251.895C87.78 252.345 87.42 252.705 86.98 252.715Z" fill="white"/>
<path d="M102.13 252.605L92.7 252.675C92.25 252.675 91.89 252.315 91.88 251.875C91.88 251.425 92.24 251.065 92.68 251.055L102.11 250.985C102.56 250.985 102.92 251.345 102.93 251.785C102.93 252.235 102.57 252.595 102.13 252.605Z" fill="#599AF2"/>
<path d="M86.83 232.995L41.38 233.335C40.93 233.335 40.57 232.975 40.56 232.535C40.56 232.085 40.92 231.725 41.36 231.715L86.81 231.375C87.26 231.375 87.62 231.735 87.63 232.175C87.63 232.625 87.27 232.985 86.83 232.995Z" fill="#599AF2"/>
<path d="M101.98 232.885L92.55 232.955C92.1 232.955 91.74 232.595 91.73 232.155C91.73 231.705 92.09 231.345 92.53 231.335L101.96 231.265C102.41 231.265 102.77 231.625 102.78 232.065C102.78 232.515 102.42 232.875 101.98 232.885Z" fill="white"/>
<path d="M117.51 232.765L108.08 232.835C107.63 232.835 107.27 232.475 107.26 232.035C107.25 231.595 107.62 231.225 108.06 231.215L117.49 231.145C117.94 231.145 118.3 231.505 118.31 231.945C118.31 232.395 117.95 232.755 117.51 232.765Z" fill="#03486E"/>
<path d="M71.61 223.965L41.31 224.195C40.86 224.195 40.5 223.835 40.49 223.395C40.49 222.945 40.85 222.585 41.29 222.575L71.59 222.345C72.04 222.345 72.4 222.705 72.41 223.145C72.41 223.595 72.05 223.955 71.61 223.965Z" fill="#03486E"/>
<path d="M90.48 223.815L77.19 223.915C76.74 223.915 76.38 223.555 76.37 223.115C76.37 222.665 76.73 222.305 77.17 222.295L90.46 222.195C90.91 222.195 91.27 222.555 91.28 222.995C91.28 223.445 90.92 223.805 90.48 223.815Z" fill="#F7A9B4"/>
<path d="M90.62 242.795L60.32 243.025C59.87 243.025 59.51 242.665 59.5 242.225C59.5 241.775 59.86 241.415 60.3 241.405L90.6 241.175C91.05 241.175 91.41 241.535 91.42 241.975C91.42 242.425 91.06 242.785 90.62 242.795Z" fill="#03486E"/>
<path d="M54.75 243.065L41.46 243.165C41.01 243.165 40.65 242.805 40.64 242.365C40.64 241.915 41 241.555 41.44 241.545L54.73 241.445C55.18 241.445 55.54 241.805 55.55 242.245C55.55 242.695 55.19 243.055 54.75 243.065Z" fill="#F7A9B4"/>
<path d="M87.07 264.385L41.62 264.725C41.17 264.725 40.81 264.365 40.8 263.925C40.8 263.475 41.16 263.115 41.6 263.105L87.05 262.765C87.5 262.765 87.86 263.125 87.87 263.565C87.87 264.015 87.51 264.375 87.07 264.385Z" fill="#F7A9B4"/>
<path d="M102.22 264.275L92.79 264.345C92.34 264.345 91.98 263.985 91.97 263.545C91.97 263.095 92.33 262.735 92.77 262.725L102.2 262.655C102.65 262.655 103.01 263.015 103.02 263.455C103.02 263.905 102.66 264.265 102.22 264.275Z" fill="#03486E"/>
<path d="M102.4 288.095L92.97 288.165C92.52 288.165 92.16 287.805 92.15 287.365C92.15 286.915 92.51 286.555 92.95 286.545L102.38 286.475C102.83 286.475 103.19 286.835 103.2 287.275C103.2 287.725 102.84 288.085 102.4 288.095Z" fill="white"/>
<path d="M117.93 287.975L108.5 288.045C108.05 288.045 107.69 287.685 107.68 287.245C107.68 286.795 108.04 286.435 108.48 286.425L117.91 286.355C118.36 286.355 118.72 286.715 118.73 287.155C118.73 287.605 118.37 287.965 117.93 287.975Z" fill="#03486E"/>
<path d="M71.99 273.365L41.69 273.595C41.24 273.595 40.88 273.235 40.87 272.795C40.87 272.345 41.23 271.985 41.67 271.975L71.97 271.745C72.42 271.745 72.78 272.105 72.79 272.545C72.79 272.995 72.43 273.355 71.99 273.365Z" fill="#03486E"/>
<path d="M90.85 273.215L77.56 273.315C77.11 273.315 76.75 272.955 76.74 272.515C76.74 272.065 77.1 271.705 77.54 271.695L90.83 271.595C91.28 271.595 91.64 271.955 91.65 272.395C91.65 272.845 91.29 273.205 90.85 273.215Z" fill="#F7A9B4"/>
</g>
<path d="M117.42 62.6647V82.7947L117.43 87.4747L117.45 143.355L117.5 252.705L117.52 308.585V313.265V326.865C117.52 333.005 121.4 338.225 126.83 340.265C128.4 340.855 130.08 341.185 131.85 341.185H142.06L254.49 341.135C257.5 341.135 260.28 340.205 262.58 338.625C266.34 336.045 268.81 331.715 268.81 326.805L268.69 62.6047C268.69 58.2047 266.7 54.2647 263.57 51.6447C261.08 49.5547 257.87 48.2847 254.36 48.2847L131.72 48.3347C123.81 48.3347 117.4 54.7547 117.4 62.6647H117.42Z" fill="#023C5C"/>
<path d="M118.47 67.6746V87.1546L118.48 91.6746L118.5 145.745L118.55 251.545L118.57 305.615V310.135V323.295C118.57 329.235 122.39 334.285 127.75 336.255C129.29 336.825 130.96 337.145 132.7 337.145H142.77L253.64 337.095C256.6 337.095 259.35 336.195 261.62 334.665C265.33 332.165 267.76 327.975 267.76 323.235L267.65 67.6246C267.65 63.3646 265.68 59.5546 262.6 57.0146C260.14 54.9946 256.98 53.7646 253.52 53.7646L132.58 53.8146C124.78 53.8146 118.46 60.0246 118.46 67.6846L118.47 67.6746Z" fill="#03486E"/>
<path d="M260.81 88.5347L260.9 300.865C260.9 302.765 259.36 304.295 257.47 304.305L128.86 304.365C126.96 304.365 125.43 302.825 125.42 300.935L125.33 88.6047C125.33 86.7047 126.87 85.1647 128.76 85.1647L257.37 85.1047C259.27 85.1047 260.8 86.6447 260.81 88.5347Z" fill="white"/>
<path d="M260.81 88.4446V102.215L125.34 102.275V88.3446C125.34 86.5246 126.8 85.0546 128.62 85.0546L257.35 84.9946C259.26 84.9946 260.81 86.5446 260.81 88.4446Z" fill="#599AF2"/>
<path d="M244.09 91.6846C243.81 91.6846 243.59 91.4646 243.59 91.1846C243.59 90.9046 243.81 90.6846 244.09 90.6846H254.25C254.53 90.6846 254.75 90.9046 254.75 91.1846C254.75 91.4646 254.53 91.6846 254.25 91.6846H244.09Z" fill="white"/>
<path d="M244.09 94.2747C243.81 94.2747 243.59 94.0547 243.59 93.7747C243.59 93.4947 243.81 93.2747 244.09 93.2747H254.25C254.53 93.2747 254.75 93.4947 254.75 93.7747C254.75 94.0547 254.53 94.2747 254.25 94.2747H244.09Z" fill="white"/>
<path d="M244.09 96.8745C243.81 96.8745 243.59 96.6545 243.59 96.3745C243.59 96.0945 243.81 95.8745 244.09 95.8745H254.25C254.53 95.8745 254.75 96.0945 254.75 96.3745C254.75 96.6545 254.53 96.8745 254.25 96.8745H244.09Z" fill="white"/>
<path d="M137.45 98.5347C137.32 98.5347 137.19 98.4847 137.1 98.3847L133.41 94.6947C133.09 94.3747 133.09 93.8547 133.41 93.5447L136.96 89.9947C137.16 89.7947 137.47 89.7947 137.67 89.9947C137.87 90.1847 137.87 90.5047 137.67 90.7047L134.25 94.1247L137.81 97.6847C138.01 97.8747 138.01 98.1947 137.81 98.3947C137.71 98.4947 137.58 98.5447 137.46 98.5447L137.45 98.5347Z" fill="white"/>
<path d="M193.19 72.3947C191.17 72.3947 189.52 70.7547 189.52 68.7247C189.52 66.7047 191.16 65.0547 193.19 65.0547C195.21 65.0547 196.86 66.6947 196.86 68.7247C196.86 70.7447 195.22 72.3947 193.19 72.3947ZM193.19 66.6147C192.02 66.6147 191.08 67.5647 191.08 68.7347C191.08 69.8947 192.03 70.8447 193.19 70.8447C193.75 70.8447 194.28 70.6247 194.68 70.2247C195.08 69.8247 195.3 69.2947 195.3 68.7247C195.3 68.1547 195.08 67.6347 194.68 67.2347C194.28 66.8347 193.75 66.6147 193.19 66.6147Z" fill="white"/>
<path d="M189.71 330.715C188.41 330.715 187.36 329.655 187.36 328.365V321.415C187.36 320.115 188.41 319.065 189.71 319.065H196.66C197.96 319.065 199.01 320.115 199.01 321.415V328.365C199.01 329.665 197.96 330.715 196.66 330.715H189.71ZM196.66 320.055H189.71C188.96 320.055 188.36 320.665 188.36 321.415V328.365C188.36 329.115 188.97 329.715 189.72 329.715H196.67C197.42 329.715 198.02 329.105 198.02 328.355V321.405C198.02 320.655 197.41 320.055 196.66 320.055Z" fill="white"/>
<path d="M147.84 321.185C147.56 321.185 147.34 320.965 147.34 320.685C147.34 320.405 147.56 320.185 147.84 320.185H154.53C154.81 320.185 155.03 320.405 155.03 320.685C155.03 320.965 154.81 321.185 154.53 321.185H147.84Z" fill="white"/>
<path d="M147.84 324.805C147.56 324.805 147.34 324.585 147.34 324.305C147.34 324.025 147.56 323.805 147.84 323.805H154.53C154.81 323.805 155.03 324.025 155.03 324.305C155.03 324.585 154.81 324.805 154.53 324.805H147.84Z" fill="white"/>
<path d="M147.84 328.465C147.56 328.465 147.34 328.245 147.34 327.965C147.34 327.685 147.56 327.465 147.84 327.465H154.53C154.81 327.465 155.03 327.685 155.03 327.965C155.03 328.245 154.81 328.465 154.53 328.465H147.84Z" fill="white"/>
<path d="M240.22 330.685C240.09 330.685 239.96 330.635 239.87 330.535L234.61 325.275L239.73 320.145C239.93 319.945 240.24 319.945 240.44 320.145C240.64 320.345 240.64 320.655 240.44 320.855L236.02 325.275L240.57 329.825C240.77 330.025 240.77 330.335 240.57 330.535C240.47 330.635 240.34 330.685 240.22 330.685Z" fill="white"/>
<path opacity="0.36" d="M260.83 102.455H125.56V146.755H260.83V102.455Z" fill="#599AF2"/>
<path opacity="0.43" d="M186.61 111.415H138.04C137.261 111.415 136.63 112.046 136.63 112.825V120.985C136.63 121.763 137.261 122.395 138.04 122.395H186.61C187.389 122.395 188.02 121.763 188.02 120.985V112.825C188.02 112.046 187.389 111.415 186.61 111.415Z" fill="white"/>
<path opacity="0.43" d="M213.29 128.545H138.04C137.261 128.545 136.63 129.176 136.63 129.955V132.625C136.63 133.403 137.261 134.035 138.04 134.035H213.29C214.069 134.035 214.7 133.403 214.7 132.625V129.955C214.7 129.176 214.069 128.545 213.29 128.545Z" fill="white"/>
<path opacity="0.43" d="M244.17 133.105C241.4 133.105 238.79 132.025 236.83 130.065C234.87 128.105 233.79 125.495 233.78 122.725C233.78 119.955 234.86 117.345 236.82 115.375C238.78 113.415 241.39 112.335 244.16 112.325C246.93 112.325 249.54 113.405 251.5 115.365C253.46 117.325 254.54 119.935 254.55 122.705C254.55 125.475 253.47 128.085 251.51 130.055C249.55 132.015 246.94 133.095 244.17 133.105ZM244.17 114.325C241.93 114.325 239.82 115.195 238.24 116.785C236.66 118.375 235.78 120.475 235.79 122.715C235.79 124.955 236.66 127.065 238.25 128.645C239.83 130.225 241.94 131.095 244.18 131.095C246.42 131.095 248.53 130.225 250.11 128.635C251.69 127.045 252.57 124.945 252.56 122.705C252.56 120.465 251.69 118.355 250.1 116.775C248.52 115.195 246.41 114.325 244.17 114.325Z" fill="white"/>
<path d="M164.46 162.835H142.09C139.572 162.835 137.53 164.876 137.53 167.395V189.765C137.53 192.283 139.572 194.325 142.09 194.325H164.46C166.978 194.325 169.02 192.283 169.02 189.765V167.395C169.02 164.876 166.978 162.835 164.46 162.835Z" fill="#023C5C"/>
<g opacity="0.36">
<path d="M160.07 178.735C160.07 182.485 157.03 185.535 153.28 185.535C149.53 185.535 146.48 182.495 146.48 178.745C146.48 174.995 149.52 171.945 153.27 171.945C157.02 171.945 160.07 174.985 160.07 178.735Z" fill="#599AF2"/>
</g>
<g opacity="0.26">
<path d="M193.34 167.735H175.64C175.01 167.735 174.5 168.245 174.5 168.875V172.245C174.5 172.874 175.01 173.385 175.64 173.385H193.34C193.97 173.385 194.48 172.874 194.48 172.245V168.875C194.48 168.245 193.97 167.735 193.34 167.735Z" fill="#03486E"/>
<path d="M174.51 182.065C173.96 182.065 173.51 181.615 173.51 181.065C173.51 180.515 173.96 180.065 174.51 180.065L208.61 180.045C209.16 180.045 209.61 180.495 209.61 181.045C209.61 181.595 209.16 182.045 208.61 182.045L174.51 182.065Z" fill="#03486E"/>
<path d="M174.51 189.195C173.96 189.195 173.51 188.745 173.51 188.195C173.51 187.645 173.96 187.195 174.51 187.195L230.12 187.175C230.67 187.175 231.12 187.625 231.12 188.175C231.12 188.725 230.67 189.175 230.12 189.175L174.51 189.195Z" fill="#03486E"/>
<path d="M216.21 182.045C215.66 182.045 215.21 181.595 215.21 181.045C215.21 180.495 215.66 180.045 216.21 180.045H250.31C250.86 180.035 251.31 180.475 251.31 181.025C251.31 181.575 250.86 182.025 250.31 182.025H216.21V182.045Z" fill="#03486E"/>
</g>
<path d="M164.51 254.445H142.14C139.622 254.445 137.58 256.486 137.58 259.005V281.375C137.58 283.893 139.622 285.935 142.14 285.935H164.51C167.028 285.935 169.07 283.893 169.07 281.375V259.005C169.07 256.486 167.028 254.445 164.51 254.445Z" fill="#599AF2"/>
<g opacity="0.57">
<path d="M160.11 270.335C160.11 274.085 157.07 277.135 153.32 277.135C149.57 277.135 146.52 274.095 146.52 270.345C146.52 266.595 149.56 263.545 153.31 263.545C157.06 263.545 160.11 266.585 160.11 270.335Z" fill="#03486E"/>
</g>
<g opacity="0.26">
<path d="M193.38 259.335H175.68C175.05 259.335 174.54 259.845 174.54 260.475V263.845C174.54 264.474 175.05 264.985 175.68 264.985H193.38C194.01 264.985 194.52 264.474 194.52 263.845V260.475C194.52 259.845 194.01 259.335 193.38 259.335Z" fill="#03486E"/>
<path d="M174.55 273.665C174 273.665 173.55 273.215 173.55 272.665C173.55 272.115 174 271.665 174.55 271.665H208.65V271.655C209.2 271.655 209.65 272.105 209.65 272.655C209.65 273.205 209.2 273.655 208.65 273.655H174.55V273.665Z" fill="#03486E"/>
<path d="M174.55 280.805C174 280.805 173.55 280.355 173.55 279.805C173.55 279.255 174 278.805 174.55 278.805L230.16 278.785C230.71 278.785 231.16 279.235 231.16 279.785C231.16 280.335 230.71 280.785 230.16 280.785L174.55 280.805Z" fill="#03486E"/>
<path d="M216.25 273.645C215.7 273.645 215.25 273.195 215.25 272.645C215.25 272.095 215.7 271.645 216.25 271.645H250.35C250.9 271.635 251.35 272.075 251.35 272.635C251.35 273.195 250.9 273.635 250.35 273.635H216.25V273.645Z" fill="#03486E"/>
</g>
<path d="M164.49 208.535H142.12C139.602 208.535 137.56 210.576 137.56 213.095V235.465C137.56 237.983 139.602 240.025 142.12 240.025H164.49C167.008 240.025 169.05 237.983 169.05 235.465V213.095C169.05 210.576 167.008 208.535 164.49 208.535Z" fill="#F7A9B4"/>
<path opacity="0.43" d="M160.09 224.425C160.09 228.175 157.05 231.225 153.3 231.225C149.55 231.225 146.5 228.185 146.5 224.435C146.5 220.685 149.54 217.635 153.29 217.635C157.04 217.635 160.09 220.675 160.09 224.425Z" fill="white"/>
<g opacity="0.26">
<path d="M193.36 213.425H175.66C175.03 213.425 174.52 213.935 174.52 214.565V217.935C174.52 218.564 175.03 219.075 175.66 219.075H193.36C193.99 219.075 194.5 218.564 194.5 217.935V214.565C194.5 213.935 193.99 213.425 193.36 213.425Z" fill="#03486E"/>
<path d="M174.53 227.755C173.98 227.755 173.53 227.305 173.53 226.755C173.53 226.205 173.98 225.755 174.53 225.755H190.3C190.85 225.755 191.3 226.205 191.3 226.755C191.3 227.305 190.85 227.755 190.3 227.755H174.53Z" fill="#03486E"/>
<path d="M174.53 234.895C173.98 234.895 173.53 234.445 173.53 233.895C173.53 233.345 173.98 232.895 174.53 232.895H206.9V232.885C207.45 232.885 207.9 233.335 207.9 233.885C207.9 234.435 207.45 234.885 206.9 234.885H174.53V234.895Z" fill="#03486E"/>
<path d="M196.9 227.745C196.35 227.745 195.9 227.295 195.9 226.745C195.9 226.195 196.35 225.745 196.9 225.745H228.4C228.95 225.735 229.4 226.175 229.4 226.735C229.4 227.295 228.95 227.735 228.4 227.735H196.9V227.745Z" fill="#03486E"/>
<path d="M234.26 227.735C233.71 227.735 233.26 227.285 233.26 226.735C233.26 226.185 233.71 225.735 234.26 225.735H250.03C250.58 225.735 251.03 226.175 251.03 226.725C251.03 227.275 250.58 227.725 250.03 227.725H234.26V227.735Z" fill="#03486E"/>
</g>
<path opacity="0.39" d="M360.097 237.082L296.131 237.864C294.237 237.887 292.72 239.441 292.743 241.335L294.06 349.067C294.083 350.962 295.637 352.478 297.531 352.455L361.497 351.674C363.391 351.651 364.908 350.096 364.884 348.202L363.568 240.47C363.545 238.576 361.991 237.059 360.097 237.082Z" fill="white"/>
<path opacity="0.39" d="M360.097 237.082L296.131 237.864C294.237 237.887 292.72 239.441 292.743 241.335L294.06 349.067C294.083 350.962 295.637 352.478 297.531 352.455L361.497 351.674C363.391 351.651 364.908 350.096 364.884 348.202L363.568 240.47C363.545 238.576 361.991 237.059 360.097 237.082Z" fill="#F7A9B4"/>
<path d="M363.79 240.455L363.86 246.005L293.04 246.865L292.97 241.145C292.95 239.325 294.4 237.845 296.22 237.815L360.3 237.035C362.21 237.015 363.77 238.545 363.8 240.445L363.79 240.455Z" fill="#F7A9B4"/>
<path d="M297.83 243.625C297.03 243.625 296.37 242.985 296.36 242.175C296.36 241.375 297 240.715 297.81 240.705C298.61 240.705 299.27 241.345 299.28 242.155C299.28 242.955 298.64 243.615 297.83 243.625ZM297.81 241.295C297.33 241.295 296.94 241.695 296.94 242.175C296.94 242.655 297.34 243.045 297.82 243.045C298.3 243.045 298.69 242.645 298.69 242.165C298.69 241.685 298.29 241.295 297.81 241.295Z" fill="white"/>
<path d="M302.7 243.585C301.9 243.585 301.24 242.945 301.23 242.135C301.22 241.325 301.87 240.675 302.68 240.665C303.48 240.665 304.14 241.305 304.15 242.115C304.15 242.915 303.51 243.575 302.7 243.585ZM302.68 241.255C302.2 241.255 301.81 241.655 301.81 242.135C301.81 242.615 302.21 243.005 302.69 243.005C303.17 243.005 303.56 242.605 303.56 242.125C303.56 241.645 303.16 241.255 302.68 241.255Z" fill="white"/>
<path d="M307.44 243.555C306.64 243.555 305.98 242.915 305.97 242.105C305.97 241.305 306.61 240.645 307.42 240.635C308.22 240.635 308.88 241.275 308.89 242.085C308.89 242.885 308.25 243.545 307.44 243.555ZM307.42 241.225C306.94 241.225 306.55 241.625 306.55 242.105C306.55 242.585 306.95 242.975 307.43 242.975C307.91 242.975 308.3 242.575 308.3 242.095C308.3 241.615 307.9 241.225 307.42 241.225Z" fill="white"/>
<path d="M331.83 256.985L299.1 257.235C298.78 257.235 298.51 256.975 298.51 256.655C298.51 256.335 298.77 256.065 299.09 256.065L331.82 255.815C332.14 255.815 332.41 256.075 332.41 256.395C332.41 256.715 332.15 256.985 331.83 256.985Z" fill="white"/>
<path d="M342.74 256.905L335.95 256.955C335.63 256.955 335.36 256.695 335.36 256.375C335.36 256.055 335.62 255.785 335.94 255.785L342.73 255.735C343.05 255.735 343.32 255.995 343.32 256.315C343.32 256.635 343.06 256.905 342.74 256.905Z" fill="white"/>
<path d="M332.04 284.155L299.31 284.405C298.99 284.405 298.72 284.145 298.72 283.825C298.72 283.505 298.98 283.235 299.3 283.235L332.03 282.985C332.35 282.985 332.62 283.245 332.62 283.565C332.62 283.885 332.36 284.155 332.04 284.155Z" fill="white"/>
<path d="M342.95 284.075L336.16 284.125C335.84 284.125 335.57 283.865 335.57 283.545C335.57 283.225 335.83 282.955 336.15 282.955L342.94 282.905C343.26 282.905 343.53 283.165 343.53 283.485C343.53 283.805 343.27 284.075 342.95 284.075Z" fill="white"/>
<path d="M331.93 269.955L299.2 270.205C298.88 270.205 298.61 269.945 298.61 269.625C298.61 269.305 298.87 269.035 299.19 269.035L331.92 268.785C332.24 268.785 332.51 269.045 332.51 269.365C332.51 269.685 332.25 269.955 331.93 269.955Z" fill="white"/>
<path d="M342.84 269.875L336.05 269.925C335.73 269.925 335.46 269.665 335.46 269.345C335.46 269.025 335.72 268.755 336.04 268.755L342.83 268.705C343.15 268.705 343.42 268.965 343.42 269.285C343.42 269.605 343.16 269.875 342.84 269.875Z" fill="white"/>
<path d="M354.03 269.785L347.24 269.835C346.92 269.835 346.65 269.575 346.65 269.255C346.65 268.935 346.91 268.665 347.23 268.665L354.02 268.615C354.34 268.615 354.61 268.875 354.61 269.195C354.61 269.515 354.35 269.785 354.03 269.785Z" fill="white"/>
<path d="M320.97 263.445L299.15 263.615C298.83 263.615 298.56 263.355 298.56 263.035C298.56 262.715 298.82 262.445 299.14 262.445L320.96 262.275C321.28 262.275 321.55 262.535 321.55 262.855C321.55 263.175 321.29 263.445 320.97 263.445Z" fill="white"/>
<path d="M334.56 263.345L324.99 263.415C324.67 263.415 324.4 263.155 324.4 262.835C324.4 262.515 324.66 262.245 324.98 262.245L334.55 262.175C334.87 262.175 335.14 262.435 335.14 262.755C335.14 263.075 334.88 263.345 334.56 263.345Z" fill="white"/>
<path d="M334.66 277.015L312.84 277.185C312.52 277.185 312.25 276.925 312.25 276.605C312.25 276.285 312.51 276.015 312.83 276.015L334.65 275.845C334.97 275.845 335.24 276.105 335.24 276.425C335.24 276.745 334.98 277.015 334.66 277.015Z" fill="white"/>
<path d="M308.83 277.205L299.26 277.275C298.94 277.275 298.67 277.015 298.67 276.695C298.67 276.375 298.93 276.105 299.25 276.105L308.82 276.035C309.14 276.035 309.41 276.295 309.41 276.615C309.41 276.935 309.15 277.205 308.83 277.205Z" fill="white"/>
<path d="M332.11 293.315L299.38 293.565C299.06 293.565 298.79 293.305 298.79 292.985C298.79 292.665 299.05 292.395 299.37 292.395L332.1 292.145C332.42 292.145 332.69 292.405 332.69 292.725C332.69 293.045 332.43 293.315 332.11 293.315Z" fill="white"/>
<path d="M343.02 293.235L336.23 293.285C335.91 293.285 335.64 293.025 335.64 292.705C335.64 292.385 335.9 292.115 336.22 292.115L343.01 292.065C343.33 292.065 343.6 292.325 343.6 292.645C343.6 292.965 343.34 293.235 343.02 293.235Z" fill="white"/>
<path d="M332.31 320.485L299.58 320.735C299.26 320.735 298.99 320.475 298.99 320.155C298.99 319.835 299.25 319.565 299.57 319.565L332.3 319.315C332.62 319.315 332.89 319.575 332.89 319.895C332.89 320.215 332.63 320.485 332.31 320.485Z" fill="white"/>
<path d="M343.22 320.405L336.43 320.455C336.11 320.455 335.84 320.195 335.84 319.875C335.84 319.555 336.1 319.285 336.42 319.285L343.21 319.235C343.53 319.235 343.8 319.495 343.8 319.815C343.8 320.135 343.54 320.405 343.22 320.405Z" fill="white"/>
<path d="M332.21 306.285L299.48 306.535C299.16 306.535 298.89 306.275 298.89 305.955C298.89 305.635 299.15 305.365 299.47 305.365L332.2 305.115C332.52 305.115 332.79 305.375 332.79 305.695C332.79 306.015 332.53 306.285 332.21 306.285Z" fill="white"/>
<path d="M343.12 306.205L336.33 306.255C336.01 306.255 335.74 305.995 335.74 305.675C335.74 305.355 336 305.085 336.32 305.085L343.11 305.035C343.43 305.035 343.7 305.295 343.7 305.615C343.7 305.935 343.44 306.205 343.12 306.205Z" fill="white"/>
<path d="M354.3 306.115L347.51 306.165C347.19 306.165 346.92 305.905 346.92 305.585C346.92 305.265 347.18 304.995 347.5 304.995L354.29 304.945C354.61 304.945 354.88 305.205 354.88 305.525C354.88 305.845 354.62 306.115 354.3 306.115Z" fill="white"/>
<path d="M321.25 299.785L299.43 299.955C299.11 299.955 298.84 299.695 298.84 299.375C298.84 299.055 299.1 298.785 299.42 298.785L321.24 298.615C321.56 298.615 321.83 298.875 321.83 299.195C321.83 299.515 321.57 299.785 321.25 299.785Z" fill="white"/>
<path d="M334.83 299.675L325.26 299.745C324.94 299.745 324.67 299.485 324.67 299.165C324.67 298.845 324.93 298.575 325.25 298.575L334.82 298.505C335.14 298.505 335.41 298.765 335.41 299.085C335.41 299.405 335.15 299.675 334.83 299.675Z" fill="white"/>
<path d="M334.94 313.345L313.12 313.515C312.8 313.515 312.53 313.255 312.53 312.935C312.53 312.615 312.79 312.345 313.11 312.345L334.93 312.175C335.25 312.175 335.52 312.435 335.52 312.755C335.52 313.075 335.26 313.345 334.94 313.345Z" fill="white"/>
<path d="M309.1 313.535L299.53 313.605C299.21 313.605 298.94 313.345 298.94 313.025C298.94 312.705 299.2 312.435 299.52 312.435L309.09 312.365C309.41 312.365 309.68 312.625 309.68 312.945C309.68 313.265 309.42 313.535 309.1 313.535Z" fill="white"/>
<path d="M332.38 328.895L299.65 329.145C299.33 329.145 299.06 328.885 299.06 328.565C299.06 328.245 299.32 327.975 299.64 327.975L332.37 327.725C332.69 327.725 332.96 327.985 332.96 328.305C332.96 328.625 332.7 328.895 332.38 328.895Z" fill="white"/>
<path d="M343.29 328.805L336.5 328.855C336.18 328.855 335.91 328.595 335.91 328.275C335.91 327.955 336.17 327.685 336.49 327.685L343.28 327.635C343.6 327.635 343.87 327.895 343.87 328.215C343.87 328.535 343.61 328.805 343.29 328.805Z" fill="white"/>
<path d="M343.42 345.965L336.63 346.015C336.31 346.015 336.04 345.755 336.04 345.435C336.04 345.115 336.3 344.845 336.62 344.845L343.41 344.795C343.73 344.795 344 345.055 344 345.375C344 345.695 343.74 345.965 343.42 345.965Z" fill="white"/>
<path d="M354.6 345.885L347.81 345.935C347.49 345.935 347.22 345.675 347.22 345.355C347.22 345.035 347.48 344.765 347.8 344.765L354.59 344.715C354.91 344.715 355.18 344.975 355.18 345.295C355.18 345.615 354.92 345.885 354.6 345.885Z" fill="white"/>
<path d="M321.52 335.355L299.7 335.525C299.38 335.525 299.11 335.265 299.11 334.945C299.11 334.625 299.37 334.355 299.69 334.355L321.51 334.185C321.83 334.185 322.1 334.445 322.1 334.765C322.1 335.085 321.84 335.355 321.52 335.355Z" fill="white"/>
<path d="M335.1 335.255L325.53 335.325C325.21 335.325 324.94 335.065 324.94 334.745C324.94 334.425 325.2 334.155 325.52 334.155L335.09 334.085C335.41 334.085 335.68 334.345 335.68 334.665C335.68 334.985 335.42 335.255 335.1 335.255Z" fill="white"/>
<path opacity="0.22" d="M380.032 72.7714L303.016 73.5645C301.121 73.584 299.602 75.1354 299.621 77.0297L300.948 205.883C300.967 207.777 302.519 209.297 304.413 209.277L381.429 208.484C383.323 208.465 384.843 206.913 384.824 205.019L383.497 76.1659C383.477 74.2717 381.926 72.7519 380.032 72.7714Z" fill="#03486E"/>
<path d="M375.44 66.819L298.424 67.6121C296.53 67.6316 295.01 69.183 295.03 71.0773L296.357 199.93C296.376 201.825 297.928 203.344 299.822 203.325L376.838 202.532C378.732 202.512 380.252 200.961 380.232 199.067L378.906 70.2135C378.886 68.3193 377.335 66.7995 375.44 66.819Z" fill="#FAFAFA"/>
<path d="M379.18 70.1946L379.25 77.4046L295.37 78.2646L295.29 70.8846C295.27 69.0646 296.73 67.5846 298.54 67.5646L375.67 66.7746C377.58 66.7546 379.14 68.2846 379.16 70.1946H379.18Z" fill="#599AF2"/>
<path d="M368.83 71.1747C368.56 71.1747 368.33 70.9547 368.33 70.6747C368.33 70.3947 368.55 70.1747 368.83 70.1747L375.12 70.1147C375.36 70.0747 375.62 70.3347 375.62 70.6147C375.62 70.8947 375.4 71.1147 375.12 71.1147L368.83 71.1747Z" fill="white"/>
<path d="M368.85 72.7746C368.58 72.7746 368.35 72.5546 368.35 72.2746C368.35 71.9946 368.57 71.7746 368.85 71.7746L375.14 71.7146C375.37 71.7146 375.64 71.9346 375.64 72.2146C375.64 72.4946 375.42 72.7146 375.14 72.7146L368.85 72.7746Z" fill="white"/>
<path d="M368.87 74.3847C368.6 74.3847 368.37 74.1647 368.37 73.8847C368.37 73.6047 368.59 73.3847 368.87 73.3847L375.16 73.3247C375.43 73.3247 375.66 73.5447 375.66 73.8247C375.66 74.1047 375.44 74.3247 375.16 74.3247L368.87 74.3847Z" fill="white"/>
<path d="M302.85 76.0547C302.72 76.0547 302.6 76.0047 302.5 75.9147L300.19 73.6547C299.92 73.3847 299.91 72.9447 300.18 72.6747L302.36 70.4547C302.56 70.2547 302.87 70.2547 303.07 70.4547C303.27 70.6447 303.27 70.9647 303.07 71.1647L301.11 73.1647L303.2 75.2147C303.4 75.4047 303.4 75.7247 303.2 75.9247C303.1 76.0247 302.97 76.0747 302.84 76.0747L302.85 76.0547Z" fill="white"/>
<path opacity="0.36" d="M376.64 202.785L299.37 203.225C297.51 203.235 295.99 201.735 295.98 199.865L295.83 173.085L379.85 172.615L380 199.395C380.01 201.255 378.51 202.774 376.64 202.785Z" fill="#599AF2"/>
<path d="M354.247 90.6138L320.497 90.8023C319.879 90.8058 319.38 91.31 319.384 91.9286L319.404 95.6185C319.408 96.2371 319.912 96.7357 320.53 96.7322L354.28 96.5437C354.898 96.5403 355.397 96.0361 355.394 95.4175L355.373 91.7276C355.37 91.109 354.865 90.6104 354.247 90.6138Z" fill="#4C65BA"/>
<path opacity="0.32" d="M309.977 110.391L364.986 110.084C367.596 110.069 369.727 112.177 369.742 114.787L369.749 115.947C369.763 118.557 367.655 120.689 365.045 120.703L310.036 121.011C307.426 121.025 305.294 118.917 305.28 116.307L305.273 115.147C305.258 112.537 307.367 110.405 309.977 110.391Z" fill="#599AF2"/>
<path opacity="0.43" d="M314.11 115.705C314.12 117.515 312.66 118.985 310.86 118.995C309.05 119.005 307.58 117.545 307.57 115.745C307.56 113.945 309.02 112.465 310.82 112.455C312.63 112.445 314.1 113.905 314.11 115.705Z" fill="white"/>
<path d="M312.01 114.785C312.01 115.435 311.49 115.965 310.84 115.965C310.19 115.965 309.66 115.445 309.66 114.795C309.66 114.145 310.18 113.615 310.83 113.615C311.48 113.615 312.01 114.135 312.01 114.785Z" fill="white"/>
<path d="M312.6 117.825L309.11 117.845V117.415C309.11 116.405 309.92 115.575 310.93 115.565C311.85 115.565 312.59 116.295 312.6 117.215V117.825Z" fill="white"/>
<path opacity="0.32" d="M310.073 127.7L365.082 127.393C367.692 127.378 369.824 129.486 369.839 132.096L369.845 133.256C369.86 135.866 367.752 137.998 365.142 138.013L310.133 138.32C307.523 138.334 305.391 136.226 305.376 133.616L305.37 132.456C305.355 129.846 307.463 127.714 310.073 127.7Z" fill="#599AF2"/>
<path opacity="0.43" d="M314.21 133.015C314.22 134.825 312.76 136.295 310.96 136.305C309.15 136.315 307.68 134.855 307.67 133.055C307.66 131.245 309.12 129.775 310.92 129.765C312.73 129.755 314.2 131.215 314.21 133.015Z" fill="white"/>
<path d="M309.831 132.501L312.031 132.489C312.211 132.488 312.352 132.627 312.353 132.807L312.364 134.757C312.365 134.937 312.225 135.078 312.045 135.079L309.845 135.091C309.665 135.092 309.525 134.953 309.524 134.773L309.513 132.823C309.512 132.643 309.651 132.502 309.831 132.501Z" fill="white"/>
<path d="M309.79 132.735V131.925C309.79 131.715 309.87 131.515 310.02 131.355C310.17 131.205 310.37 131.115 310.58 131.115H311.32C311.51 131.115 311.69 131.185 311.83 131.325C311.97 131.465 312.04 131.645 312.04 131.835V132.725H311.8V131.835C311.8 131.705 311.74 131.595 311.66 131.505C311.57 131.415 311.46 131.365 311.33 131.365H310.58C310.43 131.365 310.29 131.425 310.19 131.535C310.09 131.635 310.03 131.775 310.03 131.925V132.735H309.78H309.79Z" fill="white"/>
<path d="M350.67 157.345L326.94 157.475C324.07 157.495 321.73 155.175 321.71 152.305C321.69 149.435 324.01 147.095 326.88 147.075L350.61 146.945C353.48 146.925 355.82 149.245 355.84 152.115C355.86 154.985 353.54 157.325 350.67 157.345Z" fill="#F7A9B4"/>
<path d="M314.94 184.125C314.39 184.125 313.94 183.685 313.94 183.135C313.94 182.585 314.38 182.135 314.93 182.125L360.85 181.865C361.4 181.865 361.85 182.305 361.85 182.855C361.85 183.405 361.41 183.855 360.86 183.865L314.94 184.125Z" fill="white"/>
<path d="M324.28 191.035C323.73 191.035 323.28 190.595 323.28 190.045C323.28 189.495 323.72 189.045 324.27 189.035L351.57 188.885C352.12 188.885 352.57 189.325 352.57 189.875C352.57 190.425 352.13 190.875 351.58 190.885L324.28 191.035Z" fill="white"/>
<path opacity="0.22" d="M321.385 160.261L244.37 161.054C242.475 161.073 240.956 162.625 240.975 164.519L242.302 293.372C242.321 295.266 243.873 296.786 245.767 296.767L322.783 295.974C324.677 295.954 326.197 294.403 326.177 292.508L324.851 163.655C324.831 161.761 323.28 160.241 321.385 160.261Z" fill="#03486E"/>
<path d="M316.804 154.288L239.788 155.081C237.894 155.101 236.374 156.652 236.394 158.547L237.721 287.4C237.74 289.294 239.292 290.814 241.186 290.794L318.202 290.001C320.096 289.982 321.616 288.43 321.596 286.536L320.269 157.683C320.25 155.789 318.698 154.269 316.804 154.288Z" fill="white"/>
<path opacity="0.42" d="M316.804 154.288L239.788 155.081C237.894 155.101 236.374 156.652 236.394 158.547L237.721 287.4C237.74 289.294 239.292 290.814 241.186 290.794L318.202 290.001C320.096 289.982 321.616 288.43 321.596 286.536L320.269 157.683C320.25 155.789 318.698 154.269 316.804 154.288Z" fill="#599AF2"/>
<path d="M320.54 157.665L320.61 164.875L236.73 165.735L236.65 158.355C236.63 156.535 238.09 155.055 239.9 155.035L317.03 154.245C318.94 154.225 320.5 155.755 320.52 157.665H320.54Z" fill="#599AF2"/>
<path d="M310.19 158.644C309.92 158.644 309.69 158.424 309.69 158.144C309.69 157.864 309.91 157.644 310.19 157.644L316.48 157.584C316.71 157.584 316.98 157.804 316.98 158.084C316.98 158.364 316.76 158.584 316.48 158.584L310.19 158.644Z" fill="white"/>
<path d="M310.2 160.245C309.93 160.245 309.7 160.025 309.7 159.745C309.7 159.465 309.92 159.245 310.2 159.245L316.49 159.185C316.76 159.185 316.99 159.405 316.99 159.685C316.99 159.965 316.77 160.185 316.49 160.185L310.2 160.245Z" fill="white"/>
<path d="M310.22 161.854C309.95 161.854 309.72 161.634 309.72 161.354C309.72 161.074 309.94 160.854 310.22 160.854L316.51 160.794C316.78 160.794 317.01 161.014 317.01 161.294C317.01 161.574 316.79 161.794 316.51 161.794L310.22 161.854Z" fill="white"/>
<path d="M244.21 163.525C244.08 163.525 243.96 163.475 243.86 163.385L241.55 161.125C241.28 160.855 241.27 160.415 241.54 160.145L243.72 157.925C243.92 157.725 244.23 157.725 244.43 157.925C244.63 158.115 244.63 158.435 244.43 158.635L242.47 160.635L244.56 162.685C244.76 162.875 244.76 163.195 244.56 163.395C244.46 163.495 244.33 163.545 244.2 163.545L244.21 163.525Z" fill="white"/>
<g opacity="0.36">
<path d="M317.99 290.254L240.72 290.694C238.86 290.704 237.34 289.204 237.33 287.334L237.18 260.554L321.2 260.084L321.35 286.864C321.36 288.724 319.86 290.244 317.99 290.254Z" fill="white"/>
<path d="M240.7 291.184C239.67 291.184 238.71 290.784 237.98 290.064C237.24 289.334 236.84 288.364 236.83 287.334L236.68 260.054L321.7 259.574L321.85 286.854C321.86 288.994 320.13 290.734 318 290.754L240.73 291.194H240.71L240.7 291.184ZM237.68 261.054L237.83 287.334C237.83 288.104 238.14 288.824 238.68 289.364C239.22 289.904 239.94 290.194 240.7 290.194H240.72L317.99 289.754C319.57 289.754 320.86 288.444 320.85 286.864L320.7 260.584L237.68 261.054Z" fill="white"/>
</g>
<path d="M249.111 183.57L249.118 177.53C249.12 176.45 249.991 175.581 251.071 175.582L311.641 175.656C312.721 175.658 313.59 176.529 313.588 177.609L313.581 183.649C313.58 184.729 312.708 185.598 311.628 185.596L251.059 185.522C249.979 185.521 249.11 184.65 249.111 183.57Z" fill="white"/>
<path d="M311.93 193.315L250.76 193.235C249.85 193.235 249.11 192.495 249.11 191.585C249.11 190.675 249.85 189.935 250.76 189.935L311.93 190.015C312.84 190.015 313.58 190.755 313.58 191.665C313.58 192.575 312.84 193.315 311.93 193.315Z" fill="white"/>
<path d="M311.92 200.915L250.75 200.835C249.84 200.835 249.1 200.095 249.1 199.185C249.1 198.275 249.84 197.535 250.75 197.535L311.92 197.615C312.83 197.615 313.57 198.355 313.57 199.265C313.57 200.175 312.83 200.915 311.92 200.915Z" fill="white"/>
<path d="M257.38 212.045C257.38 214.335 255.52 216.185 253.23 216.185C250.94 216.185 249.09 214.325 249.09 212.035C249.09 209.745 250.95 207.895 253.24 207.895C255.53 207.895 257.38 209.755 257.38 212.045Z" fill="#F7A9B4"/>
<path d="M257.36 230.855C257.36 233.145 255.5 234.995 253.21 234.995C250.92 234.995 249.07 233.135 249.07 230.845C249.07 228.555 250.93 226.705 253.22 226.705C255.51 226.705 257.36 228.565 257.36 230.855Z" fill="#F7A9B4"/>
<path d="M257.33 249.095C257.33 251.385 255.47 253.245 253.18 253.235C250.89 253.235 249.04 251.375 249.04 249.085C249.04 246.795 250.9 244.945 253.19 244.945C255.48 244.945 257.33 246.805 257.33 249.095Z" fill="#F7A9B4"/>
<path d="M299.41 210.575L259.73 210.525C259.45 210.525 259.23 210.305 259.23 210.025C259.23 209.745 259.45 209.525 259.73 209.525L299.41 209.575C299.69 209.575 299.91 209.795 299.91 210.075C299.91 210.355 299.69 210.575 299.41 210.575Z" fill="white"/>
<path d="M279.57 214.775L259.73 214.755C259.45 214.755 259.23 214.535 259.23 214.255C259.23 213.975 259.45 213.755 259.73 213.755L279.57 213.775C279.85 213.775 280.07 213.995 280.07 214.275C280.07 214.555 279.85 214.775 279.57 214.775Z" fill="white"/>
<path d="M299.39 229.995L259.71 229.945C259.43 229.945 259.21 229.725 259.21 229.445C259.21 229.165 259.43 228.945 259.71 228.945L299.39 228.995C299.67 228.995 299.89 229.215 299.89 229.495C299.89 229.775 299.67 229.995 299.39 229.995Z" fill="white"/>
<path d="M279.54 234.195L259.7 234.175C259.42 234.175 259.2 233.955 259.2 233.675C259.2 233.395 259.42 233.175 259.7 233.175L279.54 233.195C279.82 233.195 280.04 233.415 280.04 233.695C280.04 233.975 279.82 234.195 279.54 234.195Z" fill="white"/>
<path d="M299.36 247.725L259.68 247.675C259.4 247.675 259.18 247.455 259.18 247.175C259.18 246.895 259.4 246.675 259.68 246.675L299.36 246.725C299.64 246.725 299.86 246.945 299.86 247.225C299.86 247.505 299.64 247.725 299.36 247.725Z" fill="white"/>
<path d="M279.52 251.925L259.68 251.905C259.4 251.905 259.18 251.685 259.18 251.405C259.18 251.125 259.4 250.905 259.68 250.905L279.52 250.925C279.8 250.925 280.02 251.145 280.02 251.425C280.02 251.705 279.8 251.925 279.52 251.925Z" fill="white"/>
<path d="M256.29 271.594C255.74 271.594 255.29 271.154 255.29 270.604C255.29 270.054 255.73 269.604 256.28 269.594L302.2 269.334C302.75 269.334 303.2 269.774 303.2 270.324C303.2 270.874 302.76 271.324 302.21 271.334L256.29 271.594Z" fill="white"/>
<path d="M265.63 278.504C265.08 278.504 264.63 278.064 264.63 277.514C264.63 276.964 265.07 276.514 265.62 276.504L292.92 276.354C293.47 276.354 293.92 276.794 293.92 277.344C293.92 277.894 293.48 278.344 292.93 278.354L265.63 278.504Z" fill="white"/>
<path d="M143.11 112.155H71.42C70.5308 112.155 69.81 112.875 69.81 113.765V134.605C69.81 135.494 70.5308 136.215 71.42 136.215H143.11C143.999 136.215 144.72 135.494 144.72 134.605V113.765C144.72 112.875 143.999 112.155 143.11 112.155Z" fill="#599AF2"/>
<path d="M82.4 131.475C78.13 131.475 74.65 128.005 74.65 123.725C74.65 119.445 78.13 115.975 82.4 115.975C86.67 115.975 90.15 119.455 90.15 123.725C90.15 127.995 86.67 131.475 82.4 131.475Z" fill="#F7A9B4"/>
<path d="M81.72 126.644L78.82 122.634C78.57 122.294 78.65 121.814 78.99 121.564C79.16 121.444 79.36 121.394 79.56 121.424C79.76 121.454 79.94 121.564 80.06 121.734L81.9 124.284L91.11 115.074C91.25 114.934 91.44 114.854 91.65 114.854C91.85 114.854 92.05 114.934 92.19 115.074C92.49 115.374 92.49 115.854 92.19 116.154L81.71 126.634L81.72 126.644Z" fill="white"/>
<path opacity="0.38" d="M135.04 120.715H96.71C96.43 120.715 96.21 120.495 96.21 120.215C96.21 119.935 96.43 119.715 96.71 119.715H135.04C135.32 119.715 135.54 119.935 135.54 120.215C135.54 120.495 135.32 120.715 135.04 120.715Z" fill="white"/>
<path opacity="0.38" d="M113.83 125.265H96.7C96.42 125.265 96.2 125.045 96.2 124.765C96.2 124.485 96.42 124.265 96.7 124.265H113.83C114.11 124.265 114.33 124.485 114.33 124.765C114.33 125.045 114.11 125.265 113.83 125.265Z" fill="white"/>
<path opacity="0.38" d="M135.04 125.265H117.91C117.63 125.265 117.41 125.045 117.41 124.765C117.41 124.485 117.63 124.265 117.91 124.265H135.04C135.32 124.265 135.54 124.485 135.54 124.765C135.54 125.045 135.32 125.265 135.04 125.265Z" fill="white"/>
<path opacity="0.38" d="M135.04 130.024H96.71C96.43 130.024 96.21 129.804 96.21 129.524C96.21 129.244 96.43 129.024 96.71 129.024H135.04C135.32 129.024 135.54 129.244 135.54 129.524C135.54 129.804 135.32 130.024 135.04 130.024Z" fill="white"/>
<path d="M417.3 222.715H345.61C344.721 222.715 344 223.435 344 224.325V245.165C344 246.054 344.721 246.775 345.61 246.775H417.3C418.189 246.775 418.91 246.054 418.91 245.165V224.325C418.91 223.435 418.189 222.715 417.3 222.715Z" fill="#599AF2"/>
<path d="M356.59 242.035C352.32 242.035 348.84 238.555 348.84 234.285C348.84 230.015 352.32 226.535 356.59 226.535C360.86 226.535 364.34 230.015 364.34 234.285C364.34 238.555 360.86 242.035 356.59 242.035Z" fill="#F7A9B4"/>
<path d="M355.91 237.195L353.01 233.185C352.89 233.015 352.84 232.815 352.87 232.615C352.9 232.415 353.01 232.235 353.18 232.115C353.34 231.995 353.54 231.945 353.75 231.975C353.95 232.005 354.13 232.115 354.25 232.285L356.09 234.835L365.3 225.625C365.6 225.325 366.08 225.325 366.38 225.625C366.68 225.925 366.68 226.405 366.38 226.705L355.9 237.185L355.91 237.195Z" fill="white"/>
<path opacity="0.38" d="M409.22 231.265H370.89C370.61 231.265 370.39 231.045 370.39 230.765C370.39 230.485 370.61 230.265 370.89 230.265H409.22C409.5 230.265 409.72 230.485 409.72 230.765C409.72 231.045 409.5 231.265 409.22 231.265Z" fill="white"/>
<path opacity="0.38" d="M388.02 235.815H370.89C370.61 235.815 370.39 235.595 370.39 235.315C370.39 235.035 370.61 234.815 370.89 234.815H388.02C388.3 234.815 388.52 235.035 388.52 235.315C388.52 235.595 388.3 235.815 388.02 235.815Z" fill="white"/>
<path opacity="0.38" d="M409.22 235.815H392.09C391.81 235.815 391.59 235.595 391.59 235.315C391.59 235.035 391.81 234.815 392.09 234.815H409.22C409.5 234.815 409.72 235.035 409.72 235.315C409.72 235.595 409.5 235.815 409.22 235.815Z" fill="white"/>
<path opacity="0.38" d="M409.22 240.575H370.89C370.61 240.575 370.39 240.355 370.39 240.075C370.39 239.795 370.61 239.575 370.89 239.575H409.22C409.5 239.575 409.72 239.795 409.72 240.075C409.72 240.355 409.5 240.575 409.22 240.575Z" fill="white"/>
</svg>
