<svg width="507" height="554" viewBox="0 0 507 554" fill="none" xmlns="http://www.w3.org/2000/svg">
<path d="M0.699402 523.737H368.015" stroke="#67ACFF" stroke-width="2" stroke-miterlimit="10"/>
<path d="M371.873 267.789C444.485 267.789 503.348 208.925 503.348 136.313C503.348 63.7016 444.485 4.83813 371.873 4.83813C299.261 4.83813 240.398 63.7016 240.398 136.313C240.398 208.925 299.261 267.789 371.873 267.789Z" fill="#67ACFF"/>
<path d="M371.873 248.562C433.866 248.562 484.122 198.307 484.122 136.314C484.122 74.3204 433.866 24.0649 371.873 24.0649C309.88 24.0649 259.624 74.3204 259.624 136.314C259.624 198.307 309.88 248.562 371.873 248.562Z" fill="white" stroke="#67ACFF" stroke-miterlimit="10"/>
<mask id="mask0_1097_4046" style="mask-type:luminance" maskUnits="userSpaceOnUse" x="259" y="24" width="226" height="225">
<path d="M371.873 248.562C433.866 248.562 484.122 198.307 484.122 136.314C484.122 74.3204 433.866 24.0649 371.873 24.0649C309.88 24.0649 259.624 74.3204 259.624 136.314C259.624 198.307 309.88 248.562 371.873 248.562Z" fill="white"/>
</mask>
<g mask="url(#mask0_1097_4046)">
<path d="M371.873 -8.15283V280.794" stroke="#67ACFF" stroke-miterlimit="10"/>
<path d="M246.756 64.0801L496.99 208.56" stroke="#67ACFF" stroke-miterlimit="10"/>
<path d="M246.756 208.56L496.99 64.0801" stroke="#67ACFF" stroke-miterlimit="10"/>
<path d="M299.626 11.197L444.106 261.43" stroke="#67ACFF" stroke-miterlimit="10"/>
<path d="M227.393 136.313H516.34" stroke="#67ACFF" stroke-miterlimit="10"/>
<path d="M299.626 261.43L444.106 11.197" stroke="#67ACFF" stroke-miterlimit="10"/>
</g>
<path d="M371.873 238.339C428.22 238.339 473.899 192.661 473.899 136.314C473.899 79.9665 428.22 34.2881 371.873 34.2881C315.526 34.2881 269.848 79.9665 269.848 136.314C269.848 192.661 315.526 238.339 371.873 238.339Z" fill="white"/>
<path d="M467.019 136.313H486.369" stroke="#67ACFF" stroke-width="3" stroke-miterlimit="10"/>
<path d="M256.034 136.313H275.384" stroke="#67ACFF" stroke-width="3" stroke-miterlimit="10"/>
<path d="M371.202 40.4957V21.1458" stroke="#67ACFF" stroke-width="3" stroke-miterlimit="10"/>
<path d="M371.202 251.495V232.131" stroke="#67ACFF" stroke-width="3" stroke-miterlimit="10"/>
<path d="M397.499 48.1155L371.517 136.465L423.496 137.506" fill="white"/>
<path d="M397.499 48.1155L371.517 136.465L423.496 137.506" stroke="#67ACFF" stroke-width="3" stroke-miterlimit="10"/>
<path d="M371.873 147.085C377.822 147.085 382.644 142.262 382.644 136.314C382.644 130.365 377.822 125.542 371.873 125.542C365.924 125.542 361.102 130.365 361.102 136.314C361.102 142.262 365.924 147.085 371.873 147.085Z" fill="#67ACFF"/>
<path d="M342.353 143.293H94.1633C87.126 143.293 81.4211 148.998 81.4211 156.036V514.571C81.4211 521.609 87.126 527.314 94.1633 527.314H342.353C349.39 527.314 355.095 521.609 355.095 514.571V156.036C355.095 148.998 349.39 143.293 342.353 143.293Z" fill="white"/>
<path d="M344.286 531.26H92.2141C84.0791 531.26 77.4745 524.655 77.4745 516.52V154.102C77.4745 145.967 84.0791 139.363 92.2141 139.363H344.286C352.421 139.363 359.026 145.967 360.701 154.102V516.52C359.026 524.655 352.421 531.26 344.286 531.26ZM92.2141 147.224C88.4285 147.224 85.3517 150.3 85.3517 154.086V516.504C85.3517 520.29 88.4285 523.367 92.2141 523.367H344.286C348.072 523.367 351.149 520.29 351.149 516.504V154.102C351.149 150.317 348.072 147.24 344.286 147.24H92.2141V147.224Z" fill="#CB2026"/>
<path d="M116.136 223.338H265.208" stroke="#67ACFF" stroke-miterlimit="10"/>
<path d="M116.136 229.895H265.208" stroke="#67ACFF" stroke-miterlimit="10"/>
<path d="M116.136 245.649H202.335" stroke="#67ACFF" stroke-miterlimit="10"/>
<path d="M116.136 271.891H265.208" stroke="#67ACFF" stroke-miterlimit="10"/>
<path d="M116.136 278.447H265.208" stroke="#67ACFF" stroke-miterlimit="10"/>
<path d="M116.136 294.201H202.335" stroke="#67ACFF" stroke-miterlimit="10"/>
<path d="M116.136 320.443H265.208" stroke="#67ACFF" stroke-miterlimit="10"/>
<path d="M116.136 326.999H265.208" stroke="#67ACFF" stroke-miterlimit="10"/>
<path d="M116.136 342.754H202.335" stroke="#67ACFF" stroke-miterlimit="10"/>
<path d="M116.136 371.621H239.063" stroke="#67ACFF" stroke-miterlimit="10"/>
<path d="M116.136 378.177H239.063" stroke="#67ACFF" stroke-miterlimit="10"/>
<path d="M116.136 393.932H202.335" stroke="#67ACFF" stroke-miterlimit="10"/>
<path d="M316.788 215.574H286.053V246.31H316.788V215.574Z" stroke="#03486E" stroke-miterlimit="10"/>
<path d="M316.788 266.252H286.053V296.988H316.788V266.252Z" stroke="#03486E" stroke-miterlimit="10"/>
<path d="M316.788 316.931H286.053V347.667H316.788V316.931Z" stroke="#03486E" stroke-miterlimit="10"/>
<path d="M316.788 367.626H286.053V398.362H316.788V367.626Z" stroke="#03486E" stroke-miterlimit="10"/>
<path d="M294.59 225.143L301.42 231.973L311.666 211.482" stroke="#1E386B" stroke-width="2" stroke-miterlimit="10"/>
<path d="M294.59 276.369L301.42 283.199L311.666 262.709" stroke="#1E386B" stroke-width="2" stroke-miterlimit="10"/>
<path d="M294.59 327.579L301.42 334.409L311.666 313.919" stroke="#1E386B" stroke-width="2" stroke-miterlimit="10"/>
<mask id="path-40-inside-1_1097_4046" fill="white">
<path fill-rule="evenodd" clip-rule="evenodd" d="M242.244 137.913H261.535C267.157 137.913 271.716 142.471 271.716 148.094V163.22C271.716 168.843 267.157 173.401 261.535 173.401H174.982C169.359 173.401 164.801 168.843 164.801 163.22V148.094C164.801 142.471 169.359 137.913 174.982 137.913H194.256C196.789 127.008 206.587 118.856 218.25 118.856C229.914 118.856 239.712 127.008 242.244 137.913ZM234.054 137.913C231.754 131.402 225.534 126.717 218.25 126.717C210.954 126.717 204.741 131.402 202.444 137.913H234.054Z"/>
</mask>
<path fill-rule="evenodd" clip-rule="evenodd" d="M242.244 137.913H261.535C267.157 137.913 271.716 142.471 271.716 148.094V163.22C271.716 168.843 267.157 173.401 261.535 173.401H174.982C169.359 173.401 164.801 168.843 164.801 163.22V148.094C164.801 142.471 169.359 137.913 174.982 137.913H194.256C196.789 127.008 206.587 118.856 218.25 118.856C229.914 118.856 239.712 127.008 242.244 137.913ZM234.054 137.913C231.754 131.402 225.534 126.717 218.25 126.717C210.954 126.717 204.741 131.402 202.444 137.913H234.054Z" fill="#BCCACE"/>
<path d="M242.244 137.913L241.27 138.139L241.45 138.913H242.244V137.913ZM194.256 137.913V138.913H195.05L195.23 138.139L194.256 137.913ZM234.054 137.913V138.913H235.468L234.997 137.58L234.054 137.913ZM202.444 137.913L201.501 137.58L201.031 138.913H202.444V137.913ZM261.535 136.913H242.244V138.913H261.535V136.913ZM272.716 148.094C272.716 141.919 267.71 136.913 261.535 136.913V138.913C266.605 138.913 270.716 143.023 270.716 148.094H272.716ZM272.716 163.22V148.094H270.716V163.22H272.716ZM261.535 174.401C267.71 174.401 272.716 169.395 272.716 163.22H270.716C270.716 168.29 266.605 172.401 261.535 172.401V174.401ZM174.982 174.401H261.535V172.401H174.982V174.401ZM163.801 163.22C163.801 169.395 168.807 174.401 174.982 174.401V172.401C169.911 172.401 165.801 168.29 165.801 163.22H163.801ZM163.801 148.094V163.22H165.801V148.094H163.801ZM174.982 136.913C168.807 136.913 163.801 141.919 163.801 148.094H165.801C165.801 143.023 169.911 138.913 174.982 138.913V136.913ZM194.256 136.913H174.982V138.913H194.256V136.913ZM195.23 138.139C197.66 127.677 207.063 119.856 218.25 119.856V117.856C206.11 117.856 195.917 126.34 193.282 137.687L195.23 138.139ZM218.25 119.856C229.437 119.856 238.84 127.677 241.27 138.139L243.219 137.687C240.583 126.34 230.39 117.856 218.25 117.856V119.856ZM234.997 137.58C232.561 130.683 225.972 125.717 218.25 125.717V127.717C225.095 127.717 230.948 132.12 233.111 138.246L234.997 137.58ZM218.25 125.717C210.515 125.717 203.934 130.683 201.501 137.58L203.388 138.246C205.547 132.12 211.392 127.717 218.25 127.717V125.717ZM234.054 136.913H202.444V138.913H234.054V136.913Z" fill="white" mask="url(#path-40-inside-1_1097_4046)"/>
<path d="M168.892 492.036H304.835C306.107 492.036 307.138 493.067 307.138 494.339V512.509C307.138 513.781 306.107 514.812 304.835 514.812H168.892C167.621 514.812 166.59 513.781 166.59 512.509V494.339C166.59 493.067 167.621 492.036 168.892 492.036Z" fill="white" stroke="white"/>
<path d="M294.639 515.167H154.008C151.446 515.167 149.369 517.244 149.369 519.807V544.018C149.369 546.581 151.446 548.658 154.008 548.658H294.639C297.201 548.658 299.278 546.581 299.278 544.018V519.807C299.278 517.244 297.201 515.167 294.639 515.167Z" fill="white" stroke="white" stroke-miterlimit="10"/>
<path d="M145.761 513.557V513.541H288.404V545.387C288.404 547.674 286.548 549.543 284.248 549.543H145.261C141.929 549.543 139.237 546.836 139.237 543.519V519.581C139.237 516.25 141.944 513.557 145.261 513.557H145.761Z" fill="#CB2026" stroke="white"/>
<path d="M315.403 491.536H168.538V514.652H315.403C317.078 514.652 318.448 513.331 318.448 511.688V494.484C318.448 492.857 317.078 491.52 315.403 491.52V491.536Z" fill="white" stroke="white" stroke-miterlimit="10"/>
<path d="M161.643 492.036H308.814C309.294 492.036 309.684 492.425 309.684 492.905V513.943C309.684 514.423 309.294 514.812 308.814 514.812H161.643C161.163 514.812 160.774 514.423 160.774 513.943V492.905C160.774 492.425 161.163 492.036 161.643 492.036Z" fill="#03486E" stroke="white"/>
<path d="M186.032 503.215H228.608" stroke="white" stroke-width="3" stroke-miterlimit="10"/>
<path d="M235.696 503.215H248.696" stroke="white" stroke-width="3" stroke-miterlimit="10"/>
<path d="M157.665 532.903H230.96" stroke="white" stroke-width="3" stroke-miterlimit="10"/>
<path d="M270.072 532.307C270.072 535.623 267.38 538.315 264.064 538.315C260.748 538.315 258.056 535.623 258.056 532.307C258.056 528.991 260.748 526.299 264.064 526.299C267.38 526.299 270.072 528.991 270.072 532.307Z" fill="white" stroke="white"/>
<path d="M327.001 553.474H70.7893C68.5363 553.474 66.7143 551.652 66.7143 549.399C66.7143 547.146 68.5363 545.324 70.7893 545.324H327.001C329.254 545.324 331.076 547.146 331.076 549.399C331.076 551.652 329.254 553.474 327.001 553.474Z" fill="#67ACFF" stroke="#1E386B"/>
<path d="M158.502 386.667H329.353C332.057 386.667 334.25 388.859 334.25 391.564V483.642C334.25 486.346 332.057 488.539 329.353 488.539H158.502C155.798 488.539 153.606 486.346 153.606 483.642V391.564C153.606 388.859 155.798 386.667 158.502 386.667Z" fill="#67ACFF" stroke="#1E386B"/>
<path d="M157.971 479.195V396.026H329.884V479.195H157.971Z" fill="white" stroke="#1E386B"/>
<path d="M143.698 485.173H344.173C344.751 485.173 345.22 485.642 345.22 486.22V489.699C345.22 490.277 344.751 490.746 344.173 490.746H143.698C143.12 490.746 142.652 490.277 142.652 489.699V486.22C142.652 485.642 143.12 485.173 143.698 485.173Z" fill="#67ACFF" stroke="#1E386B"/>
<path d="M172.163 435.041V409.671H197.534V435.041H172.163Z" fill="#CB2026" stroke="#1E386B"/>
<path d="M249.936 409.171H204.751V474.831H249.936V409.171Z" fill="white" stroke="#1E386B" stroke-miterlimit="10"/>
<path d="M171.921 441.743H197.937" stroke="#1E386B" stroke-miterlimit="10"/>
<path d="M171.921 445.883H197.937" stroke="#1E386B" stroke-miterlimit="10"/>
<path d="M171.921 450.007H197.937" stroke="#1E386B" stroke-miterlimit="10"/>
<path d="M258.232 413.359H317.336" stroke="#1E386B" stroke-miterlimit="10"/>
<path d="M258.232 421.639H317.336" stroke="#1E386B" stroke-miterlimit="10"/>
<path d="M258.232 431.095H317.336" stroke="#1E386B" stroke-miterlimit="10"/>
<path d="M258.232 439.375H317.336" stroke="#1E386B" stroke-miterlimit="10"/>
<path d="M258.232 448.831H317.336" stroke="#1E386B" stroke-miterlimit="10"/>
<mask id="mask1_1097_4046" style="mask-type:luminance" maskUnits="userSpaceOnUse" x="116" y="356" width="69" height="42">
<path d="M121.21 356.769H179.637C182.148 356.769 184.179 358.8 184.179 361.311V392.868C184.179 395.379 182.148 397.411 179.637 397.411H121.21C118.699 397.411 116.668 395.379 116.668 392.868V361.311C116.668 358.8 118.699 356.769 121.21 356.769Z" fill="white" stroke="white"/>
</mask>
<g mask="url(#mask1_1097_4046)">
<path d="M116.668 397.411V356.769H184.179V397.411H116.668Z" fill="#03486E" stroke="white"/>
<path d="M184.679 356.269L151.817 381.206C151.366 381.56 150.722 381.56 150.254 381.206L116.152 356.253" stroke="white" stroke-miterlimit="10"/>
<path d="M146.388 378.435L111.464 399.924" stroke="white" stroke-miterlimit="10"/>
<path d="M186.693 398.587L154.459 378.435" stroke="white" stroke-miterlimit="10"/>
</g>
<mask id="mask2_1097_4046" style="mask-type:luminance" maskUnits="userSpaceOnUse" x="70" y="307" width="69" height="43">
<path d="M73.1573 308.394H136.191C137.428 308.394 138.43 309.396 138.43 310.633V346.797C138.43 348.033 137.428 349.036 136.191 349.036H73.1573C71.921 349.036 70.9188 348.033 70.9188 346.797V310.633C70.9188 309.396 71.921 308.394 73.1573 308.394Z" fill="white" stroke="white"/>
</mask>
<g mask="url(#mask2_1097_4046)">
<path d="M138.93 307.894H70.4188V349.536H138.93V307.894Z" fill="white" stroke="#1E386B" stroke-miterlimit="10"/>
<path d="M138.93 307.894L108.694 330.849C106.68 332.38 103.893 332.396 101.847 330.914L70.4027 307.91" stroke="#1E386B" stroke-miterlimit="10"/>
<path d="M100.639 330.076L65.715 351.565" stroke="#1E386B" stroke-miterlimit="10"/>
<path d="M140.944 350.228L108.694 330.076" stroke="#1E386B" stroke-miterlimit="10"/>
</g>
<path d="M133.872 307.894H75.477C72.6834 307.894 70.4188 310.159 70.4188 312.952V344.477C70.4188 347.271 72.6834 349.536 75.477 349.536H133.872C136.665 349.536 138.93 347.271 138.93 344.477V312.952C138.93 310.159 136.665 307.894 133.872 307.894Z" stroke="#1E386B" stroke-miterlimit="10"/>
<mask id="mask3_1097_4046" style="mask-type:luminance" maskUnits="userSpaceOnUse" x="46" y="290" width="70" height="43">
<path d="M50.186 291.415H112.092C113.64 291.415 114.895 292.67 114.895 294.218V329.254C114.895 330.802 113.64 332.057 112.092 332.057H50.186C48.6383 332.057 47.3837 330.802 47.3837 329.254V294.218C47.3837 292.67 48.6383 291.415 50.186 291.415Z" fill="white" stroke="white"/>
</mask>
<g mask="url(#mask3_1097_4046)">
<path d="M115.395 290.915H46.8837V332.557H115.395V290.915Z" fill="white" stroke="#1E386B" stroke-miterlimit="10"/>
<path d="M115.395 290.915L83.6925 314.966C82.5488 315.836 80.954 315.852 79.7941 314.998L46.8675 290.899" stroke="#1E386B" stroke-miterlimit="10"/>
<path d="M77.104 313.081L42.1799 334.571" stroke="#1E386B" stroke-miterlimit="10"/>
<path d="M117.408 333.234L85.1745 313.081" stroke="#1E386B" stroke-miterlimit="10"/>
</g>
<path d="M109.773 290.915H52.5057C49.4007 290.915 46.8837 293.432 46.8837 296.537V326.935C46.8837 330.04 49.4007 332.557 52.5057 332.557H109.773C112.878 332.557 115.395 330.04 115.395 326.935V296.537C115.395 293.432 112.878 290.915 109.773 290.915Z" stroke="#1E386B" stroke-miterlimit="10"/>
<path d="M457.564 50.1294L468.719 61.1748L483.3 36.4392" stroke="white" stroke-width="2" stroke-miterlimit="10"/>
<path d="M468.732 11.4297L477.256 19.885L488.397 0.973633" stroke="white" stroke-width="2" stroke-miterlimit="10"/>
<path d="M492.673 27.5455L498.223 33.0544L505.5 20.7346" stroke="white" stroke-width="2" stroke-miterlimit="10"/>
</svg>
