<svg width="365" height="263" viewBox="0 0 365 263" fill="none" xmlns="http://www.w3.org/2000/svg">
<path d="M157.128 0.0184815C157.128 0.0184815 105.032 2.31562 77.4383 56.7828C49.8449 111.25 21.3475 94.2474 4.5202 143.382C-12.307 192.517 21.6242 248.386 44.3742 254.448C67.115 260.5 326.923 254.448 326.923 254.448C326.923 254.448 361.251 230.978 363.944 170.016C366.638 109.054 315.483 88.6937 294.283 80.031C273.083 71.3682 240.406 -1.32844 157.128 0.0184815Z" fill="#F3F5F4"/>
<path d="M221.652 136.309C270.019 103.765 279.394 87.0579 303.262 83.9499C361.405 76.3808 318.801 226.677 185.665 258.79C122.406 274.047 44.0459 232.432 32.8409 200.096C22.0077 168.831 51.1763 157.106 94.2488 173.872C137.321 190.639 197.012 152.882 221.652 136.302V136.309Z" stroke="#BBBFBD" stroke-miterlimit="10"/>
<path d="M302.211 109.129C305.617 105.408 305.36 99.6306 301.639 96.2254C297.918 92.8203 292.141 93.0766 288.735 96.7979C285.33 100.519 285.587 106.296 289.308 109.701C293.029 113.107 298.806 112.85 302.211 109.129Z" fill="#D9D9D9"/>
<path d="M172.774 83.7672C177.818 83.7672 181.908 79.6781 181.908 74.6339C181.908 69.5898 177.818 65.5007 172.774 65.5007C167.73 65.5007 163.641 69.5898 163.641 74.6339C163.641 79.6781 167.73 83.7672 172.774 83.7672Z" stroke="#BBBFBD" stroke-miterlimit="10"/>
<path d="M146.915 111.139L137.653 124.036H155.264L146.915 111.139Z" stroke="#BBBFBD" stroke-linecap="round" stroke-linejoin="round"/>
<path d="M53.894 142.378C55.0041 137.657 52.0762 132.929 47.3545 131.819C42.6327 130.709 37.905 133.637 36.7949 138.358C35.6848 143.08 38.6127 147.808 43.3344 148.918C48.0562 150.028 52.7839 147.1 53.894 142.378Z" fill="#D9D9D9"/>
<g clip-path="url(#clip0_1122_2323)">
<path d="M326.163 164.38H262.437V250.777H326.163V164.38Z" fill="#24ADB2"/>
<path d="M319.601 164.38H255.875V250.777H319.601V164.38Z" fill="#26C6DA"/>
<path d="M303.666 155.613H239.94V250.764H303.666V155.613Z" fill="#E1543C"/>
<path d="M297.104 155.613H224.005V250.764H297.104V155.613Z" fill="#FF634D"/>
<path d="M297.117 155.613H284.616V250.764H297.117V155.613Z" fill="#EB594D"/>
<path d="M181.927 255.4L168.737 220.437H135.727L148.931 255.4" fill="#4F57A0"/>
<path d="M62.1904 227.372H249.816L253.091 209.731H65.4782" fill="#E2E7FF"/>
<path d="M82.0758 120.49L65.4648 209.731H253.091L269.317 122.549C269.967 119.082 267.302 115.881 263.789 115.881H87.604C84.8996 115.881 82.5663 117.82 82.0758 120.477V120.49Z" fill="#243FA7"/>
<path d="M340.839 262.042H18.4557C15.0089 262.042 12.2117 259.239 12.2117 255.785C12.2117 252.332 15.0089 249.529 18.4557 249.529H340.839C344.286 249.529 347.083 252.332 347.083 255.785C347.083 259.239 344.286 262.042 340.839 262.042Z" fill="#FFC757"/>
<path d="M240.881 194.428H140.91L153.412 129.324H253.369L240.881 194.428Z" fill="#2E60BE"/>
<path d="M108.789 151.853C108.431 153.713 109.863 155.453 111.758 155.453H220.585C222.03 155.453 223.276 154.417 223.554 152.996L225.158 144.654H110.181L108.802 151.853H108.789Z" fill="#26C6F8"/>
<path d="M233.802 80.5728H124.975C123.53 80.5728 122.284 81.6089 122.006 83.0302L110.181 144.667H225.158L236.772 84.1727C237.129 82.3129 235.698 80.5728 233.802 80.5728Z" fill="#CAE5FF"/>
<path d="M159.391 155.506C160.822 151.548 161.711 148.718 161.711 148.718C161.711 148.718 164.998 131.529 150.376 135.939C150.376 135.939 145.298 139.752 142.912 147.828C142.17 150.339 141.282 153.009 140.42 155.52H159.391V155.506Z" fill="#387AB6"/>
<path d="M189.683 155.506C189.418 147.031 188.887 140.23 187.973 138.397C185.282 133.469 174.318 128.979 174.318 128.979L159.324 131.224C159.324 131.224 153.054 133.017 151.039 137.507C150.363 139.008 148.719 146.341 146.982 155.506H189.683Z" fill="#DCE4FF"/>
<path d="M161.883 118.803C161.883 118.803 160.982 125.525 158.98 130.427C158.98 130.427 158.436 134.239 166.417 132.605C174.398 130.971 173.311 126.973 173.311 126.973V111.165L161.896 118.79L161.883 118.803Z" fill="#FF8D68"/>
<path d="M150.694 102.185C150.694 102.185 150.787 117.209 155.082 124.449C158.025 127.491 168.034 122.709 172.25 116.253C176.466 109.797 176.386 100.073 173.045 94.6668C169.705 89.2604 158.728 90.881 155.506 92.754C152.285 94.627 150.509 99.7944 150.681 102.185H150.694Z" fill="#FF8D68"/>
<path d="M170.924 110.674C170.924 110.674 173.748 106.303 175.644 108.907C177.54 111.511 170.991 116.824 170.487 114.805C169.983 112.786 170.924 110.674 170.924 110.674Z" fill="#FBA894"/>
<path d="M150.694 102.185C150.694 102.185 145.431 97.5493 151.781 91.5583C155.4 88.8352 157.216 90.8277 161.021 90.1104C164.826 89.3798 171.72 90.1104 174.252 94.1088C176.784 98.1072 175.882 107.366 175.153 108.269C174.424 109.173 172.25 109.717 172.25 111.351C172.25 112.985 171.892 114.26 171.348 114.26C170.805 114.26 170.805 111.537 170.805 109.531C170.805 107.525 170.447 103.713 169.532 100.99C168.631 98.2666 164.455 98.4526 162.824 98.8113C161.193 99.1699 160.106 103.354 150.681 102.172L150.694 102.185Z" fill="#713336"/>
<path opacity="0.53" d="M170.434 106.702C170.434 106.702 170.553 106.635 170.739 106.569V106.556L170.447 106.702H170.434Z" fill="#505E83"/>
<path d="M170.739 106.569C170.778 106.861 171.72 115.562 168.273 117.993C164.693 120.384 164.548 117.316 161.711 116.877C158.874 116.439 156.567 116.572 155.294 118.445C154.181 120.318 154.393 121.141 153.359 120.61C153.133 121.208 154.698 124.874 157.084 125.844C159.47 126.813 165.144 123.825 167.676 121.58C170.208 119.335 171.773 117.913 172.223 115.974C172.674 114.034 172.449 110.288 172.966 107.672C173.271 105.692 171.454 106.263 170.725 106.569H170.739ZM157.68 122.629C154.247 121.885 154.698 119.189 158.197 118.073C158.197 118.073 161.923 116.359 163.195 118.976C163.712 120.69 161.101 123.386 157.68 122.642V122.629Z" fill="#713336"/>
<path d="M173.311 125.844C173.311 125.844 168.949 131.343 161.79 132.007C160.332 131.449 159.55 128.753 159.55 128.753L158.436 130.44C158.436 130.44 157.879 133.801 158.436 135.156C159.112 135.262 161.565 133.588 161.565 133.588C161.565 133.588 163.248 135.939 164.468 136.391C165.701 136.843 173.536 131.569 174.318 128.992C174.318 128.992 174.265 127.146 173.311 125.857V125.844Z" fill="white"/>
<path d="M190.823 155.506C190.439 147.151 189.935 140.761 189.471 139.446C187.681 135.262 180.973 129.882 174.331 128.979C174.331 128.979 171.839 140.509 169.386 155.506H190.836H190.823Z" fill="#387AB6"/>
<path d="M152.192 155.506C155.705 140.549 158.423 131.675 158.423 131.675C156.408 131.901 152.829 133.469 150.363 135.939C149.024 138.623 146.956 146.314 144.808 155.506H152.192Z" fill="#387AB6"/>
<path d="M189.471 155.506C189.709 147.509 189.272 140.11 187.959 138.397C183.704 134.81 179.236 135.036 176.996 139.074C175.776 141.279 174.146 148.984 172.926 155.506H189.471Z" fill="#387AB6"/>
<path d="M161.565 133.575C160.292 138.756 159.245 143.989 158.29 149.237" stroke="#87B8EB" stroke-width="0.36" stroke-miterlimit="10"/>
<path d="M253.051 77.5306C249.949 89.9775 237.368 100.073 224.946 100.073C212.525 100.073 204.955 89.9775 208.057 77.5306C211.159 65.0837 223.74 54.988 236.162 54.988C248.583 54.988 256.153 65.0837 253.051 77.5306Z" fill="#6787FF"/>
<path d="M257.625 101.747C256.776 105.161 253.33 107.911 249.936 107.911C246.542 107.911 244.461 105.148 245.309 101.747C246.158 98.333 249.604 95.5833 252.998 95.5833C256.392 95.5833 258.473 98.3463 257.625 101.747Z" fill="#6787FF"/>
<path d="M224.747 88.9812C224.045 88.9812 223.395 88.7155 222.997 88.1709L217.178 80.4132C216.369 79.3372 216.806 77.5705 218.159 76.4945C219.511 75.4052 221.261 75.4052 222.07 76.4945L226.418 82.2995L241.942 69.8526C243.294 68.7633 245.044 68.7633 245.853 69.8526C246.661 70.9286 246.224 72.6953 244.871 73.7713L226.895 88.1842C226.219 88.7288 225.45 88.9945 224.734 88.9945L224.747 88.9812Z" fill="white"/>
<path d="M65.2264 39.9508H57.8687C56.026 39.9508 54.8992 38.4497 55.3632 36.6033L57.1926 29.2308C57.6566 27.3844 59.5259 25.8833 61.3686 25.8833H68.7262C70.5689 25.8833 71.6958 27.3844 71.2318 29.2308L69.4023 36.6033C68.9383 38.4497 67.0691 39.9508 65.2264 39.9508Z" fill="#BFD9FF"/>
<path d="M59.844 61.5636H52.4864C50.6437 61.5636 49.5169 60.0625 49.9809 58.2161L51.8103 50.8436C52.2743 48.9972 54.1435 47.4961 55.9863 47.4961H63.3439C65.1866 47.4961 66.3134 48.9972 65.8495 50.8436L64.02 58.2161C63.556 60.0625 61.6868 61.5636 59.844 61.5636Z" stroke="#A9A7E7" stroke-width="0.75" stroke-miterlimit="10"/>
<path d="M83.2559 61.5636H75.8983C74.0556 61.5636 72.9287 60.0625 73.3927 58.2161L75.2222 50.8436C75.6862 48.9972 77.5554 47.4961 79.3981 47.4961H86.7557C88.5985 47.4961 89.7253 48.9972 89.2613 50.8436L87.4319 58.2161C86.9679 60.0625 85.0986 61.5636 83.2559 61.5636Z" fill="#26C6DA"/>
<path d="M106.681 61.5636H99.3233C97.4806 61.5636 96.3538 60.0625 96.8178 58.2161L98.6472 50.8436C99.1112 48.9972 100.98 47.4961 102.823 47.4961H110.181C112.024 47.4961 113.15 48.9972 112.686 50.8436L110.857 58.2161C110.393 60.0625 108.524 61.5636 106.681 61.5636Z" fill="white"/>
<path d="M54.3423 83.681H46.9847C45.142 83.681 44.0152 82.18 44.4791 80.3335L46.3086 72.961C46.7726 71.1146 48.6418 69.6135 50.4846 69.6135H57.8422C59.6849 69.6135 60.8117 71.1146 60.3477 72.961L58.5183 80.3335C58.0543 82.18 56.1851 83.681 54.3423 83.681Z" fill="#26C6DA"/>
<path d="M48.4564 107.313H41.0987C39.256 107.313 38.1292 105.812 38.5932 103.965L40.4226 96.5929C40.8866 94.7464 42.7559 93.2454 44.5986 93.2454H51.9562C53.7989 93.2454 54.9258 94.7464 54.4618 96.5929L52.6323 103.965C52.1683 105.812 50.2991 107.313 48.4564 107.313Z" fill="white"/>
<path d="M77.7542 83.681H70.3966C68.5539 83.681 67.427 82.18 67.891 80.3335L69.7205 72.961C70.1845 71.1146 72.0537 69.6135 73.8964 69.6135H81.254C83.0968 69.6135 84.2236 71.1146 83.7596 72.961L81.9301 80.3335C81.4662 82.18 79.5969 83.681 77.7542 83.681Z" fill="#EDF4FF"/>
<path d="M67.4935 124.914H60.1358C58.2931 124.914 57.1663 123.413 57.6303 121.566L59.4597 114.194C59.9237 112.347 61.793 110.846 63.6357 110.846H70.9933C72.836 110.846 73.9629 112.347 73.4989 114.194L71.6694 121.566C71.2054 123.413 69.3362 124.914 67.4935 124.914Z" stroke="#A9A7E7" stroke-width="0.75" stroke-miterlimit="10"/>
<path d="M288.885 96.2739H286.18C285.504 96.2739 285.093 95.7293 285.252 95.0385L285.928 92.3287C286.101 91.6512 286.79 91.0933 287.466 91.0933H290.171C290.847 91.0933 291.258 91.6379 291.099 92.3287L290.422 95.0385C290.25 95.716 289.561 96.2739 288.885 96.2739Z" fill="#CAE5FF"/>
<path d="M286.91 104.204H284.205C283.529 104.204 283.118 103.66 283.277 102.969L283.953 100.259C284.126 99.5816 284.815 99.0237 285.491 99.0237H288.195C288.872 99.0237 289.283 99.5683 289.123 100.259L288.447 102.969C288.275 103.646 287.586 104.204 286.91 104.204Z" fill="#CAE5FF"/>
<path d="M295.5 104.204H292.796C292.12 104.204 291.709 103.66 291.868 102.969L292.544 100.259C292.716 99.5816 293.405 99.0237 294.082 99.0237H296.786C297.462 99.0237 297.873 99.5683 297.714 100.259L297.038 102.969C296.866 103.646 296.176 104.204 295.5 104.204Z" fill="#CAE5FF"/>
<path d="M304.104 104.204H301.399C300.723 104.204 300.312 103.66 300.471 102.969L301.148 100.259C301.32 99.5816 302.009 99.0237 302.685 99.0237H305.39C306.066 99.0237 306.477 99.5683 306.318 100.259L305.642 102.969C305.469 103.646 304.78 104.204 304.104 104.204Z" fill="#CAE5FF"/>
<path d="M284.881 112.321H282.177C281.501 112.321 281.09 111.776 281.249 111.085L281.925 108.376C282.097 107.698 282.787 107.14 283.463 107.14H286.167C286.843 107.14 287.254 107.685 287.095 108.376L286.419 111.085C286.247 111.763 285.557 112.321 284.881 112.321Z" fill="#CAE5FF"/>
<path d="M282.733 120.995H280.029C279.353 120.995 278.942 120.45 279.101 119.76L279.777 117.05C279.95 116.372 280.639 115.814 281.315 115.814H284.019C284.696 115.814 285.106 116.359 284.947 117.05L284.271 119.76C284.099 120.437 283.41 120.995 282.733 120.995Z" fill="#CAE5FF"/>
<path d="M293.485 112.321H290.781C290.104 112.321 289.693 111.776 289.853 111.085L290.529 108.376C290.701 107.698 291.39 107.14 292.066 107.14H294.771C295.447 107.14 295.858 107.685 295.699 108.376L295.023 111.085C294.85 111.763 294.161 112.321 293.485 112.321Z" fill="#CAE5FF"/>
<path d="M289.72 127.464H287.015C286.339 127.464 285.928 126.92 286.087 126.229L286.764 123.519C286.936 122.842 287.625 122.284 288.301 122.284H291.006C291.682 122.284 292.093 122.828 291.934 123.519L291.258 126.229C291.085 126.906 290.396 127.464 289.72 127.464Z" fill="#CAE5FF"/>
<path opacity="0.9" d="M288.01 198.838H199.188C198.26 198.838 197.571 197.948 197.809 197.045L206.095 165.124C206.254 164.499 206.824 164.061 207.474 164.061H296.295C297.223 164.061 297.913 164.951 297.674 165.854L289.388 197.775C289.229 198.4 288.659 198.838 288.01 198.838Z" fill="#BFD9FF"/>
<path d="M211.371 170.889H242.287" stroke="#A9C2FF" stroke-width="1.08" stroke-linecap="round" stroke-linejoin="round"/>
<path d="M208.998 185.182H239.9" stroke="#A9C2FF" stroke-width="1.08" stroke-linecap="round" stroke-linejoin="round"/>
<path d="M221.99 179.776H252.905" stroke="#A9C2FF" stroke-width="1.08" stroke-linecap="round" stroke-linejoin="round"/>
<path d="M210.589 175.645H219.856" stroke="#A9C2FF" stroke-width="1.08" stroke-linecap="round" stroke-linejoin="round"/>
<path d="M209.316 179.776H218.583" stroke="#A9C2FF" stroke-width="1.08" stroke-linecap="round" stroke-linejoin="round"/>
<path d="M247.192 170.889H258.208" stroke="#A9C2FF" stroke-width="1.08" stroke-linecap="round" stroke-linejoin="round"/>
<path d="M252.6 191.877H236.148C236.069 191.877 236.003 191.798 236.029 191.718L236.772 188.888C236.772 188.888 236.838 188.795 236.891 188.795H253.343C253.422 188.795 253.489 188.875 253.462 188.955L252.72 191.784C252.72 191.784 252.653 191.877 252.6 191.877Z" stroke="#84AEE5" stroke-width="0.36" stroke-miterlimit="10"/>
<path d="M232.145 191.877H215.693C215.614 191.877 215.547 191.798 215.574 191.718L216.316 188.888C216.316 188.888 216.382 188.795 216.436 188.795H232.887C232.967 188.795 233.033 188.875 233.007 188.955L232.264 191.784C232.264 191.784 232.198 191.877 232.145 191.877Z" stroke="#84AEE5" stroke-width="0.36" stroke-miterlimit="10"/>
<path d="M281.501 187.773C280.652 186.643 277.232 185.833 276.291 184.704C275.813 184.133 275.813 183.057 275.92 182.154C276.251 181.941 276.529 181.728 276.702 181.529C276.98 181.117 277.312 180.533 277.63 179.895C277.722 179.988 277.855 180.068 278.027 180.055C278.478 180.041 280.188 177.704 279.751 177.172C279.499 176.867 279.088 177.132 278.783 177.411C279.234 176.375 279.552 175.578 279.552 175.578H279.539C279.578 175.445 279.618 175.312 279.658 175.18C280.334 172.456 278.677 170.238 275.959 170.238C273.242 170.238 270.484 172.443 269.808 175.18C269.768 175.312 269.755 175.445 269.729 175.578H269.715C269.715 175.578 269.636 176.375 269.569 177.411C269.41 177.119 269.132 176.853 268.734 177.172C268.018 177.717 268.575 180.041 269.013 180.055C269.172 180.055 269.344 179.988 269.49 179.895C269.49 180.533 269.53 181.117 269.596 181.529C269.675 181.768 269.914 182.047 270.232 182.3C269.888 183.176 269.384 184.159 268.655 184.704C267.143 185.833 263.325 186.643 261.92 187.773C260.661 188.782 259.534 191.744 259.322 192.329H281.859C281.938 191.744 282.283 188.795 281.527 187.773H281.501Z" fill="#387AB6"/>
<path d="M167.583 187.454H94.6964C88.2933 187.454 84.409 182.26 85.9999 175.844C87.5907 169.428 94.0734 164.234 100.476 164.234H173.363C179.766 164.234 183.651 169.428 182.06 175.844C180.469 182.26 173.986 187.454 167.583 187.454Z" fill="white"/>
<path d="M102.439 178.873L99.3099 180.334C99.0182 180.467 98.7664 180.254 98.8857 179.962L100.185 176.88C100.238 176.761 100.225 176.641 100.158 176.561L98.4615 174.383C98.3024 174.183 98.5012 173.825 98.8061 173.772L102.001 173.32C102.12 173.307 102.24 173.227 102.319 173.121L104.401 170.318C104.599 170.052 104.971 170.052 105.037 170.318L105.726 173.121C105.753 173.227 105.832 173.293 105.938 173.32L108.921 173.772C109.2 173.812 109.226 174.17 108.961 174.383L106.177 176.561C106.071 176.641 106.005 176.761 105.991 176.88L105.753 179.962C105.726 180.254 105.368 180.467 105.143 180.334L102.743 178.873C102.651 178.82 102.531 178.82 102.412 178.873H102.439Z" fill="#FFA402"/>
<path d="M117.817 178.873L114.688 180.334C114.396 180.467 114.145 180.254 114.264 179.962L115.563 176.88C115.616 176.761 115.603 176.641 115.537 176.561L113.84 174.383C113.681 174.183 113.879 173.825 114.184 173.772L117.379 173.32C117.499 173.307 117.618 173.227 117.697 173.121L119.779 170.318C119.978 170.052 120.349 170.052 120.415 170.318L121.104 173.121C121.131 173.227 121.211 173.293 121.317 173.32L124.299 173.772C124.578 173.812 124.604 174.17 124.339 174.383L121.555 176.561C121.449 176.641 121.383 176.761 121.37 176.88L121.131 179.962C121.104 180.254 120.747 180.467 120.521 180.334L118.122 178.873C118.029 178.82 117.91 178.82 117.79 178.873H117.817Z" fill="#FFA402"/>
<path d="M133.208 178.873L130.079 180.334C129.788 180.467 129.536 180.254 129.655 179.962L130.954 176.88C131.007 176.761 130.994 176.641 130.928 176.561L129.231 174.383C129.072 174.183 129.271 173.825 129.576 173.772L132.771 173.32C132.89 173.307 133.009 173.227 133.089 173.121L135.17 170.318C135.369 170.052 135.74 170.052 135.806 170.318L136.496 173.121C136.522 173.227 136.602 173.293 136.708 173.32L139.691 173.772C139.969 173.812 139.996 174.17 139.731 174.383L136.947 176.561C136.84 176.641 136.774 176.761 136.761 176.88L136.522 179.962C136.496 180.254 136.138 180.467 135.912 180.334L133.513 178.873C133.42 178.82 133.301 178.82 133.182 178.873H133.208Z" fill="#FFA402"/>
<path d="M148.599 178.873L145.471 180.334C145.179 180.467 144.927 180.254 145.047 179.962L146.346 176.88C146.399 176.761 146.386 176.641 146.319 176.561L144.622 174.383C144.463 174.183 144.662 173.825 144.967 173.772L148.162 173.32C148.281 173.307 148.401 173.227 148.48 173.121L150.561 170.318C150.76 170.052 151.132 170.052 151.198 170.318L151.887 173.121C151.914 173.227 151.993 173.293 152.099 173.32L155.082 173.772C155.36 173.812 155.387 174.17 155.122 174.383L152.338 176.561C152.232 176.641 152.166 176.761 152.152 176.88L151.914 179.962C151.887 180.254 151.529 180.467 151.304 180.334L148.904 178.873C148.812 178.82 148.692 178.82 148.573 178.873H148.599Z" fill="#FFA402"/>
<path d="M163.977 178.873L160.849 180.334C160.557 180.467 160.305 180.254 160.424 179.962L161.724 176.88C161.777 176.761 161.763 176.641 161.697 176.561L160 174.383C159.841 174.183 160.04 173.825 160.345 173.772L163.54 173.32C163.659 173.307 163.779 173.227 163.858 173.121L165.939 170.318C166.138 170.052 166.509 170.052 166.576 170.318L167.265 173.121C167.292 173.227 167.371 173.293 167.477 173.32L170.46 173.772C170.738 173.812 170.765 174.17 170.5 174.383L167.716 176.561C167.61 176.641 167.543 176.761 167.53 176.88L167.292 179.962C167.265 180.254 166.907 180.467 166.682 180.334L164.282 178.873C164.189 178.82 164.07 178.82 163.951 178.873H163.977Z" fill="#C2D4D9"/>
<path d="M336.795 139.34H278.438C275.429 139.34 273.135 136.643 273.599 133.668L274.037 130.865C274.408 128.474 276.463 126.72 278.876 126.72H337.233C340.242 126.72 342.536 129.417 342.072 132.393L341.634 135.196C341.263 137.587 339.208 139.34 336.795 139.34Z" fill="#CAE5FF"/>
<path d="M280.877 133.136H331.254" stroke="white" stroke-width="2" stroke-miterlimit="10"/>
<path d="M124.233 66.7178H108.325C100.755 66.7178 93.3178 72.8682 91.7137 80.4399C90.1096 88.0249 94.9352 94.162 102.505 94.162H105.952C109.809 103.315 118.93 102.132 118.93 102.132C117.207 98.6918 116.836 95.942 116.849 94.162H118.413C125.983 94.162 133.42 88.0116 135.024 80.4399C136.628 72.8549 131.803 66.7178 124.233 66.7178Z" fill="#FF634D"/>
<path d="M101.564 77.7832H116.584" stroke="white" stroke-width="2" stroke-miterlimit="10"/>
<path d="M100.291 83.7607H124.71" stroke="white" stroke-width="2" stroke-miterlimit="10"/>
</g>
<defs>
<clipPath id="clip0_1122_2323">
<rect width="334.884" height="236.172" fill="white" transform="translate(12.2117 25.8701)"/>
</clipPath>
</defs>
</svg>
